<svg width="50" height="50" viewBox="0 0 50 50" fill="none" xmlns="http://www.w3.org/2000/svg">
<g clip-path="url(#clip0_226_1978)">
<path d="M40.4383 20.6675C41.1021 20.6675 41.6402 20.1294 41.6402 19.4656C41.6402 18.8018 41.1021 18.2636 40.4383 18.2636C39.7745 18.2636 39.2363 18.8018 39.2363 19.4656C39.2363 20.1294 39.7745 20.6675 40.4383 20.6675Z" fill="black"/>
<path d="M32.7195 20.6675C33.3833 20.6675 33.9215 20.1294 33.9215 19.4656C33.9215 18.8018 33.3833 18.2636 32.7195 18.2636C32.0557 18.2636 31.5176 18.8018 31.5176 19.4656C31.5176 20.1294 32.0557 20.6675 32.7195 20.6675Z" fill="black"/>
<path d="M25.0003 20.6675C25.6641 20.6675 26.2022 20.1294 26.2022 19.4656C26.2022 18.8018 25.6641 18.2636 25.0003 18.2636C24.3365 18.2636 23.7983 18.8018 23.7983 19.4656C23.7983 20.1294 24.3365 20.6675 25.0003 20.6675Z" fill="black"/>
<path d="M17.2811 20.6675C17.9449 20.6675 18.483 20.1294 18.483 19.4656C18.483 18.8018 17.9449 18.2636 17.2811 18.2636C16.6172 18.2636 16.0791 18.8018 16.0791 19.4656C16.0791 20.1294 16.6172 20.6675 17.2811 20.6675Z" fill="black"/>
<path d="M9.56182 20.6675C10.2256 20.6675 10.7638 20.1294 10.7638 19.4656C10.7638 18.8018 10.2256 18.2636 9.56182 18.2636C8.898 18.2636 8.35986 18.8018 8.35986 19.4656C8.35986 20.1294 8.898 20.6675 9.56182 20.6675Z" fill="black"/>
<path d="M40.4383 28.3868C41.1021 28.3868 41.6402 27.8487 41.6402 27.1848C41.6402 26.521 41.1021 25.9829 40.4383 25.9829C39.7745 25.9829 39.2363 26.521 39.2363 27.1848C39.2363 27.8487 39.7745 28.3868 40.4383 28.3868Z" fill="black"/>
<path d="M32.7195 28.3868C33.3833 28.3868 33.9215 27.8487 33.9215 27.1848C33.9215 26.521 33.3833 25.9829 32.7195 25.9829C32.0557 25.9829 31.5176 26.521 31.5176 27.1848C31.5176 27.8487 32.0557 28.3868 32.7195 28.3868Z" fill="black"/>
<path d="M25.0003 28.3868C25.6641 28.3868 26.2022 27.8487 26.2022 27.1848C26.2022 26.521 25.6641 25.9829 25.0003 25.9829C24.3365 25.9829 23.7983 26.521 23.7983 27.1848C23.7983 27.8487 24.3365 28.3868 25.0003 28.3868Z" fill="black"/>
<path d="M9.56182 28.3868C10.2256 28.3868 10.7638 27.8487 10.7638 27.1848C10.7638 26.521 10.2256 25.9829 9.56182 25.9829C8.898 25.9829 8.35986 26.521 8.35986 27.1848C8.35986 27.8487 8.898 28.3868 9.56182 28.3868Z" fill="black"/>
<path d="M40.4383 36.106C41.1021 36.106 41.6402 35.5679 41.6402 34.9041C41.6402 34.2402 41.1021 33.7021 40.4383 33.7021C39.7745 33.7021 39.2363 34.2402 39.2363 34.9041C39.2363 35.5679 39.7745 36.106 40.4383 36.106Z" fill="black"/>
<path d="M32.7195 36.106C33.3833 36.106 33.9215 35.5679 33.9215 34.9041C33.9215 34.2402 33.3833 33.7021 32.7195 33.7021C32.0557 33.7021 31.5176 34.2402 31.5176 34.9041C31.5176 35.5679 32.0557 36.106 32.7195 36.106Z" fill="black"/>
<path d="M25.0003 36.106C25.6641 36.106 26.2022 35.5679 26.2022 34.9041C26.2022 34.2402 25.6641 33.7021 25.0003 33.7021C24.3365 33.7021 23.7983 34.2402 23.7983 34.9041C23.7983 35.5679 24.3365 36.106 25.0003 36.106Z" fill="black"/>
<path d="M17.2811 36.1059C17.9449 36.1059 18.483 35.5678 18.483 34.904C18.483 34.2402 17.9449 33.702 17.2811 33.702C16.6172 33.702 16.0791 34.2402 16.0791 34.904C16.0791 35.5678 16.6172 36.1059 17.2811 36.1059Z" fill="black"/>
<path d="M9.56182 36.1059C10.2256 36.1059 10.7638 35.5678 10.7638 34.904C10.7638 34.2402 10.2256 33.702 9.56182 33.702C8.898 33.702 8.35986 34.2402 8.35986 34.904C8.35986 35.5678 8.898 36.1059 9.56182 36.1059Z" fill="black"/>
<path d="M20.9082 22.5244H13.6533C13.0826 22.5244 12.6201 22.9869 12.6201 23.5576V30.8126C12.6201 31.3833 13.0826 31.8458 13.6533 31.8458H20.9082C21.4789 31.8458 21.9414 31.3833 21.9414 30.8126V23.5578C21.9414 22.987 21.4788 22.5244 20.9082 22.5244ZM19.875 29.7793H14.6865V24.5909H19.8749V29.7793H19.875Z" fill="black"/>
<path d="M46.556 8.70252H38.9672V7.37644C38.9672 6.74236 38.4532 6.22839 37.8191 6.22839C37.1853 6.22839 36.6711 6.74246 36.6711 7.37644V8.70252H30.421V7.37644C30.421 6.74236 29.9069 6.22839 29.2729 6.22839C28.6389 6.22839 28.1249 6.74246 28.1249 7.37644V8.70252H21.875V7.37644C21.875 6.74236 21.361 6.22839 20.727 6.22839C20.0929 6.22839 19.5789 6.74246 19.5789 7.37644V8.70252H13.3288V7.37644C13.3288 6.74236 12.8148 6.22839 12.1808 6.22839C11.5467 6.22839 11.0327 6.74246 11.0327 7.37644V8.70252H3.44385C1.54502 8.70252 0 10.2474 0 12.1465V40.3274C0 42.2264 1.54502 43.7715 3.44404 43.7715H46.5561C48.4551 43.7715 50.0001 42.2264 50.0001 40.3274V12.1465C50 10.2474 48.4549 8.70252 46.556 8.70252ZM46.556 41.4756H3.44404C2.81103 41.4756 2.296 40.9605 2.296 40.3275V12.1465C2.296 11.5135 2.81103 10.9984 3.44404 10.9984H11.0328V12.3244C11.0328 12.9583 11.5468 13.4724 12.1809 13.4724C12.8149 13.4724 13.3289 12.9584 13.3289 12.3244V10.9984H19.579V12.3244C19.579 12.9583 20.093 13.4724 20.7271 13.4724C21.3611 13.4724 21.8751 12.9584 21.8751 12.3244V10.9984H28.125V12.3244C28.125 12.9583 28.639 13.4724 29.273 13.4724C29.9069 13.4724 30.4211 12.9584 30.4211 12.3244V10.9984H36.6712V12.3244C36.6712 12.9583 37.1853 13.4724 37.8192 13.4724C38.4533 13.4724 38.9673 12.9584 38.9673 12.3244V10.9984H46.5561C47.1891 10.9984 47.7041 11.5135 47.7041 12.1465V40.3274H47.7042C47.704 40.9605 47.189 41.4756 46.556 41.4756Z" fill="black"/>
</g>
<defs>
<clipPath id="clip0_226_1978">
<rect width="50" height="50" fill="white"/>
</clipPath>
</defs>
</svg>
