<svg width="295" height="194" viewBox="0 0 295 194" fill="none" xmlns="http://www.w3.org/2000/svg">
<path d="M12.4502 4.86C13.4902 4.86 14.4102 5.00667 15.2102 5.3C16.0235 5.58 16.7035 6.00667 17.2502 6.58C17.8102 7.15333 18.2368 7.86667 18.5302 8.72C18.8235 9.56 18.9702 10.54 18.9702 11.66C18.9702 13.26 18.6902 14.6067 18.1302 15.7C17.5702 16.78 16.7702 17.6 15.7302 18.16C14.6902 18.72 13.4502 19 12.0102 19H6.01016V17.28L7.81016 16.68L7.35016 17.34V6.6L7.83016 7.3L6.01016 6.68V4.96L10.9302 4.86H12.4502ZM12.1702 16.52C12.5168 16.52 12.8702 16.48 13.2302 16.4C13.5902 16.3067 13.9235 16.1133 14.2302 15.82C14.5368 15.5133 14.7835 15.0467 14.9702 14.42C15.1568 13.7933 15.2502 12.94 15.2502 11.86C15.2502 10.82 15.1568 9.99333 14.9702 9.38C14.7968 8.76667 14.5635 8.32 14.2702 8.04C13.9902 7.74667 13.6835 7.56 13.3502 7.48C13.0168 7.38667 12.6902 7.34 12.3702 7.34H10.3102L10.8302 6.82V17.04L10.3102 16.52H12.1702Z" fill="black"/>
<path d="M55.7644 8.46C55.7644 8.79333 55.891 9.07333 56.1444 9.3C56.3977 9.52667 56.731 9.72667 57.1444 9.9C57.571 10.06 58.0377 10.22 58.5444 10.38C59.0644 10.54 59.571 10.7333 60.0644 10.96C60.571 11.1733 61.031 11.4467 61.4444 11.78C61.871 12.1 62.211 12.5067 62.4644 13C62.731 13.4933 62.8644 14.0933 62.8644 14.8C62.8644 15.84 62.5977 16.6933 62.0644 17.36C61.531 18.0133 60.8177 18.5 59.9244 18.82C59.031 19.1267 58.051 19.28 56.9844 19.28C56.251 19.28 55.4977 19.2067 54.7244 19.06C53.951 18.9267 53.191 18.72 52.4444 18.44L52.5644 14.4H54.5444L55.0244 16.76L54.7044 16.22C55.0777 16.3933 55.4777 16.5267 55.9044 16.62C56.331 16.7133 56.7444 16.76 57.1444 16.76C57.571 16.76 57.9577 16.7067 58.3044 16.6C58.651 16.48 58.931 16.3133 59.1444 16.1C59.3577 15.8733 59.4644 15.5933 59.4644 15.26C59.4644 14.8867 59.3377 14.5867 59.0844 14.36C58.831 14.12 58.491 13.92 58.0644 13.76C57.651 13.5867 57.191 13.4267 56.6844 13.28C56.1777 13.1333 55.671 12.96 55.1644 12.76C54.671 12.5467 54.211 12.28 53.7844 11.96C53.371 11.64 53.0377 11.24 52.7844 10.76C52.531 10.2667 52.4044 9.65333 52.4044 8.92C52.4044 7.93333 52.6377 7.12667 53.1044 6.5C53.571 5.86 54.2044 5.38667 55.0044 5.08C55.8177 4.76 56.731 4.6 57.7444 4.6C58.451 4.6 59.1977 4.67333 59.9844 4.82C60.7844 4.96667 61.571 5.18667 62.3444 5.48L62.1244 9.2H60.0644L59.5844 7.12L59.9444 7.46C59.6377 7.35333 59.311 7.27333 58.9644 7.22C58.631 7.15333 58.291 7.12 57.9444 7.12C57.5577 7.12 57.1977 7.16667 56.8644 7.26C56.531 7.34 56.2644 7.48 56.0644 7.68C55.8644 7.88 55.7644 8.14 55.7644 8.46Z" fill="black"/>
<path d="M280.764 8.46C280.764 8.79333 280.891 9.07333 281.144 9.3C281.398 9.52667 281.731 9.72667 282.144 9.9C282.571 10.06 283.038 10.22 283.544 10.38C284.064 10.54 284.571 10.7333 285.064 10.96C285.571 11.1733 286.031 11.4467 286.444 11.78C286.871 12.1 287.211 12.5067 287.464 13C287.731 13.4933 287.864 14.0933 287.864 14.8C287.864 15.84 287.598 16.6933 287.064 17.36C286.531 18.0133 285.818 18.5 284.924 18.82C284.031 19.1267 283.051 19.28 281.984 19.28C281.251 19.28 280.498 19.2067 279.724 19.06C278.951 18.9267 278.191 18.72 277.444 18.44L277.564 14.4H279.544L280.024 16.76L279.704 16.22C280.078 16.3933 280.478 16.5267 280.904 16.62C281.331 16.7133 281.744 16.76 282.144 16.76C282.571 16.76 282.958 16.7067 283.304 16.6C283.651 16.48 283.931 16.3133 284.144 16.1C284.358 15.8733 284.464 15.5933 284.464 15.26C284.464 14.8867 284.338 14.5867 284.084 14.36C283.831 14.12 283.491 13.92 283.064 13.76C282.651 13.5867 282.191 13.4267 281.684 13.28C281.178 13.1333 280.671 12.96 280.164 12.76C279.671 12.5467 279.211 12.28 278.784 11.96C278.371 11.64 278.038 11.24 277.784 10.76C277.531 10.2667 277.404 9.65333 277.404 8.92C277.404 7.93333 277.638 7.12667 278.104 6.5C278.571 5.86 279.204 5.38667 280.004 5.08C280.818 4.76 281.731 4.6 282.744 4.6C283.451 4.6 284.198 4.67333 284.984 4.82C285.784 4.96667 286.571 5.18667 287.344 5.48L287.124 9.2H285.064L284.584 7.12L284.944 7.46C284.638 7.35333 284.311 7.27333 283.964 7.22C283.631 7.15333 283.291 7.12 282.944 7.12C282.558 7.12 282.198 7.16667 281.864 7.26C281.531 7.34 281.264 7.48 281.064 7.68C280.864 7.88 280.764 8.14 280.764 8.46Z" fill="black"/>
<path d="M235.764 8.46C235.764 8.79333 235.891 9.07333 236.144 9.3C236.398 9.52667 236.731 9.72667 237.144 9.9C237.571 10.06 238.038 10.22 238.544 10.38C239.064 10.54 239.571 10.7333 240.064 10.96C240.571 11.1733 241.031 11.4467 241.444 11.78C241.871 12.1 242.211 12.5067 242.464 13C242.731 13.4933 242.864 14.0933 242.864 14.8C242.864 15.84 242.598 16.6933 242.064 17.36C241.531 18.0133 240.818 18.5 239.924 18.82C239.031 19.1267 238.051 19.28 236.984 19.28C236.251 19.28 235.498 19.2067 234.724 19.06C233.951 18.9267 233.191 18.72 232.444 18.44L232.564 14.4H234.544L235.024 16.76L234.704 16.22C235.078 16.3933 235.478 16.5267 235.904 16.62C236.331 16.7133 236.744 16.76 237.144 16.76C237.571 16.76 237.958 16.7067 238.304 16.6C238.651 16.48 238.931 16.3133 239.144 16.1C239.358 15.8733 239.464 15.5933 239.464 15.26C239.464 14.8867 239.338 14.5867 239.084 14.36C238.831 14.12 238.491 13.92 238.064 13.76C237.651 13.5867 237.191 13.4267 236.684 13.28C236.178 13.1333 235.671 12.96 235.164 12.76C234.671 12.5467 234.211 12.28 233.784 11.96C233.371 11.64 233.038 11.24 232.784 10.76C232.531 10.2667 232.404 9.65333 232.404 8.92C232.404 7.93333 232.638 7.12667 233.104 6.5C233.571 5.86 234.204 5.38667 235.004 5.08C235.818 4.76 236.731 4.6 237.744 4.6C238.451 4.6 239.198 4.67333 239.984 4.82C240.784 4.96667 241.571 5.18667 242.344 5.48L242.124 9.2H240.064L239.584 7.12L239.944 7.46C239.638 7.35333 239.311 7.27333 238.964 7.22C238.631 7.15333 238.291 7.12 237.944 7.12C237.558 7.12 237.198 7.16667 236.864 7.26C236.531 7.34 236.264 7.48 236.064 7.68C235.864 7.88 235.764 8.14 235.764 8.46Z" fill="black"/>
<path d="M99.21 19V17.28L101.37 16.66L100.77 17.52V6.82L101.45 7.34H98.47L99.23 6.68L98.65 9.2H96.59V4.86H108.41V9.2H106.37L105.81 6.82L106.55 7.34H103.55L104.25 6.82V17.52L103.67 16.66L105.79 17.28V19H99.21Z" fill="black"/>
<path d="M153.355 23.06C152.835 23.06 152.275 22.92 151.675 22.64C151.075 22.36 150.355 21.92 149.515 21.32C148.675 20.72 147.622 19.9467 146.355 19L147.115 19.26C145.795 19.2467 144.669 18.9667 143.735 18.42C142.802 17.8733 142.082 17.0733 141.575 16.02C141.082 14.9533 140.835 13.6533 140.835 12.12C140.835 10.88 140.995 9.79333 141.315 8.86C141.635 7.92667 142.089 7.14667 142.675 6.52C143.275 5.88 143.995 5.4 144.835 5.08C145.675 4.76 146.609 4.6 147.635 4.6C148.675 4.6 149.595 4.75333 150.395 5.06C151.209 5.36667 151.889 5.82 152.435 6.42C152.995 7.02 153.422 7.76 153.715 8.64C154.009 9.50667 154.155 10.5067 154.155 11.64C154.155 12.92 153.962 14.0667 153.575 15.08C153.202 16.08 152.655 16.9133 151.935 17.58C151.215 18.2333 150.355 18.6933 149.355 18.96L149.455 18.58C150.135 18.9933 150.709 19.3267 151.175 19.58C151.655 19.8467 152.069 20.04 152.415 20.16C152.762 20.28 153.089 20.34 153.395 20.34C153.742 20.34 154.082 20.2733 154.415 20.14C154.749 20.0067 155.129 19.82 155.555 19.58L156.755 21.68C156.035 22.12 155.415 22.46 154.895 22.7C154.375 22.94 153.862 23.06 153.355 23.06ZM144.575 12.02C144.575 13.1267 144.675 14.02 144.875 14.7C145.089 15.38 145.409 15.8733 145.835 16.18C146.262 16.4733 146.795 16.62 147.435 16.62C148.115 16.62 148.675 16.46 149.115 16.14C149.555 15.82 149.882 15.3067 150.095 14.6C150.322 13.8933 150.435 12.9533 150.435 11.78C150.435 10.6733 150.322 9.78667 150.095 9.12C149.882 8.45333 149.562 7.97333 149.135 7.68C148.709 7.38667 148.162 7.24 147.495 7.24C146.842 7.24 146.295 7.4 145.855 7.72C145.429 8.02667 145.109 8.52667 144.895 9.22C144.682 9.91333 144.575 10.8467 144.575 12.02Z" fill="black"/>
<path d="M198.355 23.06C197.835 23.06 197.275 22.92 196.675 22.64C196.075 22.36 195.355 21.92 194.515 21.32C193.675 20.72 192.622 19.9467 191.355 19L192.115 19.26C190.795 19.2467 189.669 18.9667 188.735 18.42C187.802 17.8733 187.082 17.0733 186.575 16.02C186.082 14.9533 185.835 13.6533 185.835 12.12C185.835 10.88 185.995 9.79333 186.315 8.86C186.635 7.92667 187.089 7.14667 187.675 6.52C188.275 5.88 188.995 5.4 189.835 5.08C190.675 4.76 191.609 4.6 192.635 4.6C193.675 4.6 194.595 4.75333 195.395 5.06C196.209 5.36667 196.889 5.82 197.435 6.42C197.995 7.02 198.422 7.76 198.715 8.64C199.009 9.50667 199.155 10.5067 199.155 11.64C199.155 12.92 198.962 14.0667 198.575 15.08C198.202 16.08 197.655 16.9133 196.935 17.58C196.215 18.2333 195.355 18.6933 194.355 18.96L194.455 18.58C195.135 18.9933 195.709 19.3267 196.175 19.58C196.655 19.8467 197.069 20.04 197.415 20.16C197.762 20.28 198.089 20.34 198.395 20.34C198.742 20.34 199.082 20.2733 199.415 20.14C199.749 20.0067 200.129 19.82 200.555 19.58L201.755 21.68C201.035 22.12 200.415 22.46 199.895 22.7C199.375 22.94 198.862 23.06 198.355 23.06ZM189.575 12.02C189.575 13.1267 189.675 14.02 189.875 14.7C190.089 15.38 190.409 15.8733 190.835 16.18C191.262 16.4733 191.795 16.62 192.435 16.62C193.115 16.62 193.675 16.46 194.115 16.14C194.555 15.82 194.882 15.3067 195.095 14.6C195.322 13.8933 195.435 12.9533 195.435 11.78C195.435 10.6733 195.322 9.78667 195.095 9.12C194.882 8.45333 194.562 7.97333 194.135 7.68C193.709 7.38667 193.162 7.24 192.495 7.24C191.842 7.24 191.295 7.4 190.855 7.72C190.429 8.02667 190.109 8.52667 189.895 9.22C189.682 9.91333 189.575 10.8467 189.575 12.02Z" fill="black"/>
<path d="M59.4315 51.86L58.9515 51.22L61.5915 51.74V53H54.3315V51.74L57.4715 51.24L56.9715 51.86V41L57.6515 41.04L54.2715 42.94L53.4715 41.44L57.3915 38.88H59.4315V51.86Z" fill="black"/>
<path d="M97.6936 53V50.92C99.2269 49.6133 100.487 48.4867 101.474 47.54C102.474 46.58 103.214 45.7267 103.694 44.98C104.174 44.22 104.414 43.48 104.414 42.76C104.414 42.0267 104.174 41.48 103.694 41.12C103.214 40.76 102.607 40.58 101.874 40.58C101.527 40.58 101.147 40.62 100.734 40.7C100.334 40.78 99.9203 40.8933 99.4936 41.04L99.7736 40.62L99.4536 42.92H97.9736L97.7736 39.5C98.5736 39.2467 99.3536 39.06 100.114 38.94C100.887 38.8067 101.607 38.74 102.274 38.74C103.194 38.74 104.007 38.8667 104.714 39.12C105.434 39.3733 105.994 39.7733 106.394 40.32C106.794 40.8533 106.994 41.5533 106.994 42.42C106.994 43.38 106.74 44.3133 106.234 45.22C105.74 46.1267 105.014 47.0733 104.054 48.06C103.094 49.0467 101.914 50.14 100.514 51.34V51.06H107.314V53H97.6936Z" fill="black"/>
<path d="M146.798 53.22C146.038 53.22 145.278 53.1267 144.518 52.94C143.758 52.7533 143.044 52.4733 142.378 52.1L143.018 50.36C143.618 50.6533 144.231 50.8867 144.858 51.06C145.498 51.22 146.118 51.3 146.718 51.3C147.291 51.3 147.804 51.2133 148.258 51.04C148.711 50.8667 149.064 50.6 149.318 50.24C149.584 49.88 149.718 49.4267 149.718 48.88C149.718 48.4133 149.611 48.0067 149.398 47.66C149.184 47.3133 148.858 47.0467 148.418 46.86C147.978 46.6733 147.404 46.58 146.698 46.58H144.958V44.82H146.638C147.558 44.82 148.251 44.6333 148.718 44.26C149.198 43.8867 149.438 43.3467 149.438 42.64C149.438 41.88 149.191 41.34 148.698 41.02C148.218 40.6867 147.604 40.52 146.858 40.52C146.431 40.52 146.004 40.5667 145.578 40.66C145.151 40.74 144.731 40.8467 144.318 40.98L144.638 40.64L144.398 42.82H142.918L142.758 39.54C143.544 39.2867 144.331 39.0933 145.118 38.96C145.904 38.8133 146.658 38.74 147.378 38.74C148.244 38.74 149.018 38.86 149.698 39.1C150.391 39.3267 150.938 39.6933 151.338 40.2C151.738 40.7067 151.938 41.3867 151.938 42.24C151.938 43.2533 151.638 44.0467 151.038 44.62C150.438 45.1933 149.578 45.5533 148.458 45.7L148.378 45.5C149.684 45.58 150.651 45.92 151.278 46.52C151.904 47.1067 152.218 47.92 152.218 48.96C152.218 49.6933 152.071 50.3267 151.778 50.86C151.498 51.3933 151.104 51.84 150.598 52.2C150.104 52.5467 149.531 52.8067 148.878 52.98C148.224 53.14 147.531 53.22 146.798 53.22Z" fill="black"/>
<path d="M193.614 49.26L194.234 49.76H186.954L186.674 48.06L193.194 38.72L196.074 38.96V48.32L195.454 47.86H198.254V49.76H195.454L196.074 49.26V53H193.614V49.26ZM194.274 47.86L193.654 48.32V40.12L194.474 40.26L188.634 48.74L188.154 47.86H194.274Z" fill="black"/>
<path d="M237.09 53.2C235.677 53.2 234.23 52.8533 232.75 52.16L233.41 50.44C233.984 50.6933 234.55 50.8933 235.11 51.04C235.684 51.1867 236.224 51.26 236.73 51.26C237.304 51.26 237.804 51.16 238.23 50.96C238.67 50.76 239.01 50.4667 239.25 50.08C239.49 49.68 239.61 49.2067 239.61 48.66C239.61 48.0067 239.43 47.5067 239.07 47.16C238.71 46.8133 238.184 46.5733 237.49 46.44C236.81 46.3067 235.97 46.24 234.97 46.24H233.59L233.87 38.96H241.57L241.53 40.86H235.59L236.27 40.42L236.05 44.98L235.41 44.44H236.61C237.93 44.44 238.997 44.6067 239.81 44.94C240.637 45.26 241.237 45.7267 241.61 46.34C241.997 46.9533 242.19 47.6867 242.19 48.54C242.19 49.5533 241.97 50.4067 241.53 51.1C241.09 51.78 240.484 52.3 239.71 52.66C238.95 53.02 238.077 53.2 237.09 53.2Z" fill="black"/>
<path d="M279.742 47.28L279.642 45.62C280.228 45.2467 280.848 44.9533 281.502 44.74C282.168 44.5267 282.842 44.42 283.522 44.42C284.308 44.42 285.015 44.5733 285.642 44.88C286.282 45.1867 286.795 45.6467 287.182 46.26C287.568 46.8733 287.762 47.64 287.762 48.56C287.762 49.5333 287.542 50.3667 287.102 51.06C286.662 51.7533 286.062 52.2867 285.302 52.66C284.555 53.0333 283.702 53.22 282.742 53.22C281.742 53.22 280.848 53 280.062 52.56C279.275 52.12 278.655 51.4333 278.202 50.5C277.748 49.5667 277.522 48.3533 277.522 46.86C277.522 45.18 277.802 43.7333 278.362 42.52C278.935 41.3067 279.735 40.3733 280.762 39.72C281.802 39.0667 283.008 38.74 284.382 38.74C285.128 38.74 285.915 38.8467 286.742 39.06L286.562 40.84C286.215 40.76 285.882 40.7067 285.562 40.68C285.242 40.6533 284.948 40.64 284.682 40.64C283.602 40.64 282.722 40.8867 282.042 41.38C281.362 41.8733 280.855 42.5867 280.522 43.52C280.202 44.44 280.042 45.5733 280.042 46.92C280.042 48.4133 280.262 49.52 280.702 50.24C281.155 50.96 281.835 51.32 282.742 51.32C283.502 51.32 284.102 51.0933 284.542 50.64C284.995 50.1733 285.222 49.5133 285.222 48.66C285.222 48.0867 285.108 47.62 284.882 47.26C284.668 46.8867 284.375 46.6133 284.002 46.44C283.642 46.2533 283.222 46.16 282.742 46.16C282.262 46.16 281.762 46.2533 281.242 46.44C280.722 46.6267 280.222 46.9067 279.742 47.28Z" fill="black"/>
<path d="M17.4563 74.7L12.1963 87H9.47633L14.9363 74.54L15.2963 74.92H9.07633L9.61633 74.54L9.13633 76.94H7.65633V72.96H17.4563V74.7Z" fill="black"/>
<path d="M57.2844 87.22C56.6577 87.22 56.051 87.14 55.4644 86.98C54.891 86.82 54.371 86.58 53.9044 86.26C53.4377 85.9267 53.071 85.5267 52.8044 85.06C52.5377 84.5933 52.4044 84.0467 52.4044 83.42C52.4044 82.9 52.5044 82.4267 52.7044 82C52.9044 81.56 53.1777 81.18 53.5244 80.86C53.871 80.54 54.2577 80.2733 54.6844 80.06C55.1244 79.8467 55.5777 79.6867 56.0444 79.58L57.4844 80.3C57.1777 80.38 56.8644 80.5 56.5444 80.66C56.2244 80.8067 55.931 80.9933 55.6644 81.22C55.411 81.4467 55.1977 81.7133 55.0244 82.02C54.8644 82.3267 54.7844 82.68 54.7844 83.08C54.7844 83.56 54.8977 83.98 55.1244 84.34C55.3644 84.7 55.6844 84.98 56.0844 85.18C56.4844 85.3667 56.9377 85.46 57.4444 85.46C57.9644 85.46 58.4244 85.36 58.8244 85.16C59.2377 84.9467 59.5577 84.6667 59.7844 84.32C60.0244 83.96 60.1444 83.56 60.1444 83.12C60.1444 82.6267 60.011 82.2267 59.7444 81.92C59.491 81.6 59.1444 81.3333 58.7044 81.12C58.2644 80.8933 57.7777 80.6933 57.2444 80.52C56.7244 80.3467 56.2044 80.16 55.6844 79.96C55.1644 79.76 54.6844 79.52 54.2444 79.24C53.8044 78.9467 53.451 78.5867 53.1844 78.16C52.9177 77.7333 52.7844 77.2 52.7844 76.56C52.7844 75.6933 53.0177 74.98 53.4844 74.42C53.951 73.86 54.551 73.44 55.2844 73.16C56.031 72.88 56.8244 72.74 57.6644 72.74C58.4777 72.74 59.231 72.8733 59.9244 73.14C60.631 73.3933 61.1977 73.7867 61.6244 74.32C62.051 74.8533 62.2644 75.52 62.2644 76.32C62.2644 76.8133 62.171 77.2533 61.9844 77.64C61.811 78.0133 61.5577 78.3333 61.2244 78.6C60.9044 78.8667 60.5444 79.0933 60.1444 79.28C59.7444 79.4533 59.3177 79.5933 58.8644 79.7L57.1244 78.94C57.511 78.8867 57.871 78.8 58.2044 78.68C58.5377 78.5467 58.831 78.38 59.0844 78.18C59.351 77.98 59.5577 77.74 59.7044 77.46C59.851 77.18 59.9244 76.86 59.9244 76.5C59.9244 76.06 59.8177 75.6933 59.6044 75.4C59.391 75.0933 59.1044 74.8667 58.7444 74.72C58.3844 74.56 57.991 74.48 57.5644 74.48C57.1377 74.48 56.7444 74.56 56.3844 74.72C56.0244 74.8667 55.731 75.0867 55.5044 75.38C55.2777 75.66 55.1644 76.0133 55.1644 76.44C55.1644 76.9067 55.2977 77.2933 55.5644 77.6C55.831 77.9067 56.1844 78.1667 56.6244 78.38C57.0644 78.58 57.5444 78.7667 58.0644 78.94C58.5977 79.1133 59.1244 79.3 59.6444 79.5C60.1644 79.7 60.6444 79.9467 61.0844 80.24C61.5244 80.5333 61.8777 80.9 62.1444 81.34C62.411 81.78 62.5444 82.3333 62.5444 83C62.5444 83.68 62.391 84.2867 62.0844 84.82C61.791 85.3533 61.391 85.7933 60.8844 86.14C60.391 86.4867 59.831 86.7533 59.2044 86.94C58.5777 87.1267 57.9377 87.22 57.2844 87.22Z" fill="black"/>
<path d="M105.251 78.64L105.371 80.3C104.785 80.6733 104.158 80.9733 103.491 81.2C102.825 81.4267 102.145 81.54 101.451 81.54C100.651 81.54 99.9313 81.38 99.2913 81.06C98.6647 80.74 98.1713 80.2733 97.8113 79.66C97.4513 79.0467 97.2647 78.3067 97.2513 77.44C97.238 76.4533 97.4447 75.6133 97.8713 74.92C98.3113 74.2133 98.9113 73.6733 99.6713 73.3C100.431 72.9267 101.298 72.74 102.271 72.74C103.271 72.74 104.165 72.96 104.951 73.4C105.738 73.8267 106.351 74.5133 106.791 75.46C107.245 76.3933 107.471 77.6133 107.471 79.12C107.471 80.76 107.191 82.1867 106.631 83.4C106.071 84.6133 105.278 85.5533 104.251 86.22C103.225 86.8867 102.011 87.22 100.611 87.22C99.8647 87.22 99.078 87.1133 98.2513 86.9L98.4313 85.14C98.778 85.2067 99.1113 85.26 99.4313 85.3C99.7513 85.3267 100.038 85.34 100.291 85.34C101.385 85.34 102.271 85.0933 102.951 84.6C103.645 84.1067 104.151 83.3933 104.471 82.46C104.791 81.5133 104.951 80.3733 104.951 79.04C104.951 77.5467 104.725 76.44 104.271 75.72C103.831 75 103.158 74.64 102.251 74.64C101.491 74.64 100.885 74.8733 100.431 75.34C99.9913 75.8067 99.7713 76.4533 99.7713 77.28C99.7713 77.8667 99.878 78.3467 100.091 78.72C100.318 79.0933 100.611 79.3733 100.971 79.56C101.345 79.7333 101.758 79.82 102.211 79.82C102.718 79.82 103.231 79.72 103.751 79.52C104.271 79.32 104.771 79.0267 105.251 78.64Z" fill="black"/>
<path d="M143.064 85.86L142.584 85.22L145.224 85.74V87H137.964V85.74L141.104 85.24L140.604 85.86V75L141.284 75.04L137.904 76.94L137.104 75.44L141.024 72.88H143.064V85.86ZM151.641 87.22C150.428 87.22 149.435 86.96 148.661 86.44C147.888 85.9067 147.321 85.1133 146.961 84.06C146.601 83.0067 146.421 81.6867 146.421 80.1C146.421 78.4733 146.608 77.1133 146.981 76.02C147.368 74.9267 147.961 74.1067 148.761 73.56C149.575 73.0133 150.621 72.74 151.901 72.74C153.168 72.74 154.175 73 154.921 73.52C155.668 74.0267 156.201 74.8 156.521 75.84C156.855 76.8667 157.021 78.16 157.021 79.72C157.021 81.36 156.828 82.74 156.441 83.86C156.068 84.98 155.481 85.82 154.681 86.38C153.895 86.94 152.881 87.22 151.641 87.22ZM151.701 85.34C152.381 85.34 152.921 85.1467 153.321 84.76C153.721 84.36 154.008 83.7533 154.181 82.94C154.368 82.1133 154.461 81.0867 154.461 79.86C154.475 78.6067 154.395 77.6 154.221 76.84C154.048 76.0667 153.761 75.5067 153.361 75.16C152.975 74.8 152.461 74.62 151.821 74.62C151.128 74.62 150.568 74.82 150.141 75.22C149.728 75.6067 149.428 76.2 149.241 77C149.055 77.8 148.961 78.8067 148.961 80.02C148.961 81.2333 149.048 82.2333 149.221 83.02C149.408 83.7933 149.701 84.3733 150.101 84.76C150.515 85.1467 151.048 85.34 151.701 85.34Z" fill="black"/>
<path d="M190.203 85.86L189.723 85.22L192.363 85.74V87H185.103V85.74L188.243 85.24L187.743 85.86V75L188.423 75.04L185.043 76.94L184.243 75.44L188.163 72.88H190.203V85.86ZM198.66 85.86L198.18 85.22L200.82 85.74V87H193.56V85.74L196.7 85.24L196.2 85.86V75L196.88 75.04L193.5 76.94L192.7 75.44L196.62 72.88H198.66V85.86Z" fill="black"/>
<path d="M233.865 85.86L233.385 85.22L236.025 85.74V87H228.765V85.74L231.905 85.24L231.405 85.86V75L232.085 75.04L228.705 76.94L227.905 75.44L231.825 72.88H233.865V85.86ZM236.922 87V84.92C238.455 83.6133 239.715 82.4867 240.702 81.54C241.702 80.58 242.442 79.7267 242.922 78.98C243.402 78.22 243.642 77.48 243.642 76.76C243.642 76.0267 243.402 75.48 242.922 75.12C242.442 74.76 241.835 74.58 241.102 74.58C240.755 74.58 240.375 74.62 239.962 74.7C239.562 74.78 239.149 74.8933 238.722 75.04L239.002 74.62L238.682 76.92H237.202L237.002 73.5C237.802 73.2467 238.582 73.06 239.342 72.94C240.115 72.8067 240.835 72.74 241.502 72.74C242.422 72.74 243.235 72.8667 243.942 73.12C244.662 73.3733 245.222 73.7733 245.622 74.32C246.022 74.8533 246.222 75.5533 246.222 76.42C246.222 77.38 245.969 78.3133 245.462 79.22C244.969 80.1267 244.242 81.0733 243.282 82.06C242.322 83.0467 241.142 84.14 239.742 85.34V85.06H246.542V87H236.922Z" fill="black"/>
<path d="M278.689 85.86L278.209 85.22L280.849 85.74V87H273.589V85.74L276.729 85.24L276.229 85.86V75L276.909 75.04L273.529 76.94L272.729 75.44L276.649 72.88H278.689V85.86ZM286.026 87.22C285.266 87.22 284.506 87.1267 283.746 86.94C282.986 86.7533 282.273 86.4733 281.606 86.1L282.246 84.36C282.846 84.6533 283.46 84.8867 284.086 85.06C284.726 85.22 285.346 85.3 285.946 85.3C286.52 85.3 287.033 85.2133 287.486 85.04C287.94 84.8667 288.293 84.6 288.546 84.24C288.813 83.88 288.946 83.4267 288.946 82.88C288.946 82.4133 288.84 82.0067 288.626 81.66C288.413 81.3133 288.086 81.0467 287.646 80.86C287.206 80.6733 286.633 80.58 285.926 80.58H284.186V78.82H285.866C286.786 78.82 287.48 78.6333 287.946 78.26C288.426 77.8867 288.666 77.3467 288.666 76.64C288.666 75.88 288.42 75.34 287.926 75.02C287.446 74.6867 286.833 74.52 286.086 74.52C285.66 74.52 285.233 74.5667 284.806 74.66C284.38 74.74 283.96 74.8467 283.546 74.98L283.866 74.64L283.626 76.82H282.146L281.986 73.54C282.773 73.2867 283.56 73.0933 284.346 72.96C285.133 72.8133 285.886 72.74 286.606 72.74C287.473 72.74 288.246 72.86 288.926 73.1C289.62 73.3267 290.166 73.6933 290.566 74.2C290.966 74.7067 291.166 75.3867 291.166 76.24C291.166 77.2533 290.866 78.0467 290.266 78.62C289.666 79.1933 288.806 79.5533 287.686 79.7L287.606 79.5C288.913 79.58 289.88 79.92 290.506 80.52C291.133 81.1067 291.446 81.92 291.446 82.96C291.446 83.6933 291.3 84.3267 291.006 84.86C290.726 85.3933 290.333 85.84 289.826 86.2C289.333 86.5467 288.76 86.8067 288.106 86.98C287.453 87.14 286.76 87.22 286.026 87.22Z" fill="black"/>
<path d="M8.42563 119.86L7.94563 119.22L10.5856 119.74V121H3.32563V119.74L6.46563 119.24L5.96563 119.86V109L6.64563 109.04L3.26563 110.94L2.46563 109.44L6.38563 106.88H8.42563V119.86ZM17.8427 117.26L18.4627 117.76H11.1827L10.9027 116.06L17.4227 106.72L20.3027 106.96V116.32L19.6827 115.86H22.4827V117.76H19.6827L20.3027 117.26V121H17.8427V117.26ZM18.5027 115.86L17.8827 116.32V108.12L18.7027 108.26L12.8627 116.74L12.3827 115.86H18.5027Z" fill="black"/>
<path d="M54.0018 119.86L53.5218 119.22L56.1618 119.74V121H48.9018V119.74L52.0418 119.24L51.5418 119.86V109L52.2218 109.04L48.8418 110.94L48.0418 109.44L51.9618 106.88H54.0018V119.86ZM61.3188 121.2C59.9055 121.2 58.4588 120.853 56.9788 120.16L57.6388 118.44C58.2122 118.693 58.7788 118.893 59.3388 119.04C59.9122 119.187 60.4522 119.26 60.9588 119.26C61.5322 119.26 62.0322 119.16 62.4588 118.96C62.8988 118.76 63.2388 118.467 63.4788 118.08C63.7188 117.68 63.8388 117.207 63.8388 116.66C63.8388 116.007 63.6588 115.507 63.2988 115.16C62.9388 114.813 62.4122 114.573 61.7188 114.44C61.0388 114.307 60.1988 114.24 59.1988 114.24H57.8188L58.0988 106.96H65.7988L65.7588 108.86H59.8188L60.4988 108.42L60.2788 112.98L59.6388 112.44H60.8388C62.1588 112.44 63.2255 112.607 64.0388 112.94C64.8655 113.26 65.4655 113.727 65.8388 114.34C66.2255 114.953 66.4188 115.687 66.4188 116.54C66.4188 117.553 66.1988 118.407 65.7588 119.1C65.3188 119.78 64.7122 120.3 63.9388 120.66C63.1788 121.02 62.3055 121.2 61.3188 121.2Z" fill="black"/>
<path d="M98.533 119.86L98.053 119.22L100.693 119.74V121H93.433V119.74L96.573 119.24L96.073 119.86V109L96.753 109.04L93.373 110.94L92.573 109.44L96.493 106.88H98.533V119.86ZM103.97 115.28L103.87 113.62C104.457 113.247 105.077 112.953 105.73 112.74C106.397 112.527 107.07 112.42 107.75 112.42C108.537 112.42 109.243 112.573 109.87 112.88C110.51 113.187 111.023 113.647 111.41 114.26C111.797 114.873 111.99 115.64 111.99 116.56C111.99 117.533 111.77 118.367 111.33 119.06C110.89 119.753 110.29 120.287 109.53 120.66C108.783 121.033 107.93 121.22 106.97 121.22C105.97 121.22 105.077 121 104.29 120.56C103.503 120.12 102.883 119.433 102.43 118.5C101.977 117.567 101.75 116.353 101.75 114.86C101.75 113.18 102.03 111.733 102.59 110.52C103.163 109.307 103.963 108.373 104.99 107.72C106.03 107.067 107.237 106.74 108.61 106.74C109.357 106.74 110.143 106.847 110.97 107.06L110.79 108.84C110.443 108.76 110.11 108.707 109.79 108.68C109.47 108.653 109.177 108.64 108.91 108.64C107.83 108.64 106.95 108.887 106.27 109.38C105.59 109.873 105.083 110.587 104.75 111.52C104.43 112.44 104.27 113.573 104.27 114.92C104.27 116.413 104.49 117.52 104.93 118.24C105.383 118.96 106.063 119.32 106.97 119.32C107.73 119.32 108.33 119.093 108.77 118.64C109.223 118.173 109.45 117.513 109.45 116.66C109.45 116.087 109.337 115.62 109.11 115.26C108.897 114.887 108.603 114.613 108.23 114.44C107.87 114.253 107.45 114.16 106.97 114.16C106.49 114.16 105.99 114.253 105.47 114.44C104.95 114.627 104.45 114.907 103.97 115.28Z" fill="black"/>
<path d="M144.076 120.12L143.716 119.68L146.396 120.1V121H139.616V120.1L142.796 119.7L142.436 120.12V108.42L142.876 108.46L139.396 110.48L138.856 109.46L142.736 106.98H144.076V120.12ZM156.125 108.22L150.705 121H148.905L154.465 108.1L154.725 108.38H147.985L148.365 108.08L147.945 110.5H146.925V107.04H156.125V108.22Z" fill="black"/>
<path d="M187.992 120.12L187.632 119.68L190.312 120.1V121H183.532V120.1L186.712 119.7L186.352 120.12V108.42L186.792 108.46L183.312 110.48L182.772 109.46L186.652 106.98H187.992V120.12ZM196.377 121.16C195.79 121.16 195.217 121.08 194.657 120.92C194.11 120.76 193.617 120.527 193.177 120.22C192.75 119.9 192.41 119.507 192.157 119.04C191.903 118.573 191.777 118.033 191.777 117.42C191.777 116.833 191.89 116.32 192.117 115.88C192.343 115.44 192.643 115.067 193.017 114.76C193.39 114.44 193.79 114.18 194.217 113.98C194.643 113.78 195.05 113.627 195.437 113.52L196.457 114.04C196.163 114.133 195.837 114.26 195.477 114.42C195.13 114.58 194.797 114.787 194.477 115.04C194.157 115.28 193.897 115.58 193.697 115.94C193.497 116.3 193.397 116.727 193.397 117.22C193.397 117.78 193.53 118.267 193.797 118.68C194.077 119.093 194.45 119.413 194.917 119.64C195.397 119.853 195.923 119.96 196.497 119.96C197.097 119.96 197.63 119.847 198.097 119.62C198.577 119.38 198.957 119.053 199.237 118.64C199.53 118.213 199.677 117.727 199.677 117.18C199.677 116.647 199.537 116.207 199.257 115.86C198.99 115.5 198.63 115.207 198.177 114.98C197.737 114.753 197.243 114.553 196.697 114.38C196.163 114.193 195.623 114.007 195.077 113.82C194.543 113.62 194.05 113.387 193.597 113.12C193.157 112.853 192.797 112.513 192.517 112.1C192.25 111.673 192.117 111.14 192.117 110.5C192.117 109.687 192.337 109.013 192.777 108.48C193.217 107.933 193.783 107.527 194.477 107.26C195.183 106.993 195.93 106.86 196.717 106.86C197.503 106.86 198.223 106.987 198.877 107.24C199.543 107.493 200.083 107.88 200.497 108.4C200.91 108.907 201.117 109.54 201.117 110.3C201.117 110.847 201.003 111.32 200.777 111.72C200.563 112.107 200.277 112.44 199.917 112.72C199.57 112.987 199.19 113.207 198.777 113.38C198.363 113.54 197.957 113.667 197.557 113.76L196.417 113.22C196.79 113.127 197.163 113.013 197.537 112.88C197.91 112.733 198.243 112.553 198.537 112.34C198.843 112.127 199.083 111.867 199.257 111.56C199.443 111.24 199.537 110.867 199.537 110.44C199.537 109.907 199.403 109.467 199.137 109.12C198.87 108.773 198.517 108.513 198.077 108.34C197.65 108.153 197.177 108.06 196.657 108.06C196.137 108.06 195.65 108.153 195.197 108.34C194.757 108.513 194.397 108.773 194.117 109.12C193.85 109.467 193.717 109.9 193.717 110.42C193.717 110.94 193.85 111.367 194.117 111.7C194.397 112.033 194.763 112.313 195.217 112.54C195.67 112.753 196.163 112.947 196.697 113.12C197.243 113.293 197.783 113.48 198.317 113.68C198.85 113.867 199.337 114.1 199.777 114.38C200.23 114.66 200.597 115.02 200.877 115.46C201.157 115.887 201.297 116.433 201.297 117.1C201.297 117.753 201.157 118.333 200.877 118.84C200.597 119.347 200.223 119.773 199.757 120.12C199.29 120.467 198.763 120.727 198.177 120.9C197.603 121.073 197.003 121.16 196.377 121.16Z" fill="black"/>
<path d="M233.138 120.12L232.778 119.68L235.458 120.1V121H228.678V120.1L231.858 119.7L231.498 120.12V108.42L231.938 108.46L228.458 110.48L227.918 109.46L231.798 106.98H233.138V120.12ZM244.783 112.78L244.843 113.96C244.203 114.413 243.53 114.767 242.823 115.02C242.116 115.26 241.403 115.38 240.683 115.38C239.91 115.38 239.21 115.233 238.583 114.94C237.97 114.633 237.483 114.187 237.123 113.6C236.763 113.013 236.576 112.28 236.563 111.4C236.55 110.453 236.743 109.647 237.143 108.98C237.556 108.3 238.123 107.78 238.843 107.42C239.563 107.047 240.383 106.86 241.303 106.86C242.276 106.86 243.136 107.08 243.883 107.52C244.63 107.96 245.203 108.64 245.603 109.56C246.016 110.48 246.223 111.66 246.223 113.1C246.223 114.727 245.956 116.147 245.423 117.36C244.903 118.56 244.15 119.493 243.163 120.16C242.19 120.827 241.023 121.16 239.663 121.16C238.97 121.16 238.243 121.067 237.483 120.88L237.623 119.68C237.97 119.747 238.296 119.8 238.603 119.84C238.923 119.867 239.216 119.88 239.483 119.88C240.63 119.88 241.576 119.607 242.323 119.06C243.07 118.5 243.623 117.713 243.983 116.7C244.356 115.687 244.543 114.487 244.543 113.1C244.543 111.42 244.263 110.18 243.703 109.38C243.156 108.567 242.35 108.16 241.283 108.16C240.363 108.16 239.623 108.44 239.063 109C238.516 109.547 238.243 110.307 238.243 111.28C238.243 111.96 238.37 112.513 238.623 112.94C238.89 113.367 239.236 113.68 239.663 113.88C240.103 114.08 240.59 114.18 241.123 114.18C241.736 114.18 242.356 114.06 242.983 113.82C243.61 113.58 244.21 113.233 244.783 112.78Z" fill="black"/>
<path d="M271.514 121V119.58C273.088 118.153 274.394 116.907 275.434 115.84C276.488 114.773 277.268 113.82 277.774 112.98C278.294 112.14 278.554 111.34 278.554 110.58C278.554 109.74 278.274 109.12 277.714 108.72C277.154 108.32 276.448 108.12 275.594 108.12C275.208 108.12 274.774 108.167 274.294 108.26C273.828 108.353 273.348 108.48 272.854 108.64L273.074 108.32L272.794 110.74H271.774L271.594 107.62C272.354 107.38 273.094 107.193 273.814 107.06C274.548 106.927 275.221 106.86 275.834 106.86C276.701 106.86 277.468 106.987 278.134 107.24C278.801 107.48 279.328 107.86 279.714 108.38C280.101 108.887 280.294 109.547 280.294 110.36C280.294 111.28 280.034 112.207 279.514 113.14C278.994 114.06 278.221 115.06 277.194 116.14C276.181 117.22 274.921 118.467 273.414 119.88L273.394 119.66H280.634V121H271.514ZM287.853 121.18C286.72 121.18 285.78 120.92 285.033 120.4C284.3 119.88 283.753 119.1 283.393 118.06C283.047 117.02 282.873 115.713 282.873 114.14C282.873 112.513 283.06 111.167 283.433 110.1C283.807 109.02 284.387 108.213 285.173 107.68C285.96 107.133 286.947 106.86 288.133 106.86C289.293 106.86 290.227 107.107 290.933 107.6C291.653 108.093 292.173 108.847 292.493 109.86C292.827 110.873 292.993 112.16 292.993 113.72C292.993 115.373 292.807 116.753 292.433 117.86C292.06 118.967 291.487 119.8 290.713 120.36C289.953 120.907 289 121.18 287.853 121.18ZM287.913 119.9C288.687 119.9 289.32 119.68 289.813 119.24C290.307 118.8 290.673 118.14 290.913 117.26C291.153 116.367 291.28 115.24 291.293 113.88C291.307 112.467 291.193 111.347 290.953 110.52C290.713 109.68 290.353 109.073 289.873 108.7C289.393 108.327 288.793 108.14 288.073 108.14C287.273 108.14 286.613 108.36 286.093 108.8C285.573 109.227 285.187 109.88 284.933 110.76C284.693 111.627 284.573 112.727 284.573 114.06C284.573 115.393 284.693 116.493 284.933 117.36C285.173 118.213 285.54 118.853 286.033 119.28C286.527 119.693 287.153 119.9 287.913 119.9Z" fill="black"/>
<path d="M3.85805 155V153.58C5.43138 152.153 6.73805 150.907 7.77805 149.84C8.83138 148.773 9.61138 147.82 10.118 146.98C10.638 146.14 10.898 145.34 10.898 144.58C10.898 143.74 10.618 143.12 10.058 142.72C9.49805 142.32 8.79138 142.12 7.93805 142.12C7.55138 142.12 7.11805 142.167 6.63805 142.26C6.17138 142.353 5.69138 142.48 5.19805 142.64L5.41805 142.32L5.13805 144.74H4.11805L3.93805 141.62C4.69805 141.38 5.43805 141.193 6.15805 141.06C6.89138 140.927 7.56471 140.86 8.17805 140.86C9.04471 140.86 9.81138 140.987 10.478 141.24C11.1447 141.48 11.6714 141.86 12.058 142.38C12.4447 142.887 12.638 143.547 12.638 144.36C12.638 145.28 12.378 146.207 11.858 147.14C11.338 148.06 10.5647 149.06 9.53805 150.14C8.52471 151.22 7.26471 152.467 5.75805 153.88L5.73805 153.66H12.978V155H3.85805ZM19.437 154.12L19.077 153.68L21.757 154.1V155H14.977V154.1L18.157 153.7L17.797 154.12V142.42L18.237 142.46L14.757 144.48L14.217 143.46L18.097 140.98H19.437V154.12Z" fill="black"/>
<path d="M47.4811 155V153.58C49.0544 152.153 50.3611 150.907 51.4011 149.84C52.4544 148.773 53.2344 147.82 53.7411 146.98C54.2611 146.14 54.5211 145.34 54.5211 144.58C54.5211 143.74 54.2411 143.12 53.6811 142.72C53.1211 142.32 52.4144 142.12 51.5611 142.12C51.1744 142.12 50.7411 142.167 50.2611 142.26C49.7944 142.353 49.3144 142.48 48.8211 142.64L49.0411 142.32L48.7611 144.74H47.7411L47.5611 141.62C48.3211 141.38 49.0611 141.193 49.7811 141.06C50.5144 140.927 51.1878 140.86 51.8011 140.86C52.6678 140.86 53.4344 140.987 54.1011 141.24C54.7678 141.48 55.2944 141.86 55.6811 142.38C56.0678 142.887 56.2611 143.547 56.2611 144.36C56.2611 145.28 56.0011 146.207 55.4811 147.14C54.9611 148.06 54.1878 149.06 53.1611 150.14C52.1478 151.22 50.8878 152.467 49.3811 153.88L49.3611 153.66H56.6011V155H47.4811ZM58.36 155V153.58C59.9333 152.153 61.24 150.907 62.28 149.84C63.3333 148.773 64.1133 147.82 64.62 146.98C65.14 146.14 65.4 145.34 65.4 144.58C65.4 143.74 65.12 143.12 64.56 142.72C64 142.32 63.2933 142.12 62.44 142.12C62.0533 142.12 61.62 142.167 61.14 142.26C60.6733 142.353 60.1933 142.48 59.7 142.64L59.92 142.32L59.64 144.74H58.62L58.44 141.62C59.2 141.38 59.94 141.193 60.66 141.06C61.3933 140.927 62.0667 140.86 62.68 140.86C63.5467 140.86 64.3133 140.987 64.98 141.24C65.6467 141.48 66.1733 141.86 66.56 142.38C66.9467 142.887 67.14 143.547 67.14 144.36C67.14 145.28 66.88 146.207 66.36 147.14C65.84 148.06 65.0667 149.06 64.04 150.14C63.0267 151.22 61.7667 152.467 60.26 153.88L60.24 153.66H67.48V155H58.36Z" fill="black"/>
<path d="M92.2174 155V153.58C93.7908 152.153 95.0974 150.907 96.1374 149.84C97.1908 148.773 97.9708 147.82 98.4774 146.98C98.9974 146.14 99.2574 145.34 99.2574 144.58C99.2574 143.74 98.9774 143.12 98.4174 142.72C97.8574 142.32 97.1508 142.12 96.2974 142.12C95.9108 142.12 95.4774 142.167 94.9974 142.26C94.5308 142.353 94.0508 142.48 93.5574 142.64L93.7774 142.32L93.4974 144.74H92.4774L92.2974 141.62C93.0574 141.38 93.7974 141.193 94.5174 141.06C95.2508 140.927 95.9241 140.86 96.5374 140.86C97.4041 140.86 98.1708 140.987 98.8374 141.24C99.5041 141.48 100.031 141.86 100.417 142.38C100.804 142.887 100.997 143.547 100.997 144.36C100.997 145.28 100.737 146.207 100.217 147.14C99.6974 148.06 98.9241 149.06 97.8974 150.14C96.8841 151.22 95.6241 152.467 94.1174 153.88L94.0974 153.66H101.337V155H92.2174ZM107.256 155.16C106.523 155.16 105.796 155.067 105.076 154.88C104.356 154.693 103.676 154.413 103.036 154.04L103.516 152.84C104.103 153.173 104.71 153.427 105.336 153.6C105.976 153.773 106.603 153.86 107.216 153.86C107.883 153.86 108.47 153.76 108.976 153.56C109.496 153.347 109.903 153.027 110.196 152.6C110.49 152.173 110.636 151.64 110.636 151C110.636 150.48 110.516 150.02 110.276 149.62C110.05 149.207 109.683 148.88 109.176 148.64C108.67 148.4 107.996 148.28 107.156 148.28H105.496V147.06H107.176C108.23 147.06 109.016 146.84 109.536 146.4C110.07 145.96 110.336 145.34 110.336 144.54C110.336 143.66 110.063 143.033 109.516 142.66C108.97 142.273 108.263 142.08 107.396 142.08C106.943 142.08 106.476 142.127 105.996 142.22C105.516 142.313 105.043 142.433 104.576 142.58L104.816 142.32L104.576 144.68H103.576L103.416 141.64C104.15 141.4 104.89 141.213 105.636 141.08C106.383 140.933 107.09 140.86 107.756 140.86C108.57 140.86 109.296 140.973 109.936 141.2C110.59 141.427 111.096 141.793 111.456 142.3C111.83 142.807 112.016 143.473 112.016 144.3C112.016 145.273 111.736 146.04 111.176 146.6C110.616 147.16 109.776 147.52 108.656 147.68L108.596 147.56C109.85 147.64 110.783 147.987 111.396 148.6C112.01 149.2 112.316 150.013 112.316 151.04C112.316 151.733 112.183 152.34 111.916 152.86C111.663 153.38 111.303 153.813 110.836 154.16C110.37 154.493 109.83 154.747 109.216 154.92C108.603 155.08 107.95 155.16 107.256 155.16Z" fill="black"/>
<path d="M137.081 155V153.58C138.654 152.153 139.961 150.907 141.001 149.84C142.054 148.773 142.834 147.82 143.341 146.98C143.861 146.14 144.121 145.34 144.121 144.58C144.121 143.74 143.841 143.12 143.281 142.72C142.721 142.32 142.014 142.12 141.161 142.12C140.774 142.12 140.341 142.167 139.861 142.26C139.394 142.353 138.914 142.48 138.421 142.64L138.641 142.32L138.361 144.74H137.341L137.161 141.62C137.921 141.38 138.661 141.193 139.381 141.06C140.114 140.927 140.787 140.86 141.401 140.86C142.267 140.86 143.034 140.987 143.701 141.24C144.367 141.48 144.894 141.86 145.281 142.38C145.667 142.887 145.861 143.547 145.861 144.36C145.861 145.28 145.601 146.207 145.081 147.14C144.561 148.06 143.787 149.06 142.761 150.14C141.747 151.22 140.487 152.467 138.981 153.88L138.961 153.66H146.201V155H137.081ZM154.42 151.14L154.84 151.5H147.54L147.34 150.32L154.14 140.82L156.06 141.04V150.52L155.62 150.2H158.46V151.5H155.62L156.06 151.14V155H154.42V151.14ZM154.88 150.2L154.44 150.52V141.82L154.98 141.92L148.7 150.76L148.38 150.2H154.88Z" fill="black"/>
<path d="M182.579 155V153.58C184.152 152.153 185.459 150.907 186.499 149.84C187.552 148.773 188.332 147.82 188.839 146.98C189.359 146.14 189.619 145.34 189.619 144.58C189.619 143.74 189.339 143.12 188.779 142.72C188.219 142.32 187.512 142.12 186.659 142.12C186.272 142.12 185.839 142.167 185.359 142.26C184.892 142.353 184.412 142.48 183.919 142.64L184.139 142.32L183.859 144.74H182.839L182.659 141.62C183.419 141.38 184.159 141.193 184.879 141.06C185.612 140.927 186.285 140.86 186.899 140.86C187.765 140.86 188.532 140.987 189.199 141.24C189.865 141.48 190.392 141.86 190.779 142.38C191.165 142.887 191.359 143.547 191.359 144.36C191.359 145.28 191.099 146.207 190.579 147.14C190.059 148.06 189.285 149.06 188.259 150.14C187.245 151.22 185.985 152.467 184.479 153.88L184.459 153.66H191.699V155H182.579ZM197.498 155.16C196.178 155.16 194.844 154.833 193.498 154.18L193.958 152.98C194.531 153.26 195.098 153.473 195.658 153.62C196.218 153.767 196.758 153.84 197.278 153.84C197.958 153.84 198.544 153.713 199.038 153.46C199.544 153.207 199.938 152.847 200.218 152.38C200.498 151.9 200.638 151.34 200.638 150.7C200.638 149.993 200.451 149.44 200.078 149.04C199.718 148.627 199.164 148.333 198.418 148.16C197.684 147.987 196.758 147.9 195.638 147.9H194.338L194.618 141.04H201.758L201.738 142.34H195.738L196.218 142.02L195.998 147.04L195.558 146.66H196.738C198.044 146.66 199.111 146.82 199.938 147.14C200.764 147.447 201.378 147.9 201.778 148.5C202.178 149.087 202.378 149.813 202.378 150.68C202.378 151.613 202.164 152.42 201.738 153.1C201.324 153.767 200.751 154.28 200.018 154.64C199.284 154.987 198.444 155.16 197.498 155.16Z" fill="black"/>
<path d="M227.051 155V153.58C228.625 152.153 229.931 150.907 230.971 149.84C232.025 148.773 232.805 147.82 233.311 146.98C233.831 146.14 234.091 145.34 234.091 144.58C234.091 143.74 233.811 143.12 233.251 142.72C232.691 142.32 231.985 142.12 231.131 142.12C230.745 142.12 230.311 142.167 229.831 142.26C229.365 142.353 228.885 142.48 228.391 142.64L228.611 142.32L228.331 144.74H227.311L227.131 141.62C227.891 141.38 228.631 141.193 229.351 141.06C230.085 140.927 230.758 140.86 231.371 140.86C232.238 140.86 233.005 140.987 233.671 141.24C234.338 141.48 234.865 141.86 235.251 142.38C235.638 142.887 235.831 143.547 235.831 144.36C235.831 145.28 235.571 146.207 235.051 147.14C234.531 148.06 233.758 149.06 232.731 150.14C231.718 151.22 230.458 152.467 228.951 153.88L228.931 153.66H236.171V155H227.051ZM239.71 149.18L239.65 148C240.29 147.547 240.964 147.207 241.67 146.98C242.39 146.74 243.097 146.62 243.79 146.62C244.564 146.62 245.257 146.773 245.87 147.08C246.497 147.373 246.997 147.82 247.37 148.42C247.744 149.02 247.93 149.773 247.93 150.68C247.93 151.6 247.73 152.4 247.33 153.08C246.93 153.747 246.37 154.267 245.65 154.64C244.93 155 244.11 155.18 243.19 155.18C242.217 155.18 241.357 154.96 240.61 154.52C239.877 154.08 239.304 153.4 238.89 152.48C238.477 151.547 238.27 150.36 238.27 148.92C238.27 147.267 238.537 145.84 239.07 144.64C239.604 143.44 240.364 142.513 241.35 141.86C242.337 141.193 243.497 140.86 244.83 140.86C245.524 140.86 246.25 140.953 247.01 141.14L246.87 142.36C246.537 142.293 246.21 142.247 245.89 142.22C245.57 142.18 245.27 142.16 244.99 142.16C243.857 142.16 242.917 142.44 242.17 143C241.424 143.547 240.864 144.327 240.49 145.34C240.13 146.34 239.95 147.54 239.95 148.94C239.95 150.62 240.23 151.867 240.79 152.68C241.35 153.48 242.157 153.88 243.21 153.88C244.144 153.88 244.884 153.6 245.43 153.04C245.977 152.48 246.25 151.713 246.25 150.74C246.25 150.073 246.117 149.527 245.85 149.1C245.584 148.66 245.23 148.34 244.79 148.14C244.364 147.927 243.87 147.82 243.31 147.82C242.737 147.82 242.13 147.933 241.49 148.16C240.864 148.387 240.27 148.727 239.71 149.18Z" fill="black"/>
<path d="M272.999 155V153.58C274.572 152.153 275.879 150.907 276.919 149.84C277.972 148.773 278.752 147.82 279.259 146.98C279.779 146.14 280.039 145.34 280.039 144.58C280.039 143.74 279.759 143.12 279.199 142.72C278.639 142.32 277.932 142.12 277.079 142.12C276.692 142.12 276.259 142.167 275.779 142.26C275.312 142.353 274.832 142.48 274.339 142.64L274.559 142.32L274.279 144.74H273.259L273.079 141.62C273.839 141.38 274.579 141.193 275.299 141.06C276.032 140.927 276.705 140.86 277.319 140.86C278.185 140.86 278.952 140.987 279.619 141.24C280.285 141.48 280.812 141.86 281.199 142.38C281.585 142.887 281.779 143.547 281.779 144.36C281.779 145.28 281.519 146.207 280.999 147.14C280.479 148.06 279.705 149.06 278.679 150.14C277.665 151.22 276.405 152.467 274.899 153.88L274.879 153.66H282.119V155H272.999ZM292.502 142.22L287.082 155H285.282L290.842 142.1L291.102 142.38H284.362L284.742 142.08L284.322 144.5H283.302V141.04H292.502V142.22Z" fill="black"/>
<path d="M1.67797 189V186.92C3.2113 185.613 4.4713 184.487 5.45797 183.54C6.45797 182.58 7.19797 181.727 7.67797 180.98C8.15797 180.22 8.39797 179.48 8.39797 178.76C8.39797 178.027 8.15797 177.48 7.67797 177.12C7.19797 176.76 6.5913 176.58 5.85797 176.58C5.5113 176.58 5.1313 176.62 4.71797 176.7C4.31797 176.78 3.90464 176.893 3.47797 177.04L3.75797 176.62L3.43797 178.92H1.95797L1.75797 175.5C2.55797 175.247 3.33797 175.06 4.09797 174.94C4.8713 174.807 5.5913 174.74 6.25797 174.74C7.17797 174.74 7.9913 174.867 8.69797 175.12C9.41797 175.373 9.97797 175.773 10.378 176.32C10.778 176.853 10.978 177.553 10.978 178.42C10.978 179.38 10.7246 180.313 10.218 181.22C9.72464 182.127 8.99797 183.073 8.03797 184.06C7.07797 185.047 5.89797 186.14 4.49797 187.34V187.06H11.298V189H1.67797ZM17.8508 189.22C17.2241 189.22 16.6174 189.14 16.0308 188.98C15.4574 188.82 14.9374 188.58 14.4708 188.26C14.0041 187.927 13.6374 187.527 13.3708 187.06C13.1041 186.593 12.9708 186.047 12.9708 185.42C12.9708 184.9 13.0708 184.427 13.2708 184C13.4708 183.56 13.7441 183.18 14.0908 182.86C14.4374 182.54 14.8241 182.273 15.2508 182.06C15.6908 181.847 16.1441 181.687 16.6108 181.58L18.0508 182.3C17.7441 182.38 17.4308 182.5 17.1108 182.66C16.7908 182.807 16.4974 182.993 16.2308 183.22C15.9774 183.447 15.7641 183.713 15.5908 184.02C15.4308 184.327 15.3508 184.68 15.3508 185.08C15.3508 185.56 15.4641 185.98 15.6908 186.34C15.9308 186.7 16.2508 186.98 16.6508 187.18C17.0508 187.367 17.5041 187.46 18.0108 187.46C18.5308 187.46 18.9908 187.36 19.3908 187.16C19.8041 186.947 20.1241 186.667 20.3508 186.32C20.5908 185.96 20.7108 185.56 20.7108 185.12C20.7108 184.627 20.5774 184.227 20.3108 183.92C20.0574 183.6 19.7108 183.333 19.2708 183.12C18.8308 182.893 18.3441 182.693 17.8108 182.52C17.2908 182.347 16.7708 182.16 16.2508 181.96C15.7308 181.76 15.2508 181.52 14.8108 181.24C14.3708 180.947 14.0174 180.587 13.7508 180.16C13.4841 179.733 13.3508 179.2 13.3508 178.56C13.3508 177.693 13.5841 176.98 14.0508 176.42C14.5174 175.86 15.1174 175.44 15.8508 175.16C16.5974 174.88 17.3908 174.74 18.2308 174.74C19.0441 174.74 19.7974 174.873 20.4908 175.14C21.1974 175.393 21.7641 175.787 22.1908 176.32C22.6174 176.853 22.8308 177.52 22.8308 178.32C22.8308 178.813 22.7374 179.253 22.5508 179.64C22.3774 180.013 22.1241 180.333 21.7908 180.6C21.4708 180.867 21.1108 181.093 20.7108 181.28C20.3108 181.453 19.8841 181.593 19.4308 181.7L17.6908 180.94C18.0774 180.887 18.4374 180.8 18.7708 180.68C19.1041 180.547 19.3974 180.38 19.6508 180.18C19.9174 179.98 20.1241 179.74 20.2708 179.46C20.4174 179.18 20.4908 178.86 20.4908 178.5C20.4908 178.06 20.3841 177.693 20.1708 177.4C19.9574 177.093 19.6708 176.867 19.3108 176.72C18.9508 176.56 18.5574 176.48 18.1308 176.48C17.7041 176.48 17.3108 176.56 16.9508 176.72C16.5908 176.867 16.2974 177.087 16.0708 177.38C15.8441 177.66 15.7308 178.013 15.7308 178.44C15.7308 178.907 15.8641 179.293 16.1308 179.6C16.3974 179.907 16.7508 180.167 17.1908 180.38C17.6308 180.58 18.1108 180.767 18.6308 180.94C19.1641 181.113 19.6908 181.3 20.2108 181.5C20.7308 181.7 21.2108 181.947 21.6508 182.24C22.0908 182.533 22.4441 182.9 22.7108 183.34C22.9774 183.78 23.1108 184.333 23.1108 185C23.1108 185.68 22.9574 186.287 22.6508 186.82C22.3574 187.353 21.9574 187.793 21.4508 188.14C20.9574 188.487 20.3974 188.753 19.7708 188.94C19.1441 189.127 18.5041 189.22 17.8508 189.22Z" fill="#E43A45"/>
<path d="M47.0612 189V187.58C48.6345 186.153 49.9412 184.907 50.9812 183.84C52.0345 182.773 52.8145 181.82 53.3212 180.98C53.8412 180.14 54.1012 179.34 54.1012 178.58C54.1012 177.74 53.8212 177.12 53.2612 176.72C52.7012 176.32 51.9945 176.12 51.1412 176.12C50.7545 176.12 50.3212 176.167 49.8412 176.26C49.3745 176.353 48.8945 176.48 48.4012 176.64L48.6212 176.32L48.3412 178.74H47.3212L47.1412 175.62C47.9012 175.38 48.6412 175.193 49.3612 175.06C50.0945 174.927 50.7678 174.86 51.3812 174.86C52.2478 174.86 53.0145 174.987 53.6812 175.24C54.3478 175.48 54.8745 175.86 55.2612 176.38C55.6478 176.887 55.8412 177.547 55.8412 178.36C55.8412 179.28 55.5812 180.207 55.0612 181.14C54.5412 182.06 53.7678 183.06 52.7412 184.14C51.7278 185.22 50.4678 186.467 48.9612 187.88L48.9412 187.66H56.1812V189H47.0612ZM66.1601 180.78L66.2201 181.96C65.5801 182.413 64.9067 182.767 64.2001 183.02C63.4934 183.26 62.7801 183.38 62.0601 183.38C61.2867 183.38 60.5867 183.233 59.9601 182.94C59.3467 182.633 58.8601 182.187 58.5001 181.6C58.1401 181.013 57.9534 180.28 57.9401 179.4C57.9267 178.453 58.1201 177.647 58.5201 176.98C58.9334 176.3 59.5001 175.78 60.2201 175.42C60.9401 175.047 61.7601 174.86 62.6801 174.86C63.6534 174.86 64.5134 175.08 65.2601 175.52C66.0067 175.96 66.5801 176.64 66.9801 177.56C67.3934 178.48 67.6001 179.66 67.6001 181.1C67.6001 182.727 67.3334 184.147 66.8001 185.36C66.2801 186.56 65.5267 187.493 64.5401 188.16C63.5667 188.827 62.4001 189.16 61.0401 189.16C60.3467 189.16 59.6201 189.067 58.8601 188.88L59.0001 187.68C59.3467 187.747 59.6734 187.8 59.9801 187.84C60.3001 187.867 60.5934 187.88 60.8601 187.88C62.0067 187.88 62.9534 187.607 63.7001 187.06C64.4467 186.5 65.0001 185.713 65.3601 184.7C65.7334 183.687 65.9201 182.487 65.9201 181.1C65.9201 179.42 65.6401 178.18 65.0801 177.38C64.5334 176.567 63.7267 176.16 62.6601 176.16C61.7401 176.16 61.0001 176.44 60.4401 177C59.8934 177.547 59.6201 178.307 59.6201 179.28C59.6201 179.96 59.7467 180.513 60.0001 180.94C60.2667 181.367 60.6134 181.68 61.0401 181.88C61.4801 182.08 61.9667 182.18 62.5001 182.18C63.1134 182.18 63.7334 182.06 64.3601 181.82C64.9867 181.58 65.5867 181.233 66.1601 180.78Z" fill="black"/>
<path d="M95.4106 189.16C94.6773 189.16 93.9506 189.067 93.2306 188.88C92.5106 188.693 91.8306 188.413 91.1906 188.04L91.6706 186.84C92.2573 187.173 92.864 187.427 93.4906 187.6C94.1306 187.773 94.7573 187.86 95.3706 187.86C96.0373 187.86 96.624 187.76 97.1306 187.56C97.6506 187.347 98.0573 187.027 98.3506 186.6C98.644 186.173 98.7906 185.64 98.7906 185C98.7906 184.48 98.6706 184.02 98.4306 183.62C98.204 183.207 97.8373 182.88 97.3306 182.64C96.824 182.4 96.1506 182.28 95.3106 182.28H93.6506V181.06H95.3306C96.384 181.06 97.1706 180.84 97.6906 180.4C98.224 179.96 98.4906 179.34 98.4906 178.54C98.4906 177.66 98.2173 177.033 97.6706 176.66C97.124 176.273 96.4173 176.08 95.5506 176.08C95.0973 176.08 94.6306 176.127 94.1506 176.22C93.6706 176.313 93.1973 176.433 92.7306 176.58L92.9706 176.32L92.7306 178.68H91.7306L91.5706 175.64C92.304 175.4 93.044 175.213 93.7906 175.08C94.5373 174.933 95.244 174.86 95.9106 174.86C96.724 174.86 97.4506 174.973 98.0906 175.2C98.744 175.427 99.2506 175.793 99.6106 176.3C99.984 176.807 100.171 177.473 100.171 178.3C100.171 179.273 99.8906 180.04 99.3306 180.6C98.7706 181.16 97.9306 181.52 96.8106 181.68L96.7506 181.56C98.004 181.64 98.9373 181.987 99.5506 182.6C100.164 183.2 100.471 184.013 100.471 185.04C100.471 185.733 100.337 186.34 100.071 186.86C99.8173 187.38 99.4573 187.813 98.9906 188.16C98.524 188.493 97.984 188.747 97.3706 188.92C96.7573 189.08 96.104 189.16 95.4106 189.16ZM108.117 189.18C106.984 189.18 106.044 188.92 105.297 188.4C104.564 187.88 104.017 187.1 103.657 186.06C103.31 185.02 103.137 183.713 103.137 182.14C103.137 180.513 103.324 179.167 103.697 178.1C104.07 177.02 104.65 176.213 105.437 175.68C106.224 175.133 107.21 174.86 108.397 174.86C109.557 174.86 110.49 175.107 111.197 175.6C111.917 176.093 112.437 176.847 112.757 177.86C113.09 178.873 113.257 180.16 113.257 181.72C113.257 183.373 113.07 184.753 112.697 185.86C112.324 186.967 111.75 187.8 110.977 188.36C110.217 188.907 109.264 189.18 108.117 189.18ZM108.177 187.9C108.95 187.9 109.584 187.68 110.077 187.24C110.57 186.8 110.937 186.14 111.177 185.26C111.417 184.367 111.544 183.24 111.557 181.88C111.57 180.467 111.457 179.347 111.217 178.52C110.977 177.68 110.617 177.073 110.137 176.7C109.657 176.327 109.057 176.14 108.337 176.14C107.537 176.14 106.877 176.36 106.357 176.8C105.837 177.227 105.45 177.88 105.197 178.76C104.957 179.627 104.837 180.727 104.837 182.06C104.837 183.393 104.957 184.493 105.197 185.36C105.437 186.213 105.804 186.853 106.297 187.28C106.79 187.693 107.417 187.9 108.177 187.9Z" fill="black"/>
<path d="M142.754 189.16C142.021 189.16 141.294 189.067 140.574 188.88C139.854 188.693 139.174 188.413 138.534 188.04L139.014 186.84C139.601 187.173 140.208 187.427 140.834 187.6C141.474 187.773 142.101 187.86 142.714 187.86C143.381 187.86 143.968 187.76 144.474 187.56C144.994 187.347 145.401 187.027 145.694 186.6C145.988 186.173 146.134 185.64 146.134 185C146.134 184.48 146.014 184.02 145.774 183.62C145.548 183.207 145.181 182.88 144.674 182.64C144.168 182.4 143.494 182.28 142.654 182.28H140.994V181.06H142.674C143.728 181.06 144.514 180.84 145.034 180.4C145.568 179.96 145.834 179.34 145.834 178.54C145.834 177.66 145.561 177.033 145.014 176.66C144.468 176.273 143.761 176.08 142.894 176.08C142.441 176.08 141.974 176.127 141.494 176.22C141.014 176.313 140.541 176.433 140.074 176.58L140.314 176.32L140.074 178.68H139.074L138.914 175.64C139.648 175.4 140.388 175.213 141.134 175.08C141.881 174.933 142.588 174.86 143.254 174.86C144.068 174.86 144.794 174.973 145.434 175.2C146.088 175.427 146.594 175.793 146.954 176.3C147.328 176.807 147.514 177.473 147.514 178.3C147.514 179.273 147.234 180.04 146.674 180.6C146.114 181.16 145.274 181.52 144.154 181.68L144.094 181.56C145.348 181.64 146.281 181.987 146.894 182.6C147.508 183.2 147.814 184.013 147.814 185.04C147.814 185.733 147.681 186.34 147.414 186.86C147.161 187.38 146.801 187.813 146.334 188.16C145.868 188.493 145.328 188.747 144.714 188.92C144.101 189.08 143.448 189.16 142.754 189.16ZM154.701 188.12L154.341 187.68L157.021 188.1V189H150.241V188.1L153.421 187.7L153.061 188.12V176.42L153.501 176.46L150.021 178.48L149.481 177.46L153.361 174.98H154.701V188.12Z" fill="black"/>
</svg>
