<?xml version="1.0" encoding="UTF-8" standalone="no"?>
<svg
   width="295"
   height="228"
   viewBox="0 0 295 228"
   fill="none"
   version="1.1"
   id="svg78"
   sodipodi:docname="julho.svg"
   inkscape:version="1.1.2 (b8e25be833, 2022-02-05)"
   xmlns:inkscape="http://www.inkscape.org/namespaces/inkscape"
   xmlns:sodipodi="http://sodipodi.sourceforge.net/DTD/sodipodi-0.dtd"
   xmlns="http://www.w3.org/2000/svg"
   xmlns:svg="http://www.w3.org/2000/svg">
  <defs
     id="defs82" />
  <sodipodi:namedview
     id="namedview80"
     pagecolor="#ffffff"
     bordercolor="#666666"
     borderopacity="1.0"
     inkscape:pageshadow="2"
     inkscape:pageopacity="0.0"
     inkscape:pagecheckerboard="0"
     showgrid="false"
     inkscape:zoom="1.75"
     inkscape:cx="68.571429"
     inkscape:cy="109.42857"
     inkscape:window-width="1920"
     inkscape:window-height="991"
     inkscape:window-x="-9"
     inkscape:window-y="-9"
     inkscape:window-maximized="1"
     inkscape:current-layer="svg78" />
  <path
     d="M12.4502 4.86C13.4902 4.86 14.4102 5.00667 15.2102 5.3C16.0235 5.58 16.7035 6.00667 17.2502 6.58C17.8102 7.15333 18.2368 7.86667 18.5302 8.72C18.8235 9.56 18.9702 10.54 18.9702 11.66C18.9702 13.26 18.6902 14.6067 18.1302 15.7C17.5702 16.78 16.7702 17.6 15.7302 18.16C14.6902 18.72 13.4502 19 12.0102 19H6.01016V17.28L7.81016 16.68L7.35016 17.34V6.6L7.83016 7.3L6.01016 6.68V4.96L10.9302 4.86H12.4502ZM12.1702 16.52C12.5168 16.52 12.8702 16.48 13.2302 16.4C13.5902 16.3067 13.9235 16.1133 14.2302 15.82C14.5368 15.5133 14.7835 15.0467 14.9702 14.42C15.1568 13.7933 15.2502 12.94 15.2502 11.86C15.2502 10.82 15.1568 9.99333 14.9702 9.38C14.7968 8.76667 14.5635 8.32 14.2702 8.04C13.9902 7.74667 13.6835 7.56 13.3502 7.48C13.0168 7.38667 12.6902 7.34 12.3702 7.34H10.3102L10.8302 6.82V17.04L10.3102 16.52H12.1702Z"
     fill="black"
     id="path2" />
  <path
     d="M55.7644 8.46C55.7644 8.79333 55.891 9.07333 56.1444 9.3C56.3977 9.52667 56.731 9.72667 57.1444 9.9C57.571 10.06 58.0377 10.22 58.5444 10.38C59.0644 10.54 59.571 10.7333 60.0644 10.96C60.571 11.1733 61.031 11.4467 61.4444 11.78C61.871 12.1 62.211 12.5067 62.4644 13C62.731 13.4933 62.8644 14.0933 62.8644 14.8C62.8644 15.84 62.5977 16.6933 62.0644 17.36C61.531 18.0133 60.8177 18.5 59.9244 18.82C59.031 19.1267 58.051 19.28 56.9844 19.28C56.251 19.28 55.4977 19.2067 54.7244 19.06C53.951 18.9267 53.191 18.72 52.4444 18.44L52.5644 14.4H54.5444L55.0244 16.76L54.7044 16.22C55.0777 16.3933 55.4777 16.5267 55.9044 16.62C56.331 16.7133 56.7444 16.76 57.1444 16.76C57.571 16.76 57.9577 16.7067 58.3044 16.6C58.651 16.48 58.931 16.3133 59.1444 16.1C59.3577 15.8733 59.4644 15.5933 59.4644 15.26C59.4644 14.8867 59.3377 14.5867 59.0844 14.36C58.831 14.12 58.491 13.92 58.0644 13.76C57.651 13.5867 57.191 13.4267 56.6844 13.28C56.1777 13.1333 55.671 12.96 55.1644 12.76C54.671 12.5467 54.211 12.28 53.7844 11.96C53.371 11.64 53.0377 11.24 52.7844 10.76C52.531 10.2667 52.4044 9.65333 52.4044 8.92C52.4044 7.93333 52.6377 7.12667 53.1044 6.5C53.571 5.86 54.2044 5.38667 55.0044 5.08C55.8177 4.76 56.731 4.6 57.7444 4.6C58.451 4.6 59.1977 4.67333 59.9844 4.82C60.7844 4.96667 61.571 5.18667 62.3444 5.48L62.1244 9.2H60.0644L59.5844 7.12L59.9444 7.46C59.6377 7.35333 59.311 7.27333 58.9644 7.22C58.631 7.15333 58.291 7.12 57.9444 7.12C57.5577 7.12 57.1977 7.16667 56.8644 7.26C56.531 7.34 56.2644 7.48 56.0644 7.68C55.8644 7.88 55.7644 8.14 55.7644 8.46Z"
     fill="black"
     id="path4" />
  <path
     d="M280.764 8.46C280.764 8.79333 280.891 9.07333 281.144 9.3C281.398 9.52667 281.731 9.72667 282.144 9.9C282.571 10.06 283.038 10.22 283.544 10.38C284.064 10.54 284.571 10.7333 285.064 10.96C285.571 11.1733 286.031 11.4467 286.444 11.78C286.871 12.1 287.211 12.5067 287.464 13C287.731 13.4933 287.864 14.0933 287.864 14.8C287.864 15.84 287.598 16.6933 287.064 17.36C286.531 18.0133 285.818 18.5 284.924 18.82C284.031 19.1267 283.051 19.28 281.984 19.28C281.251 19.28 280.498 19.2067 279.724 19.06C278.951 18.9267 278.191 18.72 277.444 18.44L277.564 14.4H279.544L280.024 16.76L279.704 16.22C280.078 16.3933 280.478 16.5267 280.904 16.62C281.331 16.7133 281.744 16.76 282.144 16.76C282.571 16.76 282.958 16.7067 283.304 16.6C283.651 16.48 283.931 16.3133 284.144 16.1C284.358 15.8733 284.464 15.5933 284.464 15.26C284.464 14.8867 284.338 14.5867 284.084 14.36C283.831 14.12 283.491 13.92 283.064 13.76C282.651 13.5867 282.191 13.4267 281.684 13.28C281.178 13.1333 280.671 12.96 280.164 12.76C279.671 12.5467 279.211 12.28 278.784 11.96C278.371 11.64 278.038 11.24 277.784 10.76C277.531 10.2667 277.404 9.65333 277.404 8.92C277.404 7.93333 277.638 7.12667 278.104 6.5C278.571 5.86 279.204 5.38667 280.004 5.08C280.818 4.76 281.731 4.6 282.744 4.6C283.451 4.6 284.198 4.67333 284.984 4.82C285.784 4.96667 286.571 5.18667 287.344 5.48L287.124 9.2H285.064L284.584 7.12L284.944 7.46C284.638 7.35333 284.311 7.27333 283.964 7.22C283.631 7.15333 283.291 7.12 282.944 7.12C282.558 7.12 282.198 7.16667 281.864 7.26C281.531 7.34 281.264 7.48 281.064 7.68C280.864 7.88 280.764 8.14 280.764 8.46Z"
     fill="black"
     id="path6" />
  <path
     d="M235.764 8.46C235.764 8.79333 235.891 9.07333 236.144 9.3C236.398 9.52667 236.731 9.72667 237.144 9.9C237.571 10.06 238.038 10.22 238.544 10.38C239.064 10.54 239.571 10.7333 240.064 10.96C240.571 11.1733 241.031 11.4467 241.444 11.78C241.871 12.1 242.211 12.5067 242.464 13C242.731 13.4933 242.864 14.0933 242.864 14.8C242.864 15.84 242.598 16.6933 242.064 17.36C241.531 18.0133 240.818 18.5 239.924 18.82C239.031 19.1267 238.051 19.28 236.984 19.28C236.251 19.28 235.498 19.2067 234.724 19.06C233.951 18.9267 233.191 18.72 232.444 18.44L232.564 14.4H234.544L235.024 16.76L234.704 16.22C235.078 16.3933 235.478 16.5267 235.904 16.62C236.331 16.7133 236.744 16.76 237.144 16.76C237.571 16.76 237.958 16.7067 238.304 16.6C238.651 16.48 238.931 16.3133 239.144 16.1C239.358 15.8733 239.464 15.5933 239.464 15.26C239.464 14.8867 239.338 14.5867 239.084 14.36C238.831 14.12 238.491 13.92 238.064 13.76C237.651 13.5867 237.191 13.4267 236.684 13.28C236.178 13.1333 235.671 12.96 235.164 12.76C234.671 12.5467 234.211 12.28 233.784 11.96C233.371 11.64 233.038 11.24 232.784 10.76C232.531 10.2667 232.404 9.65333 232.404 8.92C232.404 7.93333 232.638 7.12667 233.104 6.5C233.571 5.86 234.204 5.38667 235.004 5.08C235.818 4.76 236.731 4.6 237.744 4.6C238.451 4.6 239.198 4.67333 239.984 4.82C240.784 4.96667 241.571 5.18667 242.344 5.48L242.124 9.2H240.064L239.584 7.12L239.944 7.46C239.638 7.35333 239.311 7.27333 238.964 7.22C238.631 7.15333 238.291 7.12 237.944 7.12C237.558 7.12 237.198 7.16667 236.864 7.26C236.531 7.34 236.264 7.48 236.064 7.68C235.864 7.88 235.764 8.14 235.764 8.46Z"
     fill="black"
     id="path8" />
  <path
     d="M99.21 19V17.28L101.37 16.66L100.77 17.52V6.82L101.45 7.34H98.47L99.23 6.68L98.65 9.2H96.59V4.86H108.41V9.2H106.37L105.81 6.82L106.55 7.34H103.55L104.25 6.82V17.52L103.67 16.66L105.79 17.28V19H99.21Z"
     fill="black"
     id="path10" />
  <path
     d="M153.355 23.06C152.835 23.06 152.275 22.92 151.675 22.64C151.075 22.36 150.355 21.92 149.515 21.32C148.675 20.72 147.622 19.9467 146.355 19L147.115 19.26C145.795 19.2467 144.669 18.9667 143.735 18.42C142.802 17.8733 142.082 17.0733 141.575 16.02C141.082 14.9533 140.835 13.6533 140.835 12.12C140.835 10.88 140.995 9.79333 141.315 8.86C141.635 7.92667 142.089 7.14667 142.675 6.52C143.275 5.88 143.995 5.4 144.835 5.08C145.675 4.76 146.609 4.6 147.635 4.6C148.675 4.6 149.595 4.75333 150.395 5.06C151.209 5.36667 151.889 5.82 152.435 6.42C152.995 7.02 153.422 7.76 153.715 8.64C154.009 9.50667 154.155 10.5067 154.155 11.64C154.155 12.92 153.962 14.0667 153.575 15.08C153.202 16.08 152.655 16.9133 151.935 17.58C151.215 18.2333 150.355 18.6933 149.355 18.96L149.455 18.58C150.135 18.9933 150.709 19.3267 151.175 19.58C151.655 19.8467 152.069 20.04 152.415 20.16C152.762 20.28 153.089 20.34 153.395 20.34C153.742 20.34 154.082 20.2733 154.415 20.14C154.749 20.0067 155.129 19.82 155.555 19.58L156.755 21.68C156.035 22.12 155.415 22.46 154.895 22.7C154.375 22.94 153.862 23.06 153.355 23.06ZM144.575 12.02C144.575 13.1267 144.675 14.02 144.875 14.7C145.089 15.38 145.409 15.8733 145.835 16.18C146.262 16.4733 146.795 16.62 147.435 16.62C148.115 16.62 148.675 16.46 149.115 16.14C149.555 15.82 149.882 15.3067 150.095 14.6C150.322 13.8933 150.435 12.9533 150.435 11.78C150.435 10.6733 150.322 9.78667 150.095 9.12C149.882 8.45333 149.562 7.97333 149.135 7.68C148.709 7.38667 148.162 7.24 147.495 7.24C146.842 7.24 146.295 7.4 145.855 7.72C145.429 8.02667 145.109 8.52667 144.895 9.22C144.682 9.91333 144.575 10.8467 144.575 12.02Z"
     fill="black"
     id="path12" />
  <path
     d="M198.355 23.06C197.835 23.06 197.275 22.92 196.675 22.64C196.075 22.36 195.355 21.92 194.515 21.32C193.675 20.72 192.622 19.9467 191.355 19L192.115 19.26C190.795 19.2467 189.669 18.9667 188.735 18.42C187.802 17.8733 187.082 17.0733 186.575 16.02C186.082 14.9533 185.835 13.6533 185.835 12.12C185.835 10.88 185.995 9.79333 186.315 8.86C186.635 7.92667 187.089 7.14667 187.675 6.52C188.275 5.88 188.995 5.4 189.835 5.08C190.675 4.76 191.609 4.6 192.635 4.6C193.675 4.6 194.595 4.75333 195.395 5.06C196.209 5.36667 196.889 5.82 197.435 6.42C197.995 7.02 198.422 7.76 198.715 8.64C199.009 9.50667 199.155 10.5067 199.155 11.64C199.155 12.92 198.962 14.0667 198.575 15.08C198.202 16.08 197.655 16.9133 196.935 17.58C196.215 18.2333 195.355 18.6933 194.355 18.96L194.455 18.58C195.135 18.9933 195.709 19.3267 196.175 19.58C196.655 19.8467 197.069 20.04 197.415 20.16C197.762 20.28 198.089 20.34 198.395 20.34C198.742 20.34 199.082 20.2733 199.415 20.14C199.749 20.0067 200.129 19.82 200.555 19.58L201.755 21.68C201.035 22.12 200.415 22.46 199.895 22.7C199.375 22.94 198.862 23.06 198.355 23.06ZM189.575 12.02C189.575 13.1267 189.675 14.02 189.875 14.7C190.089 15.38 190.409 15.8733 190.835 16.18C191.262 16.4733 191.795 16.62 192.435 16.62C193.115 16.62 193.675 16.46 194.115 16.14C194.555 15.82 194.882 15.3067 195.095 14.6C195.322 13.8933 195.435 12.9533 195.435 11.78C195.435 10.6733 195.322 9.78667 195.095 9.12C194.882 8.45333 194.562 7.97333 194.135 7.68C193.709 7.38667 193.162 7.24 192.495 7.24C191.842 7.24 191.295 7.4 190.855 7.72C190.429 8.02667 190.109 8.52667 189.895 9.22C189.682 9.91333 189.575 10.8467 189.575 12.02Z"
     fill="black"
     id="path14" />
  <path
     d="M239.431 51.86L238.951 51.22L241.591 51.74V53H234.331V51.74L237.471 51.24L236.971 51.86V41L237.651 41.04L234.271 42.94L233.471 41.44L237.391 38.88H239.431V51.86Z"
     fill="#E43A45"
     id="path16"
     style="fill:#e43a45;fill-opacity:1" />
  <path
     d="M277.694 53V50.92C279.227 49.6133 280.487 48.4867 281.474 47.54C282.474 46.58 283.214 45.7267 283.694 44.98C284.174 44.22 284.414 43.48 284.414 42.76C284.414 42.0267 284.174 41.48 283.694 41.12C283.214 40.76 282.607 40.58 281.874 40.58C281.527 40.58 281.147 40.62 280.734 40.7C280.334 40.78 279.92 40.8933 279.494 41.04L279.774 40.62L279.454 42.92H277.974L277.774 39.5C278.574 39.2467 279.354 39.06 280.114 38.94C280.887 38.8067 281.607 38.74 282.274 38.74C283.194 38.74 284.007 38.8667 284.714 39.12C285.434 39.3733 285.994 39.7733 286.394 40.32C286.794 40.8533 286.994 41.5533 286.994 42.42C286.994 43.38 286.74 44.3133 286.234 45.22C285.74 46.1267 285.014 47.0733 284.054 48.06C283.094 49.0467 281.914 50.14 280.514 51.34V51.06H287.314V53H277.694Z"
     fill="black"
     id="path18"
     style="fill:#e43a45;fill-opacity:1" />
  <path
     d="M11.7978 87.22C11.0378 87.22 10.2778 87.1267 9.51781 86.94C8.75781 86.7533 8.04448 86.4733 7.37781 86.1L8.01781 84.36C8.61781 84.6533 9.23115 84.8867 9.85781 85.06C10.4978 85.22 11.1178 85.3 11.7178 85.3C12.2911 85.3 12.8045 85.2133 13.2578 85.04C13.7111 84.8667 14.0645 84.6 14.3178 84.24C14.5845 83.88 14.7178 83.4267 14.7178 82.88C14.7178 82.4133 14.6111 82.0067 14.3978 81.66C14.1845 81.3133 13.8578 81.0467 13.4178 80.86C12.9778 80.6733 12.4045 80.58 11.6978 80.58H9.95781V78.82H11.6378C12.5578 78.82 13.2511 78.6333 13.7178 78.26C14.1978 77.8867 14.4378 77.3467 14.4378 76.64C14.4378 75.88 14.1911 75.34 13.6978 75.02C13.2178 74.6867 12.6045 74.52 11.8578 74.52C11.4311 74.52 11.0045 74.5667 10.5778 74.66C10.1511 74.74 9.73115 74.8467 9.31781 74.98L9.63781 74.64L9.39781 76.82H7.91781L7.75781 73.54C8.54448 73.2867 9.33115 73.0933 10.1178 72.96C10.9045 72.8133 11.6578 72.74 12.3778 72.74C13.2445 72.74 14.0178 72.86 14.6978 73.1C15.3911 73.3267 15.9378 73.6933 16.3378 74.2C16.7378 74.7067 16.9378 75.3867 16.9378 76.24C16.9378 77.2533 16.6378 78.0467 16.0378 78.62C15.4378 79.1933 14.5778 79.5533 13.4578 79.7L13.3778 79.5C14.6845 79.58 15.6511 79.92 16.2778 80.52C16.9045 81.1067 17.2178 81.92 17.2178 82.96C17.2178 83.6933 17.0711 84.3267 16.7778 84.86C16.4978 85.3933 16.1045 85.84 15.5978 86.2C15.1045 86.5467 14.5311 86.8067 13.8778 86.98C13.2245 87.14 12.5311 87.22 11.7978 87.22Z"
     fill="black"
     id="path20"
     style="fill:#000000;fill-opacity:1" />
  <path
     d="M58.6141 83.26L59.2341 83.76H51.9541L51.6741 82.06L58.1941 72.72L61.0741 72.96V82.32L60.4541 81.86H63.2541V83.76H60.4541L61.0741 83.26V87H58.6141V83.26ZM59.2741 81.86L58.6541 82.32V74.12L59.4741 74.26L53.6341 82.74L53.1541 81.86H59.2741Z"
     fill="black"
     id="path22"
     style="fill:#000000;fill-opacity:1" />
  <path
     d="M102.09 87.2C100.677 87.2 99.2303 86.8533 97.7503 86.16L98.4103 84.44C98.9836 84.6933 99.5503 84.8933 100.11 85.04C100.684 85.1867 101.224 85.26 101.73 85.26C102.304 85.26 102.804 85.16 103.23 84.96C103.67 84.76 104.01 84.4667 104.25 84.08C104.49 83.68 104.61 83.2067 104.61 82.66C104.61 82.0067 104.43 81.5067 104.07 81.16C103.71 80.8133 103.184 80.5733 102.49 80.44C101.81 80.3067 100.97 80.24 99.9703 80.24H98.5903L98.8703 72.96H106.57L106.53 74.86H100.59L101.27 74.42L101.05 78.98L100.41 78.44H101.61C102.93 78.44 103.997 78.6067 104.81 78.94C105.637 79.26 106.237 79.7267 106.61 80.34C106.997 80.9533 107.19 81.6867 107.19 82.54C107.19 83.5533 106.97 84.4067 106.53 85.1C106.09 85.78 105.484 86.3 104.71 86.66C103.95 87.02 103.077 87.2 102.09 87.2Z"
     fill="black"
     id="path24"
     style="fill:#000000;fill-opacity:1" />
  <path
     d="M144.742 81.28L144.642 79.62C145.228 79.2467 145.848 78.9533 146.502 78.74C147.168 78.5267 147.842 78.42 148.522 78.42C149.308 78.42 150.015 78.5733 150.642 78.88C151.282 79.1867 151.795 79.6467 152.182 80.26C152.568 80.8733 152.762 81.64 152.762 82.56C152.762 83.5333 152.542 84.3667 152.102 85.06C151.662 85.7533 151.062 86.2867 150.302 86.66C149.555 87.0333 148.702 87.22 147.742 87.22C146.742 87.22 145.848 87 145.062 86.56C144.275 86.12 143.655 85.4333 143.202 84.5C142.748 83.5667 142.522 82.3533 142.522 80.86C142.522 79.18 142.802 77.7333 143.362 76.52C143.935 75.3067 144.735 74.3733 145.762 73.72C146.802 73.0667 148.008 72.74 149.382 72.74C150.128 72.74 150.915 72.8467 151.742 73.06L151.562 74.84C151.215 74.76 150.882 74.7067 150.562 74.68C150.242 74.6533 149.948 74.64 149.682 74.64C148.602 74.64 147.722 74.8867 147.042 75.38C146.362 75.8733 145.855 76.5867 145.522 77.52C145.202 78.44 145.042 79.5733 145.042 80.92C145.042 82.4133 145.262 83.52 145.702 84.24C146.155 84.96 146.835 85.32 147.742 85.32C148.502 85.32 149.102 85.0933 149.542 84.64C149.995 84.1733 150.222 83.5133 150.222 82.66C150.222 82.0867 150.108 81.62 149.882 81.26C149.668 80.8867 149.375 80.6133 149.002 80.44C148.642 80.2533 148.222 80.16 147.742 80.16C147.262 80.16 146.762 80.2533 146.242 80.44C145.722 80.6267 145.222 80.9067 144.742 81.28Z"
     fill="black"
     id="path26"
     style="fill:#000000;fill-opacity:1" />
  <path
     d="M197.456 74.7L192.196 87H189.476L194.936 74.54L195.296 74.92H189.076L189.616 74.54L189.136 76.94H187.656V72.96H197.456V74.7Z"
     fill="black"
     id="path28"
     style="fill:#000000;fill-opacity:1" />
  <path
     d="M237.284 87.22C236.658 87.22 236.051 87.14 235.464 86.98C234.891 86.82 234.371 86.58 233.904 86.26C233.438 85.9267 233.071 85.5267 232.804 85.06C232.538 84.5933 232.404 84.0467 232.404 83.42C232.404 82.9 232.504 82.4267 232.704 82C232.904 81.56 233.178 81.18 233.524 80.86C233.871 80.54 234.258 80.2733 234.684 80.06C235.124 79.8467 235.578 79.6867 236.044 79.58L237.484 80.3C237.178 80.38 236.864 80.5 236.544 80.66C236.224 80.8067 235.931 80.9933 235.664 81.22C235.411 81.4467 235.198 81.7133 235.024 82.02C234.864 82.3267 234.784 82.68 234.784 83.08C234.784 83.56 234.898 83.98 235.124 84.34C235.364 84.7 235.684 84.98 236.084 85.18C236.484 85.3667 236.938 85.46 237.444 85.46C237.964 85.46 238.424 85.36 238.824 85.16C239.238 84.9467 239.558 84.6667 239.784 84.32C240.024 83.96 240.144 83.56 240.144 83.12C240.144 82.6267 240.011 82.2267 239.744 81.92C239.491 81.6 239.144 81.3333 238.704 81.12C238.264 80.8933 237.778 80.6933 237.244 80.52C236.724 80.3467 236.204 80.16 235.684 79.96C235.164 79.76 234.684 79.52 234.244 79.24C233.804 78.9467 233.451 78.5867 233.184 78.16C232.918 77.7333 232.784 77.2 232.784 76.56C232.784 75.6933 233.018 74.98 233.484 74.42C233.951 73.86 234.551 73.44 235.284 73.16C236.031 72.88 236.824 72.74 237.664 72.74C238.478 72.74 239.231 72.8733 239.924 73.14C240.631 73.3933 241.198 73.7867 241.624 74.32C242.051 74.8533 242.264 75.52 242.264 76.32C242.264 76.8133 242.171 77.2533 241.984 77.64C241.811 78.0133 241.558 78.3333 241.224 78.6C240.904 78.8667 240.544 79.0933 240.144 79.28C239.744 79.4533 239.318 79.5933 238.864 79.7L237.124 78.94C237.511 78.8867 237.871 78.8 238.204 78.68C238.538 78.5467 238.831 78.38 239.084 78.18C239.351 77.98 239.558 77.74 239.704 77.46C239.851 77.18 239.924 76.86 239.924 76.5C239.924 76.06 239.818 75.6933 239.604 75.4C239.391 75.0933 239.104 74.8667 238.744 74.72C238.384 74.56 237.991 74.48 237.564 74.48C237.138 74.48 236.744 74.56 236.384 74.72C236.024 74.8667 235.731 75.0867 235.504 75.38C235.278 75.66 235.164 76.0133 235.164 76.44C235.164 76.9067 235.298 77.2933 235.564 77.6C235.831 77.9067 236.184 78.1667 236.624 78.38C237.064 78.58 237.544 78.7667 238.064 78.94C238.598 79.1133 239.124 79.3 239.644 79.5C240.164 79.7 240.644 79.9467 241.084 80.24C241.524 80.5333 241.878 80.9 242.144 81.34C242.411 81.78 242.544 82.3333 242.544 83C242.544 83.68 242.391 84.2867 242.084 84.82C241.791 85.3533 241.391 85.7933 240.884 86.14C240.391 86.4867 239.831 86.7533 239.204 86.94C238.578 87.1267 237.938 87.22 237.284 87.22Z"
     fill="black"
     id="path30"
     style="fill:#000000;fill-opacity:1" />
  <path
     d="M285.251 78.64L285.371 80.3C284.785 80.6733 284.158 80.9733 283.491 81.2C282.825 81.4267 282.145 81.54 281.451 81.54C280.651 81.54 279.931 81.38 279.291 81.06C278.665 80.74 278.171 80.2733 277.811 79.66C277.451 79.0467 277.265 78.3067 277.251 77.44C277.238 76.4533 277.445 75.6133 277.871 74.92C278.311 74.2133 278.911 73.6733 279.671 73.3C280.431 72.9267 281.298 72.74 282.271 72.74C283.271 72.74 284.165 72.96 284.951 73.4C285.738 73.8267 286.351 74.5133 286.791 75.46C287.245 76.3933 287.471 77.6133 287.471 79.12C287.471 80.76 287.191 82.1867 286.631 83.4C286.071 84.6133 285.278 85.5533 284.251 86.22C283.225 86.8867 282.011 87.22 280.611 87.22C279.865 87.22 279.078 87.1133 278.251 86.9L278.431 85.14C278.778 85.2067 279.111 85.26 279.431 85.3C279.751 85.3267 280.038 85.34 280.291 85.34C281.385 85.34 282.271 85.0933 282.951 84.6C283.645 84.1067 284.151 83.3933 284.471 82.46C284.791 81.5133 284.951 80.3733 284.951 79.04C284.951 77.5467 284.725 76.44 284.271 75.72C283.831 75 283.158 74.64 282.251 74.64C281.491 74.64 280.885 74.8733 280.431 75.34C279.991 75.8067 279.771 76.4533 279.771 77.28C279.771 77.8667 279.878 78.3467 280.091 78.72C280.318 79.0933 280.611 79.3733 280.971 79.56C281.345 79.7333 281.758 79.82 282.211 79.82C282.718 79.82 283.231 79.72 283.751 79.52C284.271 79.32 284.771 79.0267 285.251 78.64Z"
     fill="black"
     id="path32"
     style="fill:#000000;fill-opacity:1" />
  <path
     d="M8.0643 119.86L7.5843 119.22L10.2243 119.74V121H2.9643V119.74L6.1043 119.24L5.6043 119.86V109L6.2843 109.04L2.9043 110.94L2.1043 109.44L6.0243 106.88H8.0643V119.86ZM16.6413 121.22C15.428 121.22 14.4347 120.96 13.6613 120.44C12.888 119.907 12.3213 119.113 11.9613 118.06C11.6013 117.007 11.4213 115.687 11.4213 114.1C11.4213 112.473 11.608 111.113 11.9813 110.02C12.368 108.927 12.9613 108.107 13.7613 107.56C14.5747 107.013 15.6213 106.74 16.9013 106.74C18.168 106.74 19.1747 107 19.9213 107.52C20.668 108.027 21.2013 108.8 21.5213 109.84C21.8547 110.867 22.0213 112.16 22.0213 113.72C22.0213 115.36 21.828 116.74 21.4413 117.86C21.068 118.98 20.4813 119.82 19.6813 120.38C18.8947 120.94 17.8813 121.22 16.6413 121.22ZM16.7013 119.34C17.3813 119.34 17.9213 119.147 18.3213 118.76C18.7213 118.36 19.008 117.753 19.1813 116.94C19.368 116.113 19.4613 115.087 19.4613 113.86C19.4747 112.607 19.3947 111.6 19.2213 110.84C19.048 110.067 18.7613 109.507 18.3613 109.16C17.9747 108.8 17.4613 108.62 16.8213 108.62C16.128 108.62 15.568 108.82 15.1413 109.22C14.728 109.607 14.428 110.2 14.2413 111C14.0547 111.8 13.9613 112.807 13.9613 114.02C13.9613 115.233 14.048 116.233 14.2213 117.02C14.408 117.793 14.7013 118.373 15.1013 118.76C15.5147 119.147 16.048 119.34 16.7013 119.34Z"
     fill="black"
     id="path34"
     style="fill:#000000;fill-opacity:1" />
  <path
     d="M55.203 119.86L54.723 119.22L57.363 119.74V121H50.103V119.74L53.243 119.24L52.743 119.86V109L53.423 109.04L50.043 110.94L49.243 109.44L53.163 106.88H55.203V119.86ZM63.66 119.86L63.18 119.22L65.82 119.74V121H58.56V119.74L61.7 119.24L61.2 119.86V109L61.88 109.04L58.5 110.94L57.7 109.44L61.62 106.88H63.66V119.86Z"
     fill="black"
     id="path36"
     style="fill:#000000;fill-opacity:1" />
  <path
     d="M98.8651 119.86L98.3851 119.22L101.025 119.74V121H93.7651V119.74L96.9051 119.24L96.4051 119.86V109L97.0851 109.04L93.7051 110.94L92.9051 109.44L96.8251 106.88H98.8651V119.86ZM101.922 121V118.92C103.455 117.613 104.715 116.487 105.702 115.54C106.702 114.58 107.442 113.727 107.922 112.98C108.402 112.22 108.642 111.48 108.642 110.76C108.642 110.027 108.402 109.48 107.922 109.12C107.442 108.76 106.835 108.58 106.102 108.58C105.755 108.58 105.375 108.62 104.962 108.7C104.562 108.78 104.149 108.893 103.722 109.04L104.002 108.62L103.682 110.92H102.202L102.002 107.5C102.802 107.247 103.582 107.06 104.342 106.94C105.115 106.807 105.835 106.74 106.502 106.74C107.422 106.74 108.235 106.867 108.942 107.12C109.662 107.373 110.222 107.773 110.622 108.32C111.022 108.853 111.222 109.553 111.222 110.42C111.222 111.38 110.969 112.313 110.462 113.22C109.969 114.127 109.242 115.073 108.282 116.06C107.322 117.047 106.142 118.14 104.742 119.34V119.06H111.542V121H101.922Z"
     fill="black"
     id="path38"
     style="fill:#000000;fill-opacity:1" />
  <path
     d="M143.689 119.86L143.209 119.22L145.849 119.74V121H138.589V119.74L141.729 119.24L141.229 119.86V109L141.909 109.04L138.529 110.94L137.729 109.44L141.649 106.88H143.689V119.86ZM151.026 121.22C150.266 121.22 149.506 121.127 148.746 120.94C147.986 120.753 147.273 120.473 146.606 120.1L147.246 118.36C147.846 118.653 148.46 118.887 149.086 119.06C149.726 119.22 150.346 119.3 150.946 119.3C151.52 119.3 152.033 119.213 152.486 119.04C152.94 118.867 153.293 118.6 153.546 118.24C153.813 117.88 153.946 117.427 153.946 116.88C153.946 116.413 153.84 116.007 153.626 115.66C153.413 115.313 153.086 115.047 152.646 114.86C152.206 114.673 151.633 114.58 150.926 114.58H149.186V112.82H150.866C151.786 112.82 152.48 112.633 152.946 112.26C153.426 111.887 153.666 111.347 153.666 110.64C153.666 109.88 153.42 109.34 152.926 109.02C152.446 108.687 151.833 108.52 151.086 108.52C150.66 108.52 150.233 108.567 149.806 108.66C149.38 108.74 148.96 108.847 148.546 108.98L148.866 108.64L148.626 110.82H147.146L146.986 107.54C147.773 107.287 148.56 107.093 149.346 106.96C150.133 106.813 150.886 106.74 151.606 106.74C152.473 106.74 153.246 106.86 153.926 107.1C154.62 107.327 155.166 107.693 155.566 108.2C155.966 108.707 156.166 109.387 156.166 110.24C156.166 111.253 155.866 112.047 155.266 112.62C154.666 113.193 153.806 113.553 152.686 113.7L152.606 113.5C153.913 113.58 154.88 113.92 155.506 114.52C156.133 115.107 156.446 115.92 156.446 116.96C156.446 117.693 156.3 118.327 156.006 118.86C155.726 119.393 155.333 119.84 154.826 120.2C154.333 120.547 153.76 120.807 153.106 120.98C152.453 121.14 151.76 121.22 151.026 121.22Z"
     fill="black"
     id="path40"
     style="fill:#e43a45;fill-opacity:1" />
  <path
     d="M188.426 119.86L187.946 119.22L190.586 119.74V121H183.326V119.74L186.466 119.24L185.966 119.86V109L186.646 109.04L183.266 110.94L182.466 109.44L186.386 106.88H188.426V119.86ZM197.843 117.26L198.463 117.76H191.183L190.903 116.06L197.423 106.72L200.303 106.96V116.32L199.683 115.86H202.483V117.76H199.683L200.303 117.26V121H197.843V117.26ZM198.503 115.86L197.883 116.32V108.12L198.703 108.26L192.863 116.74L192.383 115.86H198.503Z"
     fill="black"
     id="path42"
     style="fill:#e43a45;fill-opacity:1" />
  <path
     d="M234.002 119.86L233.522 119.22L236.162 119.74V121H228.902V119.74L232.042 119.24L231.542 119.86V109L232.222 109.04L228.842 110.94L228.042 109.44L231.962 106.88H234.002V119.86ZM241.319 121.2C239.905 121.2 238.459 120.853 236.979 120.16L237.639 118.44C238.212 118.693 238.779 118.893 239.339 119.04C239.912 119.187 240.452 119.26 240.959 119.26C241.532 119.26 242.032 119.16 242.459 118.96C242.899 118.76 243.239 118.467 243.479 118.08C243.719 117.68 243.839 117.207 243.839 116.66C243.839 116.007 243.659 115.507 243.299 115.16C242.939 114.813 242.412 114.573 241.719 114.44C241.039 114.307 240.199 114.24 239.199 114.24H237.819L238.099 106.96H245.799L245.759 108.86H239.819L240.499 108.42L240.279 112.98L239.639 112.44H240.839C242.159 112.44 243.225 112.607 244.039 112.94C244.865 113.26 245.465 113.727 245.839 114.34C246.225 114.953 246.419 115.687 246.419 116.54C246.419 117.553 246.199 118.407 245.759 119.1C245.319 119.78 244.712 120.3 243.939 120.66C243.179 121.02 242.305 121.2 241.319 121.2Z"
     fill="black"
     id="path44"
     style="fill:#000000;fill-opacity:1" />
  <path
     d="M278.533 119.86L278.053 119.22L280.693 119.74V121H273.433V119.74L276.573 119.24L276.073 119.86V109L276.753 109.04L273.373 110.94L272.573 109.44L276.493 106.88H278.533V119.86ZM283.97 115.28L283.87 113.62C284.457 113.247 285.077 112.953 285.73 112.74C286.397 112.527 287.07 112.42 287.75 112.42C288.537 112.42 289.243 112.573 289.87 112.88C290.51 113.187 291.023 113.647 291.41 114.26C291.797 114.873 291.99 115.64 291.99 116.56C291.99 117.533 291.77 118.367 291.33 119.06C290.89 119.753 290.29 120.287 289.53 120.66C288.783 121.033 287.93 121.22 286.97 121.22C285.97 121.22 285.077 121 284.29 120.56C283.503 120.12 282.883 119.433 282.43 118.5C281.977 117.567 281.75 116.353 281.75 114.86C281.75 113.18 282.03 111.733 282.59 110.52C283.163 109.307 283.963 108.373 284.99 107.72C286.03 107.067 287.237 106.74 288.61 106.74C289.357 106.74 290.143 106.847 290.97 107.06L290.79 108.84C290.443 108.76 290.11 108.707 289.79 108.68C289.47 108.653 289.177 108.64 288.91 108.64C287.83 108.64 286.95 108.887 286.27 109.38C285.59 109.873 285.083 110.587 284.75 111.52C284.43 112.44 284.27 113.573 284.27 114.92C284.27 116.413 284.49 117.52 284.93 118.24C285.383 118.96 286.063 119.32 286.97 119.32C287.73 119.32 288.33 119.093 288.77 118.64C289.223 118.173 289.45 117.513 289.45 116.66C289.45 116.087 289.337 115.62 289.11 115.26C288.897 114.887 288.603 114.613 288.23 114.44C287.87 114.253 287.45 114.16 286.97 114.16C286.49 114.16 285.99 114.253 285.47 114.44C284.95 114.627 284.45 114.907 283.97 115.28Z"
     fill="black"
     id="path46"
     style="fill:#000000;fill-opacity:1" />
  <path
     d="M9.26547 153.86L8.78547 153.22L11.4255 153.74V155H4.16547V153.74L7.30547 153.24L6.80547 153.86V143L7.48547 143.04L4.10547 144.94L3.30547 143.44L7.22547 140.88H9.26547V153.86ZM21.5872 142.7L16.3272 155H13.6072L19.0672 142.54L19.4272 142.92H13.2072L13.7472 142.54L13.2672 144.94H11.7872V140.96H21.5872V142.7Z"
     fill="black"
     id="path48"
     style="fill:#000000;fill-opacity:1" />
  <path
     d="M53.4159 153.86L52.9359 153.22L55.5759 153.74V155H48.3159V153.74L51.4559 153.24L50.9559 153.86V143L51.6359 143.04L48.2559 144.94L47.4559 143.44L51.3759 140.88H53.4159V153.86ZM61.5129 155.22C60.8862 155.22 60.2796 155.14 59.6929 154.98C59.1196 154.82 58.5996 154.58 58.1329 154.26C57.6662 153.927 57.2996 153.527 57.0329 153.06C56.7662 152.593 56.6329 152.047 56.6329 151.42C56.6329 150.9 56.7329 150.427 56.9329 150C57.1329 149.56 57.4062 149.18 57.7529 148.86C58.0996 148.54 58.4862 148.273 58.9129 148.06C59.3529 147.847 59.8062 147.687 60.2729 147.58L61.7129 148.3C61.4062 148.38 61.0929 148.5 60.7729 148.66C60.4529 148.807 60.1596 148.993 59.8929 149.22C59.6396 149.447 59.4262 149.713 59.2529 150.02C59.0929 150.327 59.0129 150.68 59.0129 151.08C59.0129 151.56 59.1262 151.98 59.3529 152.34C59.5929 152.7 59.9129 152.98 60.3129 153.18C60.7129 153.367 61.1662 153.46 61.6729 153.46C62.1929 153.46 62.6529 153.36 63.0529 153.16C63.4662 152.947 63.7862 152.667 64.0129 152.32C64.2529 151.96 64.3729 151.56 64.3729 151.12C64.3729 150.627 64.2396 150.227 63.9729 149.92C63.7196 149.6 63.3729 149.333 62.9329 149.12C62.4929 148.893 62.0062 148.693 61.4729 148.52C60.9529 148.347 60.4329 148.16 59.9129 147.96C59.3929 147.76 58.9129 147.52 58.4729 147.24C58.0329 146.947 57.6796 146.587 57.4129 146.16C57.1462 145.733 57.0129 145.2 57.0129 144.56C57.0129 143.693 57.2462 142.98 57.7129 142.42C58.1796 141.86 58.7796 141.44 59.5129 141.16C60.2596 140.88 61.0529 140.74 61.8929 140.74C62.7062 140.74 63.4596 140.873 64.1529 141.14C64.8596 141.393 65.4262 141.787 65.8529 142.32C66.2796 142.853 66.4929 143.52 66.4929 144.32C66.4929 144.813 66.3996 145.253 66.2129 145.64C66.0396 146.013 65.7862 146.333 65.4529 146.6C65.1329 146.867 64.7729 147.093 64.3729 147.28C63.9729 147.453 63.5462 147.593 63.0929 147.7L61.3529 146.94C61.7396 146.887 62.0996 146.8 62.4329 146.68C62.7662 146.547 63.0596 146.38 63.3129 146.18C63.5796 145.98 63.7862 145.74 63.9329 145.46C64.0796 145.18 64.1529 144.86 64.1529 144.5C64.1529 144.06 64.0462 143.693 63.8329 143.4C63.6196 143.093 63.3329 142.867 62.9729 142.72C62.6129 142.56 62.2196 142.48 61.7929 142.48C61.3662 142.48 60.9729 142.56 60.6129 142.72C60.2529 142.867 59.9596 143.087 59.7329 143.38C59.5062 143.66 59.3929 144.013 59.3929 144.44C59.3929 144.907 59.5262 145.293 59.7929 145.6C60.0596 145.907 60.4129 146.167 60.8529 146.38C61.2929 146.58 61.7729 146.767 62.2929 146.94C62.8262 147.113 63.3529 147.3 63.8729 147.5C64.3929 147.7 64.8729 147.947 65.3129 148.24C65.7529 148.533 66.1062 148.9 66.3729 149.34C66.6396 149.78 66.7729 150.333 66.7729 151C66.7729 151.68 66.6196 152.287 66.3129 152.82C66.0196 153.353 65.6196 153.793 65.1129 154.14C64.6196 154.487 64.0596 154.753 63.4329 154.94C62.8062 155.127 62.1662 155.22 61.5129 155.22Z"
     fill="black"
     id="path50"
     style="fill:#000000;fill-opacity:1" />
  <path
     d="M98.5428 153.86L98.0628 153.22L100.703 153.74V155H93.4428V153.74L96.5828 153.24L96.0828 153.86V143L96.7628 143.04L93.3828 144.94L92.5828 143.44L96.5028 140.88H98.5428V153.86ZM109.48 146.64L109.6 148.3C109.013 148.673 108.387 148.973 107.72 149.2C107.053 149.427 106.373 149.54 105.68 149.54C104.88 149.54 104.16 149.38 103.52 149.06C102.893 148.74 102.4 148.273 102.04 147.66C101.68 147.047 101.493 146.307 101.48 145.44C101.467 144.453 101.673 143.613 102.1 142.92C102.54 142.213 103.14 141.673 103.9 141.3C104.66 140.927 105.527 140.74 106.5 140.74C107.5 140.74 108.393 140.96 109.18 141.4C109.967 141.827 110.58 142.513 111.02 143.46C111.473 144.393 111.7 145.613 111.7 147.12C111.7 148.76 111.42 150.187 110.86 151.4C110.3 152.613 109.507 153.553 108.48 154.22C107.453 154.887 106.24 155.22 104.84 155.22C104.093 155.22 103.307 155.113 102.48 154.9L102.66 153.14C103.007 153.207 103.34 153.26 103.66 153.3C103.98 153.327 104.267 153.34 104.52 153.34C105.613 153.34 106.5 153.093 107.18 152.6C107.873 152.107 108.38 151.393 108.7 150.46C109.02 149.513 109.18 148.373 109.18 147.04C109.18 145.547 108.953 144.44 108.5 143.72C108.06 143 107.387 142.64 106.48 142.64C105.72 142.64 105.113 142.873 104.66 143.34C104.22 143.807 104 144.453 104 145.28C104 145.867 104.107 146.347 104.32 146.72C104.547 147.093 104.84 147.373 105.2 147.56C105.573 147.733 105.987 147.82 106.44 147.82C106.947 147.82 107.46 147.72 107.98 147.52C108.5 147.32 109 147.027 109.48 146.64Z"
     fill="black"
     id="path52"
     style="fill:#000000;fill-opacity:1" />
  <path
     d="M136.326 155V152.92C137.86 151.613 139.12 150.487 140.106 149.54C141.106 148.58 141.846 147.727 142.326 146.98C142.806 146.22 143.046 145.48 143.046 144.76C143.046 144.027 142.806 143.48 142.326 143.12C141.846 142.76 141.24 142.58 140.506 142.58C140.16 142.58 139.78 142.62 139.366 142.7C138.966 142.78 138.553 142.893 138.126 143.04L138.406 142.62L138.086 144.92H136.606L136.406 141.5C137.206 141.247 137.986 141.06 138.746 140.94C139.52 140.807 140.24 140.74 140.906 140.74C141.826 140.74 142.64 140.867 143.346 141.12C144.066 141.373 144.626 141.773 145.026 142.32C145.426 142.853 145.626 143.553 145.626 144.42C145.626 145.38 145.373 146.313 144.866 147.22C144.373 148.127 143.646 149.073 142.686 150.06C141.726 151.047 140.546 152.14 139.146 153.34V153.06H145.946V155H136.326ZM152.979 155.22C151.766 155.22 150.773 154.96 149.999 154.44C149.226 153.907 148.659 153.113 148.299 152.06C147.939 151.007 147.759 149.687 147.759 148.1C147.759 146.473 147.946 145.113 148.319 144.02C148.706 142.927 149.299 142.107 150.099 141.56C150.913 141.013 151.959 140.74 153.239 140.74C154.506 140.74 155.513 141 156.259 141.52C157.006 142.027 157.539 142.8 157.859 143.84C158.193 144.867 158.359 146.16 158.359 147.72C158.359 149.36 158.166 150.74 157.779 151.86C157.406 152.98 156.819 153.82 156.019 154.38C155.233 154.94 154.219 155.22 152.979 155.22ZM153.039 153.34C153.719 153.34 154.259 153.147 154.659 152.76C155.059 152.36 155.346 151.753 155.519 150.94C155.706 150.113 155.799 149.087 155.799 147.86C155.813 146.607 155.733 145.6 155.559 144.84C155.386 144.067 155.099 143.507 154.699 143.16C154.313 142.8 153.799 142.62 153.159 142.62C152.466 142.62 151.906 142.82 151.479 143.22C151.066 143.607 150.766 144.2 150.579 145C150.393 145.8 150.299 146.807 150.299 148.02C150.299 149.233 150.386 150.233 150.559 151.02C150.746 151.793 151.039 152.373 151.439 152.76C151.853 153.147 152.386 153.34 153.039 153.34Z"
     fill="black"
     id="path54"
     style="fill:#000000;fill-opacity:1" />
  <path
     d="M183.465 155V152.92C184.998 151.613 186.258 150.487 187.245 149.54C188.245 148.58 188.985 147.727 189.465 146.98C189.945 146.22 190.185 145.48 190.185 144.76C190.185 144.027 189.945 143.48 189.465 143.12C188.985 142.76 188.378 142.58 187.645 142.58C187.298 142.58 186.918 142.62 186.505 142.7C186.105 142.78 185.692 142.893 185.265 143.04L185.545 142.62L185.225 144.92H183.745L183.545 141.5C184.345 141.247 185.125 141.06 185.885 140.94C186.658 140.807 187.378 140.74 188.045 140.74C188.965 140.74 189.778 140.867 190.485 141.12C191.205 141.373 191.765 141.773 192.165 142.32C192.565 142.853 192.765 143.553 192.765 144.42C192.765 145.38 192.512 146.313 192.005 147.22C191.512 148.127 190.785 149.073 189.825 150.06C188.865 151.047 187.685 152.14 186.285 153.34V153.06H193.085V155H183.465ZM199.998 153.86L199.518 153.22L202.158 153.74V155H194.898V153.74L198.038 153.24L197.538 153.86V143L198.218 143.04L194.838 144.94L194.038 143.44L197.958 140.88H199.998V153.86Z"
     fill="black"
     id="path56"
     style="fill:#000000;fill-opacity:1" />
  <path
     d="M227.127 155V152.92C228.661 151.613 229.921 150.487 230.907 149.54C231.907 148.58 232.647 147.727 233.127 146.98C233.607 146.22 233.847 145.48 233.847 144.76C233.847 144.027 233.607 143.48 233.127 143.12C232.647 142.76 232.041 142.58 231.307 142.58C230.961 142.58 230.581 142.62 230.167 142.7C229.767 142.78 229.354 142.893 228.927 143.04L229.207 142.62L228.887 144.92H227.407L227.207 141.5C228.007 141.247 228.787 141.06 229.547 140.94C230.321 140.807 231.041 140.74 231.707 140.74C232.627 140.74 233.441 140.867 234.147 141.12C234.867 141.373 235.427 141.773 235.827 142.32C236.227 142.853 236.427 143.553 236.427 144.42C236.427 145.38 236.174 146.313 235.667 147.22C235.174 148.127 234.447 149.073 233.487 150.06C232.527 151.047 231.347 152.14 229.947 153.34V153.06H236.747V155H227.127ZM238.26 155V152.92C239.793 151.613 241.053 150.487 242.04 149.54C243.04 148.58 243.78 147.727 244.26 146.98C244.74 146.22 244.98 145.48 244.98 144.76C244.98 144.027 244.74 143.48 244.26 143.12C243.78 142.76 243.173 142.58 242.44 142.58C242.093 142.58 241.713 142.62 241.3 142.7C240.9 142.78 240.487 142.893 240.06 143.04L240.34 142.62L240.02 144.92H238.54L238.34 141.5C239.14 141.247 239.92 141.06 240.68 140.94C241.453 140.807 242.173 140.74 242.84 140.74C243.76 140.74 244.573 140.867 245.28 141.12C246 141.373 246.56 141.773 246.96 142.32C247.36 142.853 247.56 143.553 247.56 144.42C247.56 145.38 247.307 146.313 246.8 147.22C246.307 148.127 245.58 149.073 244.62 150.06C243.66 151.047 242.48 152.14 241.08 153.34V153.06H247.88V155H238.26Z"
     fill="black"
     id="path58"
     style="fill:#000000;fill-opacity:1" />
  <path
     d="M271.951 155V152.92C273.485 151.613 274.745 150.487 275.731 149.54C276.731 148.58 277.471 147.727 277.951 146.98C278.431 146.22 278.671 145.48 278.671 144.76C278.671 144.027 278.431 143.48 277.951 143.12C277.471 142.76 276.865 142.58 276.131 142.58C275.785 142.58 275.405 142.62 274.991 142.7C274.591 142.78 274.178 142.893 273.751 143.04L274.031 142.62L273.711 144.92H272.231L272.031 141.5C272.831 141.247 273.611 141.06 274.371 140.94C275.145 140.807 275.865 140.74 276.531 140.74C277.451 140.74 278.265 140.867 278.971 141.12C279.691 141.373 280.251 141.773 280.651 142.32C281.051 142.853 281.251 143.553 281.251 144.42C281.251 145.38 280.998 146.313 280.491 147.22C279.998 148.127 279.271 149.073 278.311 150.06C277.351 151.047 276.171 152.14 274.771 153.34V153.06H281.571V155H271.951ZM287.364 155.22C286.604 155.22 285.844 155.127 285.084 154.94C284.324 154.753 283.611 154.473 282.944 154.1L283.584 152.36C284.184 152.653 284.798 152.887 285.424 153.06C286.064 153.22 286.684 153.3 287.284 153.3C287.858 153.3 288.371 153.213 288.824 153.04C289.278 152.867 289.631 152.6 289.884 152.24C290.151 151.88 290.284 151.427 290.284 150.88C290.284 150.413 290.178 150.007 289.964 149.66C289.751 149.313 289.424 149.047 288.984 148.86C288.544 148.673 287.971 148.58 287.264 148.58H285.524V146.82H287.204C288.124 146.82 288.818 146.633 289.284 146.26C289.764 145.887 290.004 145.347 290.004 144.64C290.004 143.88 289.758 143.34 289.264 143.02C288.784 142.687 288.171 142.52 287.424 142.52C286.998 142.52 286.571 142.567 286.144 142.66C285.718 142.74 285.298 142.847 284.884 142.98L285.204 142.64L284.964 144.82H283.484L283.324 141.54C284.111 141.287 284.898 141.093 285.684 140.96C286.471 140.813 287.224 140.74 287.944 140.74C288.811 140.74 289.584 140.86 290.264 141.1C290.958 141.327 291.504 141.693 291.904 142.2C292.304 142.707 292.504 143.387 292.504 144.24C292.504 145.253 292.204 146.047 291.604 146.62C291.004 147.193 290.144 147.553 289.024 147.7L288.944 147.5C290.251 147.58 291.218 147.92 291.844 148.52C292.471 149.107 292.784 149.92 292.784 150.96C292.784 151.693 292.638 152.327 292.344 152.86C292.064 153.393 291.671 153.84 291.164 154.2C290.671 154.547 290.098 154.807 289.444 154.98C288.791 155.14 288.098 155.22 287.364 155.22Z"
     fill="black"
     id="path60"
     style="fill:#000000;fill-opacity:1" />
  <path
     d="M1.68773 189V186.92C3.22107 185.613 4.48107 184.487 5.46773 183.54C6.46773 182.58 7.20773 181.727 7.68773 180.98C8.16773 180.22 8.40773 179.48 8.40773 178.76C8.40773 178.027 8.16773 177.48 7.68773 177.12C7.20773 176.76 6.60107 176.58 5.86773 176.58C5.52107 176.58 5.14107 176.62 4.72773 176.7C4.32773 176.78 3.9144 176.893 3.48773 177.04L3.76773 176.62L3.44773 178.92H1.96773L1.76773 175.5C2.56773 175.247 3.34773 175.06 4.10773 174.94C4.88107 174.807 5.60107 174.74 6.26773 174.74C7.18773 174.74 8.00107 174.867 8.70773 175.12C9.42773 175.373 9.98773 175.773 10.3877 176.32C10.7877 176.853 10.9877 177.553 10.9877 178.42C10.9877 179.38 10.7344 180.313 10.2277 181.22C9.7344 182.127 9.00773 183.073 8.04773 184.06C7.08773 185.047 5.90773 186.14 4.50773 187.34V187.06H11.3077V189H1.68773ZM19.1805 185.26L19.8005 185.76H12.5205L12.2405 184.06L18.7605 174.72L21.6405 174.96V184.32L21.0205 183.86H23.8205V185.76H21.0205L21.6405 185.26V189H19.1805V185.26ZM19.8405 183.86L19.2205 184.32V176.12L20.0405 176.26L14.2005 184.74L13.7205 183.86H19.8405Z"
     fill="black"
     id="path62"
     style="fill:#000000;fill-opacity:1" />
  <path
     d="M47.2639 189V186.92C48.7972 185.613 50.0572 184.487 51.0439 183.54C52.0439 182.58 52.7839 181.727 53.2639 180.98C53.7439 180.22 53.9839 179.48 53.9839 178.76C53.9839 178.027 53.7439 177.48 53.2639 177.12C52.7839 176.76 52.1772 176.58 51.4439 176.58C51.0972 176.58 50.7172 176.62 50.3039 176.7C49.9039 176.78 49.4906 176.893 49.0639 177.04L49.3439 176.62L49.0239 178.92H47.5439L47.3439 175.5C48.1439 175.247 48.9239 175.06 49.6839 174.94C50.4572 174.807 51.1772 174.74 51.8439 174.74C52.7639 174.74 53.5772 174.867 54.2839 175.12C55.0039 175.373 55.5639 175.773 55.9639 176.32C56.3639 176.853 56.5639 177.553 56.5639 178.42C56.5639 179.38 56.3106 180.313 55.8039 181.22C55.3106 182.127 54.5839 183.073 53.6239 184.06C52.6639 185.047 51.4839 186.14 50.0839 187.34V187.06H56.8839V189H47.2639ZM62.6567 189.2C61.2434 189.2 59.7967 188.853 58.3167 188.16L58.9767 186.44C59.5501 186.693 60.1167 186.893 60.6767 187.04C61.2501 187.187 61.7901 187.26 62.2967 187.26C62.8701 187.26 63.3701 187.16 63.7967 186.96C64.2367 186.76 64.5767 186.467 64.8167 186.08C65.0567 185.68 65.1767 185.207 65.1767 184.66C65.1767 184.007 64.9967 183.507 64.6367 183.16C64.2767 182.813 63.7501 182.573 63.0567 182.44C62.3767 182.307 61.5367 182.24 60.5367 182.24H59.1567L59.4367 174.96H67.1367L67.0967 176.86H61.1567L61.8367 176.42L61.6167 180.98L60.9767 180.44H62.1767C63.4967 180.44 64.5634 180.607 65.3767 180.94C66.2034 181.26 66.8034 181.727 67.1767 182.34C67.5634 182.953 67.7567 183.687 67.7567 184.54C67.7567 185.553 67.5367 186.407 67.0967 187.1C66.6567 187.78 66.0501 188.3 65.2767 188.66C64.5167 189.02 63.6434 189.2 62.6567 189.2Z"
     fill="black"
     id="path64"
     style="fill:#000000;fill-opacity:1" />
  <path
     d="M91.7952 189V186.92C93.3285 185.613 94.5885 184.487 95.5752 183.54C96.5752 182.58 97.3152 181.727 97.7952 180.98C98.2752 180.22 98.5152 179.48 98.5152 178.76C98.5152 178.027 98.2752 177.48 97.7952 177.12C97.3152 176.76 96.7085 176.58 95.9752 176.58C95.6285 176.58 95.2485 176.62 94.8352 176.7C94.4352 176.78 94.0218 176.893 93.5952 177.04L93.8752 176.62L93.5552 178.92H92.0752L91.8752 175.5C92.6752 175.247 93.4552 175.06 94.2152 174.94C94.9885 174.807 95.7085 174.74 96.3752 174.74C97.2952 174.74 98.1085 174.867 98.8152 175.12C99.5352 175.373 100.095 175.773 100.495 176.32C100.895 176.853 101.095 177.553 101.095 178.42C101.095 179.38 100.842 180.313 100.335 181.22C99.8418 182.127 99.1152 183.073 98.1552 184.06C97.1952 185.047 96.0152 186.14 94.6152 187.34V187.06H101.415V189H91.7952ZM105.308 183.28L105.208 181.62C105.795 181.247 106.415 180.953 107.068 180.74C107.735 180.527 108.408 180.42 109.088 180.42C109.875 180.42 110.581 180.573 111.208 180.88C111.848 181.187 112.361 181.647 112.748 182.26C113.135 182.873 113.328 183.64 113.328 184.56C113.328 185.533 113.108 186.367 112.668 187.06C112.228 187.753 111.628 188.287 110.868 188.66C110.121 189.033 109.268 189.22 108.308 189.22C107.308 189.22 106.415 189 105.628 188.56C104.841 188.12 104.221 187.433 103.768 186.5C103.315 185.567 103.088 184.353 103.088 182.86C103.088 181.18 103.368 179.733 103.928 178.52C104.501 177.307 105.301 176.373 106.328 175.72C107.368 175.067 108.575 174.74 109.948 174.74C110.695 174.74 111.481 174.847 112.308 175.06L112.128 176.84C111.781 176.76 111.448 176.707 111.128 176.68C110.808 176.653 110.515 176.64 110.248 176.64C109.168 176.64 108.288 176.887 107.608 177.38C106.928 177.873 106.421 178.587 106.088 179.52C105.768 180.44 105.608 181.573 105.608 182.92C105.608 184.413 105.828 185.52 106.268 186.24C106.721 186.96 107.401 187.32 108.308 187.32C109.068 187.32 109.668 187.093 110.108 186.64C110.561 186.173 110.788 185.513 110.788 184.66C110.788 184.087 110.675 183.62 110.448 183.26C110.235 182.887 109.941 182.613 109.568 182.44C109.208 182.253 108.788 182.16 108.308 182.16C107.828 182.16 107.328 182.253 106.808 182.44C106.288 182.627 105.788 182.907 105.308 183.28Z"
     fill="black"
     id="path66"
     style="fill:#000000;fill-opacity:1" />
  <path
     d="M137.489 189V186.92C139.022 185.613 140.282 184.487 141.269 183.54C142.269 182.58 143.009 181.727 143.489 180.98C143.969 180.22 144.209 179.48 144.209 178.76C144.209 178.027 143.969 177.48 143.489 177.12C143.009 176.76 142.402 176.58 141.669 176.58C141.322 176.58 140.942 176.62 140.529 176.7C140.129 176.78 139.715 176.893 139.289 177.04L139.569 176.62L139.249 178.92H137.769L137.569 175.5C138.369 175.247 139.149 175.06 139.909 174.94C140.682 174.807 141.402 174.74 142.069 174.74C142.989 174.74 143.802 174.867 144.509 175.12C145.229 175.373 145.789 175.773 146.189 176.32C146.589 176.853 146.789 177.553 146.789 178.42C146.789 179.38 146.535 180.313 146.029 181.22C145.535 182.127 144.809 183.073 143.849 184.06C142.889 185.047 141.709 186.14 140.309 187.34V187.06H147.109V189H137.489ZM157.964 176.7L152.704 189H149.984L155.444 176.54L155.804 176.92H149.584L150.124 176.54L149.644 178.94H148.164V174.96H157.964V176.7Z"
     fill="black"
     id="path68"
     style="fill:#000000;fill-opacity:1" />
  <path
     d="M181.678 189V186.92C183.211 185.613 184.471 184.487 185.458 183.54C186.458 182.58 187.198 181.727 187.678 180.98C188.158 180.22 188.398 179.48 188.398 178.76C188.398 178.027 188.158 177.48 187.678 177.12C187.198 176.76 186.591 176.58 185.858 176.58C185.511 176.58 185.131 176.62 184.718 176.7C184.318 176.78 183.905 176.893 183.478 177.04L183.758 176.62L183.438 178.92H181.958L181.758 175.5C182.558 175.247 183.338 175.06 184.098 174.94C184.871 174.807 185.591 174.74 186.258 174.74C187.178 174.74 187.991 174.867 188.698 175.12C189.418 175.373 189.978 175.773 190.378 176.32C190.778 176.853 190.978 177.553 190.978 178.42C190.978 179.38 190.725 180.313 190.218 181.22C189.725 182.127 188.998 183.073 188.038 184.06C187.078 185.047 185.898 186.14 184.498 187.34V187.06H191.298V189H181.678ZM197.851 189.22C197.224 189.22 196.617 189.14 196.031 188.98C195.457 188.82 194.937 188.58 194.471 188.26C194.004 187.927 193.637 187.527 193.371 187.06C193.104 186.593 192.971 186.047 192.971 185.42C192.971 184.9 193.071 184.427 193.271 184C193.471 183.56 193.744 183.18 194.091 182.86C194.437 182.54 194.824 182.273 195.251 182.06C195.691 181.847 196.144 181.687 196.611 181.58L198.051 182.3C197.744 182.38 197.431 182.5 197.111 182.66C196.791 182.807 196.497 182.993 196.231 183.22C195.977 183.447 195.764 183.713 195.591 184.02C195.431 184.327 195.351 184.68 195.351 185.08C195.351 185.56 195.464 185.98 195.691 186.34C195.931 186.7 196.251 186.98 196.651 187.18C197.051 187.367 197.504 187.46 198.011 187.46C198.531 187.46 198.991 187.36 199.391 187.16C199.804 186.947 200.124 186.667 200.351 186.32C200.591 185.96 200.711 185.56 200.711 185.12C200.711 184.627 200.577 184.227 200.311 183.92C200.057 183.6 199.711 183.333 199.271 183.12C198.831 182.893 198.344 182.693 197.811 182.52C197.291 182.347 196.771 182.16 196.251 181.96C195.731 181.76 195.251 181.52 194.811 181.24C194.371 180.947 194.017 180.587 193.751 180.16C193.484 179.733 193.351 179.2 193.351 178.56C193.351 177.693 193.584 176.98 194.051 176.42C194.517 175.86 195.117 175.44 195.851 175.16C196.597 174.88 197.391 174.74 198.231 174.74C199.044 174.74 199.797 174.873 200.491 175.14C201.197 175.393 201.764 175.787 202.191 176.32C202.617 176.853 202.831 177.52 202.831 178.32C202.831 178.813 202.737 179.253 202.551 179.64C202.377 180.013 202.124 180.333 201.791 180.6C201.471 180.867 201.111 181.093 200.711 181.28C200.311 181.453 199.884 181.593 199.431 181.7L197.691 180.94C198.077 180.887 198.437 180.8 198.771 180.68C199.104 180.547 199.397 180.38 199.651 180.18C199.917 179.98 200.124 179.74 200.271 179.46C200.417 179.18 200.491 178.86 200.491 178.5C200.491 178.06 200.384 177.693 200.171 177.4C199.957 177.093 199.671 176.867 199.311 176.72C198.951 176.56 198.557 176.48 198.131 176.48C197.704 176.48 197.311 176.56 196.951 176.72C196.591 176.867 196.297 177.087 196.071 177.38C195.844 177.66 195.731 178.013 195.731 178.44C195.731 178.907 195.864 179.293 196.131 179.6C196.397 179.907 196.751 180.167 197.191 180.38C197.631 180.58 198.111 180.767 198.631 180.94C199.164 181.113 199.691 181.3 200.211 181.5C200.731 181.7 201.211 181.947 201.651 182.24C202.091 182.533 202.444 182.9 202.711 183.34C202.977 183.78 203.111 184.333 203.111 185C203.111 185.68 202.957 186.287 202.651 186.82C202.357 187.353 201.957 187.793 201.451 188.14C200.957 188.487 200.397 188.753 199.771 188.94C199.144 189.127 198.504 189.22 197.851 189.22Z"
     fill="black"
     id="path70"
     style="fill:#000000;fill-opacity:1" />
  <path
     d="M226.805 189V186.92C228.338 185.613 229.598 184.487 230.585 183.54C231.585 182.58 232.325 181.727 232.805 180.98C233.285 180.22 233.525 179.48 233.525 178.76C233.525 178.027 233.285 177.48 232.805 177.12C232.325 176.76 231.718 176.58 230.985 176.58C230.638 176.58 230.258 176.62 229.845 176.7C229.445 176.78 229.032 176.893 228.605 177.04L228.885 176.62L228.565 178.92H227.085L226.885 175.5C227.685 175.247 228.465 175.06 229.225 174.94C229.998 174.807 230.718 174.74 231.385 174.74C232.305 174.74 233.118 174.867 233.825 175.12C234.545 175.373 235.105 175.773 235.505 176.32C235.905 176.853 236.105 177.553 236.105 178.42C236.105 179.38 235.852 180.313 235.345 181.22C234.852 182.127 234.125 183.073 233.165 184.06C232.205 185.047 231.025 186.14 229.625 187.34V187.06H236.425V189H226.805ZM245.818 180.64L245.938 182.3C245.351 182.673 244.724 182.973 244.058 183.2C243.391 183.427 242.711 183.54 242.018 183.54C241.218 183.54 240.498 183.38 239.858 183.06C239.231 182.74 238.738 182.273 238.378 181.66C238.018 181.047 237.831 180.307 237.818 179.44C237.804 178.453 238.011 177.613 238.438 176.92C238.878 176.213 239.478 175.673 240.238 175.3C240.998 174.927 241.864 174.74 242.838 174.74C243.838 174.74 244.731 174.96 245.518 175.4C246.304 175.827 246.918 176.513 247.358 177.46C247.811 178.393 248.038 179.613 248.038 181.12C248.038 182.76 247.758 184.187 247.198 185.4C246.638 186.613 245.844 187.553 244.818 188.22C243.791 188.887 242.578 189.22 241.178 189.22C240.431 189.22 239.644 189.113 238.818 188.9L238.998 187.14C239.344 187.207 239.678 187.26 239.998 187.3C240.318 187.327 240.604 187.34 240.858 187.34C241.951 187.34 242.838 187.093 243.518 186.6C244.211 186.107 244.718 185.393 245.038 184.46C245.358 183.513 245.518 182.373 245.518 181.04C245.518 179.547 245.291 178.44 244.838 177.72C244.398 177 243.724 176.64 242.818 176.64C242.058 176.64 241.451 176.873 240.998 177.34C240.558 177.807 240.338 178.453 240.338 179.28C240.338 179.867 240.444 180.347 240.658 180.72C240.884 181.093 241.178 181.373 241.538 181.56C241.911 181.733 242.324 181.82 242.778 181.82C243.284 181.82 243.798 181.72 244.318 181.52C244.838 181.32 245.338 181.027 245.818 180.64Z"
     fill="black"
     id="path72"
     style="fill:#000000;fill-opacity:1" />
  <path
     d="M275.431 189.22C274.671 189.22 273.911 189.127 273.151 188.94C272.391 188.753 271.677 188.473 271.011 188.1L271.651 186.36C272.251 186.653 272.864 186.887 273.491 187.06C274.131 187.22 274.751 187.3 275.351 187.3C275.924 187.3 276.437 187.213 276.891 187.04C277.344 186.867 277.697 186.6 277.951 186.24C278.217 185.88 278.351 185.427 278.351 184.88C278.351 184.413 278.244 184.007 278.031 183.66C277.817 183.313 277.491 183.047 277.051 182.86C276.611 182.673 276.037 182.58 275.331 182.58H273.591V180.82H275.271C276.191 180.82 276.884 180.633 277.351 180.26C277.831 179.887 278.071 179.347 278.071 178.64C278.071 177.88 277.824 177.34 277.331 177.02C276.851 176.687 276.237 176.52 275.491 176.52C275.064 176.52 274.637 176.567 274.211 176.66C273.784 176.74 273.364 176.847 272.951 176.98L273.271 176.64L273.031 178.82H271.551L271.391 175.54C272.177 175.287 272.964 175.093 273.751 174.96C274.537 174.813 275.291 174.74 276.011 174.74C276.877 174.74 277.651 174.86 278.331 175.1C279.024 175.327 279.571 175.693 279.971 176.2C280.371 176.707 280.571 177.387 280.571 178.24C280.571 179.253 280.271 180.047 279.671 180.62C279.071 181.193 278.211 181.553 277.091 181.7L277.011 181.5C278.317 181.58 279.284 181.92 279.911 182.52C280.537 183.107 280.851 183.92 280.851 184.96C280.851 185.693 280.704 186.327 280.411 186.86C280.131 187.393 279.737 187.84 279.231 188.2C278.737 188.547 278.164 188.807 277.511 188.98C276.857 189.14 276.164 189.22 275.431 189.22ZM288.155 189.22C286.942 189.22 285.948 188.96 285.175 188.44C284.402 187.907 283.835 187.113 283.475 186.06C283.115 185.007 282.935 183.687 282.935 182.1C282.935 180.473 283.122 179.113 283.495 178.02C283.882 176.927 284.475 176.107 285.275 175.56C286.088 175.013 287.135 174.74 288.415 174.74C289.682 174.74 290.688 175 291.435 175.52C292.182 176.027 292.715 176.8 293.035 177.84C293.368 178.867 293.535 180.16 293.535 181.72C293.535 183.36 293.342 184.74 292.955 185.86C292.582 186.98 291.995 187.82 291.195 188.38C290.408 188.94 289.395 189.22 288.155 189.22ZM288.215 187.34C288.895 187.34 289.435 187.147 289.835 186.76C290.235 186.36 290.522 185.753 290.695 184.94C290.882 184.113 290.975 183.087 290.975 181.86C290.988 180.607 290.908 179.6 290.735 178.84C290.562 178.067 290.275 177.507 289.875 177.16C289.488 176.8 288.975 176.62 288.335 176.62C287.642 176.62 287.082 176.82 286.655 177.22C286.242 177.607 285.942 178.2 285.755 179C285.568 179.8 285.475 180.807 285.475 182.02C285.475 183.233 285.562 184.233 285.735 185.02C285.922 185.793 286.215 186.373 286.615 186.76C287.028 187.147 287.562 187.34 288.215 187.34Z"
     fill="black"
     id="path74"
     style="fill:#000000;fill-opacity:1" />
  <path
     d="M7.5693 223.22C6.8093 223.22 6.0493 223.127 5.2893 222.94C4.5293 222.753 3.81596 222.473 3.1493 222.1L3.7893 220.36C4.3893 220.653 5.00263 220.887 5.6293 221.06C6.2693 221.22 6.8893 221.3 7.4893 221.3C8.06263 221.3 8.57596 221.213 9.0293 221.04C9.48263 220.867 9.83596 220.6 10.0893 220.24C10.356 219.88 10.4893 219.427 10.4893 218.88C10.4893 218.413 10.3826 218.007 10.1693 217.66C9.95596 217.313 9.6293 217.047 9.1893 216.86C8.7493 216.673 8.17596 216.58 7.4693 216.58H5.7293V214.82H7.4093C8.3293 214.82 9.02263 214.633 9.4893 214.26C9.9693 213.887 10.2093 213.347 10.2093 212.64C10.2093 211.88 9.96263 211.34 9.4693 211.02C8.9893 210.687 8.37596 210.52 7.6293 210.52C7.20263 210.52 6.77596 210.567 6.3493 210.66C5.92263 210.74 5.50263 210.847 5.0893 210.98L5.4093 210.64L5.1693 212.82H3.6893L3.5293 209.54C4.31596 209.287 5.10263 209.093 5.8893 208.96C6.67596 208.813 7.4293 208.74 8.1493 208.74C9.01596 208.74 9.7893 208.86 10.4693 209.1C11.1626 209.327 11.7093 209.693 12.1093 210.2C12.5093 210.707 12.7093 211.387 12.7093 212.24C12.7093 213.253 12.4093 214.047 11.8093 214.62C11.2093 215.193 10.3493 215.553 9.2293 215.7L9.1493 215.5C10.456 215.58 11.4226 215.92 12.0493 216.52C12.676 217.107 12.9893 217.92 12.9893 218.96C12.9893 219.693 12.8426 220.327 12.5493 220.86C12.2693 221.393 11.876 221.84 11.3693 222.2C10.876 222.547 10.3026 222.807 9.6493 222.98C8.99596 223.14 8.30263 223.22 7.5693 223.22ZM20.1737 221.86L19.6937 221.22L22.3337 221.74V223H15.0737V221.74L18.2137 221.24L17.7137 221.86V211L18.3937 211.04L15.0137 212.94L14.2137 211.44L18.1337 208.88H20.1737V221.86Z"
     fill="black"
     id="path76"
     style="fill:#000000;fill-opacity:1" />
</svg>
