<?xml version="1.0" encoding="UTF-8" standalone="no"?>
<svg
   width="295"
   height="194"
   viewBox="0 0 295 194"
   fill="none"
   version="1.1"
   id="svg76"
   sodipodi:docname="junho.svg"
   inkscape:version="1.1.2 (b8e25be833, 2022-02-05)"
   xmlns:inkscape="http://www.inkscape.org/namespaces/inkscape"
   xmlns:sodipodi="http://sodipodi.sourceforge.net/DTD/sodipodi-0.dtd"
   xmlns="http://www.w3.org/2000/svg"
   xmlns:svg="http://www.w3.org/2000/svg">
  <defs
     id="defs80" />
  <sodipodi:namedview
     id="namedview78"
     pagecolor="#ffffff"
     bordercolor="#666666"
     borderopacity="1.0"
     inkscape:pageshadow="2"
     inkscape:pageopacity="0.0"
     inkscape:pagecheckerboard="0"
     showgrid="false"
     inkscape:zoom="2.056701"
     inkscape:cx="146.83709"
     inkscape:cy="66.854637"
     inkscape:window-width="1920"
     inkscape:window-height="991"
     inkscape:window-x="-9"
     inkscape:window-y="-9"
     inkscape:window-maximized="1"
     inkscape:current-layer="svg76" />
  <path
     d="M12.4502 4.86C13.4902 4.86 14.4102 5.00667 15.2102 5.3C16.0235 5.58 16.7035 6.00667 17.2502 6.58C17.8102 7.15333 18.2368 7.86667 18.5302 8.72C18.8235 9.56 18.9702 10.54 18.9702 11.66C18.9702 13.26 18.6902 14.6067 18.1302 15.7C17.5702 16.78 16.7702 17.6 15.7302 18.16C14.6902 18.72 13.4502 19 12.0102 19H6.01016V17.28L7.81016 16.68L7.35016 17.34V6.6L7.83016 7.3L6.01016 6.68V4.96L10.9302 4.86H12.4502ZM12.1702 16.52C12.5168 16.52 12.8702 16.48 13.2302 16.4C13.5902 16.3067 13.9235 16.1133 14.2302 15.82C14.5368 15.5133 14.7835 15.0467 14.9702 14.42C15.1568 13.7933 15.2502 12.94 15.2502 11.86C15.2502 10.82 15.1568 9.99333 14.9702 9.38C14.7968 8.76667 14.5635 8.32 14.2702 8.04C13.9902 7.74667 13.6835 7.56 13.3502 7.48C13.0168 7.38667 12.6902 7.34 12.3702 7.34H10.3102L10.8302 6.82V17.04L10.3102 16.52H12.1702Z"
     fill="black"
     id="path2" />
  <path
     d="M55.7644 8.46C55.7644 8.79333 55.891 9.07333 56.1444 9.3C56.3977 9.52667 56.731 9.72667 57.1444 9.9C57.571 10.06 58.0377 10.22 58.5444 10.38C59.0644 10.54 59.571 10.7333 60.0644 10.96C60.571 11.1733 61.031 11.4467 61.4444 11.78C61.871 12.1 62.211 12.5067 62.4644 13C62.731 13.4933 62.8644 14.0933 62.8644 14.8C62.8644 15.84 62.5977 16.6933 62.0644 17.36C61.531 18.0133 60.8177 18.5 59.9244 18.82C59.031 19.1267 58.051 19.28 56.9844 19.28C56.251 19.28 55.4977 19.2067 54.7244 19.06C53.951 18.9267 53.191 18.72 52.4444 18.44L52.5644 14.4H54.5444L55.0244 16.76L54.7044 16.22C55.0777 16.3933 55.4777 16.5267 55.9044 16.62C56.331 16.7133 56.7444 16.76 57.1444 16.76C57.571 16.76 57.9577 16.7067 58.3044 16.6C58.651 16.48 58.931 16.3133 59.1444 16.1C59.3577 15.8733 59.4644 15.5933 59.4644 15.26C59.4644 14.8867 59.3377 14.5867 59.0844 14.36C58.831 14.12 58.491 13.92 58.0644 13.76C57.651 13.5867 57.191 13.4267 56.6844 13.28C56.1777 13.1333 55.671 12.96 55.1644 12.76C54.671 12.5467 54.211 12.28 53.7844 11.96C53.371 11.64 53.0377 11.24 52.7844 10.76C52.531 10.2667 52.4044 9.65333 52.4044 8.92C52.4044 7.93333 52.6377 7.12667 53.1044 6.5C53.571 5.86 54.2044 5.38667 55.0044 5.08C55.8177 4.76 56.731 4.6 57.7444 4.6C58.451 4.6 59.1977 4.67333 59.9844 4.82C60.7844 4.96667 61.571 5.18667 62.3444 5.48L62.1244 9.2H60.0644L59.5844 7.12L59.9444 7.46C59.6377 7.35333 59.311 7.27333 58.9644 7.22C58.631 7.15333 58.291 7.12 57.9444 7.12C57.5577 7.12 57.1977 7.16667 56.8644 7.26C56.531 7.34 56.2644 7.48 56.0644 7.68C55.8644 7.88 55.7644 8.14 55.7644 8.46Z"
     fill="black"
     id="path4" />
  <path
     d="M280.764 8.46C280.764 8.79333 280.891 9.07333 281.144 9.3C281.398 9.52667 281.731 9.72667 282.144 9.9C282.571 10.06 283.038 10.22 283.544 10.38C284.064 10.54 284.571 10.7333 285.064 10.96C285.571 11.1733 286.031 11.4467 286.444 11.78C286.871 12.1 287.211 12.5067 287.464 13C287.731 13.4933 287.864 14.0933 287.864 14.8C287.864 15.84 287.598 16.6933 287.064 17.36C286.531 18.0133 285.818 18.5 284.924 18.82C284.031 19.1267 283.051 19.28 281.984 19.28C281.251 19.28 280.498 19.2067 279.724 19.06C278.951 18.9267 278.191 18.72 277.444 18.44L277.564 14.4H279.544L280.024 16.76L279.704 16.22C280.078 16.3933 280.478 16.5267 280.904 16.62C281.331 16.7133 281.744 16.76 282.144 16.76C282.571 16.76 282.958 16.7067 283.304 16.6C283.651 16.48 283.931 16.3133 284.144 16.1C284.358 15.8733 284.464 15.5933 284.464 15.26C284.464 14.8867 284.338 14.5867 284.084 14.36C283.831 14.12 283.491 13.92 283.064 13.76C282.651 13.5867 282.191 13.4267 281.684 13.28C281.178 13.1333 280.671 12.96 280.164 12.76C279.671 12.5467 279.211 12.28 278.784 11.96C278.371 11.64 278.038 11.24 277.784 10.76C277.531 10.2667 277.404 9.65333 277.404 8.92C277.404 7.93333 277.638 7.12667 278.104 6.5C278.571 5.86 279.204 5.38667 280.004 5.08C280.818 4.76 281.731 4.6 282.744 4.6C283.451 4.6 284.198 4.67333 284.984 4.82C285.784 4.96667 286.571 5.18667 287.344 5.48L287.124 9.2H285.064L284.584 7.12L284.944 7.46C284.638 7.35333 284.311 7.27333 283.964 7.22C283.631 7.15333 283.291 7.12 282.944 7.12C282.558 7.12 282.198 7.16667 281.864 7.26C281.531 7.34 281.264 7.48 281.064 7.68C280.864 7.88 280.764 8.14 280.764 8.46Z"
     fill="black"
     id="path6" />
  <path
     d="M235.764 8.46C235.764 8.79333 235.891 9.07333 236.144 9.3C236.398 9.52667 236.731 9.72667 237.144 9.9C237.571 10.06 238.038 10.22 238.544 10.38C239.064 10.54 239.571 10.7333 240.064 10.96C240.571 11.1733 241.031 11.4467 241.444 11.78C241.871 12.1 242.211 12.5067 242.464 13C242.731 13.4933 242.864 14.0933 242.864 14.8C242.864 15.84 242.598 16.6933 242.064 17.36C241.531 18.0133 240.818 18.5 239.924 18.82C239.031 19.1267 238.051 19.28 236.984 19.28C236.251 19.28 235.498 19.2067 234.724 19.06C233.951 18.9267 233.191 18.72 232.444 18.44L232.564 14.4H234.544L235.024 16.76L234.704 16.22C235.078 16.3933 235.478 16.5267 235.904 16.62C236.331 16.7133 236.744 16.76 237.144 16.76C237.571 16.76 237.958 16.7067 238.304 16.6C238.651 16.48 238.931 16.3133 239.144 16.1C239.358 15.8733 239.464 15.5933 239.464 15.26C239.464 14.8867 239.338 14.5867 239.084 14.36C238.831 14.12 238.491 13.92 238.064 13.76C237.651 13.5867 237.191 13.4267 236.684 13.28C236.178 13.1333 235.671 12.96 235.164 12.76C234.671 12.5467 234.211 12.28 233.784 11.96C233.371 11.64 233.038 11.24 232.784 10.76C232.531 10.2667 232.404 9.65333 232.404 8.92C232.404 7.93333 232.638 7.12667 233.104 6.5C233.571 5.86 234.204 5.38667 235.004 5.08C235.818 4.76 236.731 4.6 237.744 4.6C238.451 4.6 239.198 4.67333 239.984 4.82C240.784 4.96667 241.571 5.18667 242.344 5.48L242.124 9.2H240.064L239.584 7.12L239.944 7.46C239.638 7.35333 239.311 7.27333 238.964 7.22C238.631 7.15333 238.291 7.12 237.944 7.12C237.558 7.12 237.198 7.16667 236.864 7.26C236.531 7.34 236.264 7.48 236.064 7.68C235.864 7.88 235.764 8.14 235.764 8.46Z"
     fill="black"
     id="path8" />
  <path
     d="M99.21 19V17.28L101.37 16.66L100.77 17.52V6.82L101.45 7.34H98.47L99.23 6.68L98.65 9.2H96.59V4.86H108.41V9.2H106.37L105.81 6.82L106.55 7.34H103.55L104.25 6.82V17.52L103.67 16.66L105.79 17.28V19H99.21Z"
     fill="black"
     id="path10" />
  <path
     d="M153.355 23.06C152.835 23.06 152.275 22.92 151.675 22.64C151.075 22.36 150.355 21.92 149.515 21.32C148.675 20.72 147.622 19.9467 146.355 19L147.115 19.26C145.795 19.2467 144.669 18.9667 143.735 18.42C142.802 17.8733 142.082 17.0733 141.575 16.02C141.082 14.9533 140.835 13.6533 140.835 12.12C140.835 10.88 140.995 9.79333 141.315 8.86C141.635 7.92667 142.089 7.14667 142.675 6.52C143.275 5.88 143.995 5.4 144.835 5.08C145.675 4.76 146.609 4.6 147.635 4.6C148.675 4.6 149.595 4.75333 150.395 5.06C151.209 5.36667 151.889 5.82 152.435 6.42C152.995 7.02 153.422 7.76 153.715 8.64C154.009 9.50667 154.155 10.5067 154.155 11.64C154.155 12.92 153.962 14.0667 153.575 15.08C153.202 16.08 152.655 16.9133 151.935 17.58C151.215 18.2333 150.355 18.6933 149.355 18.96L149.455 18.58C150.135 18.9933 150.709 19.3267 151.175 19.58C151.655 19.8467 152.069 20.04 152.415 20.16C152.762 20.28 153.089 20.34 153.395 20.34C153.742 20.34 154.082 20.2733 154.415 20.14C154.749 20.0067 155.129 19.82 155.555 19.58L156.755 21.68C156.035 22.12 155.415 22.46 154.895 22.7C154.375 22.94 153.862 23.06 153.355 23.06ZM144.575 12.02C144.575 13.1267 144.675 14.02 144.875 14.7C145.089 15.38 145.409 15.8733 145.835 16.18C146.262 16.4733 146.795 16.62 147.435 16.62C148.115 16.62 148.675 16.46 149.115 16.14C149.555 15.82 149.882 15.3067 150.095 14.6C150.322 13.8933 150.435 12.9533 150.435 11.78C150.435 10.6733 150.322 9.78667 150.095 9.12C149.882 8.45333 149.562 7.97333 149.135 7.68C148.709 7.38667 148.162 7.24 147.495 7.24C146.842 7.24 146.295 7.4 145.855 7.72C145.429 8.02667 145.109 8.52667 144.895 9.22C144.682 9.91333 144.575 10.8467 144.575 12.02Z"
     fill="black"
     id="path12" />
  <path
     d="M198.355 23.06C197.835 23.06 197.275 22.92 196.675 22.64C196.075 22.36 195.355 21.92 194.515 21.32C193.675 20.72 192.622 19.9467 191.355 19L192.115 19.26C190.795 19.2467 189.669 18.9667 188.735 18.42C187.802 17.8733 187.082 17.0733 186.575 16.02C186.082 14.9533 185.835 13.6533 185.835 12.12C185.835 10.88 185.995 9.79333 186.315 8.86C186.635 7.92667 187.089 7.14667 187.675 6.52C188.275 5.88 188.995 5.4 189.835 5.08C190.675 4.76 191.609 4.6 192.635 4.6C193.675 4.6 194.595 4.75333 195.395 5.06C196.209 5.36667 196.889 5.82 197.435 6.42C197.995 7.02 198.422 7.76 198.715 8.64C199.009 9.50667 199.155 10.5067 199.155 11.64C199.155 12.92 198.962 14.0667 198.575 15.08C198.202 16.08 197.655 16.9133 196.935 17.58C196.215 18.2333 195.355 18.6933 194.355 18.96L194.455 18.58C195.135 18.9933 195.709 19.3267 196.175 19.58C196.655 19.8467 197.069 20.04 197.415 20.16C197.762 20.28 198.089 20.34 198.395 20.34C198.742 20.34 199.082 20.2733 199.415 20.14C199.749 20.0067 200.129 19.82 200.555 19.58L201.755 21.68C201.035 22.12 200.415 22.46 199.895 22.7C199.375 22.94 198.862 23.06 198.355 23.06ZM189.575 12.02C189.575 13.1267 189.675 14.02 189.875 14.7C190.089 15.38 190.409 15.8733 190.835 16.18C191.262 16.4733 191.795 16.62 192.435 16.62C193.115 16.62 193.675 16.46 194.115 16.14C194.555 15.82 194.882 15.3067 195.095 14.6C195.322 13.8933 195.435 12.9533 195.435 11.78C195.435 10.6733 195.322 9.78667 195.095 9.12C194.882 8.45333 194.562 7.97333 194.135 7.68C193.709 7.38667 193.162 7.24 192.495 7.24C191.842 7.24 191.295 7.4 190.855 7.72C190.429 8.02667 190.109 8.52667 189.895 9.22C189.682 9.91333 189.575 10.8467 189.575 12.02Z"
     fill="black"
     id="path14" />
  <path
     d="M149.431 51.86L148.951 51.22L151.591 51.74V53H144.331V51.74L147.471 51.24L146.971 51.86V41L147.651 41.04L144.271 42.94L143.471 41.44L147.391 38.88H149.431V51.86Z"
     fill="black"
     id="path16"
     style="fill:#e43a45;fill-opacity:1" />
  <path
     d="M187.694 53V50.92C189.227 49.6133 190.487 48.4867 191.474 47.54C192.474 46.58 193.214 45.7267 193.694 44.98C194.174 44.22 194.414 43.48 194.414 42.76C194.414 42.0267 194.174 41.48 193.694 41.12C193.214 40.76 192.607 40.58 191.874 40.58C191.527 40.58 191.147 40.62 190.734 40.7C190.334 40.78 189.92 40.8933 189.494 41.04L189.774 40.62L189.454 42.92H187.974L187.774 39.5C188.574 39.2467 189.354 39.06 190.114 38.94C190.887 38.8067 191.607 38.74 192.274 38.74C193.194 38.74 194.007 38.8667 194.714 39.12C195.434 39.3733 195.994 39.7733 196.394 40.32C196.794 40.8533 196.994 41.5533 196.994 42.42C196.994 43.38 196.74 44.3133 196.234 45.22C195.74 46.1267 195.014 47.0733 194.054 48.06C193.094 49.0467 191.914 50.14 190.514 51.34V51.06H197.314V53H187.694Z"
     fill="black"
     id="path18"
     style="fill:#e43a45;fill-opacity:1" />
  <path
     d="M236.817 53.16C236.084 53.16 235.357 53.0667 234.637 52.88C233.917 52.6933 233.237 52.4133 232.597 52.04L233.077 50.84C233.664 51.1733 234.27 51.4267 234.897 51.6C235.537 51.7733 236.164 51.86 236.777 51.86C237.444 51.86 238.03 51.76 238.537 51.56C239.057 51.3467 239.464 51.0267 239.757 50.6C240.05 50.1733 240.197 49.64 240.197 49C240.197 48.48 240.077 48.02 239.837 47.62C239.61 47.2067 239.244 46.88 238.737 46.64C238.23 46.4 237.557 46.28 236.717 46.28H235.057V45.06H236.737C237.79 45.06 238.577 44.84 239.097 44.4C239.63 43.96 239.897 43.34 239.897 42.54C239.897 41.66 239.624 41.0333 239.077 40.66C238.53 40.2733 237.824 40.08 236.957 40.08C236.504 40.08 236.037 40.1267 235.557 40.22C235.077 40.3133 234.604 40.4333 234.137 40.58L234.377 40.32L234.137 42.68H233.137L232.977 39.64C233.71 39.4 234.45 39.2133 235.197 39.08C235.944 38.9333 236.65 38.86 237.317 38.86C238.13 38.86 238.857 38.9733 239.497 39.2C240.15 39.4267 240.657 39.7933 241.017 40.3C241.39 40.8067 241.577 41.4733 241.577 42.3C241.577 43.2733 241.297 44.04 240.737 44.6C240.177 45.16 239.337 45.52 238.217 45.68L238.157 45.56C239.41 45.64 240.344 45.9867 240.957 46.6C241.57 47.2 241.877 48.0133 241.877 49.04C241.877 49.7333 241.744 50.34 241.477 50.86C241.224 51.38 240.864 51.8133 240.397 52.16C239.93 52.4933 239.39 52.7467 238.777 52.92C238.164 53.08 237.51 53.16 236.817 53.16Z"
     fill="black"
     id="path20"
     style="fill:#e43a45;fill-opacity:1" />
  <path
     d="M283.98 49.14L284.4 49.5H277.1L276.9 48.32L283.7 38.82L285.62 39.04V48.52L285.18 48.2H288.02V49.5H285.18L285.62 49.14V53H283.98V49.14ZM284.44 48.2L284 48.52V39.82L284.54 39.92L278.26 48.76L277.94 48.2H284.44Z"
     fill="black"
     id="path22"
     style="fill:#e43a45;fill-opacity:1" />
  <path
     d="M12.0582 87.16C10.7382 87.16 9.40487 86.8333 8.0582 86.18L8.5182 84.98C9.09154 85.26 9.6582 85.4733 10.2182 85.62C10.7782 85.7667 11.3182 85.84 11.8382 85.84C12.5182 85.84 13.1049 85.7133 13.5982 85.46C14.1049 85.2067 14.4982 84.8467 14.7782 84.38C15.0582 83.9 15.1982 83.34 15.1982 82.7C15.1982 81.9933 15.0115 81.44 14.6382 81.04C14.2782 80.6267 13.7249 80.3333 12.9782 80.16C12.2449 79.9867 11.3182 79.9 10.1982 79.9H8.8982L9.1782 73.04H16.3182L16.2982 74.34H10.2982L10.7782 74.02L10.5582 79.04L10.1182 78.66H11.2982C12.6049 78.66 13.6715 78.82 14.4982 79.14C15.3249 79.4467 15.9382 79.9 16.3382 80.5C16.7382 81.0867 16.9382 81.8133 16.9382 82.68C16.9382 83.6133 16.7249 84.42 16.2982 85.1C15.8849 85.7667 15.3115 86.28 14.5782 86.64C13.8449 86.9867 13.0049 87.16 12.0582 87.16Z"
     fill="black"
     id="path24"
     style="fill:#e43a45;fill-opacity:1" />
  <path
     d="M54.7416 81.28L54.6416 79.62C55.2282 79.2467 55.8482 78.9533 56.5016 78.74C57.1682 78.5267 57.8416 78.42 58.5216 78.42C59.3082 78.42 60.0149 78.5733 60.6416 78.88C61.2816 79.1867 61.7949 79.6467 62.1816 80.26C62.5682 80.8733 62.7616 81.64 62.7616 82.56C62.7616 83.5333 62.5416 84.3667 62.1016 85.06C61.6616 85.7533 61.0616 86.2867 60.3016 86.66C59.5549 87.0333 58.7016 87.22 57.7416 87.22C56.7416 87.22 55.8482 87 55.0616 86.56C54.2749 86.12 53.6549 85.4333 53.2016 84.5C52.7482 83.5667 52.5216 82.3533 52.5216 80.86C52.5216 79.18 52.8016 77.7333 53.3616 76.52C53.9349 75.3067 54.7349 74.3733 55.7616 73.72C56.8016 73.0667 58.0082 72.74 59.3816 72.74C60.1282 72.74 60.9149 72.8467 61.7416 73.06L61.5616 74.84C61.2149 74.76 60.8816 74.7067 60.5616 74.68C60.2416 74.6533 59.9482 74.64 59.6816 74.64C58.6016 74.64 57.7216 74.8867 57.0416 75.38C56.3616 75.8733 55.8549 76.5867 55.5216 77.52C55.2016 78.44 55.0416 79.5733 55.0416 80.92C55.0416 82.4133 55.2616 83.52 55.7016 84.24C56.1549 84.96 56.8349 85.32 57.7416 85.32C58.5016 85.32 59.1016 85.0933 59.5416 84.64C59.9949 84.1733 60.2216 83.5133 60.2216 82.66C60.2216 82.0867 60.1082 81.62 59.8816 81.26C59.6682 80.8867 59.3749 80.6133 59.0016 80.44C58.6416 80.2533 58.2216 80.16 57.7416 80.16C57.2616 80.16 56.7616 80.2533 56.2416 80.44C55.7216 80.6267 55.2216 80.9067 54.7416 81.28Z"
     fill="#E43A45"
     id="path26"
     style="fill:#e43a45;fill-opacity:1" />
  <path
     d="M107.456 74.7L102.196 87H99.4763L104.936 74.54L105.296 74.92H99.0763L99.6163 74.54L99.1363 76.94H97.6563V72.96H107.456V74.7Z"
     fill="black"
     id="path28"
     style="fill:#e43a45;fill-opacity:1" />
  <path
     d="M147.284 87.22C146.658 87.22 146.051 87.14 145.464 86.98C144.891 86.82 144.371 86.58 143.904 86.26C143.438 85.9267 143.071 85.5267 142.804 85.06C142.538 84.5933 142.404 84.0467 142.404 83.42C142.404 82.9 142.504 82.4267 142.704 82C142.904 81.56 143.178 81.18 143.524 80.86C143.871 80.54 144.258 80.2733 144.684 80.06C145.124 79.8467 145.578 79.6867 146.044 79.58L147.484 80.3C147.178 80.38 146.864 80.5 146.544 80.66C146.224 80.8067 145.931 80.9933 145.664 81.22C145.411 81.4467 145.198 81.7133 145.024 82.02C144.864 82.3267 144.784 82.68 144.784 83.08C144.784 83.56 144.898 83.98 145.124 84.34C145.364 84.7 145.684 84.98 146.084 85.18C146.484 85.3667 146.938 85.46 147.444 85.46C147.964 85.46 148.424 85.36 148.824 85.16C149.238 84.9467 149.558 84.6667 149.784 84.32C150.024 83.96 150.144 83.56 150.144 83.12C150.144 82.6267 150.011 82.2267 149.744 81.92C149.491 81.6 149.144 81.3333 148.704 81.12C148.264 80.8933 147.778 80.6933 147.244 80.52C146.724 80.3467 146.204 80.16 145.684 79.96C145.164 79.76 144.684 79.52 144.244 79.24C143.804 78.9467 143.451 78.5867 143.184 78.16C142.918 77.7333 142.784 77.2 142.784 76.56C142.784 75.6933 143.018 74.98 143.484 74.42C143.951 73.86 144.551 73.44 145.284 73.16C146.031 72.88 146.824 72.74 147.664 72.74C148.478 72.74 149.231 72.8733 149.924 73.14C150.631 73.3933 151.198 73.7867 151.624 74.32C152.051 74.8533 152.264 75.52 152.264 76.32C152.264 76.8133 152.171 77.2533 151.984 77.64C151.811 78.0133 151.558 78.3333 151.224 78.6C150.904 78.8667 150.544 79.0933 150.144 79.28C149.744 79.4533 149.318 79.5933 148.864 79.7L147.124 78.94C147.511 78.8867 147.871 78.8 148.204 78.68C148.538 78.5467 148.831 78.38 149.084 78.18C149.351 77.98 149.558 77.74 149.704 77.46C149.851 77.18 149.924 76.86 149.924 76.5C149.924 76.06 149.818 75.6933 149.604 75.4C149.391 75.0933 149.104 74.8667 148.744 74.72C148.384 74.56 147.991 74.48 147.564 74.48C147.138 74.48 146.744 74.56 146.384 74.72C146.024 74.8667 145.731 75.0867 145.504 75.38C145.278 75.66 145.164 76.0133 145.164 76.44C145.164 76.9067 145.298 77.2933 145.564 77.6C145.831 77.9067 146.184 78.1667 146.624 78.38C147.064 78.58 147.544 78.7667 148.064 78.94C148.598 79.1133 149.124 79.3 149.644 79.5C150.164 79.7 150.644 79.9467 151.084 80.24C151.524 80.5333 151.878 80.9 152.144 81.34C152.411 81.78 152.544 82.3333 152.544 83C152.544 83.68 152.391 84.2867 152.084 84.82C151.791 85.3533 151.391 85.7933 150.884 86.14C150.391 86.4867 149.831 86.7533 149.204 86.94C148.578 87.1267 147.938 87.22 147.284 87.22Z"
     fill="black"
     id="path30"
     style="fill:#e43a45;fill-opacity:1" />
  <path
     d="M195.251 78.64L195.371 80.3C194.785 80.6733 194.158 80.9733 193.491 81.2C192.825 81.4267 192.145 81.54 191.451 81.54C190.651 81.54 189.931 81.38 189.291 81.06C188.665 80.74 188.171 80.2733 187.811 79.66C187.451 79.0467 187.265 78.3067 187.251 77.44C187.238 76.4533 187.445 75.6133 187.871 74.92C188.311 74.2133 188.911 73.6733 189.671 73.3C190.431 72.9267 191.298 72.74 192.271 72.74C193.271 72.74 194.165 72.96 194.951 73.4C195.738 73.8267 196.351 74.5133 196.791 75.46C197.245 76.3933 197.471 77.6133 197.471 79.12C197.471 80.76 197.191 82.1867 196.631 83.4C196.071 84.6133 195.278 85.5533 194.251 86.22C193.225 86.8867 192.011 87.22 190.611 87.22C189.865 87.22 189.078 87.1133 188.251 86.9L188.431 85.14C188.778 85.2067 189.111 85.26 189.431 85.3C189.751 85.3267 190.038 85.34 190.291 85.34C191.385 85.34 192.271 85.0933 192.951 84.6C193.645 84.1067 194.151 83.3933 194.471 82.46C194.791 81.5133 194.951 80.3733 194.951 79.04C194.951 77.5467 194.725 76.44 194.271 75.72C193.831 75 193.158 74.64 192.251 74.64C191.491 74.64 190.885 74.8733 190.431 75.34C189.991 75.8067 189.771 76.4533 189.771 77.28C189.771 77.8667 189.878 78.3467 190.091 78.72C190.318 79.0933 190.611 79.3733 190.971 79.56C191.345 79.7333 191.758 79.82 192.211 79.82C192.718 79.82 193.231 79.72 193.751 79.52C194.271 79.32 194.771 79.0267 195.251 78.64Z"
     fill="black"
     id="path32"
     style="fill:#e43a45;fill-opacity:1" />
  <path
     d="M233.064 85.86L232.584 85.22L235.224 85.74V87H227.964V85.74L231.104 85.24L230.604 85.86V75L231.284 75.04L227.904 76.94L227.104 75.44L231.024 72.88H233.064V85.86ZM241.641 87.22C240.428 87.22 239.435 86.96 238.661 86.44C237.888 85.9067 237.321 85.1133 236.961 84.06C236.601 83.0067 236.421 81.6867 236.421 80.1C236.421 78.4733 236.608 77.1133 236.981 76.02C237.368 74.9267 237.961 74.1067 238.761 73.56C239.575 73.0133 240.621 72.74 241.901 72.74C243.168 72.74 244.175 73 244.921 73.52C245.668 74.0267 246.201 74.8 246.521 75.84C246.855 76.8667 247.021 78.16 247.021 79.72C247.021 81.36 246.828 82.74 246.441 83.86C246.068 84.98 245.481 85.82 244.681 86.38C243.895 86.94 242.881 87.22 241.641 87.22ZM241.701 85.34C242.381 85.34 242.921 85.1467 243.321 84.76C243.721 84.36 244.008 83.7533 244.181 82.94C244.368 82.1133 244.461 81.0867 244.461 79.86C244.475 78.6067 244.395 77.6 244.221 76.84C244.048 76.0667 243.761 75.5067 243.361 75.16C242.975 74.8 242.461 74.62 241.821 74.62C241.128 74.62 240.568 74.82 240.141 75.22C239.728 75.6067 239.428 76.2 239.241 77C239.055 77.8 238.961 78.8067 238.961 80.02C238.961 81.2333 239.048 82.2333 239.221 83.02C239.408 83.7933 239.701 84.3733 240.101 84.76C240.515 85.1467 241.048 85.34 241.701 85.34Z"
     fill="black"
     id="path34"
     style="fill:#e43a45;fill-opacity:1" />
  <path
     d="M280.203 85.86L279.723 85.22L282.363 85.74V87H275.103V85.74L278.243 85.24L277.743 85.86V75L278.423 75.04L275.043 76.94L274.243 75.44L278.163 72.88H280.203V85.86ZM288.66 85.86L288.18 85.22L290.82 85.74V87H283.56V85.74L286.7 85.24L286.2 85.86V75L286.88 75.04L283.5 76.94L282.7 75.44L286.62 72.88H288.66V85.86Z"
     fill="black"
     id="path36"
     style="fill:#e43a45;fill-opacity:1" />
  <path
     d="M8.86508 119.86L8.38508 119.22L11.0251 119.74V121H3.76508V119.74L6.90508 119.24L6.40508 119.86V109L7.08508 109.04L3.70508 110.94L2.90508 109.44L6.82508 106.88H8.86508V119.86ZM11.9221 121V118.92C13.4554 117.613 14.7154 116.487 15.7021 115.54C16.7021 114.58 17.4421 113.727 17.9221 112.98C18.4021 112.22 18.6421 111.48 18.6421 110.76C18.6421 110.027 18.4021 109.48 17.9221 109.12C17.4421 108.76 16.8354 108.58 16.1021 108.58C15.7554 108.58 15.3754 108.62 14.9621 108.7C14.5621 108.78 14.1488 108.893 13.7221 109.04L14.0021 108.62L13.6821 110.92H12.2021L12.0021 107.5C12.8021 107.247 13.5821 107.06 14.3421 106.94C15.1154 106.807 15.8354 106.74 16.5021 106.74C17.4221 106.74 18.2354 106.867 18.9421 107.12C19.6621 107.373 20.2221 107.773 20.6221 108.32C21.0221 108.853 21.2221 109.553 21.2221 110.42C21.2221 111.38 20.9688 112.313 20.4621 113.22C19.9688 114.127 19.2421 115.073 18.2821 116.06C17.3221 117.047 16.1421 118.14 14.7421 119.34V119.06H21.5421V121H11.9221Z"
     fill="black"
     id="path38"
     style="fill:#e43a45;fill-opacity:1" />
  <path
     d="M53.6893 119.86L53.2093 119.22L55.8493 119.74V121H48.5893V119.74L51.7293 119.24L51.2293 119.86V109L51.9093 109.04L48.5293 110.94L47.7293 109.44L51.6493 106.88H53.6893V119.86ZM61.0263 121.22C60.2663 121.22 59.5063 121.127 58.7463 120.94C57.9863 120.753 57.273 120.473 56.6063 120.1L57.2463 118.36C57.8463 118.653 58.4597 118.887 59.0863 119.06C59.7263 119.22 60.3463 119.3 60.9463 119.3C61.5197 119.3 62.033 119.213 62.4863 119.04C62.9397 118.867 63.293 118.6 63.5463 118.24C63.813 117.88 63.9463 117.427 63.9463 116.88C63.9463 116.413 63.8397 116.007 63.6263 115.66C63.413 115.313 63.0863 115.047 62.6463 114.86C62.2063 114.673 61.633 114.58 60.9263 114.58H59.1863V112.82H60.8663C61.7863 112.82 62.4797 112.633 62.9463 112.26C63.4263 111.887 63.6663 111.347 63.6663 110.64C63.6663 109.88 63.4197 109.34 62.9263 109.02C62.4463 108.687 61.833 108.52 61.0863 108.52C60.6597 108.52 60.233 108.567 59.8063 108.66C59.3797 108.74 58.9597 108.847 58.5463 108.98L58.8663 108.64L58.6263 110.82H57.1463L56.9863 107.54C57.773 107.287 58.5597 107.093 59.3463 106.96C60.133 106.813 60.8863 106.74 61.6063 106.74C62.473 106.74 63.2463 106.86 63.9263 107.1C64.6197 107.327 65.1663 107.693 65.5663 108.2C65.9663 108.707 66.1663 109.387 66.1663 110.24C66.1663 111.253 65.8663 112.047 65.2663 112.62C64.6663 113.193 63.8063 113.553 62.6863 113.7L62.6063 113.5C63.913 113.58 64.8797 113.92 65.5063 114.52C66.133 115.107 66.4463 115.92 66.4463 116.96C66.4463 117.693 66.2997 118.327 66.0063 118.86C65.7263 119.393 65.333 119.84 64.8263 120.2C64.333 120.547 63.7597 120.807 63.1063 120.98C62.453 121.14 61.7597 121.22 61.0263 121.22Z"
     fill="black"
     id="path40"
     style="fill:#e43a45;fill-opacity:1" />
  <path
     d="M98.4256 119.86L97.9456 119.22L100.586 119.74V121H93.3256V119.74L96.4656 119.24L95.9656 119.86V109L96.6456 109.04L93.2656 110.94L92.4656 109.44L96.3856 106.88H98.4256V119.86ZM107.843 117.26L108.463 117.76H101.183L100.903 116.06L107.423 106.72L110.303 106.96V116.32L109.683 115.86H112.483V117.76H109.683L110.303 117.26V121H107.843V117.26ZM108.503 115.86L107.883 116.32V108.12L108.703 108.26L102.863 116.74L102.383 115.86H108.503Z"
     fill="black"
     id="path42"
     style="fill:#e43a45;fill-opacity:1" />
  <path
     d="M144.002 119.86L143.522 119.22L146.162 119.74V121H138.902V119.74L142.042 119.24L141.542 119.86V109L142.222 109.04L138.842 110.94L138.042 109.44L141.962 106.88H144.002V119.86ZM151.319 121.2C149.905 121.2 148.459 120.853 146.979 120.16L147.639 118.44C148.212 118.693 148.779 118.893 149.339 119.04C149.912 119.187 150.452 119.26 150.959 119.26C151.532 119.26 152.032 119.16 152.459 118.96C152.899 118.76 153.239 118.467 153.479 118.08C153.719 117.68 153.839 117.207 153.839 116.66C153.839 116.007 153.659 115.507 153.299 115.16C152.939 114.813 152.412 114.573 151.719 114.44C151.039 114.307 150.199 114.24 149.199 114.24H147.819L148.099 106.96H155.799L155.759 108.86H149.819L150.499 108.42L150.279 112.98L149.639 112.44H150.839C152.159 112.44 153.225 112.607 154.039 112.94C154.865 113.26 155.465 113.727 155.839 114.34C156.225 114.953 156.419 115.687 156.419 116.54C156.419 117.553 156.199 118.407 155.759 119.1C155.319 119.78 154.712 120.3 153.939 120.66C153.179 121.02 152.305 121.2 151.319 121.2Z"
     fill="black"
     id="path44"
     style="fill:#e43a45;fill-opacity:1" />
  <path
     d="M188.533 119.86L188.053 119.22L190.693 119.74V121H183.433V119.74L186.573 119.24L186.073 119.86V109L186.753 109.04L183.373 110.94L182.573 109.44L186.493 106.88H188.533V119.86ZM193.97 115.28L193.87 113.62C194.457 113.247 195.077 112.953 195.73 112.74C196.397 112.527 197.07 112.42 197.75 112.42C198.537 112.42 199.243 112.573 199.87 112.88C200.51 113.187 201.023 113.647 201.41 114.26C201.797 114.873 201.99 115.64 201.99 116.56C201.99 117.533 201.77 118.367 201.33 119.06C200.89 119.753 200.29 120.287 199.53 120.66C198.783 121.033 197.93 121.22 196.97 121.22C195.97 121.22 195.077 121 194.29 120.56C193.503 120.12 192.883 119.433 192.43 118.5C191.977 117.567 191.75 116.353 191.75 114.86C191.75 113.18 192.03 111.733 192.59 110.52C193.163 109.307 193.963 108.373 194.99 107.72C196.03 107.067 197.237 106.74 198.61 106.74C199.357 106.74 200.143 106.847 200.97 107.06L200.79 108.84C200.443 108.76 200.11 108.707 199.79 108.68C199.47 108.653 199.177 108.64 198.91 108.64C197.83 108.64 196.95 108.887 196.27 109.38C195.59 109.873 195.083 110.587 194.75 111.52C194.43 112.44 194.27 113.573 194.27 114.92C194.27 116.413 194.49 117.52 194.93 118.24C195.383 118.96 196.063 119.32 196.97 119.32C197.73 119.32 198.33 119.093 198.77 118.64C199.223 118.173 199.45 117.513 199.45 116.66C199.45 116.087 199.337 115.62 199.11 115.26C198.897 114.887 198.603 114.613 198.23 114.44C197.87 114.253 197.45 114.16 196.97 114.16C196.49 114.16 195.99 114.253 195.47 114.44C194.95 114.627 194.45 114.907 193.97 115.28Z"
     fill="black"
     id="path46"
     style="fill:#e43a45;fill-opacity:1" />
  <path
     d="M234.265 119.86L233.785 119.22L236.425 119.74V121H229.165V119.74L232.305 119.24L231.805 119.86V109L232.485 109.04L229.105 110.94L228.305 109.44L232.225 106.88H234.265V119.86ZM246.587 108.7L241.327 121H238.607L244.067 108.54L244.427 108.92H238.207L238.747 108.54L238.267 110.94H236.787V106.96H246.587V108.7Z"
     fill="black"
     id="path48"
     style="fill:#e43a45;fill-opacity:1" />
  <path
     d="M278.416 119.86L277.936 119.22L280.576 119.74V121H273.316V119.74L276.456 119.24L275.956 119.86V109L276.636 109.04L273.256 110.94L272.456 109.44L276.376 106.88H278.416V119.86ZM286.513 121.22C285.886 121.22 285.28 121.14 284.693 120.98C284.12 120.82 283.6 120.58 283.133 120.26C282.666 119.927 282.3 119.527 282.033 119.06C281.766 118.593 281.633 118.047 281.633 117.42C281.633 116.9 281.733 116.427 281.933 116C282.133 115.56 282.406 115.18 282.753 114.86C283.1 114.54 283.486 114.273 283.913 114.06C284.353 113.847 284.806 113.687 285.273 113.58L286.713 114.3C286.406 114.38 286.093 114.5 285.773 114.66C285.453 114.807 285.16 114.993 284.893 115.22C284.64 115.447 284.426 115.713 284.253 116.02C284.093 116.327 284.013 116.68 284.013 117.08C284.013 117.56 284.126 117.98 284.353 118.34C284.593 118.7 284.913 118.98 285.313 119.18C285.713 119.367 286.166 119.46 286.673 119.46C287.193 119.46 287.653 119.36 288.053 119.16C288.466 118.947 288.786 118.667 289.013 118.32C289.253 117.96 289.373 117.56 289.373 117.12C289.373 116.627 289.24 116.227 288.973 115.92C288.72 115.6 288.373 115.333 287.933 115.12C287.493 114.893 287.006 114.693 286.473 114.52C285.953 114.347 285.433 114.16 284.913 113.96C284.393 113.76 283.913 113.52 283.473 113.24C283.033 112.947 282.68 112.587 282.413 112.16C282.146 111.733 282.013 111.2 282.013 110.56C282.013 109.693 282.246 108.98 282.713 108.42C283.18 107.86 283.78 107.44 284.513 107.16C285.26 106.88 286.053 106.74 286.893 106.74C287.706 106.74 288.46 106.873 289.153 107.14C289.86 107.393 290.426 107.787 290.853 108.32C291.28 108.853 291.493 109.52 291.493 110.32C291.493 110.813 291.4 111.253 291.213 111.64C291.04 112.013 290.786 112.333 290.453 112.6C290.133 112.867 289.773 113.093 289.373 113.28C288.973 113.453 288.546 113.593 288.093 113.7L286.353 112.94C286.74 112.887 287.1 112.8 287.433 112.68C287.766 112.547 288.06 112.38 288.313 112.18C288.58 111.98 288.786 111.74 288.933 111.46C289.08 111.18 289.153 110.86 289.153 110.5C289.153 110.06 289.046 109.693 288.833 109.4C288.62 109.093 288.333 108.867 287.973 108.72C287.613 108.56 287.22 108.48 286.793 108.48C286.366 108.48 285.973 108.56 285.613 108.72C285.253 108.867 284.96 109.087 284.733 109.38C284.506 109.66 284.393 110.013 284.393 110.44C284.393 110.907 284.526 111.293 284.793 111.6C285.06 111.907 285.413 112.167 285.853 112.38C286.293 112.58 286.773 112.767 287.293 112.94C287.826 113.113 288.353 113.3 288.873 113.5C289.393 113.7 289.873 113.947 290.313 114.24C290.753 114.533 291.106 114.9 291.373 115.34C291.64 115.78 291.773 116.333 291.773 117C291.773 117.68 291.62 118.287 291.313 118.82C291.02 119.353 290.62 119.793 290.113 120.14C289.62 120.487 289.06 120.753 288.433 120.94C287.806 121.127 287.166 121.22 286.513 121.22Z"
     fill="black"
     id="path50"
     style="fill:#e43a45;fill-opacity:1" />
  <path
     d="M8.54281 153.86L8.06281 153.22L10.7028 153.74V155H3.44281V153.74L6.58281 153.24L6.08281 153.86V143L6.76281 143.04L3.38281 144.94L2.58281 143.44L6.50281 140.88H8.54281V153.86ZM19.4798 146.64L19.5998 148.3C19.0132 148.673 18.3865 148.973 17.7198 149.2C17.0532 149.427 16.3732 149.54 15.6798 149.54C14.8798 149.54 14.1598 149.38 13.5198 149.06C12.8932 148.74 12.3998 148.273 12.0398 147.66C11.6798 147.047 11.4932 146.307 11.4798 145.44C11.4665 144.453 11.6732 143.613 12.0998 142.92C12.5398 142.213 13.1398 141.673 13.8998 141.3C14.6598 140.927 15.5265 140.74 16.4998 140.74C17.4998 140.74 18.3932 140.96 19.1798 141.4C19.9665 141.827 20.5798 142.513 21.0198 143.46C21.4732 144.393 21.6998 145.613 21.6998 147.12C21.6998 148.76 21.4198 150.187 20.8598 151.4C20.2998 152.613 19.5065 153.553 18.4798 154.22C17.4532 154.887 16.2398 155.22 14.8398 155.22C14.0932 155.22 13.3065 155.113 12.4798 154.9L12.6598 153.14C13.0065 153.207 13.3398 153.26 13.6598 153.3C13.9798 153.327 14.2665 153.34 14.5198 153.34C15.6132 153.34 16.4998 153.093 17.1798 152.6C17.8732 152.107 18.3798 151.393 18.6998 150.46C19.0198 149.513 19.1798 148.373 19.1798 147.04C19.1798 145.547 18.9532 144.44 18.4998 143.72C18.0598 143 17.3865 142.64 16.4798 142.64C15.7198 142.64 15.1132 142.873 14.6598 143.34C14.2198 143.807 13.9998 144.453 13.9998 145.28C13.9998 145.867 14.1065 146.347 14.3198 146.72C14.5465 147.093 14.8398 147.373 15.1998 147.56C15.5732 147.733 15.9865 147.82 16.4398 147.82C16.9465 147.82 17.4598 147.72 17.9798 147.52C18.4998 147.32 18.9998 147.027 19.4798 146.64Z"
     fill="black"
     id="path52"
     style="fill:#e43a45;fill-opacity:1" />
  <path
     d="M46.3264 155V152.92C47.8597 151.613 49.1197 150.487 50.1064 149.54C51.1064 148.58 51.8464 147.727 52.3264 146.98C52.8064 146.22 53.0464 145.48 53.0464 144.76C53.0464 144.027 52.8064 143.48 52.3264 143.12C51.8464 142.76 51.2397 142.58 50.5064 142.58C50.1597 142.58 49.7797 142.62 49.3664 142.7C48.9664 142.78 48.5531 142.893 48.1264 143.04L48.4064 142.62L48.0864 144.92H46.6064L46.4064 141.5C47.2064 141.247 47.9864 141.06 48.7464 140.94C49.5197 140.807 50.2397 140.74 50.9064 140.74C51.8264 140.74 52.6397 140.867 53.3464 141.12C54.0664 141.373 54.6264 141.773 55.0264 142.32C55.4264 142.853 55.6264 143.553 55.6264 144.42C55.6264 145.38 55.3731 146.313 54.8664 147.22C54.3731 148.127 53.6464 149.073 52.6864 150.06C51.7264 151.047 50.5464 152.14 49.1464 153.34V153.06H55.9464V155H46.3264ZM62.9792 155.22C61.7659 155.22 60.7726 154.96 59.9992 154.44C59.2259 153.907 58.6592 153.113 58.2992 152.06C57.9392 151.007 57.7592 149.687 57.7592 148.1C57.7592 146.473 57.9459 145.113 58.3192 144.02C58.7059 142.927 59.2992 142.107 60.0992 141.56C60.9126 141.013 61.9592 140.74 63.2392 140.74C64.5059 140.74 65.5126 141 66.2592 141.52C67.0059 142.027 67.5392 142.8 67.8592 143.84C68.1926 144.867 68.3592 146.16 68.3592 147.72C68.3592 149.36 68.1659 150.74 67.7792 151.86C67.4059 152.98 66.8192 153.82 66.0192 154.38C65.2326 154.94 64.2192 155.22 62.9792 155.22ZM63.0392 153.34C63.7192 153.34 64.2592 153.147 64.6592 152.76C65.0592 152.36 65.3459 151.753 65.5192 150.94C65.7059 150.113 65.7992 149.087 65.7992 147.86C65.8126 146.607 65.7326 145.6 65.5592 144.84C65.3859 144.067 65.0992 143.507 64.6992 143.16C64.3126 142.8 63.7992 142.62 63.1592 142.62C62.4659 142.62 61.9059 142.82 61.4792 143.22C61.0659 143.607 60.7659 144.2 60.5792 145C60.3926 145.8 60.2992 146.807 60.2992 148.02C60.2992 149.233 60.3859 150.233 60.5592 151.02C60.7459 151.793 61.0392 152.373 61.4392 152.76C61.8526 153.147 62.3859 153.34 63.0392 153.34Z"
     fill="black"
     id="path54"
     style="fill:#e43a45;fill-opacity:1" />
  <path
     d="M93.4651 155V152.92C94.9984 151.613 96.2584 150.487 97.2451 149.54C98.2451 148.58 98.9851 147.727 99.4651 146.98C99.9451 146.22 100.185 145.48 100.185 144.76C100.185 144.027 99.9451 143.48 99.4651 143.12C98.9851 142.76 98.3784 142.58 97.6451 142.58C97.2984 142.58 96.9184 142.62 96.5051 142.7C96.1051 142.78 95.6917 142.893 95.2651 143.04L95.5451 142.62L95.2251 144.92H93.7451L93.5451 141.5C94.3451 141.247 95.1251 141.06 95.8851 140.94C96.6584 140.807 97.3784 140.74 98.0451 140.74C98.9651 140.74 99.7784 140.867 100.485 141.12C101.205 141.373 101.765 141.773 102.165 142.32C102.565 142.853 102.765 143.553 102.765 144.42C102.765 145.38 102.512 146.313 102.005 147.22C101.512 148.127 100.785 149.073 99.8251 150.06C98.8651 151.047 97.6851 152.14 96.2851 153.34V153.06H103.085V155H93.4651ZM109.998 153.86L109.518 153.22L112.158 153.74V155H104.898V153.74L108.038 153.24L107.538 153.86V143L108.218 143.04L104.838 144.94L104.038 143.44L107.958 140.88H109.998V153.86Z"
     fill="black"
     id="path56"
     style="fill:#e43a45;fill-opacity:1" />
  <path
     d="M137.127 155V152.92C138.661 151.613 139.921 150.487 140.907 149.54C141.907 148.58 142.647 147.727 143.127 146.98C143.607 146.22 143.847 145.48 143.847 144.76C143.847 144.027 143.607 143.48 143.127 143.12C142.647 142.76 142.041 142.58 141.307 142.58C140.961 142.58 140.581 142.62 140.167 142.7C139.767 142.78 139.354 142.893 138.927 143.04L139.207 142.62L138.887 144.92H137.407L137.207 141.5C138.007 141.247 138.787 141.06 139.547 140.94C140.321 140.807 141.041 140.74 141.707 140.74C142.627 140.74 143.441 140.867 144.147 141.12C144.867 141.373 145.427 141.773 145.827 142.32C146.227 142.853 146.427 143.553 146.427 144.42C146.427 145.38 146.174 146.313 145.667 147.22C145.174 148.127 144.447 149.073 143.487 150.06C142.527 151.047 141.347 152.14 139.947 153.34V153.06H146.747V155H137.127ZM148.26 155V152.92C149.793 151.613 151.053 150.487 152.04 149.54C153.04 148.58 153.78 147.727 154.26 146.98C154.74 146.22 154.98 145.48 154.98 144.76C154.98 144.027 154.74 143.48 154.26 143.12C153.78 142.76 153.173 142.58 152.44 142.58C152.093 142.58 151.713 142.62 151.3 142.7C150.9 142.78 150.487 142.893 150.06 143.04L150.34 142.62L150.02 144.92H148.54L148.34 141.5C149.14 141.247 149.92 141.06 150.68 140.94C151.453 140.807 152.173 140.74 152.84 140.74C153.76 140.74 154.573 140.867 155.28 141.12C156 141.373 156.56 141.773 156.96 142.32C157.36 142.853 157.56 143.553 157.56 144.42C157.56 145.38 157.307 146.313 156.8 147.22C156.307 148.127 155.58 149.073 154.62 150.06C153.66 151.047 152.48 152.14 151.08 153.34V153.06H157.88V155H148.26Z"
     fill="black"
     id="path58"
     style="fill:#e43a45;fill-opacity:1" />
  <path
     d="M181.951 155V152.92C183.485 151.613 184.745 150.487 185.731 149.54C186.731 148.58 187.471 147.727 187.951 146.98C188.431 146.22 188.671 145.48 188.671 144.76C188.671 144.027 188.431 143.48 187.951 143.12C187.471 142.76 186.865 142.58 186.131 142.58C185.785 142.58 185.405 142.62 184.991 142.7C184.591 142.78 184.178 142.893 183.751 143.04L184.031 142.62L183.711 144.92H182.231L182.031 141.5C182.831 141.247 183.611 141.06 184.371 140.94C185.145 140.807 185.865 140.74 186.531 140.74C187.451 140.74 188.265 140.867 188.971 141.12C189.691 141.373 190.251 141.773 190.651 142.32C191.051 142.853 191.251 143.553 191.251 144.42C191.251 145.38 190.998 146.313 190.491 147.22C189.998 148.127 189.271 149.073 188.311 150.06C187.351 151.047 186.171 152.14 184.771 153.34V153.06H191.571V155H181.951ZM197.364 155.22C196.604 155.22 195.844 155.127 195.084 154.94C194.324 154.753 193.611 154.473 192.944 154.1L193.584 152.36C194.184 152.653 194.798 152.887 195.424 153.06C196.064 153.22 196.684 153.3 197.284 153.3C197.858 153.3 198.371 153.213 198.824 153.04C199.278 152.867 199.631 152.6 199.884 152.24C200.151 151.88 200.284 151.427 200.284 150.88C200.284 150.413 200.178 150.007 199.964 149.66C199.751 149.313 199.424 149.047 198.984 148.86C198.544 148.673 197.971 148.58 197.264 148.58H195.524V146.82H197.204C198.124 146.82 198.818 146.633 199.284 146.26C199.764 145.887 200.004 145.347 200.004 144.64C200.004 143.88 199.758 143.34 199.264 143.02C198.784 142.687 198.171 142.52 197.424 142.52C196.998 142.52 196.571 142.567 196.144 142.66C195.718 142.74 195.298 142.847 194.884 142.98L195.204 142.64L194.964 144.82H193.484L193.324 141.54C194.111 141.287 194.898 141.093 195.684 140.96C196.471 140.813 197.224 140.74 197.944 140.74C198.811 140.74 199.584 140.86 200.264 141.1C200.958 141.327 201.504 141.693 201.904 142.2C202.304 142.707 202.504 143.387 202.504 144.24C202.504 145.253 202.204 146.047 201.604 146.62C201.004 147.193 200.144 147.553 199.024 147.7L198.944 147.5C200.251 147.58 201.218 147.92 201.844 148.52C202.471 149.107 202.784 149.92 202.784 150.96C202.784 151.693 202.638 152.327 202.344 152.86C202.064 153.393 201.671 153.84 201.164 154.2C200.671 154.547 200.098 154.807 199.444 154.98C198.791 155.14 198.098 155.22 197.364 155.22Z"
     fill="black"
     id="path60"
     style="fill:#e43a45;fill-opacity:1" />
  <path
     d="M226.688 155V152.92C228.221 151.613 229.481 150.487 230.468 149.54C231.468 148.58 232.208 147.727 232.688 146.98C233.168 146.22 233.408 145.48 233.408 144.76C233.408 144.027 233.168 143.48 232.688 143.12C232.208 142.76 231.601 142.58 230.868 142.58C230.521 142.58 230.141 142.62 229.728 142.7C229.328 142.78 228.914 142.893 228.488 143.04L228.768 142.62L228.448 144.92H226.968L226.768 141.5C227.568 141.247 228.348 141.06 229.108 140.94C229.881 140.807 230.601 140.74 231.268 140.74C232.188 140.74 233.001 140.867 233.708 141.12C234.428 141.373 234.988 141.773 235.388 142.32C235.788 142.853 235.988 143.553 235.988 144.42C235.988 145.38 235.734 146.313 235.228 147.22C234.734 148.127 234.008 149.073 233.048 150.06C232.088 151.047 230.908 152.14 229.508 153.34V153.06H236.308V155H226.688ZM244.181 151.26L244.801 151.76H237.521L237.241 150.06L243.761 140.72L246.641 140.96V150.32L246.021 149.86H248.821V151.76H246.021L246.641 151.26V155H244.181V151.26ZM244.841 149.86L244.221 150.32V142.12L245.041 142.26L239.201 150.74L238.721 149.86H244.841Z"
     fill="black"
     id="path62"
     style="fill:#e43a45;fill-opacity:1" />
  <path
     d="M272.264 155V152.92C273.797 151.613 275.057 150.487 276.044 149.54C277.044 148.58 277.784 147.727 278.264 146.98C278.744 146.22 278.984 145.48 278.984 144.76C278.984 144.027 278.744 143.48 278.264 143.12C277.784 142.76 277.177 142.58 276.444 142.58C276.097 142.58 275.717 142.62 275.304 142.7C274.904 142.78 274.491 142.893 274.064 143.04L274.344 142.62L274.024 144.92H272.544L272.344 141.5C273.144 141.247 273.924 141.06 274.684 140.94C275.457 140.807 276.177 140.74 276.844 140.74C277.764 140.74 278.577 140.867 279.284 141.12C280.004 141.373 280.564 141.773 280.964 142.32C281.364 142.853 281.564 143.553 281.564 144.42C281.564 145.38 281.311 146.313 280.804 147.22C280.311 148.127 279.584 149.073 278.624 150.06C277.664 151.047 276.484 152.14 275.084 153.34V153.06H281.884V155H272.264ZM287.657 155.2C286.243 155.2 284.797 154.853 283.317 154.16L283.977 152.44C284.55 152.693 285.117 152.893 285.677 153.04C286.25 153.187 286.79 153.26 287.297 153.26C287.87 153.26 288.37 153.16 288.797 152.96C289.237 152.76 289.577 152.467 289.817 152.08C290.057 151.68 290.177 151.207 290.177 150.66C290.177 150.007 289.997 149.507 289.637 149.16C289.277 148.813 288.75 148.573 288.057 148.44C287.377 148.307 286.537 148.24 285.537 148.24H284.157L284.437 140.96H292.137L292.097 142.86H286.157L286.837 142.42L286.617 146.98L285.977 146.44H287.177C288.497 146.44 289.563 146.607 290.377 146.94C291.203 147.26 291.803 147.727 292.177 148.34C292.563 148.953 292.757 149.687 292.757 150.54C292.757 151.553 292.537 152.407 292.097 153.1C291.657 153.78 291.05 154.3 290.277 154.66C289.517 155.02 288.643 155.2 287.657 155.2Z"
     fill="black"
     id="path64"
     style="fill:#e43a45;fill-opacity:1" />
  <path
     d="M1.79516 189V186.92C3.32849 185.613 4.58849 184.487 5.57516 183.54C6.57516 182.58 7.31516 181.727 7.79516 180.98C8.27516 180.22 8.51516 179.48 8.51516 178.76C8.51516 178.027 8.27516 177.48 7.79516 177.12C7.31516 176.76 6.70849 176.58 5.97516 176.58C5.62849 176.58 5.24849 176.62 4.83516 176.7C4.43516 176.78 4.02182 176.893 3.59516 177.04L3.87516 176.62L3.55516 178.92H2.07516L1.87516 175.5C2.67516 175.247 3.45516 175.06 4.21516 174.94C4.98849 174.807 5.70849 174.74 6.37516 174.74C7.29516 174.74 8.10849 174.867 8.81516 175.12C9.53516 175.373 10.0952 175.773 10.4952 176.32C10.8952 176.853 11.0952 177.553 11.0952 178.42C11.0952 179.38 10.8418 180.313 10.3352 181.22C9.84182 182.127 9.11516 183.073 8.15516 184.06C7.19516 185.047 6.01516 186.14 4.61516 187.34V187.06H11.4152V189H1.79516ZM15.308 183.28L15.208 181.62C15.7946 181.247 16.4146 180.953 17.068 180.74C17.7346 180.527 18.408 180.42 19.088 180.42C19.8746 180.42 20.5813 180.573 21.208 180.88C21.848 181.187 22.3613 181.647 22.748 182.26C23.1346 182.873 23.328 183.64 23.328 184.56C23.328 185.533 23.108 186.367 22.668 187.06C22.228 187.753 21.628 188.287 20.868 188.66C20.1213 189.033 19.268 189.22 18.308 189.22C17.308 189.22 16.4146 189 15.628 188.56C14.8413 188.12 14.2213 187.433 13.768 186.5C13.3146 185.567 13.088 184.353 13.088 182.86C13.088 181.18 13.368 179.733 13.928 178.52C14.5013 177.307 15.3013 176.373 16.328 175.72C17.368 175.067 18.5746 174.74 19.948 174.74C20.6946 174.74 21.4813 174.847 22.308 175.06L22.128 176.84C21.7813 176.76 21.448 176.707 21.128 176.68C20.808 176.653 20.5146 176.64 20.248 176.64C19.168 176.64 18.288 176.887 17.608 177.38C16.928 177.873 16.4213 178.587 16.088 179.52C15.768 180.44 15.608 181.573 15.608 182.92C15.608 184.413 15.828 185.52 16.268 186.24C16.7213 186.96 17.4013 187.32 18.308 187.32C19.068 187.32 19.668 187.093 20.108 186.64C20.5613 186.173 20.788 185.513 20.788 184.66C20.788 184.087 20.6746 183.62 20.448 183.26C20.2346 182.887 19.9413 182.613 19.568 182.44C19.208 182.253 18.788 182.16 18.308 182.16C17.828 182.16 17.328 182.253 16.808 182.44C16.288 182.627 15.788 182.907 15.308 183.28Z"
     fill="black"
     id="path66"
     style="fill:#e43a45;fill-opacity:1" />
  <path
     d="M47.4885 189V186.92C49.0218 185.613 50.2818 184.487 51.2685 183.54C52.2685 182.58 53.0085 181.727 53.4885 180.98C53.9685 180.22 54.2085 179.48 54.2085 178.76C54.2085 178.027 53.9685 177.48 53.4885 177.12C53.0085 176.76 52.4018 176.58 51.6685 176.58C51.3218 176.58 50.9418 176.62 50.5285 176.7C50.1285 176.78 49.7152 176.893 49.2885 177.04L49.5685 176.62L49.2485 178.92H47.7685L47.5685 175.5C48.3685 175.247 49.1485 175.06 49.9085 174.94C50.6818 174.807 51.4018 174.74 52.0685 174.74C52.9885 174.74 53.8018 174.867 54.5085 175.12C55.2285 175.373 55.7885 175.773 56.1885 176.32C56.5885 176.853 56.7885 177.553 56.7885 178.42C56.7885 179.38 56.5352 180.313 56.0285 181.22C55.5352 182.127 54.8085 183.073 53.8485 184.06C52.8885 185.047 51.7085 186.14 50.3085 187.34V187.06H57.1085V189H47.4885ZM67.9641 176.7L62.7041 189H59.9841L65.4441 176.54L65.8041 176.92H59.5841L60.1241 176.54L59.6441 178.94H58.1641V174.96H67.9641V176.7Z"
     fill="black"
     id="path68"
     style="fill:#e43a45;fill-opacity:1" />
  <path
     d="M91.678 189V186.92C93.2113 185.613 94.4713 184.487 95.458 183.54C96.458 182.58 97.198 181.727 97.678 180.98C98.158 180.22 98.398 179.48 98.398 178.76C98.398 178.027 98.158 177.48 97.678 177.12C97.198 176.76 96.5913 176.58 95.858 176.58C95.5113 176.58 95.1313 176.62 94.718 176.7C94.318 176.78 93.9046 176.893 93.478 177.04L93.758 176.62L93.438 178.92H91.958L91.758 175.5C92.558 175.247 93.338 175.06 94.098 174.94C94.8713 174.807 95.5913 174.74 96.258 174.74C97.178 174.74 97.9913 174.867 98.698 175.12C99.418 175.373 99.978 175.773 100.378 176.32C100.778 176.853 100.978 177.553 100.978 178.42C100.978 179.38 100.725 180.313 100.218 181.22C99.7246 182.127 98.998 183.073 98.038 184.06C97.078 185.047 95.898 186.14 94.498 187.34V187.06H101.298V189H91.678ZM107.851 189.22C107.224 189.22 106.617 189.14 106.031 188.98C105.457 188.82 104.937 188.58 104.471 188.26C104.004 187.927 103.637 187.527 103.371 187.06C103.104 186.593 102.971 186.047 102.971 185.42C102.971 184.9 103.071 184.427 103.271 184C103.471 183.56 103.744 183.18 104.091 182.86C104.437 182.54 104.824 182.273 105.251 182.06C105.691 181.847 106.144 181.687 106.611 181.58L108.051 182.3C107.744 182.38 107.431 182.5 107.111 182.66C106.791 182.807 106.497 182.993 106.231 183.22C105.977 183.447 105.764 183.713 105.591 184.02C105.431 184.327 105.351 184.68 105.351 185.08C105.351 185.56 105.464 185.98 105.691 186.34C105.931 186.7 106.251 186.98 106.651 187.18C107.051 187.367 107.504 187.46 108.011 187.46C108.531 187.46 108.991 187.36 109.391 187.16C109.804 186.947 110.124 186.667 110.351 186.32C110.591 185.96 110.711 185.56 110.711 185.12C110.711 184.627 110.577 184.227 110.311 183.92C110.057 183.6 109.711 183.333 109.271 183.12C108.831 182.893 108.344 182.693 107.811 182.52C107.291 182.347 106.771 182.16 106.251 181.96C105.731 181.76 105.251 181.52 104.811 181.24C104.371 180.947 104.017 180.587 103.751 180.16C103.484 179.733 103.351 179.2 103.351 178.56C103.351 177.693 103.584 176.98 104.051 176.42C104.517 175.86 105.117 175.44 105.851 175.16C106.597 174.88 107.391 174.74 108.231 174.74C109.044 174.74 109.797 174.873 110.491 175.14C111.197 175.393 111.764 175.787 112.191 176.32C112.617 176.853 112.831 177.52 112.831 178.32C112.831 178.813 112.737 179.253 112.551 179.64C112.377 180.013 112.124 180.333 111.791 180.6C111.471 180.867 111.111 181.093 110.711 181.28C110.311 181.453 109.884 181.593 109.431 181.7L107.691 180.94C108.077 180.887 108.437 180.8 108.771 180.68C109.104 180.547 109.397 180.38 109.651 180.18C109.917 179.98 110.124 179.74 110.271 179.46C110.417 179.18 110.491 178.86 110.491 178.5C110.491 178.06 110.384 177.693 110.171 177.4C109.957 177.093 109.671 176.867 109.311 176.72C108.951 176.56 108.557 176.48 108.131 176.48C107.704 176.48 107.311 176.56 106.951 176.72C106.591 176.867 106.297 177.087 106.071 177.38C105.844 177.66 105.731 178.013 105.731 178.44C105.731 178.907 105.864 179.293 106.131 179.6C106.397 179.907 106.751 180.167 107.191 180.38C107.631 180.58 108.111 180.767 108.631 180.94C109.164 181.113 109.691 181.3 110.211 181.5C110.731 181.7 111.211 181.947 111.651 182.24C112.091 182.533 112.444 182.9 112.711 183.34C112.977 183.78 113.111 184.333 113.111 185C113.111 185.68 112.957 186.287 112.651 186.82C112.357 187.353 111.957 187.793 111.451 188.14C110.957 188.487 110.397 188.753 109.771 188.94C109.144 189.127 108.504 189.22 107.851 189.22Z"
     fill="black"
     id="path70"
     style="fill:#e43a45;fill-opacity:1" />
  <path
     d="M136.805 189V186.92C138.338 185.613 139.598 184.487 140.585 183.54C141.585 182.58 142.325 181.727 142.805 180.98C143.285 180.22 143.525 179.48 143.525 178.76C143.525 178.027 143.285 177.48 142.805 177.12C142.325 176.76 141.718 176.58 140.985 176.58C140.638 176.58 140.258 176.62 139.845 176.7C139.445 176.78 139.032 176.893 138.605 177.04L138.885 176.62L138.565 178.92H137.085L136.885 175.5C137.685 175.247 138.465 175.06 139.225 174.94C139.998 174.807 140.718 174.74 141.385 174.74C142.305 174.74 143.118 174.867 143.825 175.12C144.545 175.373 145.105 175.773 145.505 176.32C145.905 176.853 146.105 177.553 146.105 178.42C146.105 179.38 145.852 180.313 145.345 181.22C144.852 182.127 144.125 183.073 143.165 184.06C142.205 185.047 141.025 186.14 139.625 187.34V187.06H146.425V189H136.805ZM155.818 180.64L155.938 182.3C155.351 182.673 154.724 182.973 154.058 183.2C153.391 183.427 152.711 183.54 152.018 183.54C151.218 183.54 150.498 183.38 149.858 183.06C149.231 182.74 148.738 182.273 148.378 181.66C148.018 181.047 147.831 180.307 147.818 179.44C147.804 178.453 148.011 177.613 148.438 176.92C148.878 176.213 149.478 175.673 150.238 175.3C150.998 174.927 151.864 174.74 152.838 174.74C153.838 174.74 154.731 174.96 155.518 175.4C156.304 175.827 156.918 176.513 157.358 177.46C157.811 178.393 158.038 179.613 158.038 181.12C158.038 182.76 157.758 184.187 157.198 185.4C156.638 186.613 155.844 187.553 154.818 188.22C153.791 188.887 152.578 189.22 151.178 189.22C150.431 189.22 149.644 189.113 148.818 188.9L148.998 187.14C149.344 187.207 149.678 187.26 149.998 187.3C150.318 187.327 150.604 187.34 150.858 187.34C151.951 187.34 152.838 187.093 153.518 186.6C154.211 186.107 154.718 185.393 155.038 184.46C155.358 183.513 155.518 182.373 155.518 181.04C155.518 179.547 155.291 178.44 154.838 177.72C154.398 177 153.724 176.64 152.818 176.64C152.058 176.64 151.451 176.873 150.998 177.34C150.558 177.807 150.338 178.453 150.338 179.28C150.338 179.867 150.444 180.347 150.658 180.72C150.884 181.093 151.178 181.373 151.538 181.56C151.911 181.733 152.324 181.82 152.778 181.82C153.284 181.82 153.798 181.72 154.318 181.52C154.838 181.32 155.338 181.027 155.818 180.64Z"
     fill="black"
     id="path72"
     style="fill:#e43a45;fill-opacity:1" />
  <path
     d="M185.431 189.22C184.671 189.22 183.911 189.127 183.151 188.94C182.391 188.753 181.677 188.473 181.011 188.1L181.651 186.36C182.251 186.653 182.864 186.887 183.491 187.06C184.131 187.22 184.751 187.3 185.351 187.3C185.924 187.3 186.437 187.213 186.891 187.04C187.344 186.867 187.697 186.6 187.951 186.24C188.217 185.88 188.351 185.427 188.351 184.88C188.351 184.413 188.244 184.007 188.031 183.66C187.817 183.313 187.491 183.047 187.051 182.86C186.611 182.673 186.037 182.58 185.331 182.58H183.591V180.82H185.271C186.191 180.82 186.884 180.633 187.351 180.26C187.831 179.887 188.071 179.347 188.071 178.64C188.071 177.88 187.824 177.34 187.331 177.02C186.851 176.687 186.237 176.52 185.491 176.52C185.064 176.52 184.637 176.567 184.211 176.66C183.784 176.74 183.364 176.847 182.951 176.98L183.271 176.64L183.031 178.82H181.551L181.391 175.54C182.177 175.287 182.964 175.093 183.751 174.96C184.537 174.813 185.291 174.74 186.011 174.74C186.877 174.74 187.651 174.86 188.331 175.1C189.024 175.327 189.571 175.693 189.971 176.2C190.371 176.707 190.571 177.387 190.571 178.24C190.571 179.253 190.271 180.047 189.671 180.62C189.071 181.193 188.211 181.553 187.091 181.7L187.011 181.5C188.317 181.58 189.284 181.92 189.911 182.52C190.537 183.107 190.851 183.92 190.851 184.96C190.851 185.693 190.704 186.327 190.411 186.86C190.131 187.393 189.737 187.84 189.231 188.2C188.737 188.547 188.164 188.807 187.511 188.98C186.857 189.14 186.164 189.22 185.431 189.22ZM198.155 189.22C196.942 189.22 195.948 188.96 195.175 188.44C194.402 187.907 193.835 187.113 193.475 186.06C193.115 185.007 192.935 183.687 192.935 182.1C192.935 180.473 193.122 179.113 193.495 178.02C193.882 176.927 194.475 176.107 195.275 175.56C196.088 175.013 197.135 174.74 198.415 174.74C199.682 174.74 200.688 175 201.435 175.52C202.182 176.027 202.715 176.8 203.035 177.84C203.368 178.867 203.535 180.16 203.535 181.72C203.535 183.36 203.342 184.74 202.955 185.86C202.582 186.98 201.995 187.82 201.195 188.38C200.408 188.94 199.395 189.22 198.155 189.22ZM198.215 187.34C198.895 187.34 199.435 187.147 199.835 186.76C200.235 186.36 200.522 185.753 200.695 184.94C200.882 184.113 200.975 183.087 200.975 181.86C200.988 180.607 200.908 179.6 200.735 178.84C200.562 178.067 200.275 177.507 199.875 177.16C199.488 176.8 198.975 176.62 198.335 176.62C197.642 176.62 197.082 176.82 196.655 177.22C196.242 177.607 195.942 178.2 195.755 179C195.568 179.8 195.475 180.807 195.475 182.02C195.475 183.233 195.562 184.233 195.735 185.02C195.922 185.793 196.215 186.373 196.615 186.76C197.028 187.147 197.562 187.34 198.215 187.34Z"
     fill="black"
     id="path74"
     style="fill:#e43a45;fill-opacity:1" />
</svg>
