<?xml version="1.0" encoding="UTF-8" standalone="no"?>
<svg
   width="295"
   height="194"
   viewBox="0 0 295 194"
   fill="none"
   version="1.1"
   id="svg78"
   sodipodi:docname="maio.svg"
   inkscape:version="1.1.2 (b8e25be833, 2022-02-05)"
   xmlns:inkscape="http://www.inkscape.org/namespaces/inkscape"
   xmlns:sodipodi="http://sodipodi.sourceforge.net/DTD/sodipodi-0.dtd"
   xmlns="http://www.w3.org/2000/svg"
   xmlns:svg="http://www.w3.org/2000/svg">
  <defs
     id="defs82" />
  <sodipodi:namedview
     id="namedview80"
     pagecolor="#ffffff"
     bordercolor="#666666"
     borderopacity="1.0"
     inkscape:pageshadow="2"
     inkscape:pageopacity="0.0"
     inkscape:pagecheckerboard="0"
     showgrid="false"
     inkscape:zoom="2.056701"
     inkscape:cx="160.93735"
     inkscape:cy="125.2005"
     inkscape:window-width="1920"
     inkscape:window-height="991"
     inkscape:window-x="-9"
     inkscape:window-y="-9"
     inkscape:window-maximized="1"
     inkscape:current-layer="svg78" />
  <path
     d="M12.4502 4.86C13.4902 4.86 14.4102 5.00667 15.2102 5.3C16.0235 5.58 16.7035 6.00667 17.2502 6.58C17.8102 7.15333 18.2368 7.86667 18.5302 8.72C18.8235 9.56 18.9702 10.54 18.9702 11.66C18.9702 13.26 18.6902 14.6067 18.1302 15.7C17.5702 16.78 16.7702 17.6 15.7302 18.16C14.6902 18.72 13.4502 19 12.0102 19H6.01016V17.28L7.81016 16.68L7.35016 17.34V6.6L7.83016 7.3L6.01016 6.68V4.96L10.9302 4.86H12.4502ZM12.1702 16.52C12.5168 16.52 12.8702 16.48 13.2302 16.4C13.5902 16.3067 13.9235 16.1133 14.2302 15.82C14.5368 15.5133 14.7835 15.0467 14.9702 14.42C15.1568 13.7933 15.2502 12.94 15.2502 11.86C15.2502 10.82 15.1568 9.99333 14.9702 9.38C14.7968 8.76667 14.5635 8.32 14.2702 8.04C13.9902 7.74667 13.6835 7.56 13.3502 7.48C13.0168 7.38667 12.6902 7.34 12.3702 7.34H10.3102L10.8302 6.82V17.04L10.3102 16.52H12.1702Z"
     fill="black"
     id="path2" />
  <path
     d="M55.7644 8.46C55.7644 8.79333 55.891 9.07333 56.1444 9.3C56.3977 9.52667 56.731 9.72667 57.1444 9.9C57.571 10.06 58.0377 10.22 58.5444 10.38C59.0644 10.54 59.571 10.7333 60.0644 10.96C60.571 11.1733 61.031 11.4467 61.4444 11.78C61.871 12.1 62.211 12.5067 62.4644 13C62.731 13.4933 62.8644 14.0933 62.8644 14.8C62.8644 15.84 62.5977 16.6933 62.0644 17.36C61.531 18.0133 60.8177 18.5 59.9244 18.82C59.031 19.1267 58.051 19.28 56.9844 19.28C56.251 19.28 55.4977 19.2067 54.7244 19.06C53.951 18.9267 53.191 18.72 52.4444 18.44L52.5644 14.4H54.5444L55.0244 16.76L54.7044 16.22C55.0777 16.3933 55.4777 16.5267 55.9044 16.62C56.331 16.7133 56.7444 16.76 57.1444 16.76C57.571 16.76 57.9577 16.7067 58.3044 16.6C58.651 16.48 58.931 16.3133 59.1444 16.1C59.3577 15.8733 59.4644 15.5933 59.4644 15.26C59.4644 14.8867 59.3377 14.5867 59.0844 14.36C58.831 14.12 58.491 13.92 58.0644 13.76C57.651 13.5867 57.191 13.4267 56.6844 13.28C56.1777 13.1333 55.671 12.96 55.1644 12.76C54.671 12.5467 54.211 12.28 53.7844 11.96C53.371 11.64 53.0377 11.24 52.7844 10.76C52.531 10.2667 52.4044 9.65333 52.4044 8.92C52.4044 7.93333 52.6377 7.12667 53.1044 6.5C53.571 5.86 54.2044 5.38667 55.0044 5.08C55.8177 4.76 56.731 4.6 57.7444 4.6C58.451 4.6 59.1977 4.67333 59.9844 4.82C60.7844 4.96667 61.571 5.18667 62.3444 5.48L62.1244 9.2H60.0644L59.5844 7.12L59.9444 7.46C59.6377 7.35333 59.311 7.27333 58.9644 7.22C58.631 7.15333 58.291 7.12 57.9444 7.12C57.5577 7.12 57.1977 7.16667 56.8644 7.26C56.531 7.34 56.2644 7.48 56.0644 7.68C55.8644 7.88 55.7644 8.14 55.7644 8.46Z"
     fill="black"
     id="path4" />
  <path
     d="M280.764 8.46C280.764 8.79333 280.891 9.07333 281.144 9.3C281.398 9.52667 281.731 9.72667 282.144 9.9C282.571 10.06 283.038 10.22 283.544 10.38C284.064 10.54 284.571 10.7333 285.064 10.96C285.571 11.1733 286.031 11.4467 286.444 11.78C286.871 12.1 287.211 12.5067 287.464 13C287.731 13.4933 287.864 14.0933 287.864 14.8C287.864 15.84 287.598 16.6933 287.064 17.36C286.531 18.0133 285.818 18.5 284.924 18.82C284.031 19.1267 283.051 19.28 281.984 19.28C281.251 19.28 280.498 19.2067 279.724 19.06C278.951 18.9267 278.191 18.72 277.444 18.44L277.564 14.4H279.544L280.024 16.76L279.704 16.22C280.078 16.3933 280.478 16.5267 280.904 16.62C281.331 16.7133 281.744 16.76 282.144 16.76C282.571 16.76 282.958 16.7067 283.304 16.6C283.651 16.48 283.931 16.3133 284.144 16.1C284.358 15.8733 284.464 15.5933 284.464 15.26C284.464 14.8867 284.338 14.5867 284.084 14.36C283.831 14.12 283.491 13.92 283.064 13.76C282.651 13.5867 282.191 13.4267 281.684 13.28C281.178 13.1333 280.671 12.96 280.164 12.76C279.671 12.5467 279.211 12.28 278.784 11.96C278.371 11.64 278.038 11.24 277.784 10.76C277.531 10.2667 277.404 9.65333 277.404 8.92C277.404 7.93333 277.638 7.12667 278.104 6.5C278.571 5.86 279.204 5.38667 280.004 5.08C280.818 4.76 281.731 4.6 282.744 4.6C283.451 4.6 284.198 4.67333 284.984 4.82C285.784 4.96667 286.571 5.18667 287.344 5.48L287.124 9.2H285.064L284.584 7.12L284.944 7.46C284.638 7.35333 284.311 7.27333 283.964 7.22C283.631 7.15333 283.291 7.12 282.944 7.12C282.558 7.12 282.198 7.16667 281.864 7.26C281.531 7.34 281.264 7.48 281.064 7.68C280.864 7.88 280.764 8.14 280.764 8.46Z"
     fill="black"
     id="path6" />
  <path
     d="M235.764 8.46C235.764 8.79333 235.891 9.07333 236.144 9.3C236.398 9.52667 236.731 9.72667 237.144 9.9C237.571 10.06 238.038 10.22 238.544 10.38C239.064 10.54 239.571 10.7333 240.064 10.96C240.571 11.1733 241.031 11.4467 241.444 11.78C241.871 12.1 242.211 12.5067 242.464 13C242.731 13.4933 242.864 14.0933 242.864 14.8C242.864 15.84 242.598 16.6933 242.064 17.36C241.531 18.0133 240.818 18.5 239.924 18.82C239.031 19.1267 238.051 19.28 236.984 19.28C236.251 19.28 235.498 19.2067 234.724 19.06C233.951 18.9267 233.191 18.72 232.444 18.44L232.564 14.4H234.544L235.024 16.76L234.704 16.22C235.078 16.3933 235.478 16.5267 235.904 16.62C236.331 16.7133 236.744 16.76 237.144 16.76C237.571 16.76 237.958 16.7067 238.304 16.6C238.651 16.48 238.931 16.3133 239.144 16.1C239.358 15.8733 239.464 15.5933 239.464 15.26C239.464 14.8867 239.338 14.5867 239.084 14.36C238.831 14.12 238.491 13.92 238.064 13.76C237.651 13.5867 237.191 13.4267 236.684 13.28C236.178 13.1333 235.671 12.96 235.164 12.76C234.671 12.5467 234.211 12.28 233.784 11.96C233.371 11.64 233.038 11.24 232.784 10.76C232.531 10.2667 232.404 9.65333 232.404 8.92C232.404 7.93333 232.638 7.12667 233.104 6.5C233.571 5.86 234.204 5.38667 235.004 5.08C235.818 4.76 236.731 4.6 237.744 4.6C238.451 4.6 239.198 4.67333 239.984 4.82C240.784 4.96667 241.571 5.18667 242.344 5.48L242.124 9.2H240.064L239.584 7.12L239.944 7.46C239.638 7.35333 239.311 7.27333 238.964 7.22C238.631 7.15333 238.291 7.12 237.944 7.12C237.558 7.12 237.198 7.16667 236.864 7.26C236.531 7.34 236.264 7.48 236.064 7.68C235.864 7.88 235.764 8.14 235.764 8.46Z"
     fill="black"
     id="path8" />
  <path
     d="M99.21 19V17.28L101.37 16.66L100.77 17.52V6.82L101.45 7.34H98.47L99.23 6.68L98.65 9.2H96.59V4.86H108.41V9.2H106.37L105.81 6.82L106.55 7.34H103.55L104.25 6.82V17.52L103.67 16.66L105.79 17.28V19H99.21Z"
     fill="black"
     id="path10" />
  <path
     d="M153.355 23.06C152.835 23.06 152.275 22.92 151.675 22.64C151.075 22.36 150.355 21.92 149.515 21.32C148.675 20.72 147.622 19.9467 146.355 19L147.115 19.26C145.795 19.2467 144.669 18.9667 143.735 18.42C142.802 17.8733 142.082 17.0733 141.575 16.02C141.082 14.9533 140.835 13.6533 140.835 12.12C140.835 10.88 140.995 9.79333 141.315 8.86C141.635 7.92667 142.089 7.14667 142.675 6.52C143.275 5.88 143.995 5.4 144.835 5.08C145.675 4.76 146.609 4.6 147.635 4.6C148.675 4.6 149.595 4.75333 150.395 5.06C151.209 5.36667 151.889 5.82 152.435 6.42C152.995 7.02 153.422 7.76 153.715 8.64C154.009 9.50667 154.155 10.5067 154.155 11.64C154.155 12.92 153.962 14.0667 153.575 15.08C153.202 16.08 152.655 16.9133 151.935 17.58C151.215 18.2333 150.355 18.6933 149.355 18.96L149.455 18.58C150.135 18.9933 150.709 19.3267 151.175 19.58C151.655 19.8467 152.069 20.04 152.415 20.16C152.762 20.28 153.089 20.34 153.395 20.34C153.742 20.34 154.082 20.2733 154.415 20.14C154.749 20.0067 155.129 19.82 155.555 19.58L156.755 21.68C156.035 22.12 155.415 22.46 154.895 22.7C154.375 22.94 153.862 23.06 153.355 23.06ZM144.575 12.02C144.575 13.1267 144.675 14.02 144.875 14.7C145.089 15.38 145.409 15.8733 145.835 16.18C146.262 16.4733 146.795 16.62 147.435 16.62C148.115 16.62 148.675 16.46 149.115 16.14C149.555 15.82 149.882 15.3067 150.095 14.6C150.322 13.8933 150.435 12.9533 150.435 11.78C150.435 10.6733 150.322 9.78667 150.095 9.12C149.882 8.45333 149.562 7.97333 149.135 7.68C148.709 7.38667 148.162 7.24 147.495 7.24C146.842 7.24 146.295 7.4 145.855 7.72C145.429 8.02667 145.109 8.52667 144.895 9.22C144.682 9.91333 144.575 10.8467 144.575 12.02Z"
     fill="black"
     id="path12" />
  <path
     d="M198.355 23.06C197.835 23.06 197.275 22.92 196.675 22.64C196.075 22.36 195.355 21.92 194.515 21.32C193.675 20.72 192.622 19.9467 191.355 19L192.115 19.26C190.795 19.2467 189.669 18.9667 188.735 18.42C187.802 17.8733 187.082 17.0733 186.575 16.02C186.082 14.9533 185.835 13.6533 185.835 12.12C185.835 10.88 185.995 9.79333 186.315 8.86C186.635 7.92667 187.089 7.14667 187.675 6.52C188.275 5.88 188.995 5.4 189.835 5.08C190.675 4.76 191.609 4.6 192.635 4.6C193.675 4.6 194.595 4.75333 195.395 5.06C196.209 5.36667 196.889 5.82 197.435 6.42C197.995 7.02 198.422 7.76 198.715 8.64C199.009 9.50667 199.155 10.5067 199.155 11.64C199.155 12.92 198.962 14.0667 198.575 15.08C198.202 16.08 197.655 16.9133 196.935 17.58C196.215 18.2333 195.355 18.6933 194.355 18.96L194.455 18.58C195.135 18.9933 195.709 19.3267 196.175 19.58C196.655 19.8467 197.069 20.04 197.415 20.16C197.762 20.28 198.089 20.34 198.395 20.34C198.742 20.34 199.082 20.2733 199.415 20.14C199.749 20.0067 200.129 19.82 200.555 19.58L201.755 21.68C201.035 22.12 200.415 22.46 199.895 22.7C199.375 22.94 198.862 23.06 198.355 23.06ZM189.575 12.02C189.575 13.1267 189.675 14.02 189.875 14.7C190.089 15.38 190.409 15.8733 190.835 16.18C191.262 16.4733 191.795 16.62 192.435 16.62C193.115 16.62 193.675 16.46 194.115 16.14C194.555 15.82 194.882 15.3067 195.095 14.6C195.322 13.8933 195.435 12.9533 195.435 11.78C195.435 10.6733 195.322 9.78667 195.095 9.12C194.882 8.45333 194.562 7.97333 194.135 7.68C193.709 7.38667 193.162 7.24 192.495 7.24C191.842 7.24 191.295 7.4 190.855 7.72C190.429 8.02667 190.109 8.52667 189.895 9.22C189.682 9.91333 189.575 10.8467 189.575 12.02Z"
     fill="black"
     id="path14" />
  <path
     d="M13.9975 52.12L13.6375 51.68L16.3175 52.1V53H9.5375V52.1L12.7175 51.7L12.3575 52.12V40.42L12.7975 40.46L9.3175 42.48L8.7775 41.46L12.6575 38.98H13.9975V52.12Z"
     fill="black"
     id="path16" />
  <path
     d="M52.6936 53V50.92C54.2269 49.6133 55.4869 48.4867 56.4736 47.54C57.4736 46.58 58.2136 45.7267 58.6936 44.98C59.1736 44.22 59.4136 43.48 59.4136 42.76C59.4136 42.0267 59.1736 41.48 58.6936 41.12C58.2136 40.76 57.6069 40.58 56.8736 40.58C56.5269 40.58 56.1469 40.62 55.7336 40.7C55.3336 40.78 54.9203 40.8933 54.4936 41.04L54.7736 40.62L54.4536 42.92H52.9736L52.7736 39.5C53.5736 39.2467 54.3536 39.06 55.1136 38.94C55.8869 38.8067 56.6069 38.74 57.2736 38.74C58.1936 38.74 59.0069 38.8667 59.7136 39.12C60.4336 39.3733 60.9936 39.7733 61.3936 40.32C61.7936 40.8533 61.9936 41.5533 61.9936 42.42C61.9936 43.38 61.7403 44.3133 61.2336 45.22C60.7403 46.1267 60.0136 47.0733 59.0536 48.06C58.0936 49.0467 56.9136 50.14 55.5136 51.34V51.06H62.3136V53H52.6936Z"
     fill="#E43A45"
     id="path18"
     style="fill:#000000" />
  <path
     d="M101.798 53.22C101.038 53.22 100.278 53.1267 99.5178 52.94C98.7578 52.7533 98.0445 52.4733 97.3778 52.1L98.0178 50.36C98.6178 50.6533 99.2311 50.8867 99.8578 51.06C100.498 51.22 101.118 51.3 101.718 51.3C102.291 51.3 102.804 51.2133 103.258 51.04C103.711 50.8667 104.064 50.6 104.318 50.24C104.584 49.88 104.718 49.4267 104.718 48.88C104.718 48.4133 104.611 48.0067 104.398 47.66C104.184 47.3133 103.858 47.0467 103.418 46.86C102.978 46.6733 102.404 46.58 101.698 46.58H99.9578V44.82H101.638C102.558 44.82 103.251 44.6333 103.718 44.26C104.198 43.8867 104.438 43.3467 104.438 42.64C104.438 41.88 104.191 41.34 103.698 41.02C103.218 40.6867 102.604 40.52 101.858 40.52C101.431 40.52 101.004 40.5667 100.578 40.66C100.151 40.74 99.7311 40.8467 99.3178 40.98L99.6378 40.64L99.3978 42.82H97.9178L97.7578 39.54C98.5445 39.2867 99.3311 39.0933 100.118 38.96C100.904 38.8133 101.658 38.74 102.378 38.74C103.244 38.74 104.018 38.86 104.698 39.1C105.391 39.3267 105.938 39.6933 106.338 40.2C106.738 40.7067 106.938 41.3867 106.938 42.24C106.938 43.2533 106.638 44.0467 106.038 44.62C105.438 45.1933 104.578 45.5533 103.458 45.7L103.378 45.5C104.684 45.58 105.651 45.92 106.278 46.52C106.904 47.1067 107.218 47.92 107.218 48.96C107.218 49.6933 107.071 50.3267 106.778 50.86C106.498 51.3933 106.104 51.84 105.598 52.2C105.104 52.5467 104.531 52.8067 103.878 52.98C103.224 53.14 102.531 53.22 101.798 53.22Z"
     fill="black"
     id="path20" />
  <path
     d="M148.614 49.26L149.234 49.76H141.954L141.674 48.06L148.194 38.72L151.074 38.96V48.32L150.454 47.86H153.254V49.76H150.454L151.074 49.26V53H148.614V49.26ZM149.274 47.86L148.654 48.32V40.12L149.474 40.26L143.634 48.74L143.154 47.86H149.274Z"
     fill="black"
     id="path22" />
  <path
     d="M192.09 53.2C190.677 53.2 189.23 52.8533 187.75 52.16L188.41 50.44C188.984 50.6933 189.55 50.8933 190.11 51.04C190.684 51.1867 191.224 51.26 191.73 51.26C192.304 51.26 192.804 51.16 193.23 50.96C193.67 50.76 194.01 50.4667 194.25 50.08C194.49 49.68 194.61 49.2067 194.61 48.66C194.61 48.0067 194.43 47.5067 194.07 47.16C193.71 46.8133 193.184 46.5733 192.49 46.44C191.81 46.3067 190.97 46.24 189.97 46.24H188.59L188.87 38.96H196.57L196.53 40.86H190.59L191.27 40.42L191.05 44.98L190.41 44.44H191.61C192.93 44.44 193.997 44.6067 194.81 44.94C195.637 45.26 196.237 45.7267 196.61 46.34C196.997 46.9533 197.19 47.6867 197.19 48.54C197.19 49.5533 196.97 50.4067 196.53 51.1C196.09 51.78 195.484 52.3 194.71 52.66C193.95 53.02 193.077 53.2 192.09 53.2Z"
     fill="black"
     id="path24" />
  <path
     d="M234.742 47.28L234.642 45.62C235.228 45.2467 235.848 44.9533 236.502 44.74C237.168 44.5267 237.842 44.42 238.522 44.42C239.308 44.42 240.015 44.5733 240.642 44.88C241.282 45.1867 241.795 45.6467 242.182 46.26C242.568 46.8733 242.762 47.64 242.762 48.56C242.762 49.5333 242.542 50.3667 242.102 51.06C241.662 51.7533 241.062 52.2867 240.302 52.66C239.555 53.0333 238.702 53.22 237.742 53.22C236.742 53.22 235.848 53 235.062 52.56C234.275 52.12 233.655 51.4333 233.202 50.5C232.748 49.5667 232.522 48.3533 232.522 46.86C232.522 45.18 232.802 43.7333 233.362 42.52C233.935 41.3067 234.735 40.3733 235.762 39.72C236.802 39.0667 238.008 38.74 239.382 38.74C240.128 38.74 240.915 38.8467 241.742 39.06L241.562 40.84C241.215 40.76 240.882 40.7067 240.562 40.68C240.242 40.6533 239.948 40.64 239.682 40.64C238.602 40.64 237.722 40.8867 237.042 41.38C236.362 41.8733 235.855 42.5867 235.522 43.52C235.202 44.44 235.042 45.5733 235.042 46.92C235.042 48.4133 235.262 49.52 235.702 50.24C236.155 50.96 236.835 51.32 237.742 51.32C238.502 51.32 239.102 51.0933 239.542 50.64C239.995 50.1733 240.222 49.5133 240.222 48.66C240.222 48.0867 240.108 47.62 239.882 47.26C239.668 46.8867 239.375 46.6133 239.002 46.44C238.642 46.2533 238.222 46.16 237.742 46.16C237.262 46.16 236.762 46.2533 236.242 46.44C235.722 46.6267 235.222 46.9067 234.742 47.28Z"
     fill="black"
     id="path26" />
  <path
     d="M287.456 40.7L282.196 53H279.476L284.936 40.54L285.296 40.92H279.076L279.616 40.54L279.136 42.94H277.656V38.96H287.456V40.7Z"
     fill="black"
     id="path28" />
  <path
     d="M12.2844 87.22C11.6577 87.22 11.051 87.14 10.4644 86.98C9.89104 86.82 9.37104 86.58 8.90438 86.26C8.43771 85.9267 8.07104 85.5267 7.80437 85.06C7.53771 84.5933 7.40438 84.0467 7.40438 83.42C7.40438 82.9 7.50438 82.4267 7.70438 82C7.90438 81.56 8.17771 81.18 8.52438 80.86C8.87104 80.54 9.25771 80.2733 9.68438 80.06C10.1244 79.8467 10.5777 79.6867 11.0444 79.58L12.4844 80.3C12.1777 80.38 11.8644 80.5 11.5444 80.66C11.2244 80.8067 10.931 80.9933 10.6644 81.22C10.411 81.4467 10.1977 81.7133 10.0244 82.02C9.86438 82.3267 9.78438 82.68 9.78438 83.08C9.78438 83.56 9.89771 83.98 10.1244 84.34C10.3644 84.7 10.6844 84.98 11.0844 85.18C11.4844 85.3667 11.9377 85.46 12.4444 85.46C12.9644 85.46 13.4244 85.36 13.8244 85.16C14.2377 84.9467 14.5577 84.6667 14.7844 84.32C15.0244 83.96 15.1444 83.56 15.1444 83.12C15.1444 82.6267 15.011 82.2267 14.7444 81.92C14.491 81.6 14.1444 81.3333 13.7044 81.12C13.2644 80.8933 12.7777 80.6933 12.2444 80.52C11.7244 80.3467 11.2044 80.16 10.6844 79.96C10.1644 79.76 9.68438 79.52 9.24438 79.24C8.80438 78.9467 8.45104 78.5867 8.18438 78.16C7.91771 77.7333 7.78438 77.2 7.78438 76.56C7.78438 75.6933 8.01771 74.98 8.48438 74.42C8.95104 73.86 9.55104 73.44 10.2844 73.16C11.031 72.88 11.8244 72.74 12.6644 72.74C13.4777 72.74 14.231 72.8733 14.9244 73.14C15.631 73.3933 16.1977 73.7867 16.6244 74.32C17.051 74.8533 17.2644 75.52 17.2644 76.32C17.2644 76.8133 17.171 77.2533 16.9844 77.64C16.811 78.0133 16.5577 78.3333 16.2244 78.6C15.9044 78.8667 15.5444 79.0933 15.1444 79.28C14.7444 79.4533 14.3177 79.5933 13.8644 79.7L12.1244 78.94C12.511 78.8867 12.871 78.8 13.2044 78.68C13.5377 78.5467 13.831 78.38 14.0844 78.18C14.351 77.98 14.5577 77.74 14.7044 77.46C14.851 77.18 14.9244 76.86 14.9244 76.5C14.9244 76.06 14.8177 75.6933 14.6044 75.4C14.391 75.0933 14.1044 74.8667 13.7444 74.72C13.3844 74.56 12.991 74.48 12.5644 74.48C12.1377 74.48 11.7444 74.56 11.3844 74.72C11.0244 74.8667 10.731 75.0867 10.5044 75.38C10.2777 75.66 10.1644 76.0133 10.1644 76.44C10.1644 76.9067 10.2977 77.2933 10.5644 77.6C10.831 77.9067 11.1844 78.1667 11.6244 78.38C12.0644 78.58 12.5444 78.7667 13.0644 78.94C13.5977 79.1133 14.1244 79.3 14.6444 79.5C15.1644 79.7 15.6444 79.9467 16.0844 80.24C16.5244 80.5333 16.8777 80.9 17.1444 81.34C17.411 81.78 17.5444 82.3333 17.5444 83C17.5444 83.68 17.391 84.2867 17.0844 84.82C16.791 85.3533 16.391 85.7933 15.8844 86.14C15.391 86.4867 14.831 86.7533 14.2044 86.94C13.5777 87.1267 12.9377 87.22 12.2844 87.22Z"
     fill="black"
     id="path30" />
  <path
     d="M60.2513 78.64L60.3713 80.3C59.7847 80.6733 59.158 80.9733 58.4913 81.2C57.8247 81.4267 57.1447 81.54 56.4513 81.54C55.6513 81.54 54.9313 81.38 54.2913 81.06C53.6647 80.74 53.1713 80.2733 52.8113 79.66C52.4513 79.0467 52.2647 78.3067 52.2513 77.44C52.238 76.4533 52.4447 75.6133 52.8713 74.92C53.3113 74.2133 53.9113 73.6733 54.6713 73.3C55.4313 72.9267 56.298 72.74 57.2713 72.74C58.2713 72.74 59.1647 72.96 59.9513 73.4C60.738 73.8267 61.3513 74.5133 61.7913 75.46C62.2447 76.3933 62.4713 77.6133 62.4713 79.12C62.4713 80.76 62.1913 82.1867 61.6313 83.4C61.0713 84.6133 60.278 85.5533 59.2513 86.22C58.2247 86.8867 57.0113 87.22 55.6113 87.22C54.8647 87.22 54.078 87.1133 53.2513 86.9L53.4313 85.14C53.778 85.2067 54.1113 85.26 54.4313 85.3C54.7513 85.3267 55.038 85.34 55.2913 85.34C56.3847 85.34 57.2713 85.0933 57.9513 84.6C58.6447 84.1067 59.1513 83.3933 59.4713 82.46C59.7913 81.5133 59.9513 80.3733 59.9513 79.04C59.9513 77.5467 59.7247 76.44 59.2713 75.72C58.8313 75 58.158 74.64 57.2513 74.64C56.4913 74.64 55.8847 74.8733 55.4313 75.34C54.9913 75.8067 54.7713 76.4533 54.7713 77.28C54.7713 77.8667 54.878 78.3467 55.0913 78.72C55.318 79.0933 55.6113 79.3733 55.9713 79.56C56.3447 79.7333 56.758 79.82 57.2113 79.82C57.718 79.82 58.2313 79.72 58.7513 79.52C59.2713 79.32 59.7713 79.0267 60.2513 78.64Z"
     fill="black"
     id="path32" />
  <path
     d="M98.0643 85.86L97.5843 85.22L100.224 85.74V87H92.9643V85.74L96.1043 85.24L95.6043 85.86V75L96.2843 75.04L92.9043 76.94L92.1043 75.44L96.0243 72.88H98.0643V85.86ZM106.641 87.22C105.428 87.22 104.435 86.96 103.661 86.44C102.888 85.9067 102.321 85.1133 101.961 84.06C101.601 83.0067 101.421 81.6867 101.421 80.1C101.421 78.4733 101.608 77.1133 101.981 76.02C102.368 74.9267 102.961 74.1067 103.761 73.56C104.575 73.0133 105.621 72.74 106.901 72.74C108.168 72.74 109.175 73 109.921 73.52C110.668 74.0267 111.201 74.8 111.521 75.84C111.855 76.8667 112.021 78.16 112.021 79.72C112.021 81.36 111.828 82.74 111.441 83.86C111.068 84.98 110.481 85.82 109.681 86.38C108.895 86.94 107.881 87.22 106.641 87.22ZM106.701 85.34C107.381 85.34 107.921 85.1467 108.321 84.76C108.721 84.36 109.008 83.7533 109.181 82.94C109.368 82.1133 109.461 81.0867 109.461 79.86C109.475 78.6067 109.395 77.6 109.221 76.84C109.048 76.0667 108.761 75.5067 108.361 75.16C107.975 74.8 107.461 74.62 106.821 74.62C106.128 74.62 105.568 74.82 105.141 75.22C104.728 75.6067 104.428 76.2 104.241 77C104.055 77.8 103.961 78.8067 103.961 80.02C103.961 81.2333 104.048 82.2333 104.221 83.02C104.408 83.7933 104.701 84.3733 105.101 84.76C105.515 85.1467 106.048 85.34 106.701 85.34Z"
     fill="black"
     id="path34" />
  <path
     d="M145.203 85.86L144.723 85.22L147.363 85.74V87H140.103V85.74L143.243 85.24L142.743 85.86V75L143.423 75.04L140.043 76.94L139.243 75.44L143.163 72.88H145.203V85.86ZM153.66 85.86L153.18 85.22L155.82 85.74V87H148.56V85.74L151.7 85.24L151.2 85.86V75L151.88 75.04L148.5 76.94L147.7 75.44L151.62 72.88H153.66V85.86Z"
     fill="black"
     id="path36" />
  <path
     d="M188.865 85.86L188.385 85.22L191.025 85.74V87H183.765V85.74L186.905 85.24L186.405 85.86V75L187.085 75.04L183.705 76.94L182.905 75.44L186.825 72.88H188.865V85.86ZM191.922 87V84.92C193.455 83.6133 194.715 82.4867 195.702 81.54C196.702 80.58 197.442 79.7267 197.922 78.98C198.402 78.22 198.642 77.48 198.642 76.76C198.642 76.0267 198.402 75.48 197.922 75.12C197.442 74.76 196.835 74.58 196.102 74.58C195.755 74.58 195.375 74.62 194.962 74.7C194.562 74.78 194.149 74.8933 193.722 75.04L194.002 74.62L193.682 76.92H192.202L192.002 73.5C192.802 73.2467 193.582 73.06 194.342 72.94C195.115 72.8067 195.835 72.74 196.502 72.74C197.422 72.74 198.235 72.8667 198.942 73.12C199.662 73.3733 200.222 73.7733 200.622 74.32C201.022 74.8533 201.222 75.5533 201.222 76.42C201.222 77.38 200.969 78.3133 200.462 79.22C199.969 80.1267 199.242 81.0733 198.282 82.06C197.322 83.0467 196.142 84.14 194.742 85.34V85.06H201.542V87H191.922Z"
     fill="black"
     id="path38" />
  <path
     d="M233.689 85.86L233.209 85.22L235.849 85.74V87H228.589V85.74L231.729 85.24L231.229 85.86V75L231.909 75.04L228.529 76.94L227.729 75.44L231.649 72.88H233.689V85.86ZM241.026 87.22C240.266 87.22 239.506 87.1267 238.746 86.94C237.986 86.7533 237.273 86.4733 236.606 86.1L237.246 84.36C237.846 84.6533 238.46 84.8867 239.086 85.06C239.726 85.22 240.346 85.3 240.946 85.3C241.52 85.3 242.033 85.2133 242.486 85.04C242.94 84.8667 243.293 84.6 243.546 84.24C243.813 83.88 243.946 83.4267 243.946 82.88C243.946 82.4133 243.84 82.0067 243.626 81.66C243.413 81.3133 243.086 81.0467 242.646 80.86C242.206 80.6733 241.633 80.58 240.926 80.58H239.186V78.82H240.866C241.786 78.82 242.48 78.6333 242.946 78.26C243.426 77.8867 243.666 77.3467 243.666 76.64C243.666 75.88 243.42 75.34 242.926 75.02C242.446 74.6867 241.833 74.52 241.086 74.52C240.66 74.52 240.233 74.5667 239.806 74.66C239.38 74.74 238.96 74.8467 238.546 74.98L238.866 74.64L238.626 76.82H237.146L236.986 73.54C237.773 73.2867 238.56 73.0933 239.346 72.96C240.133 72.8133 240.886 72.74 241.606 72.74C242.473 72.74 243.246 72.86 243.926 73.1C244.62 73.3267 245.166 73.6933 245.566 74.2C245.966 74.7067 246.166 75.3867 246.166 76.24C246.166 77.2533 245.866 78.0467 245.266 78.62C244.666 79.1933 243.806 79.5533 242.686 79.7L242.606 79.5C243.913 79.58 244.88 79.92 245.506 80.52C246.133 81.1067 246.446 81.92 246.446 82.96C246.446 83.6933 246.3 84.3267 246.006 84.86C245.726 85.3933 245.333 85.84 244.826 86.2C244.333 86.5467 243.76 86.8067 243.106 86.98C242.453 87.14 241.76 87.22 241.026 87.22Z"
     fill="black"
     id="path40" />
  <path
     d="M278.426 85.86L277.946 85.22L280.586 85.74V87H273.326V85.74L276.466 85.24L275.966 85.86V75L276.646 75.04L273.266 76.94L272.466 75.44L276.386 72.88H278.426V85.86ZM287.843 83.26L288.463 83.76H281.183L280.903 82.06L287.423 72.72L290.303 72.96V82.32L289.683 81.86H292.483V83.76H289.683L290.303 83.26V87H287.843V83.26ZM288.503 81.86L287.883 82.32V74.12L288.703 74.26L282.863 82.74L282.383 81.86H288.503Z"
     fill="black"
     id="path42" />
  <path
     d="M9.0018 119.86L8.5218 119.22L11.1618 119.74V121H3.9018V119.74L7.0418 119.24L6.5418 119.86V109L7.2218 109.04L3.8418 110.94L3.0418 109.44L6.9618 106.88H9.0018V119.86ZM16.3188 121.2C14.9055 121.2 13.4588 120.853 11.9788 120.16L12.6388 118.44C13.2122 118.693 13.7788 118.893 14.3388 119.04C14.9122 119.187 15.4522 119.26 15.9588 119.26C16.5322 119.26 17.0322 119.16 17.4588 118.96C17.8988 118.76 18.2388 118.467 18.4788 118.08C18.7188 117.68 18.8388 117.207 18.8388 116.66C18.8388 116.007 18.6588 115.507 18.2988 115.16C17.9388 114.813 17.4122 114.573 16.7188 114.44C16.0388 114.307 15.1988 114.24 14.1988 114.24H12.8188L13.0988 106.96H20.7988L20.7588 108.86H14.8188L15.4988 108.42L15.2788 112.98L14.6388 112.44H15.8388C17.1588 112.44 18.2255 112.607 19.0388 112.94C19.8655 113.26 20.4655 113.727 20.8388 114.34C21.2255 114.953 21.4188 115.687 21.4188 116.54C21.4188 117.553 21.1988 118.407 20.7588 119.1C20.3188 119.78 19.7122 120.3 18.9388 120.66C18.1788 121.02 17.3055 121.2 16.3188 121.2Z"
     fill="black"
     id="path44" />
  <path
     d="M53.533 119.86L53.053 119.22L55.693 119.74V121H48.433V119.74L51.573 119.24L51.073 119.86V109L51.753 109.04L48.373 110.94L47.573 109.44L51.493 106.88H53.533V119.86ZM58.9701 115.28L58.8701 113.62C59.4567 113.247 60.0767 112.953 60.7301 112.74C61.3967 112.527 62.0701 112.42 62.7501 112.42C63.5367 112.42 64.2434 112.573 64.8701 112.88C65.5101 113.187 66.0234 113.647 66.4101 114.26C66.7967 114.873 66.9901 115.64 66.9901 116.56C66.9901 117.533 66.7701 118.367 66.3301 119.06C65.8901 119.753 65.2901 120.287 64.5301 120.66C63.7834 121.033 62.9301 121.22 61.9701 121.22C60.9701 121.22 60.0767 121 59.2901 120.56C58.5034 120.12 57.8834 119.433 57.4301 118.5C56.9767 117.567 56.7501 116.353 56.7501 114.86C56.7501 113.18 57.0301 111.733 57.5901 110.52C58.1634 109.307 58.9634 108.373 59.9901 107.72C61.0301 107.067 62.2367 106.74 63.6101 106.74C64.3567 106.74 65.1434 106.847 65.9701 107.06L65.7901 108.84C65.4434 108.76 65.1101 108.707 64.7901 108.68C64.4701 108.653 64.1767 108.64 63.9101 108.64C62.8301 108.64 61.9501 108.887 61.2701 109.38C60.5901 109.873 60.0834 110.587 59.7501 111.52C59.4301 112.44 59.2701 113.573 59.2701 114.92C59.2701 116.413 59.4901 117.52 59.9301 118.24C60.3834 118.96 61.0634 119.32 61.9701 119.32C62.7301 119.32 63.3301 119.093 63.7701 118.64C64.2234 118.173 64.4501 117.513 64.4501 116.66C64.4501 116.087 64.3367 115.62 64.1101 115.26C63.8967 114.887 63.6034 114.613 63.2301 114.44C62.8701 114.253 62.4501 114.16 61.9701 114.16C61.4901 114.16 60.9901 114.253 60.4701 114.44C59.9501 114.627 59.4501 114.907 58.9701 115.28Z"
     fill="black"
     id="path46" />
  <path
     d="M99.2655 119.86L98.7855 119.22L101.425 119.74V121H94.1655V119.74L97.3055 119.24L96.8055 119.86V109L97.4855 109.04L94.1055 110.94L93.3055 109.44L97.2255 106.88H99.2655V119.86ZM111.587 108.7L106.327 121H103.607L109.067 108.54L109.427 108.92H103.207L103.747 108.54L103.267 110.94H101.787V106.96H111.587V108.7Z"
     fill="black"
     id="path48" />
  <path
     d="M143.416 119.86L142.936 119.22L145.576 119.74V121H138.316V119.74L141.456 119.24L140.956 119.86V109L141.636 109.04L138.256 110.94L137.456 109.44L141.376 106.88H143.416V119.86ZM151.513 121.22C150.886 121.22 150.28 121.14 149.693 120.98C149.12 120.82 148.6 120.58 148.133 120.26C147.666 119.927 147.3 119.527 147.033 119.06C146.766 118.593 146.633 118.047 146.633 117.42C146.633 116.9 146.733 116.427 146.933 116C147.133 115.56 147.406 115.18 147.753 114.86C148.1 114.54 148.486 114.273 148.913 114.06C149.353 113.847 149.806 113.687 150.273 113.58L151.713 114.3C151.406 114.38 151.093 114.5 150.773 114.66C150.453 114.807 150.16 114.993 149.893 115.22C149.64 115.447 149.426 115.713 149.253 116.02C149.093 116.327 149.013 116.68 149.013 117.08C149.013 117.56 149.126 117.98 149.353 118.34C149.593 118.7 149.913 118.98 150.313 119.18C150.713 119.367 151.166 119.46 151.673 119.46C152.193 119.46 152.653 119.36 153.053 119.16C153.466 118.947 153.786 118.667 154.013 118.32C154.253 117.96 154.373 117.56 154.373 117.12C154.373 116.627 154.24 116.227 153.973 115.92C153.72 115.6 153.373 115.333 152.933 115.12C152.493 114.893 152.006 114.693 151.473 114.52C150.953 114.347 150.433 114.16 149.913 113.96C149.393 113.76 148.913 113.52 148.473 113.24C148.033 112.947 147.68 112.587 147.413 112.16C147.146 111.733 147.013 111.2 147.013 110.56C147.013 109.693 147.246 108.98 147.713 108.42C148.18 107.86 148.78 107.44 149.513 107.16C150.26 106.88 151.053 106.74 151.893 106.74C152.706 106.74 153.46 106.873 154.153 107.14C154.86 107.393 155.426 107.787 155.853 108.32C156.28 108.853 156.493 109.52 156.493 110.32C156.493 110.813 156.4 111.253 156.213 111.64C156.04 112.013 155.786 112.333 155.453 112.6C155.133 112.867 154.773 113.093 154.373 113.28C153.973 113.453 153.546 113.593 153.093 113.7L151.353 112.94C151.74 112.887 152.1 112.8 152.433 112.68C152.766 112.547 153.06 112.38 153.313 112.18C153.58 111.98 153.786 111.74 153.933 111.46C154.08 111.18 154.153 110.86 154.153 110.5C154.153 110.06 154.046 109.693 153.833 109.4C153.62 109.093 153.333 108.867 152.973 108.72C152.613 108.56 152.22 108.48 151.793 108.48C151.366 108.48 150.973 108.56 150.613 108.72C150.253 108.867 149.96 109.087 149.733 109.38C149.506 109.66 149.393 110.013 149.393 110.44C149.393 110.907 149.526 111.293 149.793 111.6C150.06 111.907 150.413 112.167 150.853 112.38C151.293 112.58 151.773 112.767 152.293 112.94C152.826 113.113 153.353 113.3 153.873 113.5C154.393 113.7 154.873 113.947 155.313 114.24C155.753 114.533 156.106 114.9 156.373 115.34C156.64 115.78 156.773 116.333 156.773 117C156.773 117.68 156.62 118.287 156.313 118.82C156.02 119.353 155.62 119.793 155.113 120.14C154.62 120.487 154.06 120.753 153.433 120.94C152.806 121.127 152.166 121.22 151.513 121.22Z"
     fill="black"
     id="path50" />
  <path
     d="M188.543 119.86L188.063 119.22L190.703 119.74V121H183.443V119.74L186.583 119.24L186.083 119.86V109L186.763 109.04L183.383 110.94L182.583 109.44L186.503 106.88H188.543V119.86ZM199.48 112.64L199.6 114.3C199.013 114.673 198.387 114.973 197.72 115.2C197.053 115.427 196.373 115.54 195.68 115.54C194.88 115.54 194.16 115.38 193.52 115.06C192.893 114.74 192.4 114.273 192.04 113.66C191.68 113.047 191.493 112.307 191.48 111.44C191.467 110.453 191.673 109.613 192.1 108.92C192.54 108.213 193.14 107.673 193.9 107.3C194.66 106.927 195.527 106.74 196.5 106.74C197.5 106.74 198.393 106.96 199.18 107.4C199.967 107.827 200.58 108.513 201.02 109.46C201.473 110.393 201.7 111.613 201.7 113.12C201.7 114.76 201.42 116.187 200.86 117.4C200.3 118.613 199.507 119.553 198.48 120.22C197.453 120.887 196.24 121.22 194.84 121.22C194.093 121.22 193.307 121.113 192.48 120.9L192.66 119.14C193.007 119.207 193.34 119.26 193.66 119.3C193.98 119.327 194.267 119.34 194.52 119.34C195.613 119.34 196.5 119.093 197.18 118.6C197.873 118.107 198.38 117.393 198.7 116.46C199.02 115.513 199.18 114.373 199.18 113.04C199.18 111.547 198.953 110.44 198.5 109.72C198.06 109 197.387 108.64 196.48 108.64C195.72 108.64 195.113 108.873 194.66 109.34C194.22 109.807 194 110.453 194 111.28C194 111.867 194.107 112.347 194.32 112.72C194.547 113.093 194.84 113.373 195.2 113.56C195.573 113.733 195.987 113.82 196.44 113.82C196.947 113.82 197.46 113.72 197.98 113.52C198.5 113.32 199 113.027 199.48 112.64Z"
     fill="black"
     id="path52"
     style="fill:#e43a45;fill-opacity:1" />
  <path
     d="M226.326 121V118.92C227.86 117.613 229.12 116.487 230.106 115.54C231.106 114.58 231.846 113.727 232.326 112.98C232.806 112.22 233.046 111.48 233.046 110.76C233.046 110.027 232.806 109.48 232.326 109.12C231.846 108.76 231.24 108.58 230.506 108.58C230.16 108.58 229.78 108.62 229.366 108.7C228.966 108.78 228.553 108.893 228.126 109.04L228.406 108.62L228.086 110.92H226.606L226.406 107.5C227.206 107.247 227.986 107.06 228.746 106.94C229.52 106.807 230.24 106.74 230.906 106.74C231.826 106.74 232.64 106.867 233.346 107.12C234.066 107.373 234.626 107.773 235.026 108.32C235.426 108.853 235.626 109.553 235.626 110.42C235.626 111.38 235.373 112.313 234.866 113.22C234.373 114.127 233.646 115.073 232.686 116.06C231.726 117.047 230.546 118.14 229.146 119.34V119.06H235.946V121H226.326ZM242.979 121.22C241.766 121.22 240.773 120.96 239.999 120.44C239.226 119.907 238.659 119.113 238.299 118.06C237.939 117.007 237.759 115.687 237.759 114.1C237.759 112.473 237.946 111.113 238.319 110.02C238.706 108.927 239.299 108.107 240.099 107.56C240.913 107.013 241.959 106.74 243.239 106.74C244.506 106.74 245.513 107 246.259 107.52C247.006 108.027 247.539 108.8 247.859 109.84C248.193 110.867 248.359 112.16 248.359 113.72C248.359 115.36 248.166 116.74 247.779 117.86C247.406 118.98 246.819 119.82 246.019 120.38C245.233 120.94 244.219 121.22 242.979 121.22ZM243.039 119.34C243.719 119.34 244.259 119.147 244.659 118.76C245.059 118.36 245.346 117.753 245.519 116.94C245.706 116.113 245.799 115.087 245.799 113.86C245.813 112.607 245.733 111.6 245.559 110.84C245.386 110.067 245.099 109.507 244.699 109.16C244.313 108.8 243.799 108.62 243.159 108.62C242.466 108.62 241.906 108.82 241.479 109.22C241.066 109.607 240.766 110.2 240.579 111C240.393 111.8 240.299 112.807 240.299 114.02C240.299 115.233 240.386 116.233 240.559 117.02C240.746 117.793 241.039 118.373 241.439 118.76C241.853 119.147 242.386 119.34 243.039 119.34Z"
     fill="black"
     id="path54"
     style="fill:#000000;fill-opacity:1" />
  <path
     d="M273.465 121V118.92C274.998 117.613 276.258 116.487 277.245 115.54C278.245 114.58 278.985 113.727 279.465 112.98C279.945 112.22 280.185 111.48 280.185 110.76C280.185 110.027 279.945 109.48 279.465 109.12C278.985 108.76 278.378 108.58 277.645 108.58C277.298 108.58 276.918 108.62 276.505 108.7C276.105 108.78 275.692 108.893 275.265 109.04L275.545 108.62L275.225 110.92H273.745L273.545 107.5C274.345 107.247 275.125 107.06 275.885 106.94C276.658 106.807 277.378 106.74 278.045 106.74C278.965 106.74 279.778 106.867 280.485 107.12C281.205 107.373 281.765 107.773 282.165 108.32C282.565 108.853 282.765 109.553 282.765 110.42C282.765 111.38 282.512 112.313 282.005 113.22C281.512 114.127 280.785 115.073 279.825 116.06C278.865 117.047 277.685 118.14 276.285 119.34V119.06H283.085V121H273.465ZM289.998 119.86L289.518 119.22L292.158 119.74V121H284.898V119.74L288.038 119.24L287.538 119.86V109L288.218 109.04L284.838 110.94L284.038 109.44L287.958 106.88H289.998V119.86Z"
     fill="black"
     id="path56"
     style="fill:#000000;fill-opacity:1" />
  <path
     d="M2.12719 155V152.92C3.66052 151.613 4.92052 150.487 5.90719 149.54C6.90719 148.58 7.64719 147.727 8.12719 146.98C8.60719 146.22 8.84719 145.48 8.84719 144.76C8.84719 144.027 8.60719 143.48 8.12719 143.12C7.64719 142.76 7.04052 142.58 6.30719 142.58C5.96052 142.58 5.58052 142.62 5.16719 142.7C4.76719 142.78 4.35385 142.893 3.92719 143.04L4.20719 142.62L3.88719 144.92H2.40719L2.20719 141.5C3.00719 141.247 3.78719 141.06 4.54719 140.94C5.32052 140.807 6.04052 140.74 6.70719 140.74C7.62719 140.74 8.44052 140.867 9.14719 141.12C9.86719 141.373 10.4272 141.773 10.8272 142.32C11.2272 142.853 11.4272 143.553 11.4272 144.42C11.4272 145.38 11.1739 146.313 10.6672 147.22C10.1739 148.127 9.44719 149.073 8.48719 150.06C7.52719 151.047 6.34719 152.14 4.94719 153.34V153.06H11.7472V155H2.12719ZM13.26 155V152.92C14.7933 151.613 16.0533 150.487 17.04 149.54C18.04 148.58 18.78 147.727 19.26 146.98C19.74 146.22 19.98 145.48 19.98 144.76C19.98 144.027 19.74 143.48 19.26 143.12C18.78 142.76 18.1733 142.58 17.44 142.58C17.0933 142.58 16.7133 142.62 16.3 142.7C15.9 142.78 15.4867 142.893 15.06 143.04L15.34 142.62L15.02 144.92H13.54L13.34 141.5C14.14 141.247 14.92 141.06 15.68 140.94C16.4533 140.807 17.1733 140.74 17.84 140.74C18.76 140.74 19.5733 140.867 20.28 141.12C21 141.373 21.56 141.773 21.96 142.32C22.36 142.853 22.56 143.553 22.56 144.42C22.56 145.38 22.3067 146.313 21.8 147.22C21.3067 148.127 20.58 149.073 19.62 150.06C18.66 151.047 17.48 152.14 16.08 153.34V153.06H22.88V155H13.26Z"
     fill="black"
     id="path58"
     style="fill:#000000;fill-opacity:1" />
  <path
     d="M46.9514 155V152.92C48.4847 151.613 49.7447 150.487 50.7314 149.54C51.7314 148.58 52.4714 147.727 52.9514 146.98C53.4314 146.22 53.6714 145.48 53.6714 144.76C53.6714 144.027 53.4314 143.48 52.9514 143.12C52.4714 142.76 51.8647 142.58 51.1314 142.58C50.7847 142.58 50.4047 142.62 49.9914 142.7C49.5914 142.78 49.1781 142.893 48.7514 143.04L49.0314 142.62L48.7114 144.92H47.2314L47.0314 141.5C47.8314 141.247 48.6114 141.06 49.3714 140.94C50.1447 140.807 50.8647 140.74 51.5314 140.74C52.4514 140.74 53.2647 140.867 53.9714 141.12C54.6914 141.373 55.2514 141.773 55.6514 142.32C56.0514 142.853 56.2514 143.553 56.2514 144.42C56.2514 145.38 55.9981 146.313 55.4914 147.22C54.9981 148.127 54.2714 149.073 53.3114 150.06C52.3514 151.047 51.1714 152.14 49.7714 153.34V153.06H56.5714V155H46.9514ZM62.3642 155.22C61.6042 155.22 60.8442 155.127 60.0842 154.94C59.3242 154.753 58.6109 154.473 57.9442 154.1L58.5842 152.36C59.1842 152.653 59.7976 152.887 60.4242 153.06C61.0642 153.22 61.6842 153.3 62.2842 153.3C62.8576 153.3 63.3709 153.213 63.8242 153.04C64.2776 152.867 64.6309 152.6 64.8842 152.24C65.1509 151.88 65.2842 151.427 65.2842 150.88C65.2842 150.413 65.1776 150.007 64.9642 149.66C64.7509 149.313 64.4242 149.047 63.9842 148.86C63.5442 148.673 62.9709 148.58 62.2642 148.58H60.5242V146.82H62.2042C63.1242 146.82 63.8176 146.633 64.2842 146.26C64.7642 145.887 65.0042 145.347 65.0042 144.64C65.0042 143.88 64.7576 143.34 64.2642 143.02C63.7842 142.687 63.1709 142.52 62.4242 142.52C61.9976 142.52 61.5709 142.567 61.1442 142.66C60.7176 142.74 60.2976 142.847 59.8842 142.98L60.2042 142.64L59.9642 144.82H58.4842L58.3242 141.54C59.1109 141.287 59.8976 141.093 60.6842 140.96C61.4709 140.813 62.2242 140.74 62.9442 140.74C63.8109 140.74 64.5842 140.86 65.2642 141.1C65.9576 141.327 66.5042 141.693 66.9042 142.2C67.3042 142.707 67.5042 143.387 67.5042 144.24C67.5042 145.253 67.2042 146.047 66.6042 146.62C66.0042 147.193 65.1442 147.553 64.0242 147.7L63.9442 147.5C65.2509 147.58 66.2176 147.92 66.8442 148.52C67.4709 149.107 67.7842 149.92 67.7842 150.96C67.7842 151.693 67.6376 152.327 67.3442 152.86C67.0642 153.393 66.6709 153.84 66.1642 154.2C65.6709 154.547 65.0976 154.807 64.4442 154.98C63.7909 155.14 63.0976 155.22 62.3642 155.22Z"
     fill="black"
     id="path60"
     style="fill:#e43a45;fill-opacity:1" />
  <path
     d="M91.6877 155V152.92C93.2211 151.613 94.4811 150.487 95.4677 149.54C96.4677 148.58 97.2077 147.727 97.6877 146.98C98.1677 146.22 98.4077 145.48 98.4077 144.76C98.4077 144.027 98.1677 143.48 97.6877 143.12C97.2077 142.76 96.6011 142.58 95.8677 142.58C95.5211 142.58 95.1411 142.62 94.7277 142.7C94.3277 142.78 93.9144 142.893 93.4877 143.04L93.7677 142.62L93.4477 144.92H91.9677L91.7677 141.5C92.5677 141.247 93.3477 141.06 94.1077 140.94C94.8811 140.807 95.6011 140.74 96.2677 140.74C97.1877 140.74 98.0011 140.867 98.7077 141.12C99.4277 141.373 99.9877 141.773 100.388 142.32C100.788 142.853 100.988 143.553 100.988 144.42C100.988 145.38 100.734 146.313 100.228 147.22C99.7344 148.127 99.0077 149.073 98.0477 150.06C97.0877 151.047 95.9077 152.14 94.5077 153.34V153.06H101.308V155H91.6877ZM109.181 151.26L109.801 151.76H102.521L102.241 150.06L108.761 140.72L111.641 140.96V150.32L111.021 149.86H113.821V151.76H111.021L111.641 151.26V155H109.181V151.26ZM109.841 149.86L109.221 150.32V142.12L110.041 142.26L104.201 150.74L103.721 149.86H109.841Z"
     fill="black"
     id="path62"
     style="fill:#000000;fill-opacity:1" />
  <path
     d="M137.264 155V152.92C138.797 151.613 140.057 150.487 141.044 149.54C142.044 148.58 142.784 147.727 143.264 146.98C143.744 146.22 143.984 145.48 143.984 144.76C143.984 144.027 143.744 143.48 143.264 143.12C142.784 142.76 142.177 142.58 141.444 142.58C141.097 142.58 140.717 142.62 140.304 142.7C139.904 142.78 139.491 142.893 139.064 143.04L139.344 142.62L139.024 144.92H137.544L137.344 141.5C138.144 141.247 138.924 141.06 139.684 140.94C140.457 140.807 141.177 140.74 141.844 140.74C142.764 140.74 143.577 140.867 144.284 141.12C145.004 141.373 145.564 141.773 145.964 142.32C146.364 142.853 146.564 143.553 146.564 144.42C146.564 145.38 146.311 146.313 145.804 147.22C145.311 148.127 144.584 149.073 143.624 150.06C142.664 151.047 141.484 152.14 140.084 153.34V153.06H146.884V155H137.264ZM152.657 155.2C151.243 155.2 149.797 154.853 148.317 154.16L148.977 152.44C149.55 152.693 150.117 152.893 150.677 153.04C151.25 153.187 151.79 153.26 152.297 153.26C152.87 153.26 153.37 153.16 153.797 152.96C154.237 152.76 154.577 152.467 154.817 152.08C155.057 151.68 155.177 151.207 155.177 150.66C155.177 150.007 154.997 149.507 154.637 149.16C154.277 148.813 153.75 148.573 153.057 148.44C152.377 148.307 151.537 148.24 150.537 148.24H149.157L149.437 140.96H157.137L157.097 142.86H151.157L151.837 142.42L151.617 146.98L150.977 146.44H152.177C153.497 146.44 154.563 146.607 155.377 146.94C156.203 147.26 156.803 147.727 157.177 148.34C157.563 148.953 157.757 149.687 157.757 150.54C157.757 151.553 157.537 152.407 157.097 153.1C156.657 153.78 156.05 154.3 155.277 154.66C154.517 155.02 153.643 155.2 152.657 155.2Z"
     fill="black"
     id="path64"
     style="fill:#000000;fill-opacity:1" />
  <path
     d="M181.795 155V152.92C183.328 151.613 184.588 150.487 185.575 149.54C186.575 148.58 187.315 147.727 187.795 146.98C188.275 146.22 188.515 145.48 188.515 144.76C188.515 144.027 188.275 143.48 187.795 143.12C187.315 142.76 186.708 142.58 185.975 142.58C185.628 142.58 185.248 142.62 184.835 142.7C184.435 142.78 184.022 142.893 183.595 143.04L183.875 142.62L183.555 144.92H182.075L181.875 141.5C182.675 141.247 183.455 141.06 184.215 140.94C184.988 140.807 185.708 140.74 186.375 140.74C187.295 140.74 188.108 140.867 188.815 141.12C189.535 141.373 190.095 141.773 190.495 142.32C190.895 142.853 191.095 143.553 191.095 144.42C191.095 145.38 190.842 146.313 190.335 147.22C189.842 148.127 189.115 149.073 188.155 150.06C187.195 151.047 186.015 152.14 184.615 153.34V153.06H191.415V155H181.795ZM195.308 149.28L195.208 147.62C195.795 147.247 196.415 146.953 197.068 146.74C197.735 146.527 198.408 146.42 199.088 146.42C199.875 146.42 200.581 146.573 201.208 146.88C201.848 147.187 202.361 147.647 202.748 148.26C203.135 148.873 203.328 149.64 203.328 150.56C203.328 151.533 203.108 152.367 202.668 153.06C202.228 153.753 201.628 154.287 200.868 154.66C200.121 155.033 199.268 155.22 198.308 155.22C197.308 155.22 196.415 155 195.628 154.56C194.841 154.12 194.221 153.433 193.768 152.5C193.315 151.567 193.088 150.353 193.088 148.86C193.088 147.18 193.368 145.733 193.928 144.52C194.501 143.307 195.301 142.373 196.328 141.72C197.368 141.067 198.575 140.74 199.948 140.74C200.695 140.74 201.481 140.847 202.308 141.06L202.128 142.84C201.781 142.76 201.448 142.707 201.128 142.68C200.808 142.653 200.515 142.64 200.248 142.64C199.168 142.64 198.288 142.887 197.608 143.38C196.928 143.873 196.421 144.587 196.088 145.52C195.768 146.44 195.608 147.573 195.608 148.92C195.608 150.413 195.828 151.52 196.268 152.24C196.721 152.96 197.401 153.32 198.308 153.32C199.068 153.32 199.668 153.093 200.108 152.64C200.561 152.173 200.788 151.513 200.788 150.66C200.788 150.087 200.675 149.62 200.448 149.26C200.235 148.887 199.941 148.613 199.568 148.44C199.208 148.253 198.788 148.16 198.308 148.16C197.828 148.16 197.328 148.253 196.808 148.44C196.288 148.627 195.788 148.907 195.308 149.28Z"
     fill="black"
     id="path66"
     style="fill:#000000;fill-opacity:1" />
  <path
     d="M227.489 155V152.92C229.022 151.613 230.282 150.487 231.269 149.54C232.269 148.58 233.009 147.727 233.489 146.98C233.969 146.22 234.209 145.48 234.209 144.76C234.209 144.027 233.969 143.48 233.489 143.12C233.009 142.76 232.402 142.58 231.669 142.58C231.322 142.58 230.942 142.62 230.529 142.7C230.129 142.78 229.715 142.893 229.289 143.04L229.569 142.62L229.249 144.92H227.769L227.569 141.5C228.369 141.247 229.149 141.06 229.909 140.94C230.682 140.807 231.402 140.74 232.069 140.74C232.989 140.74 233.802 140.867 234.509 141.12C235.229 141.373 235.789 141.773 236.189 142.32C236.589 142.853 236.789 143.553 236.789 144.42C236.789 145.38 236.535 146.313 236.029 147.22C235.535 148.127 234.809 149.073 233.849 150.06C232.889 151.047 231.709 152.14 230.309 153.34V153.06H237.109V155H227.489ZM247.964 142.7L242.704 155H239.984L245.444 142.54L245.804 142.92H239.584L240.124 142.54L239.644 144.94H238.164V140.96H247.964V142.7Z"
     fill="black"
     id="path68"
     style="fill:#000000;fill-opacity:1" />
  <path
     d="M271.678 155V152.92C273.211 151.613 274.471 150.487 275.458 149.54C276.458 148.58 277.198 147.727 277.678 146.98C278.158 146.22 278.398 145.48 278.398 144.76C278.398 144.027 278.158 143.48 277.678 143.12C277.198 142.76 276.591 142.58 275.858 142.58C275.511 142.58 275.131 142.62 274.718 142.7C274.318 142.78 273.905 142.893 273.478 143.04L273.758 142.62L273.438 144.92H271.958L271.758 141.5C272.558 141.247 273.338 141.06 274.098 140.94C274.871 140.807 275.591 140.74 276.258 140.74C277.178 140.74 277.991 140.867 278.698 141.12C279.418 141.373 279.978 141.773 280.378 142.32C280.778 142.853 280.978 143.553 280.978 144.42C280.978 145.38 280.725 146.313 280.218 147.22C279.725 148.127 278.998 149.073 278.038 150.06C277.078 151.047 275.898 152.14 274.498 153.34V153.06H281.298V155H271.678ZM287.851 155.22C287.224 155.22 286.617 155.14 286.031 154.98C285.457 154.82 284.937 154.58 284.471 154.26C284.004 153.927 283.637 153.527 283.371 153.06C283.104 152.593 282.971 152.047 282.971 151.42C282.971 150.9 283.071 150.427 283.271 150C283.471 149.56 283.744 149.18 284.091 148.86C284.437 148.54 284.824 148.273 285.251 148.06C285.691 147.847 286.144 147.687 286.611 147.58L288.051 148.3C287.744 148.38 287.431 148.5 287.111 148.66C286.791 148.807 286.497 148.993 286.231 149.22C285.977 149.447 285.764 149.713 285.591 150.02C285.431 150.327 285.351 150.68 285.351 151.08C285.351 151.56 285.464 151.98 285.691 152.34C285.931 152.7 286.251 152.98 286.651 153.18C287.051 153.367 287.504 153.46 288.011 153.46C288.531 153.46 288.991 153.36 289.391 153.16C289.804 152.947 290.124 152.667 290.351 152.32C290.591 151.96 290.711 151.56 290.711 151.12C290.711 150.627 290.577 150.227 290.311 149.92C290.057 149.6 289.711 149.333 289.271 149.12C288.831 148.893 288.344 148.693 287.811 148.52C287.291 148.347 286.771 148.16 286.251 147.96C285.731 147.76 285.251 147.52 284.811 147.24C284.371 146.947 284.017 146.587 283.751 146.16C283.484 145.733 283.351 145.2 283.351 144.56C283.351 143.693 283.584 142.98 284.051 142.42C284.517 141.86 285.117 141.44 285.851 141.16C286.597 140.88 287.391 140.74 288.231 140.74C289.044 140.74 289.797 140.873 290.491 141.14C291.197 141.393 291.764 141.787 292.191 142.32C292.617 142.853 292.831 143.52 292.831 144.32C292.831 144.813 292.737 145.253 292.551 145.64C292.377 146.013 292.124 146.333 291.791 146.6C291.471 146.867 291.111 147.093 290.711 147.28C290.311 147.453 289.884 147.593 289.431 147.7L287.691 146.94C288.077 146.887 288.437 146.8 288.771 146.68C289.104 146.547 289.397 146.38 289.651 146.18C289.917 145.98 290.124 145.74 290.271 145.46C290.417 145.18 290.491 144.86 290.491 144.5C290.491 144.06 290.384 143.693 290.171 143.4C289.957 143.093 289.671 142.867 289.311 142.72C288.951 142.56 288.557 142.48 288.131 142.48C287.704 142.48 287.311 142.56 286.951 142.72C286.591 142.867 286.297 143.087 286.071 143.38C285.844 143.66 285.731 144.013 285.731 144.44C285.731 144.907 285.864 145.293 286.131 145.6C286.397 145.907 286.751 146.167 287.191 146.38C287.631 146.58 288.111 146.767 288.631 146.94C289.164 147.113 289.691 147.3 290.211 147.5C290.731 147.7 291.211 147.947 291.651 148.24C292.091 148.533 292.444 148.9 292.711 149.34C292.977 149.78 293.111 150.333 293.111 151C293.111 151.68 292.957 152.287 292.651 152.82C292.357 153.353 291.957 153.793 291.451 154.14C290.957 154.487 290.397 154.753 289.771 154.94C289.144 155.127 288.504 155.22 287.851 155.22Z"
     fill="black"
     id="path70"
     style="fill:#000000;fill-opacity:1" />
  <path
     d="M1.80492 189V186.92C3.33826 185.613 4.59826 184.487 5.58492 183.54C6.58492 182.58 7.32492 181.727 7.80492 180.98C8.28492 180.22 8.52492 179.48 8.52492 178.76C8.52492 178.027 8.28492 177.48 7.80492 177.12C7.32492 176.76 6.71826 176.58 5.98492 176.58C5.63826 176.58 5.25826 176.62 4.84492 176.7C4.44492 176.78 4.03159 176.893 3.60492 177.04L3.88492 176.62L3.56492 178.92H2.08492L1.88492 175.5C2.68492 175.247 3.46492 175.06 4.22492 174.94C4.99826 174.807 5.71826 174.74 6.38492 174.74C7.30492 174.74 8.11826 174.867 8.82492 175.12C9.54492 175.373 10.1049 175.773 10.5049 176.32C10.9049 176.853 11.1049 177.553 11.1049 178.42C11.1049 179.38 10.8516 180.313 10.3449 181.22C9.85159 182.127 9.12492 183.073 8.16492 184.06C7.20492 185.047 6.02492 186.14 4.62492 187.34V187.06H11.4249V189H1.80492ZM20.8177 180.64L20.9377 182.3C20.3511 182.673 19.7244 182.973 19.0577 183.2C18.3911 183.427 17.7111 183.54 17.0177 183.54C16.2177 183.54 15.4977 183.38 14.8577 183.06C14.2311 182.74 13.7377 182.273 13.3777 181.66C13.0177 181.047 12.8311 180.307 12.8177 179.44C12.8044 178.453 13.0111 177.613 13.4377 176.92C13.8777 176.213 14.4777 175.673 15.2377 175.3C15.9977 174.927 16.8644 174.74 17.8377 174.74C18.8377 174.74 19.7311 174.96 20.5177 175.4C21.3044 175.827 21.9177 176.513 22.3577 177.46C22.8111 178.393 23.0377 179.613 23.0377 181.12C23.0377 182.76 22.7577 184.187 22.1977 185.4C21.6377 186.613 20.8444 187.553 19.8177 188.22C18.7911 188.887 17.5777 189.22 16.1777 189.22C15.4311 189.22 14.6444 189.113 13.8177 188.9L13.9977 187.14C14.3444 187.207 14.6777 187.26 14.9977 187.3C15.3177 187.327 15.6044 187.34 15.8577 187.34C16.9511 187.34 17.8377 187.093 18.5177 186.6C19.2111 186.107 19.7177 185.393 20.0377 184.46C20.3577 183.513 20.5177 182.373 20.5177 181.04C20.5177 179.547 20.2911 178.44 19.8377 177.72C19.3977 177 18.7244 176.64 17.8177 176.64C17.0577 176.64 16.4511 176.873 15.9977 177.34C15.5577 177.807 15.3377 178.453 15.3377 179.28C15.3377 179.867 15.4444 180.347 15.6577 180.72C15.8844 181.093 16.1777 181.373 16.5377 181.56C16.9111 181.733 17.3244 181.82 17.7777 181.82C18.2844 181.82 18.7977 181.72 19.3177 181.52C19.8377 181.32 20.3377 181.027 20.8177 180.64Z"
     fill="black"
     id="path72"
     style="fill:#000000;fill-opacity:1" />
  <path
     d="M50.4306 189.22C49.6706 189.22 48.9106 189.127 48.1506 188.94C47.3906 188.753 46.6773 188.473 46.0106 188.1L46.6506 186.36C47.2506 186.653 47.864 186.887 48.4906 187.06C49.1306 187.22 49.7506 187.3 50.3506 187.3C50.924 187.3 51.4373 187.213 51.8906 187.04C52.344 186.867 52.6973 186.6 52.9506 186.24C53.2173 185.88 53.3506 185.427 53.3506 184.88C53.3506 184.413 53.244 184.007 53.0306 183.66C52.8173 183.313 52.4906 183.047 52.0506 182.86C51.6106 182.673 51.0373 182.58 50.3306 182.58H48.5906V180.82H50.2706C51.1906 180.82 51.884 180.633 52.3506 180.26C52.8306 179.887 53.0706 179.347 53.0706 178.64C53.0706 177.88 52.824 177.34 52.3306 177.02C51.8506 176.687 51.2373 176.52 50.4906 176.52C50.064 176.52 49.6373 176.567 49.2106 176.66C48.784 176.74 48.364 176.847 47.9506 176.98L48.2706 176.64L48.0306 178.82H46.5506L46.3906 175.54C47.1773 175.287 47.964 175.093 48.7506 174.96C49.5373 174.813 50.2906 174.74 51.0106 174.74C51.8773 174.74 52.6506 174.86 53.3306 175.1C54.024 175.327 54.5706 175.693 54.9706 176.2C55.3706 176.707 55.5706 177.387 55.5706 178.24C55.5706 179.253 55.2706 180.047 54.6706 180.62C54.0706 181.193 53.2106 181.553 52.0906 181.7L52.0106 181.5C53.3173 181.58 54.284 181.92 54.9106 182.52C55.5373 183.107 55.8506 183.92 55.8506 184.96C55.8506 185.693 55.704 186.327 55.4106 186.86C55.1306 187.393 54.7373 187.84 54.2306 188.2C53.7373 188.547 53.164 188.807 52.5106 188.98C51.8573 189.14 51.164 189.22 50.4306 189.22ZM63.155 189.22C61.9417 189.22 60.9483 188.96 60.175 188.44C59.4017 187.907 58.835 187.113 58.475 186.06C58.115 185.007 57.935 183.687 57.935 182.1C57.935 180.473 58.1217 179.113 58.495 178.02C58.8817 176.927 59.475 176.107 60.275 175.56C61.0883 175.013 62.135 174.74 63.415 174.74C64.6817 174.74 65.6883 175 66.435 175.52C67.1817 176.027 67.715 176.8 68.035 177.84C68.3683 178.867 68.535 180.16 68.535 181.72C68.535 183.36 68.3417 184.74 67.955 185.86C67.5817 186.98 66.995 187.82 66.195 188.38C65.4083 188.94 64.395 189.22 63.155 189.22ZM63.215 187.34C63.895 187.34 64.435 187.147 64.835 186.76C65.235 186.36 65.5217 185.753 65.695 184.94C65.8817 184.113 65.975 183.087 65.975 181.86C65.9883 180.607 65.9083 179.6 65.735 178.84C65.5617 178.067 65.275 177.507 64.875 177.16C64.4883 176.8 63.975 176.62 63.335 176.62C62.6417 176.62 62.0817 176.82 61.655 177.22C61.2417 177.607 60.9417 178.2 60.755 179C60.5683 179.8 60.475 180.807 60.475 182.02C60.475 183.233 60.5617 184.233 60.735 185.02C60.9217 185.793 61.215 186.373 61.615 186.76C62.0283 187.147 62.5617 187.34 63.215 187.34Z"
     fill="black"
     id="path74"
     style="fill:#000000;fill-opacity:1" />
  <path
     d="M97.5693 189.22C96.8093 189.22 96.0493 189.127 95.2893 188.94C94.5293 188.753 93.816 188.473 93.1493 188.1L93.7893 186.36C94.3893 186.653 95.0026 186.887 95.6293 187.06C96.2693 187.22 96.8893 187.3 97.4893 187.3C98.0626 187.3 98.576 187.213 99.0293 187.04C99.4826 186.867 99.836 186.6 100.089 186.24C100.356 185.88 100.489 185.427 100.489 184.88C100.489 184.413 100.383 184.007 100.169 183.66C99.956 183.313 99.6293 183.047 99.1893 182.86C98.7493 182.673 98.176 182.58 97.4693 182.58H95.7293V180.82H97.4093C98.3293 180.82 99.0226 180.633 99.4893 180.26C99.9693 179.887 100.209 179.347 100.209 178.64C100.209 177.88 99.9626 177.34 99.4693 177.02C98.9893 176.687 98.376 176.52 97.6293 176.52C97.2026 176.52 96.776 176.567 96.3493 176.66C95.9226 176.74 95.5026 176.847 95.0893 176.98L95.4093 176.64L95.1693 178.82H93.6893L93.5293 175.54C94.316 175.287 95.1026 175.093 95.8893 174.96C96.676 174.813 97.4293 174.74 98.1493 174.74C99.016 174.74 99.7893 174.86 100.469 175.1C101.163 175.327 101.709 175.693 102.109 176.2C102.509 176.707 102.709 177.387 102.709 178.24C102.709 179.253 102.409 180.047 101.809 180.62C101.209 181.193 100.349 181.553 99.2293 181.7L99.1493 181.5C100.456 181.58 101.423 181.92 102.049 182.52C102.676 183.107 102.989 183.92 102.989 184.96C102.989 185.693 102.843 186.327 102.549 186.86C102.269 187.393 101.876 187.84 101.369 188.2C100.876 188.547 100.303 188.807 99.6493 188.98C98.996 189.14 98.3026 189.22 97.5693 189.22ZM110.174 187.86L109.694 187.22L112.334 187.74V189H105.074V187.74L108.214 187.24L107.714 187.86V177L108.394 177.04L105.014 178.94L104.214 177.44L108.134 174.88H110.174V187.86Z"
     fill="black"
     id="path76"
     style="fill:#000000;fill-opacity:1" />
</svg>
