<svg width="295" height="194" viewBox="0 0 295 194" fill="none" xmlns="http://www.w3.org/2000/svg">
<path d="M12.4502 4.86C13.4902 4.86 14.4102 5.00667 15.2102 5.3C16.0235 5.58 16.7035 6.00667 17.2502 6.58C17.8102 7.15333 18.2368 7.86667 18.5302 8.72C18.8235 9.56 18.9702 10.54 18.9702 11.66C18.9702 13.26 18.6902 14.6067 18.1302 15.7C17.5702 16.78 16.7702 17.6 15.7302 18.16C14.6902 18.72 13.4502 19 12.0102 19H6.01016V17.28L7.81016 16.68L7.35016 17.34V6.6L7.83016 7.3L6.01016 6.68V4.96L10.9302 4.86H12.4502ZM12.1702 16.52C12.5168 16.52 12.8702 16.48 13.2302 16.4C13.5902 16.3067 13.9235 16.1133 14.2302 15.82C14.5368 15.5133 14.7835 15.0467 14.9702 14.42C15.1568 13.7933 15.2502 12.94 15.2502 11.86C15.2502 10.82 15.1568 9.99333 14.9702 9.38C14.7968 8.76667 14.5635 8.32 14.2702 8.04C13.9902 7.74667 13.6835 7.56 13.3502 7.48C13.0168 7.38667 12.6902 7.34 12.3702 7.34H10.3102L10.8302 6.82V17.04L10.3102 16.52H12.1702Z" fill="black"/>
<path d="M55.7644 8.46C55.7644 8.79333 55.891 9.07333 56.1444 9.3C56.3977 9.52667 56.731 9.72667 57.1444 9.9C57.571 10.06 58.0377 10.22 58.5444 10.38C59.0644 10.54 59.571 10.7333 60.0644 10.96C60.571 11.1733 61.031 11.4467 61.4444 11.78C61.871 12.1 62.211 12.5067 62.4644 13C62.731 13.4933 62.8644 14.0933 62.8644 14.8C62.8644 15.84 62.5977 16.6933 62.0644 17.36C61.531 18.0133 60.8177 18.5 59.9244 18.82C59.031 19.1267 58.051 19.28 56.9844 19.28C56.251 19.28 55.4977 19.2067 54.7244 19.06C53.951 18.9267 53.191 18.72 52.4444 18.44L52.5644 14.4H54.5444L55.0244 16.76L54.7044 16.22C55.0777 16.3933 55.4777 16.5267 55.9044 16.62C56.331 16.7133 56.7444 16.76 57.1444 16.76C57.571 16.76 57.9577 16.7067 58.3044 16.6C58.651 16.48 58.931 16.3133 59.1444 16.1C59.3577 15.8733 59.4644 15.5933 59.4644 15.26C59.4644 14.8867 59.3377 14.5867 59.0844 14.36C58.831 14.12 58.491 13.92 58.0644 13.76C57.651 13.5867 57.191 13.4267 56.6844 13.28C56.1777 13.1333 55.671 12.96 55.1644 12.76C54.671 12.5467 54.211 12.28 53.7844 11.96C53.371 11.64 53.0377 11.24 52.7844 10.76C52.531 10.2667 52.4044 9.65333 52.4044 8.92C52.4044 7.93333 52.6377 7.12667 53.1044 6.5C53.571 5.86 54.2044 5.38667 55.0044 5.08C55.8177 4.76 56.731 4.6 57.7444 4.6C58.451 4.6 59.1977 4.67333 59.9844 4.82C60.7844 4.96667 61.571 5.18667 62.3444 5.48L62.1244 9.2H60.0644L59.5844 7.12L59.9444 7.46C59.6377 7.35333 59.311 7.27333 58.9644 7.22C58.631 7.15333 58.291 7.12 57.9444 7.12C57.5577 7.12 57.1977 7.16667 56.8644 7.26C56.531 7.34 56.2644 7.48 56.0644 7.68C55.8644 7.88 55.7644 8.14 55.7644 8.46Z" fill="black"/>
<path d="M280.764 8.46C280.764 8.79333 280.891 9.07333 281.144 9.3C281.398 9.52667 281.731 9.72667 282.144 9.9C282.571 10.06 283.038 10.22 283.544 10.38C284.064 10.54 284.571 10.7333 285.064 10.96C285.571 11.1733 286.031 11.4467 286.444 11.78C286.871 12.1 287.211 12.5067 287.464 13C287.731 13.4933 287.864 14.0933 287.864 14.8C287.864 15.84 287.598 16.6933 287.064 17.36C286.531 18.0133 285.818 18.5 284.924 18.82C284.031 19.1267 283.051 19.28 281.984 19.28C281.251 19.28 280.498 19.2067 279.724 19.06C278.951 18.9267 278.191 18.72 277.444 18.44L277.564 14.4H279.544L280.024 16.76L279.704 16.22C280.078 16.3933 280.478 16.5267 280.904 16.62C281.331 16.7133 281.744 16.76 282.144 16.76C282.571 16.76 282.958 16.7067 283.304 16.6C283.651 16.48 283.931 16.3133 284.144 16.1C284.358 15.8733 284.464 15.5933 284.464 15.26C284.464 14.8867 284.338 14.5867 284.084 14.36C283.831 14.12 283.491 13.92 283.064 13.76C282.651 13.5867 282.191 13.4267 281.684 13.28C281.178 13.1333 280.671 12.96 280.164 12.76C279.671 12.5467 279.211 12.28 278.784 11.96C278.371 11.64 278.038 11.24 277.784 10.76C277.531 10.2667 277.404 9.65333 277.404 8.92C277.404 7.93333 277.638 7.12667 278.104 6.5C278.571 5.86 279.204 5.38667 280.004 5.08C280.818 4.76 281.731 4.6 282.744 4.6C283.451 4.6 284.198 4.67333 284.984 4.82C285.784 4.96667 286.571 5.18667 287.344 5.48L287.124 9.2H285.064L284.584 7.12L284.944 7.46C284.638 7.35333 284.311 7.27333 283.964 7.22C283.631 7.15333 283.291 7.12 282.944 7.12C282.558 7.12 282.198 7.16667 281.864 7.26C281.531 7.34 281.264 7.48 281.064 7.68C280.864 7.88 280.764 8.14 280.764 8.46Z" fill="black"/>
<path d="M235.764 8.46C235.764 8.79333 235.891 9.07333 236.144 9.3C236.398 9.52667 236.731 9.72667 237.144 9.9C237.571 10.06 238.038 10.22 238.544 10.38C239.064 10.54 239.571 10.7333 240.064 10.96C240.571 11.1733 241.031 11.4467 241.444 11.78C241.871 12.1 242.211 12.5067 242.464 13C242.731 13.4933 242.864 14.0933 242.864 14.8C242.864 15.84 242.598 16.6933 242.064 17.36C241.531 18.0133 240.818 18.5 239.924 18.82C239.031 19.1267 238.051 19.28 236.984 19.28C236.251 19.28 235.498 19.2067 234.724 19.06C233.951 18.9267 233.191 18.72 232.444 18.44L232.564 14.4H234.544L235.024 16.76L234.704 16.22C235.078 16.3933 235.478 16.5267 235.904 16.62C236.331 16.7133 236.744 16.76 237.144 16.76C237.571 16.76 237.958 16.7067 238.304 16.6C238.651 16.48 238.931 16.3133 239.144 16.1C239.358 15.8733 239.464 15.5933 239.464 15.26C239.464 14.8867 239.338 14.5867 239.084 14.36C238.831 14.12 238.491 13.92 238.064 13.76C237.651 13.5867 237.191 13.4267 236.684 13.28C236.178 13.1333 235.671 12.96 235.164 12.76C234.671 12.5467 234.211 12.28 233.784 11.96C233.371 11.64 233.038 11.24 232.784 10.76C232.531 10.2667 232.404 9.65333 232.404 8.92C232.404 7.93333 232.638 7.12667 233.104 6.5C233.571 5.86 234.204 5.38667 235.004 5.08C235.818 4.76 236.731 4.6 237.744 4.6C238.451 4.6 239.198 4.67333 239.984 4.82C240.784 4.96667 241.571 5.18667 242.344 5.48L242.124 9.2H240.064L239.584 7.12L239.944 7.46C239.638 7.35333 239.311 7.27333 238.964 7.22C238.631 7.15333 238.291 7.12 237.944 7.12C237.558 7.12 237.198 7.16667 236.864 7.26C236.531 7.34 236.264 7.48 236.064 7.68C235.864 7.88 235.764 8.14 235.764 8.46Z" fill="black"/>
<path d="M99.21 19V17.28L101.37 16.66L100.77 17.52V6.82L101.45 7.34H98.47L99.23 6.68L98.65 9.2H96.59V4.86H108.41V9.2H106.37L105.81 6.82L106.55 7.34H103.55L104.25 6.82V17.52L103.67 16.66L105.79 17.28V19H99.21Z" fill="black"/>
<path d="M153.355 23.06C152.835 23.06 152.275 22.92 151.675 22.64C151.075 22.36 150.355 21.92 149.515 21.32C148.675 20.72 147.622 19.9467 146.355 19L147.115 19.26C145.795 19.2467 144.669 18.9667 143.735 18.42C142.802 17.8733 142.082 17.0733 141.575 16.02C141.082 14.9533 140.835 13.6533 140.835 12.12C140.835 10.88 140.995 9.79333 141.315 8.86C141.635 7.92667 142.089 7.14667 142.675 6.52C143.275 5.88 143.995 5.4 144.835 5.08C145.675 4.76 146.609 4.6 147.635 4.6C148.675 4.6 149.595 4.75333 150.395 5.06C151.209 5.36667 151.889 5.82 152.435 6.42C152.995 7.02 153.422 7.76 153.715 8.64C154.009 9.50667 154.155 10.5067 154.155 11.64C154.155 12.92 153.962 14.0667 153.575 15.08C153.202 16.08 152.655 16.9133 151.935 17.58C151.215 18.2333 150.355 18.6933 149.355 18.96L149.455 18.58C150.135 18.9933 150.709 19.3267 151.175 19.58C151.655 19.8467 152.069 20.04 152.415 20.16C152.762 20.28 153.089 20.34 153.395 20.34C153.742 20.34 154.082 20.2733 154.415 20.14C154.749 20.0067 155.129 19.82 155.555 19.58L156.755 21.68C156.035 22.12 155.415 22.46 154.895 22.7C154.375 22.94 153.862 23.06 153.355 23.06ZM144.575 12.02C144.575 13.1267 144.675 14.02 144.875 14.7C145.089 15.38 145.409 15.8733 145.835 16.18C146.262 16.4733 146.795 16.62 147.435 16.62C148.115 16.62 148.675 16.46 149.115 16.14C149.555 15.82 149.882 15.3067 150.095 14.6C150.322 13.8933 150.435 12.9533 150.435 11.78C150.435 10.6733 150.322 9.78667 150.095 9.12C149.882 8.45333 149.562 7.97333 149.135 7.68C148.709 7.38667 148.162 7.24 147.495 7.24C146.842 7.24 146.295 7.4 145.855 7.72C145.429 8.02667 145.109 8.52667 144.895 9.22C144.682 9.91333 144.575 10.8467 144.575 12.02Z" fill="black"/>
<path d="M198.355 23.06C197.835 23.06 197.275 22.92 196.675 22.64C196.075 22.36 195.355 21.92 194.515 21.32C193.675 20.72 192.622 19.9467 191.355 19L192.115 19.26C190.795 19.2467 189.669 18.9667 188.735 18.42C187.802 17.8733 187.082 17.0733 186.575 16.02C186.082 14.9533 185.835 13.6533 185.835 12.12C185.835 10.88 185.995 9.79333 186.315 8.86C186.635 7.92667 187.089 7.14667 187.675 6.52C188.275 5.88 188.995 5.4 189.835 5.08C190.675 4.76 191.609 4.6 192.635 4.6C193.675 4.6 194.595 4.75333 195.395 5.06C196.209 5.36667 196.889 5.82 197.435 6.42C197.995 7.02 198.422 7.76 198.715 8.64C199.009 9.50667 199.155 10.5067 199.155 11.64C199.155 12.92 198.962 14.0667 198.575 15.08C198.202 16.08 197.655 16.9133 196.935 17.58C196.215 18.2333 195.355 18.6933 194.355 18.96L194.455 18.58C195.135 18.9933 195.709 19.3267 196.175 19.58C196.655 19.8467 197.069 20.04 197.415 20.16C197.762 20.28 198.089 20.34 198.395 20.34C198.742 20.34 199.082 20.2733 199.415 20.14C199.749 20.0067 200.129 19.82 200.555 19.58L201.755 21.68C201.035 22.12 200.415 22.46 199.895 22.7C199.375 22.94 198.862 23.06 198.355 23.06ZM189.575 12.02C189.575 13.1267 189.675 14.02 189.875 14.7C190.089 15.38 190.409 15.8733 190.835 16.18C191.262 16.4733 191.795 16.62 192.435 16.62C193.115 16.62 193.675 16.46 194.115 16.14C194.555 15.82 194.882 15.3067 195.095 14.6C195.322 13.8933 195.435 12.9533 195.435 11.78C195.435 10.6733 195.322 9.78667 195.095 9.12C194.882 8.45333 194.562 7.97333 194.135 7.68C193.709 7.38667 193.162 7.24 192.495 7.24C191.842 7.24 191.295 7.4 190.855 7.72C190.429 8.02667 190.109 8.52667 189.895 9.22C189.682 9.91333 189.575 10.8467 189.575 12.02Z" fill="black"/>
<path d="M193.998 52.12L193.638 51.68L196.318 52.1V53H189.538V52.1L192.718 51.7L192.358 52.12V40.42L192.798 40.46L189.318 42.48L188.778 41.46L192.658 38.98H193.998V52.12Z" fill="black"/>
<path d="M232.921 53V51.58C234.494 50.1533 235.801 48.9067 236.841 47.84C237.894 46.7733 238.674 45.82 239.181 44.98C239.701 44.14 239.961 43.34 239.961 42.58C239.961 41.74 239.681 41.12 239.121 40.72C238.561 40.32 237.854 40.12 237.001 40.12C236.614 40.12 236.181 40.1667 235.701 40.26C235.234 40.3533 234.754 40.48 234.261 40.64L234.481 40.32L234.201 42.74H233.181L233.001 39.62C233.761 39.38 234.501 39.1933 235.221 39.06C235.954 38.9267 236.627 38.86 237.241 38.86C238.107 38.86 238.874 38.9867 239.541 39.24C240.207 39.48 240.734 39.86 241.121 40.38C241.507 40.8867 241.701 41.5467 241.701 42.36C241.701 43.28 241.441 44.2067 240.921 45.14C240.401 46.06 239.627 47.06 238.601 48.14C237.587 49.22 236.327 50.4667 234.821 51.88L234.801 51.66H242.041V53H232.921Z" fill="black"/>
<path d="M281.817 53.16C281.084 53.16 280.357 53.0667 279.637 52.88C278.917 52.6933 278.237 52.4133 277.597 52.04L278.077 50.84C278.664 51.1733 279.27 51.4267 279.897 51.6C280.537 51.7733 281.164 51.86 281.777 51.86C282.444 51.86 283.03 51.76 283.537 51.56C284.057 51.3467 284.464 51.0267 284.757 50.6C285.05 50.1733 285.197 49.64 285.197 49C285.197 48.48 285.077 48.02 284.837 47.62C284.61 47.2067 284.244 46.88 283.737 46.64C283.23 46.4 282.557 46.28 281.717 46.28H280.057V45.06H281.737C282.79 45.06 283.577 44.84 284.097 44.4C284.63 43.96 284.897 43.34 284.897 42.54C284.897 41.66 284.624 41.0333 284.077 40.66C283.53 40.2733 282.824 40.08 281.957 40.08C281.504 40.08 281.037 40.1267 280.557 40.22C280.077 40.3133 279.604 40.4333 279.137 40.58L279.377 40.32L279.137 42.68H278.137L277.977 39.64C278.71 39.4 279.45 39.2133 280.197 39.08C280.944 38.9333 281.65 38.86 282.317 38.86C283.13 38.86 283.857 38.9733 284.497 39.2C285.15 39.4267 285.657 39.7933 286.017 40.3C286.39 40.8067 286.577 41.4733 286.577 42.3C286.577 43.2733 286.297 44.04 285.737 44.6C285.177 45.16 284.337 45.52 283.217 45.68L283.157 45.56C284.41 45.64 285.344 45.9867 285.957 46.6C286.57 47.2 286.877 48.0133 286.877 49.04C286.877 49.7333 286.744 50.34 286.477 50.86C286.224 51.38 285.864 51.8133 285.397 52.16C284.93 52.4933 284.39 52.7467 283.777 52.92C283.164 53.08 282.51 53.16 281.817 53.16Z" fill="black"/>
<path d="M13.9802 83.14L14.4002 83.5H7.10016L6.90016 82.32L13.7002 72.82L15.6202 73.04V82.52L15.1802 82.2H18.0202V83.5H15.1802L15.6202 83.14V87H13.9802V83.14ZM14.4402 82.2L14.0002 82.52V73.82L14.5402 73.92L8.26016 82.76L7.94016 82.2H14.4402Z" fill="black"/>
<path d="M57.0582 87.16C55.7382 87.16 54.4049 86.8333 53.0582 86.18L53.5182 84.98C54.0915 85.26 54.6582 85.4733 55.2182 85.62C55.7782 85.7667 56.3182 85.84 56.8382 85.84C57.5182 85.84 58.1049 85.7133 58.5982 85.46C59.1049 85.2067 59.4982 84.8467 59.7782 84.38C60.0582 83.9 60.1982 83.34 60.1982 82.7C60.1982 81.9933 60.0115 81.44 59.6382 81.04C59.2782 80.6267 58.7249 80.3333 57.9782 80.16C57.2449 79.9867 56.3182 79.9 55.1982 79.9H53.8982L54.1782 73.04H61.3182L61.2982 74.34H55.2982L55.7782 74.02L55.5582 79.04L55.1182 78.66H56.2982C57.6049 78.66 58.6715 78.82 59.4982 79.14C60.3249 79.4467 60.9382 79.9 61.3382 80.5C61.7382 81.0867 61.9382 81.8133 61.9382 82.68C61.9382 83.6133 61.7249 84.42 61.2982 85.1C60.8849 85.7667 60.3115 86.28 59.5782 86.64C58.8449 86.9867 58.0049 87.16 57.0582 87.16Z" fill="black"/>
<path d="M99.2709 81.18L99.2109 80C99.8509 79.5467 100.524 79.2067 101.231 78.98C101.951 78.74 102.658 78.62 103.351 78.62C104.124 78.62 104.818 78.7733 105.431 79.08C106.058 79.3733 106.558 79.82 106.931 80.42C107.304 81.02 107.491 81.7733 107.491 82.68C107.491 83.6 107.291 84.4 106.891 85.08C106.491 85.7467 105.931 86.2667 105.211 86.64C104.491 87 103.671 87.18 102.751 87.18C101.778 87.18 100.918 86.96 100.171 86.52C99.4375 86.08 98.8642 85.4 98.4509 84.48C98.0375 83.5467 97.8309 82.36 97.8309 80.92C97.8309 79.2667 98.0975 77.84 98.6309 76.64C99.1642 75.44 99.9242 74.5133 100.911 73.86C101.898 73.1933 103.058 72.86 104.391 72.86C105.084 72.86 105.811 72.9533 106.571 73.14L106.431 74.36C106.098 74.2933 105.771 74.2467 105.451 74.22C105.131 74.18 104.831 74.16 104.551 74.16C103.418 74.16 102.478 74.44 101.731 75C100.984 75.5467 100.424 76.3267 100.051 77.34C99.6909 78.34 99.5109 79.54 99.5109 80.94C99.5109 82.62 99.7909 83.8667 100.351 84.68C100.911 85.48 101.718 85.88 102.771 85.88C103.704 85.88 104.444 85.6 104.991 85.04C105.538 84.48 105.811 83.7133 105.811 82.74C105.811 82.0733 105.678 81.5267 105.411 81.1C105.144 80.66 104.791 80.34 104.351 80.14C103.924 79.9267 103.431 79.82 102.871 79.82C102.298 79.82 101.691 79.9333 101.051 80.16C100.424 80.3867 99.8309 80.7267 99.2709 81.18Z" fill="black"/>
<path d="M152.16 74.22L146.74 87H144.94L150.5 74.1L150.76 74.38H144.02L144.4 74.08L143.98 76.5H142.96V73.04H152.16V74.22Z" fill="black"/>
<path d="M192.314 87.16C191.727 87.16 191.154 87.08 190.594 86.92C190.047 86.76 189.554 86.5267 189.114 86.22C188.687 85.9 188.347 85.5067 188.094 85.04C187.841 84.5733 187.714 84.0333 187.714 83.42C187.714 82.8333 187.827 82.32 188.054 81.88C188.281 81.44 188.581 81.0667 188.954 80.76C189.327 80.44 189.727 80.18 190.154 79.98C190.581 79.78 190.987 79.6267 191.374 79.52L192.394 80.04C192.101 80.1333 191.774 80.26 191.414 80.42C191.067 80.58 190.734 80.7867 190.414 81.04C190.094 81.28 189.834 81.58 189.634 81.94C189.434 82.3 189.334 82.7267 189.334 83.22C189.334 83.78 189.467 84.2667 189.734 84.68C190.014 85.0933 190.387 85.4133 190.854 85.64C191.334 85.8533 191.861 85.96 192.434 85.96C193.034 85.96 193.567 85.8467 194.034 85.62C194.514 85.38 194.894 85.0533 195.174 84.64C195.467 84.2133 195.614 83.7267 195.614 83.18C195.614 82.6467 195.474 82.2067 195.194 81.86C194.927 81.5 194.567 81.2067 194.114 80.98C193.674 80.7533 193.181 80.5533 192.634 80.38C192.101 80.1933 191.561 80.0067 191.014 79.82C190.481 79.62 189.987 79.3867 189.534 79.12C189.094 78.8533 188.734 78.5133 188.454 78.1C188.187 77.6733 188.054 77.14 188.054 76.5C188.054 75.6867 188.274 75.0133 188.714 74.48C189.154 73.9333 189.721 73.5267 190.414 73.26C191.121 72.9933 191.867 72.86 192.654 72.86C193.441 72.86 194.161 72.9867 194.814 73.24C195.481 73.4933 196.021 73.88 196.434 74.4C196.847 74.9067 197.054 75.54 197.054 76.3C197.054 76.8467 196.941 77.32 196.714 77.72C196.501 78.1067 196.214 78.44 195.854 78.72C195.507 78.9867 195.127 79.2067 194.714 79.38C194.301 79.54 193.894 79.6667 193.494 79.76L192.354 79.22C192.727 79.1267 193.101 79.0133 193.474 78.88C193.847 78.7333 194.181 78.5533 194.474 78.34C194.781 78.1267 195.021 77.8667 195.194 77.56C195.381 77.24 195.474 76.8667 195.474 76.44C195.474 75.9067 195.341 75.4667 195.074 75.12C194.807 74.7733 194.454 74.5133 194.014 74.34C193.587 74.1533 193.114 74.06 192.594 74.06C192.074 74.06 191.587 74.1533 191.134 74.34C190.694 74.5133 190.334 74.7733 190.054 75.12C189.787 75.4667 189.654 75.9 189.654 76.42C189.654 76.94 189.787 77.3667 190.054 77.7C190.334 78.0333 190.701 78.3133 191.154 78.54C191.607 78.7533 192.101 78.9467 192.634 79.12C193.181 79.2933 193.721 79.48 194.254 79.68C194.787 79.8667 195.274 80.1 195.714 80.38C196.167 80.66 196.534 81.02 196.814 81.46C197.094 81.8867 197.234 82.4333 197.234 83.1C197.234 83.7533 197.094 84.3333 196.814 84.84C196.534 85.3467 196.161 85.7733 195.694 86.12C195.227 86.4667 194.701 86.7267 194.114 86.9C193.541 87.0733 192.941 87.16 192.314 87.16Z" fill="black"/>
<path d="M240.721 78.78L240.781 79.96C240.141 80.4133 239.467 80.7667 238.761 81.02C238.054 81.26 237.341 81.38 236.621 81.38C235.847 81.38 235.147 81.2333 234.521 80.94C233.907 80.6333 233.421 80.1867 233.061 79.6C232.701 79.0133 232.514 78.28 232.501 77.4C232.487 76.4533 232.681 75.6467 233.081 74.98C233.494 74.3 234.061 73.78 234.781 73.42C235.501 73.0467 236.321 72.86 237.241 72.86C238.214 72.86 239.074 73.08 239.821 73.52C240.567 73.96 241.141 74.64 241.541 75.56C241.954 76.48 242.161 77.66 242.161 79.1C242.161 80.7267 241.894 82.1467 241.361 83.36C240.841 84.56 240.087 85.4933 239.101 86.16C238.127 86.8267 236.961 87.16 235.601 87.16C234.907 87.16 234.181 87.0667 233.421 86.88L233.561 85.68C233.907 85.7467 234.234 85.8 234.541 85.84C234.861 85.8667 235.154 85.88 235.421 85.88C236.567 85.88 237.514 85.6067 238.261 85.06C239.007 84.5 239.561 83.7133 239.921 82.7C240.294 81.6867 240.481 80.4867 240.481 79.1C240.481 77.42 240.201 76.18 239.641 75.38C239.094 74.5667 238.287 74.16 237.221 74.16C236.301 74.16 235.561 74.44 235.001 75C234.454 75.5467 234.181 76.3067 234.181 77.28C234.181 77.96 234.307 78.5133 234.561 78.94C234.827 79.3667 235.174 79.68 235.601 79.88C236.041 80.08 236.527 80.18 237.061 80.18C237.674 80.18 238.294 80.06 238.921 79.82C239.547 79.58 240.147 79.2333 240.721 78.78Z" fill="black"/>
<path d="M277.591 86.12L277.231 85.68L279.911 86.1V87H273.131V86.1L276.311 85.7L275.951 86.12V74.42L276.391 74.46L272.911 76.48L272.371 75.46L276.251 72.98H277.591V86.12ZM286.476 87.18C285.343 87.18 284.403 86.92 283.656 86.4C282.923 85.88 282.376 85.1 282.016 84.06C281.67 83.02 281.496 81.7133 281.496 80.14C281.496 78.5133 281.683 77.1667 282.056 76.1C282.43 75.02 283.01 74.2133 283.796 73.68C284.583 73.1333 285.57 72.86 286.756 72.86C287.916 72.86 288.85 73.1067 289.556 73.6C290.276 74.0933 290.796 74.8467 291.116 75.86C291.45 76.8733 291.616 78.16 291.616 79.72C291.616 81.3733 291.43 82.7533 291.056 83.86C290.683 84.9667 290.11 85.8 289.336 86.36C288.576 86.9067 287.623 87.18 286.476 87.18ZM286.536 85.9C287.31 85.9 287.943 85.68 288.436 85.24C288.93 84.8 289.296 84.14 289.536 83.26C289.776 82.3667 289.903 81.24 289.916 79.88C289.93 78.4667 289.816 77.3467 289.576 76.52C289.336 75.68 288.976 75.0733 288.496 74.7C288.016 74.3267 287.416 74.14 286.696 74.14C285.896 74.14 285.236 74.36 284.716 74.8C284.196 75.2267 283.81 75.88 283.556 76.76C283.316 77.6267 283.196 78.7267 283.196 80.06C283.196 81.3933 283.316 82.4933 283.556 83.36C283.796 84.2133 284.163 84.8533 284.656 85.28C285.15 85.6933 285.776 85.9 286.536 85.9Z" fill="black"/>
<path d="M9.935 120.12L9.575 119.68L12.255 120.1V121H5.475V120.1L8.655 119.7L8.295 120.12V108.42L8.735 108.46L5.255 110.48L4.715 109.46L8.595 106.98H9.935V120.12ZM18.06 120.12L17.7 119.68L20.38 120.1V121H13.6V120.1L16.78 119.7L16.42 120.12V108.42L16.86 108.46L13.38 110.48L12.84 109.46L16.72 106.98H18.06V120.12Z" fill="black"/>
<path d="M53.558 120.12L53.198 119.68L55.878 120.1V121H49.098V120.1L52.278 119.7L51.918 120.12V108.42L52.358 108.46L48.878 110.48L48.338 109.46L52.218 106.98H53.558V120.12ZM56.983 121V119.58C58.5564 118.153 59.863 116.907 60.903 115.84C61.9564 114.773 62.7364 113.82 63.243 112.98C63.763 112.14 64.023 111.34 64.023 110.58C64.023 109.74 63.743 109.12 63.183 108.72C62.623 108.32 61.9164 108.12 61.063 108.12C60.6764 108.12 60.243 108.167 59.763 108.26C59.2964 108.353 58.8164 108.48 58.323 108.64L58.543 108.32L58.263 110.74H57.243L57.063 107.62C57.823 107.38 58.563 107.193 59.283 107.06C60.0164 106.927 60.6897 106.86 61.303 106.86C62.1697 106.86 62.9364 106.987 63.603 107.24C64.2697 107.48 64.7964 107.86 65.183 108.38C65.5697 108.887 65.763 109.547 65.763 110.36C65.763 111.28 65.503 112.207 64.983 113.14C64.463 114.06 63.6897 115.06 62.663 116.14C61.6497 117.22 60.3897 118.467 58.883 119.88L58.863 119.66H66.103V121H56.983Z" fill="black"/>
<path d="M98.2944 120.12L97.9344 119.68L100.614 120.1V121H93.8344V120.1L97.0144 119.7L96.6544 120.12V108.42L97.0944 108.46L93.6144 110.48L93.0744 109.46L96.9544 106.98H98.2944V120.12ZM105.879 121.16C105.146 121.16 104.419 121.067 103.699 120.88C102.979 120.693 102.299 120.413 101.659 120.04L102.139 118.84C102.726 119.173 103.333 119.427 103.959 119.6C104.599 119.773 105.226 119.86 105.839 119.86C106.506 119.86 107.093 119.76 107.599 119.56C108.119 119.347 108.526 119.027 108.819 118.6C109.113 118.173 109.259 117.64 109.259 117C109.259 116.48 109.139 116.02 108.899 115.62C108.673 115.207 108.306 114.88 107.799 114.64C107.293 114.4 106.619 114.28 105.779 114.28H104.119V113.06H105.799C106.853 113.06 107.639 112.84 108.159 112.4C108.693 111.96 108.959 111.34 108.959 110.54C108.959 109.66 108.686 109.033 108.139 108.66C107.593 108.273 106.886 108.08 106.019 108.08C105.566 108.08 105.099 108.127 104.619 108.22C104.139 108.313 103.666 108.433 103.199 108.58L103.439 108.32L103.199 110.68H102.199L102.039 107.64C102.773 107.4 103.513 107.213 104.259 107.08C105.006 106.933 105.713 106.86 106.379 106.86C107.193 106.86 107.919 106.973 108.559 107.2C109.213 107.427 109.719 107.793 110.079 108.3C110.453 108.807 110.639 109.473 110.639 110.3C110.639 111.273 110.359 112.04 109.799 112.6C109.239 113.16 108.399 113.52 107.279 113.68L107.219 113.56C108.473 113.64 109.406 113.987 110.019 114.6C110.633 115.2 110.939 116.013 110.939 117.04C110.939 117.733 110.806 118.34 110.539 118.86C110.286 119.38 109.926 119.813 109.459 120.16C108.993 120.493 108.453 120.747 107.839 120.92C107.226 121.08 106.573 121.16 105.879 121.16Z" fill="black"/>
<path d="M143.158 120.12L142.798 119.68L145.478 120.1V121H138.698V120.1L141.878 119.7L141.518 120.12V108.42L141.958 108.46L138.478 110.48L137.938 109.46L141.818 106.98H143.158V120.12ZM153.043 117.14L153.463 117.5H146.163L145.963 116.32L152.763 106.82L154.683 107.04V116.52L154.243 116.2H157.083V117.5H154.243L154.683 117.14V121H153.043V117.14ZM153.503 116.2L153.063 116.52V107.82L153.603 107.92L147.323 116.76L147.003 116.2H153.503Z" fill="black"/>
<path d="M188.656 120.12L188.296 119.68L190.976 120.1V121H184.196V120.1L187.376 119.7L187.016 120.12V108.42L187.456 108.46L183.976 110.48L183.436 109.46L187.316 106.98H188.656V120.12ZM196.121 121.16C194.801 121.16 193.467 120.833 192.121 120.18L192.581 118.98C193.154 119.26 193.721 119.473 194.281 119.62C194.841 119.767 195.381 119.84 195.901 119.84C196.581 119.84 197.167 119.713 197.661 119.46C198.167 119.207 198.561 118.847 198.841 118.38C199.121 117.9 199.261 117.34 199.261 116.7C199.261 115.993 199.074 115.44 198.701 115.04C198.341 114.627 197.787 114.333 197.041 114.16C196.307 113.987 195.381 113.9 194.261 113.9H192.961L193.241 107.04H200.381L200.361 108.34H194.361L194.841 108.02L194.621 113.04L194.181 112.66H195.361C196.667 112.66 197.734 112.82 198.561 113.14C199.387 113.447 200.001 113.9 200.401 114.5C200.801 115.087 201.001 115.813 201.001 116.68C201.001 117.613 200.787 118.42 200.361 119.1C199.947 119.767 199.374 120.28 198.641 120.64C197.907 120.987 197.067 121.16 196.121 121.16Z" fill="black"/>
<path d="M233.533 119.86L233.053 119.22L235.693 119.74V121H228.433V119.74L231.573 119.24L231.073 119.86V109L231.753 109.04L228.373 110.94L227.573 109.44L231.493 106.88H233.533V119.86ZM238.97 115.28L238.87 113.62C239.457 113.247 240.077 112.953 240.73 112.74C241.397 112.527 242.07 112.42 242.75 112.42C243.537 112.42 244.243 112.573 244.87 112.88C245.51 113.187 246.023 113.647 246.41 114.26C246.797 114.873 246.99 115.64 246.99 116.56C246.99 117.533 246.77 118.367 246.33 119.06C245.89 119.753 245.29 120.287 244.53 120.66C243.783 121.033 242.93 121.22 241.97 121.22C240.97 121.22 240.077 121 239.29 120.56C238.503 120.12 237.883 119.433 237.43 118.5C236.977 117.567 236.75 116.353 236.75 114.86C236.75 113.18 237.03 111.733 237.59 110.52C238.163 109.307 238.963 108.373 239.99 107.72C241.03 107.067 242.237 106.74 243.61 106.74C244.357 106.74 245.143 106.847 245.97 107.06L245.79 108.84C245.443 108.76 245.11 108.707 244.79 108.68C244.47 108.653 244.177 108.64 243.91 108.64C242.83 108.64 241.95 108.887 241.27 109.38C240.59 109.873 240.083 110.587 239.75 111.52C239.43 112.44 239.27 113.573 239.27 114.92C239.27 116.413 239.49 117.52 239.93 118.24C240.383 118.96 241.063 119.32 241.97 119.32C242.73 119.32 243.33 119.093 243.77 118.64C244.223 118.173 244.45 117.513 244.45 116.66C244.45 116.087 244.337 115.62 244.11 115.26C243.897 114.887 243.603 114.613 243.23 114.44C242.87 114.253 242.45 114.16 241.97 114.16C241.49 114.16 240.99 114.253 240.47 114.44C239.95 114.627 239.45 114.907 238.97 115.28Z" fill="#E43A45"/>
<path d="M279.265 119.86L278.785 119.22L281.425 119.74V121H274.165V119.74L277.305 119.24L276.805 119.86V109L277.485 109.04L274.105 110.94L273.305 109.44L277.225 106.88H279.265V119.86ZM291.587 108.7L286.327 121H283.607L289.067 108.54L289.427 108.92H283.207L283.747 108.54L283.267 110.94H281.787V106.96H291.587V108.7Z" fill="#E43A45"/>
<path d="M8.41586 153.86L7.93586 153.22L10.5759 153.74V155H3.31586V153.74L6.45586 153.24L5.95586 153.86V143L6.63586 143.04L3.25586 144.94L2.45586 143.44L6.37586 140.88H8.41586V153.86ZM16.5129 155.22C15.8862 155.22 15.2796 155.14 14.6929 154.98C14.1196 154.82 13.5996 154.58 13.1329 154.26C12.6662 153.927 12.2996 153.527 12.0329 153.06C11.7662 152.593 11.6329 152.047 11.6329 151.42C11.6329 150.9 11.7329 150.427 11.9329 150C12.1329 149.56 12.4062 149.18 12.7529 148.86C13.0996 148.54 13.4862 148.273 13.9129 148.06C14.3529 147.847 14.8062 147.687 15.2729 147.58L16.7129 148.3C16.4062 148.38 16.0929 148.5 15.7729 148.66C15.4529 148.807 15.1596 148.993 14.8929 149.22C14.6396 149.447 14.4262 149.713 14.2529 150.02C14.0929 150.327 14.0129 150.68 14.0129 151.08C14.0129 151.56 14.1262 151.98 14.3529 152.34C14.5929 152.7 14.9129 152.98 15.3129 153.18C15.7129 153.367 16.1662 153.46 16.6729 153.46C17.1929 153.46 17.6529 153.36 18.0529 153.16C18.4662 152.947 18.7862 152.667 19.0129 152.32C19.2529 151.96 19.3729 151.56 19.3729 151.12C19.3729 150.627 19.2396 150.227 18.9729 149.92C18.7196 149.6 18.3729 149.333 17.9329 149.12C17.4929 148.893 17.0062 148.693 16.4729 148.52C15.9529 148.347 15.4329 148.16 14.9129 147.96C14.3929 147.76 13.9129 147.52 13.4729 147.24C13.0329 146.947 12.6796 146.587 12.4129 146.16C12.1462 145.733 12.0129 145.2 12.0129 144.56C12.0129 143.693 12.2462 142.98 12.7129 142.42C13.1796 141.86 13.7796 141.44 14.5129 141.16C15.2596 140.88 16.0529 140.74 16.8929 140.74C17.7062 140.74 18.4596 140.873 19.1529 141.14C19.8596 141.393 20.4262 141.787 20.8529 142.32C21.2796 142.853 21.4929 143.52 21.4929 144.32C21.4929 144.813 21.3996 145.253 21.2129 145.64C21.0396 146.013 20.7862 146.333 20.4529 146.6C20.1329 146.867 19.7729 147.093 19.3729 147.28C18.9729 147.453 18.5462 147.593 18.0929 147.7L16.3529 146.94C16.7396 146.887 17.0996 146.8 17.4329 146.68C17.7662 146.547 18.0596 146.38 18.3129 146.18C18.5796 145.98 18.7862 145.74 18.9329 145.46C19.0796 145.18 19.1529 144.86 19.1529 144.5C19.1529 144.06 19.0462 143.693 18.8329 143.4C18.6196 143.093 18.3329 142.867 17.9729 142.72C17.6129 142.56 17.2196 142.48 16.7929 142.48C16.3662 142.48 15.9729 142.56 15.6129 142.72C15.2529 142.867 14.9596 143.087 14.7329 143.38C14.5062 143.66 14.3929 144.013 14.3929 144.44C14.3929 144.907 14.5262 145.293 14.7929 145.6C15.0596 145.907 15.4129 146.167 15.8529 146.38C16.2929 146.58 16.7729 146.767 17.2929 146.94C17.8262 147.113 18.3529 147.3 18.8729 147.5C19.3929 147.7 19.8729 147.947 20.3129 148.24C20.7529 148.533 21.1062 148.9 21.3729 149.34C21.6396 149.78 21.7729 150.333 21.7729 151C21.7729 151.68 21.6196 152.287 21.3129 152.82C21.0196 153.353 20.6196 153.793 20.1129 154.14C19.6196 154.487 19.0596 154.753 18.4329 154.94C17.8062 155.127 17.1662 155.22 16.5129 155.22Z" fill="#E43A45"/>
<path d="M53.1381 154.12L52.7781 153.68L55.4581 154.1V155H48.6781V154.1L51.8581 153.7L51.4981 154.12V142.42L51.9381 142.46L48.4581 144.48L47.9181 143.46L51.7981 140.98H53.1381V154.12ZM64.7831 146.78L64.8431 147.96C64.2031 148.413 63.5298 148.767 62.8231 149.02C62.1165 149.26 61.4031 149.38 60.6831 149.38C59.9098 149.38 59.2098 149.233 58.5831 148.94C57.9698 148.633 57.4831 148.187 57.1231 147.6C56.7631 147.013 56.5765 146.28 56.5631 145.4C56.5498 144.453 56.7431 143.647 57.1431 142.98C57.5565 142.3 58.1231 141.78 58.8431 141.42C59.5631 141.047 60.3831 140.86 61.3031 140.86C62.2765 140.86 63.1365 141.08 63.8831 141.52C64.6298 141.96 65.2031 142.64 65.6031 143.56C66.0165 144.48 66.2231 145.66 66.2231 147.1C66.2231 148.727 65.9565 150.147 65.4231 151.36C64.9031 152.56 64.1498 153.493 63.1631 154.16C62.1898 154.827 61.0231 155.16 59.6631 155.16C58.9698 155.16 58.2431 155.067 57.4831 154.88L57.6231 153.68C57.9698 153.747 58.2965 153.8 58.6031 153.84C58.9231 153.867 59.2165 153.88 59.4831 153.88C60.6298 153.88 61.5765 153.607 62.3231 153.06C63.0698 152.5 63.6231 151.713 63.9831 150.7C64.3565 149.687 64.5431 148.487 64.5431 147.1C64.5431 145.42 64.2631 144.18 63.7031 143.38C63.1565 142.567 62.3498 142.16 61.2831 142.16C60.3631 142.16 59.6231 142.44 59.0631 143C58.5165 143.547 58.2431 144.307 58.2431 145.28C58.2431 145.96 58.3698 146.513 58.6231 146.94C58.8898 147.367 59.2365 147.68 59.6631 147.88C60.1031 148.08 60.5898 148.18 61.1231 148.18C61.7365 148.18 62.3565 148.06 62.9831 147.82C63.6098 147.58 64.2098 147.233 64.7831 146.78Z" fill="black"/>
<path d="M91.5143 155V153.58C93.0876 152.153 94.3943 150.907 95.4343 149.84C96.4876 148.773 97.2676 147.82 97.7743 146.98C98.2943 146.14 98.5543 145.34 98.5543 144.58C98.5543 143.74 98.2743 143.12 97.7143 142.72C97.1543 142.32 96.4476 142.12 95.5943 142.12C95.2076 142.12 94.7743 142.167 94.2943 142.26C93.8276 142.353 93.3476 142.48 92.8543 142.64L93.0743 142.32L92.7943 144.74H91.7743L91.5943 141.62C92.3543 141.38 93.0943 141.193 93.8143 141.06C94.5476 140.927 95.221 140.86 95.8343 140.86C96.701 140.86 97.4676 140.987 98.1343 141.24C98.801 141.48 99.3276 141.86 99.7143 142.38C100.101 142.887 100.294 143.547 100.294 144.36C100.294 145.28 100.034 146.207 99.5143 147.14C98.9943 148.06 98.221 149.06 97.1943 150.14C96.181 151.22 94.921 152.467 93.4143 153.88L93.3943 153.66H100.634V155H91.5143ZM107.853 155.18C106.72 155.18 105.78 154.92 105.033 154.4C104.3 153.88 103.753 153.1 103.393 152.06C103.047 151.02 102.873 149.713 102.873 148.14C102.873 146.513 103.06 145.167 103.433 144.1C103.807 143.02 104.387 142.213 105.173 141.68C105.96 141.133 106.947 140.86 108.133 140.86C109.293 140.86 110.227 141.107 110.933 141.6C111.653 142.093 112.173 142.847 112.493 143.86C112.827 144.873 112.993 146.16 112.993 147.72C112.993 149.373 112.807 150.753 112.433 151.86C112.06 152.967 111.487 153.8 110.713 154.36C109.953 154.907 109 155.18 107.853 155.18ZM107.913 153.9C108.687 153.9 109.32 153.68 109.813 153.24C110.307 152.8 110.673 152.14 110.913 151.26C111.153 150.367 111.28 149.24 111.293 147.88C111.307 146.467 111.193 145.347 110.953 144.52C110.713 143.68 110.353 143.073 109.873 142.7C109.393 142.327 108.793 142.14 108.073 142.14C107.273 142.14 106.613 142.36 106.093 142.8C105.573 143.227 105.187 143.88 104.933 144.76C104.693 145.627 104.573 146.727 104.573 148.06C104.573 149.393 104.693 150.493 104.933 151.36C105.173 152.213 105.54 152.853 106.033 153.28C106.527 153.693 107.153 153.9 107.913 153.9Z" fill="black"/>
<path d="M138.858 155V153.58C140.431 152.153 141.738 150.907 142.778 149.84C143.831 148.773 144.611 147.82 145.118 146.98C145.638 146.14 145.898 145.34 145.898 144.58C145.898 143.74 145.618 143.12 145.058 142.72C144.498 142.32 143.791 142.12 142.938 142.12C142.551 142.12 142.118 142.167 141.638 142.26C141.171 142.353 140.691 142.48 140.198 142.64L140.418 142.32L140.138 144.74H139.118L138.938 141.62C139.698 141.38 140.438 141.193 141.158 141.06C141.891 140.927 142.565 140.86 143.178 140.86C144.045 140.86 144.811 140.987 145.478 141.24C146.145 141.48 146.671 141.86 147.058 142.38C147.445 142.887 147.638 143.547 147.638 144.36C147.638 145.28 147.378 146.207 146.858 147.14C146.338 148.06 145.565 149.06 144.538 150.14C143.525 151.22 142.265 152.467 140.758 153.88L140.738 153.66H147.978V155H138.858ZM154.437 154.12L154.077 153.68L156.757 154.1V155H149.977V154.1L153.157 153.7L152.797 154.12V142.42L153.237 142.46L149.757 144.48L149.217 143.46L153.097 140.98H154.437V154.12Z" fill="black"/>
<path d="M182.481 155V153.58C184.054 152.153 185.361 150.907 186.401 149.84C187.454 148.773 188.234 147.82 188.741 146.98C189.261 146.14 189.521 145.34 189.521 144.58C189.521 143.74 189.241 143.12 188.681 142.72C188.121 142.32 187.414 142.12 186.561 142.12C186.174 142.12 185.741 142.167 185.261 142.26C184.794 142.353 184.314 142.48 183.821 142.64L184.041 142.32L183.761 144.74H182.741L182.561 141.62C183.321 141.38 184.061 141.193 184.781 141.06C185.514 140.927 186.188 140.86 186.801 140.86C187.668 140.86 188.434 140.987 189.101 141.24C189.768 141.48 190.294 141.86 190.681 142.38C191.068 142.887 191.261 143.547 191.261 144.36C191.261 145.28 191.001 146.207 190.481 147.14C189.961 148.06 189.188 149.06 188.161 150.14C187.148 151.22 185.888 152.467 184.381 153.88L184.361 153.66H191.601V155H182.481ZM193.36 155V153.58C194.933 152.153 196.24 150.907 197.28 149.84C198.333 148.773 199.113 147.82 199.62 146.98C200.14 146.14 200.4 145.34 200.4 144.58C200.4 143.74 200.12 143.12 199.56 142.72C199 142.32 198.293 142.12 197.44 142.12C197.053 142.12 196.62 142.167 196.14 142.26C195.673 142.353 195.193 142.48 194.7 142.64L194.92 142.32L194.64 144.74H193.62L193.44 141.62C194.2 141.38 194.94 141.193 195.66 141.06C196.393 140.927 197.067 140.86 197.68 140.86C198.547 140.86 199.313 140.987 199.98 141.24C200.647 141.48 201.173 141.86 201.56 142.38C201.947 142.887 202.14 143.547 202.14 144.36C202.14 145.28 201.88 146.207 201.36 147.14C200.84 148.06 200.067 149.06 199.04 150.14C198.027 151.22 196.767 152.467 195.26 153.88L195.24 153.66H202.48V155H193.36Z" fill="black"/>
<path d="M227.217 155V153.58C228.791 152.153 230.097 150.907 231.137 149.84C232.191 148.773 232.971 147.82 233.477 146.98C233.997 146.14 234.257 145.34 234.257 144.58C234.257 143.74 233.977 143.12 233.417 142.72C232.857 142.32 232.151 142.12 231.297 142.12C230.911 142.12 230.477 142.167 229.997 142.26C229.531 142.353 229.051 142.48 228.557 142.64L228.777 142.32L228.497 144.74H227.477L227.297 141.62C228.057 141.38 228.797 141.193 229.517 141.06C230.251 140.927 230.924 140.86 231.537 140.86C232.404 140.86 233.171 140.987 233.837 141.24C234.504 141.48 235.031 141.86 235.417 142.38C235.804 142.887 235.997 143.547 235.997 144.36C235.997 145.28 235.737 146.207 235.217 147.14C234.697 148.06 233.924 149.06 232.897 150.14C231.884 151.22 230.624 152.467 229.117 153.88L229.097 153.66H236.337V155H227.217ZM242.256 155.16C241.523 155.16 240.796 155.067 240.076 154.88C239.356 154.693 238.676 154.413 238.036 154.04L238.516 152.84C239.103 153.173 239.71 153.427 240.336 153.6C240.976 153.773 241.603 153.86 242.216 153.86C242.883 153.86 243.47 153.76 243.976 153.56C244.496 153.347 244.903 153.027 245.196 152.6C245.49 152.173 245.636 151.64 245.636 151C245.636 150.48 245.516 150.02 245.276 149.62C245.05 149.207 244.683 148.88 244.176 148.64C243.67 148.4 242.996 148.28 242.156 148.28H240.496V147.06H242.176C243.23 147.06 244.016 146.84 244.536 146.4C245.07 145.96 245.336 145.34 245.336 144.54C245.336 143.66 245.063 143.033 244.516 142.66C243.97 142.273 243.263 142.08 242.396 142.08C241.943 142.08 241.476 142.127 240.996 142.22C240.516 142.313 240.043 142.433 239.576 142.58L239.816 142.32L239.576 144.68H238.576L238.416 141.64C239.15 141.4 239.89 141.213 240.636 141.08C241.383 140.933 242.09 140.86 242.756 140.86C243.57 140.86 244.296 140.973 244.936 141.2C245.59 141.427 246.096 141.793 246.456 142.3C246.83 142.807 247.016 143.473 247.016 144.3C247.016 145.273 246.736 146.04 246.176 146.6C245.616 147.16 244.776 147.52 243.656 147.68L243.596 147.56C244.85 147.64 245.783 147.987 246.396 148.6C247.01 149.2 247.316 150.013 247.316 151.04C247.316 151.733 247.183 152.34 246.916 152.86C246.663 153.38 246.303 153.813 245.836 154.16C245.37 154.493 244.83 154.747 244.216 154.92C243.603 155.08 242.95 155.16 242.256 155.16Z" fill="black"/>
<path d="M272.081 155V153.58C273.654 152.153 274.961 150.907 276.001 149.84C277.054 148.773 277.834 147.82 278.341 146.98C278.861 146.14 279.121 145.34 279.121 144.58C279.121 143.74 278.841 143.12 278.281 142.72C277.721 142.32 277.014 142.12 276.161 142.12C275.774 142.12 275.341 142.167 274.861 142.26C274.394 142.353 273.914 142.48 273.421 142.64L273.641 142.32L273.361 144.74H272.341L272.161 141.62C272.921 141.38 273.661 141.193 274.381 141.06C275.114 140.927 275.787 140.86 276.401 140.86C277.267 140.86 278.034 140.987 278.701 141.24C279.367 141.48 279.894 141.86 280.281 142.38C280.667 142.887 280.861 143.547 280.861 144.36C280.861 145.28 280.601 146.207 280.081 147.14C279.561 148.06 278.787 149.06 277.761 150.14C276.747 151.22 275.487 152.467 273.981 153.88L273.961 153.66H281.201V155H272.081ZM289.42 151.14L289.84 151.5H282.54L282.34 150.32L289.14 140.82L291.06 141.04V150.52L290.62 150.2H293.46V151.5H290.62L291.06 151.14V155H289.42V151.14ZM289.88 150.2L289.44 150.52V141.82L289.98 141.92L283.7 150.76L283.38 150.2H289.88Z" fill="black"/>
<path d="M2.57875 189V187.58C4.15208 186.153 5.45875 184.907 6.49875 183.84C7.55208 182.773 8.33208 181.82 8.83875 180.98C9.35875 180.14 9.61875 179.34 9.61875 178.58C9.61875 177.74 9.33875 177.12 8.77875 176.72C8.21875 176.32 7.51208 176.12 6.65875 176.12C6.27208 176.12 5.83875 176.167 5.35875 176.26C4.89208 176.353 4.41208 176.48 3.91875 176.64L4.13875 176.32L3.85875 178.74H2.83875L2.65875 175.62C3.41875 175.38 4.15875 175.193 4.87875 175.06C5.61208 174.927 6.28542 174.86 6.89875 174.86C7.76542 174.86 8.53208 174.987 9.19875 175.24C9.86542 175.48 10.3921 175.86 10.7788 176.38C11.1654 176.887 11.3588 177.547 11.3588 178.36C11.3588 179.28 11.0988 180.207 10.5788 181.14C10.0588 182.06 9.28542 183.06 8.25875 184.14C7.24542 185.22 5.98542 186.467 4.47875 187.88L4.45875 187.66H11.6988V189H2.57875ZM17.4977 189.16C16.1777 189.16 14.8443 188.833 13.4977 188.18L13.9577 186.98C14.531 187.26 15.0977 187.473 15.6577 187.62C16.2177 187.767 16.7577 187.84 17.2777 187.84C17.9577 187.84 18.5443 187.713 19.0377 187.46C19.5443 187.207 19.9377 186.847 20.2177 186.38C20.4977 185.9 20.6377 185.34 20.6377 184.7C20.6377 183.993 20.451 183.44 20.0777 183.04C19.7177 182.627 19.1643 182.333 18.4177 182.16C17.6843 181.987 16.7577 181.9 15.6377 181.9H14.3377L14.6177 175.04H21.7577L21.7377 176.34H15.7377L16.2177 176.02L15.9977 181.04L15.5577 180.66H16.7377C18.0443 180.66 19.111 180.82 19.9377 181.14C20.7643 181.447 21.3777 181.9 21.7777 182.5C22.1777 183.087 22.3777 183.813 22.3777 184.68C22.3777 185.613 22.1643 186.42 21.7377 187.1C21.3243 187.767 20.751 188.28 20.0177 188.64C19.2843 188.987 18.4443 189.16 17.4977 189.16Z" fill="black"/>
<path d="M47.0514 189V187.58C48.6247 186.153 49.9314 184.907 50.9714 183.84C52.0247 182.773 52.8047 181.82 53.3114 180.98C53.8314 180.14 54.0914 179.34 54.0914 178.58C54.0914 177.74 53.8114 177.12 53.2514 176.72C52.6914 176.32 51.9847 176.12 51.1314 176.12C50.7447 176.12 50.3114 176.167 49.8314 176.26C49.3647 176.353 48.8847 176.48 48.3914 176.64L48.6114 176.32L48.3314 178.74H47.3114L47.1314 175.62C47.8914 175.38 48.6314 175.193 49.3514 175.06C50.0847 174.927 50.7581 174.86 51.3714 174.86C52.2381 174.86 53.0047 174.987 53.6714 175.24C54.3381 175.48 54.8647 175.86 55.2514 176.38C55.6381 176.887 55.8314 177.547 55.8314 178.36C55.8314 179.28 55.5714 180.207 55.0514 181.14C54.5314 182.06 53.7581 183.06 52.7314 184.14C51.7181 185.22 50.4581 186.467 48.9514 187.88L48.9314 187.66H56.1714V189H47.0514ZM59.7103 183.18L59.6503 182C60.2903 181.547 60.9636 181.207 61.6703 180.98C62.3903 180.74 63.097 180.62 63.7903 180.62C64.5636 180.62 65.257 180.773 65.8703 181.08C66.497 181.373 66.997 181.82 67.3703 182.42C67.7436 183.02 67.9303 183.773 67.9303 184.68C67.9303 185.6 67.7303 186.4 67.3303 187.08C66.9303 187.747 66.3703 188.267 65.6503 188.64C64.9303 189 64.1103 189.18 63.1903 189.18C62.217 189.18 61.357 188.96 60.6103 188.52C59.877 188.08 59.3036 187.4 58.8903 186.48C58.477 185.547 58.2703 184.36 58.2703 182.92C58.2703 181.267 58.537 179.84 59.0703 178.64C59.6036 177.44 60.3636 176.513 61.3503 175.86C62.337 175.193 63.497 174.86 64.8303 174.86C65.5236 174.86 66.2503 174.953 67.0103 175.14L66.8703 176.36C66.537 176.293 66.2103 176.247 65.8903 176.22C65.5703 176.18 65.2703 176.16 64.9903 176.16C63.857 176.16 62.917 176.44 62.1703 177C61.4236 177.547 60.8636 178.327 60.4903 179.34C60.1303 180.34 59.9503 181.54 59.9503 182.94C59.9503 184.62 60.2303 185.867 60.7903 186.68C61.3503 187.48 62.157 187.88 63.2103 187.88C64.1436 187.88 64.8836 187.6 65.4303 187.04C65.977 186.48 66.2503 185.713 66.2503 184.74C66.2503 184.073 66.117 183.527 65.8503 183.1C65.5836 182.66 65.2303 182.34 64.7903 182.14C64.3636 181.927 63.8703 181.82 63.3103 181.82C62.737 181.82 62.1303 181.933 61.4903 182.16C60.8636 182.387 60.2703 182.727 59.7103 183.18Z" fill="black"/>
<path d="M92.9987 189V187.58C94.572 186.153 95.8787 184.907 96.9187 183.84C97.972 182.773 98.752 181.82 99.2587 180.98C99.7787 180.14 100.039 179.34 100.039 178.58C100.039 177.74 99.7587 177.12 99.1987 176.72C98.6387 176.32 97.932 176.12 97.0787 176.12C96.692 176.12 96.2587 176.167 95.7787 176.26C95.312 176.353 94.832 176.48 94.3387 176.64L94.5587 176.32L94.2787 178.74H93.2587L93.0787 175.62C93.8387 175.38 94.5787 175.193 95.2987 175.06C96.032 174.927 96.7053 174.86 97.3187 174.86C98.1853 174.86 98.952 174.987 99.6187 175.24C100.285 175.48 100.812 175.86 101.199 176.38C101.585 176.887 101.779 177.547 101.779 178.36C101.779 179.28 101.519 180.207 100.999 181.14C100.479 182.06 99.7053 183.06 98.6787 184.14C97.6653 185.22 96.4053 186.467 94.8987 187.88L94.8787 187.66H102.119V189H92.9987ZM112.502 176.22L107.082 189H105.282L110.842 176.1L111.102 176.38H104.362L104.742 176.08L104.322 178.5H103.302V175.04H112.502V176.22Z" fill="black"/>
<path d="M136.915 189V187.58C138.488 186.153 139.795 184.907 140.835 183.84C141.888 182.773 142.668 181.82 143.175 180.98C143.695 180.14 143.955 179.34 143.955 178.58C143.955 177.74 143.675 177.12 143.115 176.72C142.555 176.32 141.848 176.12 140.995 176.12C140.608 176.12 140.175 176.167 139.695 176.26C139.228 176.353 138.748 176.48 138.255 176.64L138.475 176.32L138.195 178.74H137.175L136.995 175.62C137.755 175.38 138.495 175.193 139.215 175.06C139.948 174.927 140.621 174.86 141.235 174.86C142.101 174.86 142.868 174.987 143.535 175.24C144.201 175.48 144.728 175.86 145.115 176.38C145.501 176.887 145.695 177.547 145.695 178.36C145.695 179.28 145.435 180.207 144.915 181.14C144.395 182.06 143.621 183.06 142.595 184.14C141.581 185.22 140.321 186.467 138.815 187.88L138.795 187.66H146.035V189H136.915ZM152.754 189.16C152.167 189.16 151.594 189.08 151.034 188.92C150.487 188.76 149.994 188.527 149.554 188.22C149.127 187.9 148.787 187.507 148.534 187.04C148.28 186.573 148.154 186.033 148.154 185.42C148.154 184.833 148.267 184.32 148.494 183.88C148.72 183.44 149.02 183.067 149.394 182.76C149.767 182.44 150.167 182.18 150.594 181.98C151.02 181.78 151.427 181.627 151.814 181.52L152.834 182.04C152.54 182.133 152.214 182.26 151.854 182.42C151.507 182.58 151.174 182.787 150.854 183.04C150.534 183.28 150.274 183.58 150.074 183.94C149.874 184.3 149.774 184.727 149.774 185.22C149.774 185.78 149.907 186.267 150.174 186.68C150.454 187.093 150.827 187.413 151.294 187.64C151.774 187.853 152.3 187.96 152.874 187.96C153.474 187.96 154.007 187.847 154.474 187.62C154.954 187.38 155.334 187.053 155.614 186.64C155.907 186.213 156.054 185.727 156.054 185.18C156.054 184.647 155.914 184.207 155.634 183.86C155.367 183.5 155.007 183.207 154.554 182.98C154.114 182.753 153.62 182.553 153.074 182.38C152.54 182.193 152 182.007 151.454 181.82C150.92 181.62 150.427 181.387 149.974 181.12C149.534 180.853 149.174 180.513 148.894 180.1C148.627 179.673 148.494 179.14 148.494 178.5C148.494 177.687 148.714 177.013 149.154 176.48C149.594 175.933 150.16 175.527 150.854 175.26C151.56 174.993 152.307 174.86 153.094 174.86C153.88 174.86 154.6 174.987 155.254 175.24C155.92 175.493 156.46 175.88 156.874 176.4C157.287 176.907 157.494 177.54 157.494 178.3C157.494 178.847 157.38 179.32 157.154 179.72C156.94 180.107 156.654 180.44 156.294 180.72C155.947 180.987 155.567 181.207 155.154 181.38C154.74 181.54 154.334 181.667 153.934 181.76L152.794 181.22C153.167 181.127 153.54 181.013 153.914 180.88C154.287 180.733 154.62 180.553 154.914 180.34C155.22 180.127 155.46 179.867 155.634 179.56C155.82 179.24 155.914 178.867 155.914 178.44C155.914 177.907 155.78 177.467 155.514 177.12C155.247 176.773 154.894 176.513 154.454 176.34C154.027 176.153 153.554 176.06 153.034 176.06C152.514 176.06 152.027 176.153 151.574 176.34C151.134 176.513 150.774 176.773 150.494 177.12C150.227 177.467 150.094 177.9 150.094 178.42C150.094 178.94 150.227 179.367 150.494 179.7C150.774 180.033 151.14 180.313 151.594 180.54C152.047 180.753 152.54 180.947 153.074 181.12C153.62 181.293 154.16 181.48 154.694 181.68C155.227 181.867 155.714 182.1 156.154 182.38C156.607 182.66 156.974 183.02 157.254 183.46C157.534 183.887 157.674 184.433 157.674 185.1C157.674 185.753 157.534 186.333 157.254 186.84C156.974 187.347 156.6 187.773 156.134 188.12C155.667 188.467 155.14 188.727 154.554 188.9C153.98 189.073 153.38 189.16 152.754 189.16Z" fill="black"/>
<path d="M182.061 189V187.58C183.635 186.153 184.941 184.907 185.981 183.84C187.035 182.773 187.815 181.82 188.321 180.98C188.841 180.14 189.101 179.34 189.101 178.58C189.101 177.74 188.821 177.12 188.261 176.72C187.701 176.32 186.995 176.12 186.141 176.12C185.755 176.12 185.321 176.167 184.841 176.26C184.375 176.353 183.895 176.48 183.401 176.64L183.621 176.32L183.341 178.74H182.321L182.141 175.62C182.901 175.38 183.641 175.193 184.361 175.06C185.095 174.927 185.768 174.86 186.381 174.86C187.248 174.86 188.015 174.987 188.681 175.24C189.348 175.48 189.875 175.86 190.261 176.38C190.648 176.887 190.841 177.547 190.841 178.36C190.841 179.28 190.581 180.207 190.061 181.14C189.541 182.06 188.768 183.06 187.741 184.14C186.728 185.22 185.468 186.467 183.961 187.88L183.941 187.66H191.181V189H182.061ZM201.16 180.78L201.22 181.96C200.58 182.413 199.907 182.767 199.2 183.02C198.493 183.26 197.78 183.38 197.06 183.38C196.287 183.38 195.587 183.233 194.96 182.94C194.347 182.633 193.86 182.187 193.5 181.6C193.14 181.013 192.953 180.28 192.94 179.4C192.927 178.453 193.12 177.647 193.52 176.98C193.933 176.3 194.5 175.78 195.22 175.42C195.94 175.047 196.76 174.86 197.68 174.86C198.653 174.86 199.513 175.08 200.26 175.52C201.007 175.96 201.58 176.64 201.98 177.56C202.393 178.48 202.6 179.66 202.6 181.1C202.6 182.727 202.333 184.147 201.8 185.36C201.28 186.56 200.527 187.493 199.54 188.16C198.567 188.827 197.4 189.16 196.04 189.16C195.347 189.16 194.62 189.067 193.86 188.88L194 187.68C194.347 187.747 194.673 187.8 194.98 187.84C195.3 187.867 195.593 187.88 195.86 187.88C197.007 187.88 197.953 187.607 198.7 187.06C199.447 186.5 200 185.713 200.36 184.7C200.733 183.687 200.92 182.487 200.92 181.1C200.92 179.42 200.64 178.18 200.08 177.38C199.533 176.567 198.727 176.16 197.66 176.16C196.74 176.16 196 176.44 195.44 177C194.893 177.547 194.62 178.307 194.62 179.28C194.62 179.96 194.747 180.513 195 180.94C195.267 181.367 195.613 181.68 196.04 181.88C196.48 182.08 196.967 182.18 197.5 182.18C198.113 182.18 198.733 182.06 199.36 181.82C199.987 181.58 200.587 181.233 201.16 180.78Z" fill="black"/>
<path d="M230.411 189.16C229.677 189.16 228.951 189.067 228.231 188.88C227.511 188.693 226.831 188.413 226.191 188.04L226.671 186.84C227.257 187.173 227.864 187.427 228.491 187.6C229.131 187.773 229.757 187.86 230.371 187.86C231.037 187.86 231.624 187.76 232.131 187.56C232.651 187.347 233.057 187.027 233.351 186.6C233.644 186.173 233.791 185.64 233.791 185C233.791 184.48 233.671 184.02 233.431 183.62C233.204 183.207 232.837 182.88 232.331 182.64C231.824 182.4 231.151 182.28 230.311 182.28H228.651V181.06H230.331C231.384 181.06 232.171 180.84 232.691 180.4C233.224 179.96 233.491 179.34 233.491 178.54C233.491 177.66 233.217 177.033 232.671 176.66C232.124 176.273 231.417 176.08 230.551 176.08C230.097 176.08 229.631 176.127 229.151 176.22C228.671 176.313 228.197 176.433 227.731 176.58L227.971 176.32L227.731 178.68H226.731L226.571 175.64C227.304 175.4 228.044 175.213 228.791 175.08C229.537 174.933 230.244 174.86 230.911 174.86C231.724 174.86 232.451 174.973 233.091 175.2C233.744 175.427 234.251 175.793 234.611 176.3C234.984 176.807 235.171 177.473 235.171 178.3C235.171 179.273 234.891 180.04 234.331 180.6C233.771 181.16 232.931 181.52 231.811 181.68L231.751 181.56C233.004 181.64 233.937 181.987 234.551 182.6C235.164 183.2 235.471 184.013 235.471 185.04C235.471 185.733 235.337 186.34 235.071 186.86C234.817 187.38 234.457 187.813 233.991 188.16C233.524 188.493 232.984 188.747 232.371 188.92C231.757 189.08 231.104 189.16 230.411 189.16ZM243.117 189.18C241.984 189.18 241.044 188.92 240.297 188.4C239.564 187.88 239.017 187.1 238.657 186.06C238.31 185.02 238.137 183.713 238.137 182.14C238.137 180.513 238.324 179.167 238.697 178.1C239.07 177.02 239.65 176.213 240.437 175.68C241.224 175.133 242.21 174.86 243.397 174.86C244.557 174.86 245.49 175.107 246.197 175.6C246.917 176.093 247.437 176.847 247.757 177.86C248.09 178.873 248.257 180.16 248.257 181.72C248.257 183.373 248.07 184.753 247.697 185.86C247.324 186.967 246.75 187.8 245.977 188.36C245.217 188.907 244.264 189.18 243.117 189.18ZM243.177 187.9C243.95 187.9 244.584 187.68 245.077 187.24C245.57 186.8 245.937 186.14 246.177 185.26C246.417 184.367 246.544 183.24 246.557 181.88C246.57 180.467 246.457 179.347 246.217 178.52C245.977 177.68 245.617 177.073 245.137 176.7C244.657 176.327 244.057 176.14 243.337 176.14C242.537 176.14 241.877 176.36 241.357 176.8C240.837 177.227 240.45 177.88 240.197 178.76C239.957 179.627 239.837 180.727 239.837 182.06C239.837 183.393 239.957 184.493 240.197 185.36C240.437 186.213 240.804 186.853 241.297 187.28C241.79 187.693 242.417 187.9 243.177 187.9Z" fill="black"/>
</svg>
