<svg width="130" height="115" viewBox="0 0 130 115" fill="none" xmlns="http://www.w3.org/2000/svg">
<path d="M65.2579 114.14C99.221 114.14 126.753 88.6442 126.753 57.1933C126.753 25.7425 99.221 0.246521 65.2579 0.246521C31.2949 0.246521 3.76245 25.7425 3.76245 57.1933C3.76245 88.6442 31.2949 114.14 65.2579 114.14Z" fill="#E2A01A"/>
<path d="M64.958 112.992C33.8152 112.992 8.48291 87.7034 8.48291 56.6143C8.48291 25.5251 33.8152 0.236523 64.958 0.236523C96.1007 0.236523 121.433 25.5251 121.433 56.6143C121.433 87.7034 96.1007 112.992 64.958 112.992ZM64.958 1.72409C34.6452 1.72409 9.97304 26.3438 9.97304 56.6143C9.97304 86.8847 34.6352 111.504 64.958 111.504C95.2807 111.504 119.943 86.8847 119.943 56.6143C119.943 26.3438 95.2707 1.73407 64.958 1.73407V1.72409Z" fill="#FFBC36"/>
<path d="M58.7874 110.097C89.1768 110.097 113.812 85.5037 113.812 55.1666C113.812 24.8296 89.1768 0.236523 58.7874 0.236523C28.3979 0.236523 3.76245 24.8296 3.76245 55.1666C3.76245 85.5037 28.3979 110.097 58.7874 110.097Z" fill="#FFBC36"/>
<path d="M0.00219727 31.6252L101.321 114.849L116.973 101.331L3.76253 25.6849L0.00219727 31.6252Z" fill="#FFCE78"/>
<path d="M6.59277 18.4168L123.723 97.2278L129.184 93.2244L11.4432 15.9907L6.59277 18.4168Z" fill="#FFCE78"/>
<path d="M43.356 65.0804C42.4059 65.0405 41.3658 64.8009 41.3658 64.8009C41.3658 64.8009 36.9254 82.7415 39.9957 86.9846C36.2154 84.4487 32.9751 81.2839 30.3749 77.6598C42.966 69.593 36.1754 56.185 36.1754 56.185C35.3753 55.9853 34.1852 55.9054 34.1852 55.9054C34.1852 55.9054 26.2445 68.365 27.3546 72.638C25.0144 67.9457 23.6343 62.7342 23.4242 57.2732C39.0456 53.2298 36.6854 37.1561 36.6854 37.1561C35.7553 37.1262 34.6952 36.8766 34.6952 36.8766C34.6952 36.8766 27.9146 40.3409 25.9645 42.2178C27.4446 38.414 29.5448 34.8599 32.205 31.695C32.6451 31.1759 32.5751 30.3872 32.055 29.9479C31.535 29.5086 29.4848 29.1292 29.0447 29.6584C22.9842 36.8466 20.914 46.4309 20.914 55.8455C20.914 56.5544 20.944 57.2632 20.974 57.972C17.2937 53.8388 11.6732 52.7007 11.6732 52.7007C10.5931 52.5908 9.85303 52.7007 9.85303 52.7007C9.85303 52.7007 19.8039 68.3351 22.9942 68.6046C24.0443 71.7495 25.4844 74.7346 27.2646 77.5001C21.3741 72.5582 13.6534 75.6731 13.6534 75.6731C20.0139 89.0412 30.4349 82.5219 30.8549 82.2523C32.365 83.9595 34.0152 85.5469 35.8153 86.9946C29.3848 86.3855 24.2643 90.6885 24.2643 90.6885C34.3452 101.311 42.1359 94.8217 44.2361 92.6653C44.6461 92.845 46.0663 92.9448 46.2263 92.9448C46.7163 92.9448 47.1764 92.6553 47.3764 92.1761C47.6364 91.5471 47.3364 90.8183 46.7063 90.5587C46.0563 90.2892 45.4262 89.9996 44.7962 89.7001C54.8571 76.961 43.356 65.0604 43.356 65.0604V65.0804Z" fill="#D1900F"/>
<path d="M94.6806 77.5102C96.4608 74.7447 97.9009 71.7596 98.951 68.6147C102.301 68.3252 111.382 66.3285 110.112 52.9903L108.122 52.7107C108.122 52.7107 103.371 55.2865 100.971 57.9721C101.011 57.2633 101.031 56.5644 101.031 55.8456C101.031 46.431 97.6909 37.296 91.6304 30.0977C91.1903 29.5786 88.9501 29.2092 88.4201 29.6585C87.9 30.0978 89.2902 31.176 89.7302 31.6951C92.3904 34.85 94.4806 38.4141 95.9708 42.2179C93.7206 40.0614 90.1302 37.6154 85.0498 36.5572L83.2696 36.8767C83.2696 36.8767 86.1899 54.0885 98.521 57.2733C98.321 62.7244 96.9408 67.9458 94.6006 72.6381C95.7607 68.1655 95.1907 61.6561 85.7798 56.1851L83.7897 55.9055C83.7897 55.9055 81.8395 71.4201 91.5804 77.6599C88.9901 81.284 85.7398 84.4488 81.9595 86.9847C85.0998 82.6517 87.7 74.9444 78.5992 65.0805L76.609 64.801C76.609 64.801 69.3084 79.7864 77.1491 89.7202C76.519 90.0197 75.889 90.3092 75.2389 90.5788C74.6088 90.8384 72.8087 91.8567 73.0687 92.4857C73.2687 92.9649 75.2289 92.9549 75.7189 92.9549C75.879 92.9549 76.039 92.9249 76.189 92.865C76.609 92.6953 77.0191 92.5156 77.4291 92.3259C79.5193 94.4824 87.6 101.321 97.6709 90.6986C97.6709 90.6986 92.5505 86.3956 86.1199 87.0046C87.91 85.567 89.5702 83.9796 91.0803 82.2624C91.5004 82.5319 101.911 89.0513 108.282 75.6832C108.282 75.6832 100.561 72.5583 94.6706 77.5102H94.6806Z" fill="#D1900F"/>
<path d="M41.366 64.8009C32.2652 74.6647 34.8754 82.3721 38.0057 86.705C34.2254 84.1692 30.9851 81.0043 28.3848 77.3803C40.976 69.3135 34.1854 55.9054 34.1854 55.9054C24.7745 61.3765 24.2045 67.8858 25.3646 72.3585C23.0244 67.6662 21.6442 62.4547 21.4342 56.9936C37.0556 52.9503 34.6954 36.8766 34.6954 36.8766C29.615 37.9348 26.2246 39.7718 23.9844 41.9383C25.4646 38.1345 27.5648 34.5803 30.225 31.4155C30.665 30.8963 30.595 30.1076 30.075 29.6684C29.5549 29.2291 28.7649 29.299 28.3248 29.8181C22.2643 37.0064 18.924 46.1514 18.924 55.566C18.924 56.2748 18.954 56.9837 18.984 57.6925C15.3037 53.5593 9.84318 52.7107 9.84318 52.7107C8.57307 66.0488 17.6439 68.0456 21.0042 68.3351C22.0543 71.4799 23.4944 74.4651 25.2746 77.2305C19.384 72.2886 11.6633 75.4035 11.6633 75.4035C18.0239 88.7716 28.4448 82.2523 28.8649 81.9827C30.375 83.69 32.0252 85.2774 33.8253 86.725C27.3948 86.116 22.2743 90.4189 22.2743 90.4189C32.3552 101.042 40.4259 94.2127 42.5161 92.0463C42.9261 92.226 43.3362 92.4057 43.7562 92.5854C43.9162 92.6453 44.0762 92.6752 44.2263 92.6752C44.7163 92.6752 45.1763 92.3857 45.3764 91.9065C45.6364 91.2775 45.3364 90.5487 44.7063 90.2892C44.0562 90.0196 43.4262 89.7301 42.7961 89.4306C52.857 76.6914 41.356 64.7909 41.356 64.7909L41.366 64.8009Z" fill="#F7B31C"/>
<path d="M92.7005 77.2305C94.4806 74.4651 95.9208 71.4799 96.9709 68.3351C100.321 68.0456 109.402 66.0488 108.132 52.7107C108.132 52.7107 102.671 53.5593 98.991 57.6925C99.031 56.9837 99.0511 56.2848 99.0511 55.566C99.0511 46.1514 95.7108 37.0163 89.6502 29.8181C89.2102 29.299 88.4301 29.2291 87.9001 29.6684C87.38 30.1076 87.31 30.8864 87.75 31.4155C90.4103 34.5703 92.5005 38.1345 93.9906 41.9383C91.7404 39.7818 88.3501 37.9348 83.2796 36.8766C83.2796 36.8766 80.9194 52.9503 96.5408 56.9936C96.3408 62.4447 94.9607 67.6662 92.6205 72.3585C93.7806 67.8858 93.2105 61.3765 83.7997 55.9054C83.7997 55.9054 77.0091 69.3135 89.6002 77.3803C87.01 81.0044 83.7597 84.1692 79.9794 86.705C83.1196 82.3721 85.7199 74.6647 76.619 64.8009C76.619 64.8009 65.118 76.7014 75.1789 89.4405C74.5489 89.7401 73.9188 90.0296 73.2687 90.2991C72.6387 90.5587 72.3287 91.2875 72.5987 91.9165C72.7987 92.3957 73.2587 92.6852 73.7488 92.6852C73.9088 92.6852 74.0688 92.6553 74.2188 92.5954C74.6389 92.4257 75.0489 92.246 75.4589 92.0563C77.5491 94.2127 85.6298 101.052 95.7007 90.4289C95.7007 90.4289 90.5803 86.126 84.1497 86.735C85.9399 85.2973 87.6 83.7099 89.1102 81.9927C89.5302 82.2623 99.9411 88.7816 106.312 75.4135C106.312 75.4135 98.591 72.2886 92.7005 77.2405V77.2305Z" fill="#F7B31C"/>
<path d="M67.1281 23.5883V77.6998H53.7469V38.1245C50.8667 40.3209 47.4764 42.2677 43.926 43.4558L39.2656 34.8299C45.0261 32.3739 51.2967 29.4188 56.7972 23.5883H67.1281Z" fill="#CC8B0A"/>
<path d="M69.9986 25.4752L72.1888 77.6998H56.0973L56.1973 39.7319C55.1372 38.9332 53.7171 38.0946 53.7171 38.0946C53.7171 38.0946 51.7169 40.5006 45.8164 42.9866L41.9661 35.5288C47.7266 33.0728 52.307 31.5153 57.8175 25.6849L70.0086 25.4852L69.9986 25.4752Z" fill="#F7B31C"/>
</svg>
