<svg width="130" height="116" viewBox="0 0 130 116" fill="none" xmlns="http://www.w3.org/2000/svg">
<path d="M65.9508 114.891C99.9138 114.891 127.446 89.3946 127.446 57.9437C127.446 26.4929 99.9138 0.996929 65.9508 0.996929C31.9878 0.996929 4.45532 26.4929 4.45532 57.9437C4.45532 89.3946 31.9878 114.891 65.9508 114.891Z" fill="#AA9987"/>
<path d="M65.641 113.972C34.4382 113.972 9.0459 88.6335 9.0459 57.4745C9.0459 26.3155 34.4382 0.986931 65.641 0.986931C96.8438 0.986931 122.226 26.3255 122.226 57.4745C122.226 88.6235 96.8438 113.972 65.641 113.972ZM65.641 2.70412C35.3883 2.70412 10.7761 27.2739 10.7761 57.4745C10.7761 87.6751 35.3883 112.245 65.641 112.245C95.8937 112.245 120.506 87.6751 120.506 57.4745C120.506 27.2739 95.8937 2.70412 65.641 2.70412Z" fill="#D8C9B6"/>
<path d="M59.4702 110.857C89.8596 110.857 114.495 86.2641 114.495 55.927C114.495 25.59 89.8596 0.996929 59.4702 0.996929C29.0808 0.996929 4.44531 25.59 4.44531 55.927C4.44531 86.2641 29.0808 110.857 59.4702 110.857Z" fill="#D8C9B6"/>
<path d="M0.685059 32.3756L102.014 115.599L117.666 102.082L4.4454 26.4353L0.685059 32.3756Z" fill="#F4E5D3"/>
<path d="M7.27563 19.1672L124.416 97.9882L129.877 93.9847L12.1361 16.7411L7.27563 19.1672Z" fill="#F4E5D3"/>
<path d="M44.0389 65.8308C43.0888 65.7909 42.0487 65.5513 42.0487 65.5513C42.0487 65.5513 37.6083 83.4919 40.6786 87.735C36.8982 85.1991 33.658 82.0343 31.0577 78.4102C43.6489 70.3434 36.8582 56.9354 36.8582 56.9354C36.0582 56.7357 34.8681 56.6558 34.8681 56.6558C34.8681 56.6558 26.9274 69.1154 28.0375 73.3885C25.6972 68.6961 24.3171 63.4847 24.1071 58.0236C39.7285 53.9802 37.3683 37.9065 37.3683 37.9065C36.4382 37.8766 35.3781 37.627 35.3781 37.627C35.3781 37.627 28.5975 41.0913 26.6473 42.9682C28.1275 39.1645 30.2277 35.6103 32.8879 32.4454C33.3279 31.9263 33.2579 31.1376 32.7379 30.6983C32.2178 30.259 30.1676 29.8796 29.7276 30.4088C23.6671 37.597 21.5969 47.1813 21.5969 56.5959C21.5969 57.3048 21.6269 58.0136 21.6569 58.7224C17.9765 54.5892 12.3561 53.4511 12.3561 53.4511C11.276 53.3413 10.5359 53.4511 10.5359 53.4511C10.5359 53.4511 20.4868 69.0855 23.6771 69.3551C24.7272 72.4999 26.1673 75.485 27.9474 78.2505C22.0569 73.3086 14.3362 76.4235 14.3362 76.4235C20.6968 89.7916 31.1177 83.2723 31.5378 83.0027C33.0479 84.7099 34.6981 86.2973 36.4982 87.745C30.0676 87.136 24.9472 91.4389 24.9472 91.4389C35.0281 102.062 42.8188 95.5721 44.919 93.4157C45.329 93.5954 46.7491 93.6952 46.9091 93.6952C47.3992 93.6952 47.8592 93.4057 48.0592 92.9265C48.3193 92.2975 48.0192 91.5687 47.3892 91.3091C46.7391 91.0396 46.1091 90.75 45.479 90.4505C55.5399 77.7114 44.0389 65.8108 44.0389 65.8108V65.8308Z" fill="#AA9987"/>
<path d="M95.3735 78.2606C97.1537 75.4951 98.5938 72.51 99.6439 69.3651C102.994 69.0756 112.075 67.0789 110.805 53.7407L108.815 53.4611C108.815 53.4611 104.064 56.0369 101.664 58.7225C101.704 58.0137 101.724 57.3148 101.724 56.596C101.724 47.1814 98.3838 38.0464 92.3232 30.8482C91.8832 30.329 89.643 29.9596 89.113 30.4089C88.5929 30.8482 89.983 31.9264 90.4231 32.4455C93.0833 35.6004 95.1735 39.1645 96.6636 42.9683C94.4134 40.8119 90.8231 38.3659 85.7427 37.3076L83.9625 37.6271C83.9625 37.6271 86.8828 54.8389 99.2139 58.0237C99.0138 63.4748 97.6337 68.6962 95.2935 73.3885C96.4536 68.9159 95.8835 62.4065 86.4727 56.9355L84.4825 56.6559C84.4825 56.6559 82.5324 72.1705 92.2732 78.4103C89.683 82.0344 86.4327 85.1992 82.6524 87.7351C85.7927 83.4022 88.3929 75.6948 79.2921 65.8309L77.3019 65.5514C77.3019 65.5514 70.0012 80.5368 77.8419 90.4706C77.2119 90.7701 76.5818 91.0596 75.9318 91.3292C75.3017 91.5888 73.5016 92.6071 73.7616 93.2361C73.9616 93.7153 75.9218 93.7053 76.4118 93.7053C76.5718 93.7053 76.7318 93.6753 76.8819 93.6154C77.3019 93.4457 77.7119 93.266 78.122 93.0763C80.2121 95.2328 88.2929 102.072 98.3638 91.449C98.3638 91.449 93.2433 87.146 86.8127 87.755C88.6029 86.3174 90.2631 84.73 91.7732 83.0128C92.1932 83.2824 102.604 89.8017 108.975 76.4336C108.975 76.4336 101.254 73.3087 95.3635 78.2606H95.3735Z" fill="#AA9987"/>
<path d="M42.0589 65.5513C32.958 75.4151 35.5683 83.1225 38.6986 87.4554C34.9182 84.9196 31.6779 81.7548 29.0777 78.1307C41.6688 70.0639 34.8782 56.6558 34.8782 56.6558C25.4674 62.1269 24.8973 68.6362 26.0574 73.1089C23.7172 68.4166 22.3371 63.2051 22.1271 57.7441C37.7485 53.7007 35.3883 37.627 35.3883 37.627C30.3078 38.6852 26.9175 40.5222 24.6773 42.6887C26.1574 38.8849 28.2576 35.3307 30.9179 32.1659C31.3579 31.6468 31.2879 30.8581 30.7679 30.4188C30.2478 29.9795 29.4577 30.0494 29.0177 30.5685C22.9572 37.7568 19.6169 46.9018 19.6169 56.3164C19.6169 57.0252 19.6469 57.7341 19.6769 58.4429C15.9965 54.3097 10.5361 53.4611 10.5361 53.4611C9.26594 66.7992 18.3368 68.796 21.6971 69.0855C22.7471 72.2303 24.1873 75.2155 25.9674 77.9809C20.0769 73.039 12.3562 76.1539 12.3562 76.1539C18.7168 89.522 29.1377 83.0027 29.5578 82.7332C31.0679 84.4404 32.718 86.0278 34.5182 87.4754C28.0876 86.8664 22.9672 91.1694 22.9672 91.1694C33.0481 101.792 41.1188 94.9631 43.209 92.7967C43.619 92.9764 44.029 93.1561 44.4491 93.3358C44.6091 93.3957 44.7691 93.4257 44.9191 93.4257C45.4092 93.4257 45.8692 93.1361 46.0692 92.6569C46.3293 92.0279 46.0292 91.2991 45.3992 91.0396C44.7491 90.77 44.1191 90.4805 43.489 90.181C53.5499 77.4418 42.0489 65.5413 42.0489 65.5413L42.0589 65.5513Z" fill="#C6B39D"/>
<path d="M93.3833 77.9809C95.1635 75.2155 96.6036 72.2303 97.6537 69.0855C101.004 68.796 110.085 66.7992 108.815 53.4611C108.815 53.4611 103.354 54.3097 99.6739 58.4429C99.7139 57.7341 99.7339 57.0352 99.7339 56.3164C99.7339 46.9018 96.3936 37.7667 90.3331 30.5685C89.893 30.0494 89.113 29.9795 88.5829 30.4188C88.0629 30.8581 87.9929 31.6368 88.4329 32.1659C91.0931 35.3207 93.1833 38.8849 94.6735 42.6887C92.4233 40.5322 89.033 38.6852 83.9625 37.627C83.9625 37.627 81.6023 53.7007 97.2237 57.7441C97.0237 63.1951 95.6435 68.4166 93.3033 73.1089C94.4634 68.6362 93.8934 62.1269 84.4825 56.6558C84.4825 56.6558 77.6919 70.0639 90.2831 78.1307C87.6928 81.7548 84.4425 84.9196 80.6622 87.4554C83.8025 83.1225 86.4027 75.4151 77.3019 65.5513C77.3019 65.5513 65.8009 77.4518 75.8618 90.191C75.2317 90.4905 74.6017 90.78 73.9516 91.0495C73.3215 91.3091 73.0115 92.0379 73.2815 92.6669C73.4815 93.1461 73.9416 93.4357 74.4317 93.4357C74.5917 93.4357 74.7517 93.4057 74.9017 93.3458C75.3217 93.1761 75.7318 92.9964 76.1418 92.8067C78.232 94.9631 86.3127 101.802 96.3836 91.1793C96.3836 91.1793 91.2632 86.8764 84.8326 87.4854C86.6227 86.0477 88.2829 84.4603 89.793 82.7431C90.2131 83.0127 100.624 89.532 106.995 76.1639C106.995 76.1639 99.2739 73.039 93.3833 77.9909V77.9809Z" fill="#C6B39D"/>
<path d="M44.2889 21.1439C48.1392 19.3569 54.4698 16.821 59.9703 16.821C67.671 16.821 73.6615 20.3253 73.6615 29.2507C73.6615 35.151 70.5712 40.652 64.0306 47.5108L59.9003 51.8337H74.8316V61.0986H44.2189L42.9788 58.2133C45.869 54.1599 49.5693 48.589 52.7496 44.6854C59.0802 36.9281 62.0305 33.7034 62.0305 30.1991C62.0305 27.7931 60.5203 25.8762 57.9701 25.8762C55.4199 25.8762 52.5396 27.1841 48.2692 29.1708L44.2789 21.134L44.2889 21.1439Z" fill="#AA9987"/>
<path d="M47.0492 22.4019C51.3896 19.7662 58.8102 17.45 64.2607 18.3785C72.7115 19.8261 74.2416 24.8878 74.8317 29.9695C75.5117 35.8399 72.0014 39.5438 66.5809 47.3211C65.9609 48.2097 63.3206 51.1948 63.3206 51.1948H78.252L77.932 62.1868H47.3192L46.0791 59.3015C48.9694 55.2481 52.6697 49.6773 55.85 45.7736C62.1805 38.0163 65.5008 34.582 64.4908 30.299C63.5307 27.8729 61.1304 26.4453 58.9102 25.976C56.43 25.976 53.8098 26.605 49.5394 28.5918L47.0492 22.4019Z" fill="#C6B39D"/>
</svg>
