<svg width="131" height="117" viewBox="0 0 131 117" fill="none" xmlns="http://www.w3.org/2000/svg">
<path d="M65.984 115.51C100.135 115.51 127.819 89.875 127.819 58.2532C127.819 26.6314 100.135 0.996929 65.984 0.996929C31.8331 0.996929 4.14844 26.6314 4.14844 58.2532C4.14844 89.875 31.8331 115.51 65.984 115.51Z" fill="#C46E27"/>
<path d="M65.6841 114.661C34.2913 114.661 8.74902 89.1626 8.74902 57.8239C8.74902 26.4852 34.2913 0.986931 65.6841 0.986931C97.0769 0.986931 122.619 26.4852 122.619 57.8239C122.619 89.1626 97.0769 114.661 65.6841 114.661ZM65.6841 2.79397C35.2814 2.79397 10.5592 27.4836 10.5592 57.8239C10.5592 88.1643 35.2914 112.854 65.6841 112.854C96.0768 112.854 120.809 88.1643 120.809 57.8239C120.809 27.4836 96.0768 2.79397 65.6841 2.79397Z" fill="#E58E38"/>
<path d="M59.4734 111.446C90.0285 111.446 114.798 86.719 114.798 56.2166C114.798 25.7141 90.0285 0.986931 59.4734 0.986931C28.9183 0.986931 4.14844 25.7141 4.14844 56.2166C4.14844 86.719 28.9183 111.446 59.4734 111.446Z" fill="#E58E38"/>
<path d="M0.368164 32.5453L102.247 116.218L117.979 102.631L4.1485 26.5751L0.368164 32.5453Z" fill="#FFCE78"/>
<path d="M6.99878 19.267L124.769 98.5073L130.26 94.4839L11.8792 16.831L6.99878 19.267Z" fill="#FFCE78"/>
<path d="M43.9621 66.1803C43.012 66.1403 41.9619 65.9007 41.9619 65.9007C41.9619 65.9007 37.4915 83.9412 40.5818 88.2042C36.7814 85.6584 33.5211 82.4736 30.9109 78.8295C43.572 70.7228 36.7414 57.2449 36.7414 57.2449C35.9413 57.0452 34.7412 56.9653 34.7412 56.9653C34.7412 56.9653 26.7605 69.4948 27.8706 73.7878C25.5104 69.0655 24.1303 63.8241 23.9203 58.3431C39.6317 54.2797 37.2614 38.1162 37.2614 38.1162C36.3214 38.0862 35.2613 37.8366 35.2613 37.8366C35.2613 37.8366 28.4507 41.3209 26.4805 43.2078C27.9706 39.3841 30.0808 35.8099 32.7511 32.6351C33.1911 32.106 33.1311 31.3273 32.601 30.878C32.071 30.4387 30.0108 30.0594 29.5708 30.5885C23.4802 37.8167 21.39 47.4509 21.39 56.9154C21.39 57.6342 21.42 58.3431 21.45 59.0519C17.7497 54.8987 12.0992 53.7606 12.0992 53.7606C11.0091 53.6508 10.269 53.7606 10.269 53.7606C10.269 53.7606 20.2699 69.4749 23.4802 69.7544C24.5403 72.9192 25.9905 75.9143 27.7806 78.6998C21.8601 73.7279 14.0994 76.8628 14.0994 76.8628C20.4999 90.3108 30.9709 83.7515 31.3909 83.472C32.9011 85.1891 34.5712 86.7865 36.3714 88.2342C29.9008 87.6252 24.7603 91.9481 24.7603 91.9481C34.8912 102.631 42.732 96.1113 44.8421 93.9348C45.2522 94.1245 46.6823 94.2144 46.8423 94.2144C47.3324 94.2144 47.8024 93.9248 47.9924 93.4456C48.2524 92.8067 47.9524 92.0779 47.3124 91.8183C46.6623 91.5487 46.0222 91.2592 45.3922 90.9597C55.5031 78.1507 43.9421 66.1902 43.9421 66.1902L43.9621 66.1803Z" fill="#C46E27"/>
<path d="M95.5667 78.6799C97.3569 75.9044 98.807 72.8993 99.8671 69.7345C103.237 69.445 112.368 67.4383 111.088 54.0302L109.088 53.7507C109.088 53.7507 104.307 56.3364 101.897 59.042C101.937 58.3332 101.957 57.6243 101.957 56.9055C101.957 47.441 98.597 38.246 92.5064 31.0179C92.0664 30.4887 89.8062 30.1293 89.2861 30.5786C88.7561 31.0179 90.1562 32.0961 90.6062 32.6252C93.2865 35.8 95.3867 39.3842 96.8768 43.1979C94.6166 41.0315 91.0063 38.5655 85.8958 37.5072L84.1057 37.8267C84.1057 37.8267 87.0459 55.1284 99.437 58.3332C99.227 63.8142 97.8469 69.0656 95.4867 73.7779C96.6468 69.2852 96.0767 62.736 86.6159 57.235L84.6157 56.9554C84.6157 56.9554 82.6556 72.5499 92.4464 78.8196C89.8462 82.4637 86.5759 85.6485 82.7755 88.1943C85.9358 83.8314 88.5461 76.0841 79.4053 66.1703L77.4051 65.8908C77.4051 65.8908 70.0644 80.9561 77.9451 90.9398C77.3151 91.2393 76.675 91.5288 76.0249 91.7984C75.3849 92.058 73.5747 93.0863 73.8448 93.7153C74.0448 94.1945 76.015 94.1945 76.505 94.1945C76.665 94.1945 76.825 94.1645 76.975 94.1046C77.3951 93.9349 77.8051 93.7552 78.2151 93.5655C80.3153 95.732 88.4361 102.601 98.567 91.9282C98.567 91.9282 93.4165 87.6053 86.9559 88.2143C88.7561 86.7666 90.4262 85.1692 91.9364 83.4521C92.3564 83.7216 102.827 90.2809 109.228 76.8429C109.228 76.8429 101.467 73.708 95.5467 78.6799H95.5667Z" fill="#C46E27"/>
<path d="M41.9619 65.9007C32.8111 75.8145 35.4313 83.5618 38.5916 87.9247C34.7913 85.3788 31.531 82.194 28.9207 78.55C41.5819 70.4433 34.7513 56.9653 34.7513 56.9653C25.2904 62.4663 24.7204 69.0056 25.8805 73.5083C23.5203 68.786 22.1401 63.5446 21.9301 58.0635C37.6415 54.0002 35.2713 37.8366 35.2713 37.8366C30.1609 38.8949 26.7606 40.7519 24.5004 42.9183C25.9905 39.0946 28.1007 35.5204 30.7709 32.3456C31.211 31.8165 31.151 31.0378 30.6209 30.5885C30.0909 30.1492 29.3108 30.2091 28.8607 30.7383C22.7702 37.9664 19.4099 47.1614 19.4099 56.6259C19.4099 57.3447 19.4399 58.0536 19.4699 58.7624C15.7696 54.6092 10.2791 53.7506 10.2791 53.7506C8.99897 67.1587 18.1298 69.1754 21.5001 69.4549C22.5602 72.6197 24.0103 75.6148 25.8005 78.4003C19.8799 73.4284 12.1193 76.5633 12.1193 76.5633C18.5198 90.0113 28.9908 83.452 29.4108 83.1724C30.9209 84.8896 32.5911 86.487 34.3912 87.9347C27.9207 87.3256 22.7802 91.6486 22.7802 91.6486C32.9111 102.331 41.0318 95.4623 43.132 93.2859C43.5421 93.4756 43.9521 93.6553 44.3721 93.825C44.5322 93.8849 44.6922 93.9149 44.8422 93.9149C45.3322 93.9149 45.8023 93.6253 45.9923 93.1461C46.2523 92.5072 45.9523 91.7784 45.3122 91.5188C44.6622 91.2492 44.0221 90.9597 43.392 90.6602C53.5029 77.8512 41.9419 65.8907 41.9419 65.8907L41.9619 65.9007Z" fill="#E07B36"/>
<path d="M93.5665 78.4002C95.3566 75.6248 96.8068 72.6197 97.8669 69.4549C101.237 69.1654 110.368 67.1586 109.088 53.7506C109.088 53.7506 103.607 54.6092 99.897 58.7624C99.937 58.0535 99.957 57.3447 99.957 56.6259C99.957 47.1614 96.5968 37.9664 90.5062 30.7382C90.0662 30.2091 89.2761 30.1392 88.746 30.5885C88.216 31.0278 88.156 31.8165 88.596 32.3456C91.2763 35.5204 93.3765 39.1046 94.8666 42.9183C92.6064 40.7519 89.1961 38.8949 84.0956 37.8366C84.0956 37.8366 81.7254 54.0002 97.4368 58.0635C97.2268 63.5446 95.8467 68.796 93.4865 73.5083C94.6466 69.0156 94.0765 62.4663 84.6157 56.9653C84.6157 56.9653 77.7951 70.4433 90.4462 78.55C87.846 82.194 84.5757 85.3788 80.7753 87.9247C83.9356 83.5618 86.5459 75.8145 77.405 65.9007C77.405 65.9007 65.844 77.8611 75.9549 90.6702C75.3248 90.9697 74.6848 91.2592 74.0347 91.5288C73.3947 91.7883 73.0946 92.5171 73.3547 93.1561C73.5547 93.6353 74.0147 93.9249 74.5048 93.9249C74.6648 93.9249 74.8248 93.8949 74.9748 93.835C75.3949 93.6653 75.8049 93.4856 76.2149 93.2959C78.3151 95.4623 86.4359 102.331 96.5668 91.6586C96.5668 91.6586 91.4163 87.3356 84.9557 87.9446C86.7559 86.497 88.426 84.8996 89.9362 83.1824C90.3562 83.452 100.827 90.0112 107.228 76.5732C107.228 76.5732 99.467 73.4384 93.5465 78.4102L93.5665 78.4002Z" fill="#E07B36"/>
<path d="M74.1847 25.5268C74.1847 30.6384 71.1545 34.2026 67.2741 36.1394C73.2546 37.8466 76.4349 42.8784 76.4349 48.2296C76.4349 56.0568 71.7745 64.5829 58.1933 64.5829C53.5329 64.5829 46.4722 62.2567 41.7318 60.0902L45.7722 50.7156C48.7224 52.1832 53.4529 54.4395 56.9532 54.4395C60.2135 54.4395 63.3138 52.0334 63.3138 47.7704C63.3138 44.5956 60.5235 42.5789 57.7233 42.5789C55.3931 42.5789 51.4327 43.5872 50.9727 43.6671L47.4023 34.9913C54.313 32.9746 60.9835 30.888 60.9835 27.0842C60.9835 25.2972 59.8235 24.139 57.7233 24.139C54.1529 24.139 51.2027 25.6066 47.1623 27.7032L42.6619 18.5582C47.9424 15.9225 53.6829 13.9058 59.3534 13.9058C68.0442 13.9058 74.1747 18.0091 74.1747 25.5268H74.1847Z" fill="#C46E27"/>
<path d="M76.2349 28.9811C76.2349 33.0545 67.2741 36.1394 67.2741 36.1394C67.2741 36.1394 67.1941 38.0563 67.3041 39.2343C73.2847 40.9415 78.4851 46.3327 78.4851 51.684C78.4851 59.5112 73.8247 68.0372 60.2435 68.0372C55.5831 68.0372 47.9024 65.112 43.162 62.9455L46.9523 54.1499C49.9026 55.6175 53.7329 56.8455 57.2232 56.8455C60.5035 56.8455 63.4038 54.0601 64.1639 49.6573C64.7039 46.5224 62.4537 43.9666 60.1935 42.9283C58.0733 41.9599 51.7627 45.1547 51.3027 45.2345L48.4324 37.4872C55.3431 35.4705 62.6537 33.973 62.1437 29.2008C61.9536 27.4237 61.1836 24.3387 59.0834 24.3387C55.5131 24.3387 52.5028 28.9512 48.4624 31.0477L43.872 21.0241C49.1525 18.3885 55.4731 16.821 61.1336 16.4616C71.3045 15.8127 76.2349 21.4734 76.2349 28.9911V28.9811Z" fill="#E07B36"/>
</svg>
