<svg width="50" height="50" viewBox="0 0 50 50" fill="none" xmlns="http://www.w3.org/2000/svg">
<path d="M43.9176 23.4221C43.8646 22.6862 43.226 22.1339 42.4891 22.1856C41.7531 22.2387 41.1996 22.8782 41.2525 23.6142C41.2854 24.0687 41.302 24.5352 41.302 25C41.302 35.6505 32.6373 44.3151 21.9869 44.3151C11.3365 44.3151 2.67188 35.6504 2.67188 25C2.67188 14.3496 11.3365 5.68496 21.987 5.68496C26.2049 5.68496 30.2106 7.01973 33.571 9.54482C34.1609 9.98799 34.9982 9.86914 35.4415 9.27939C35.8849 8.68955 35.766 7.85205 35.1762 7.40889C31.3491 4.5332 26.7884 3.01318 21.9869 3.01318C9.86338 3.01309 0 12.8765 0 25C0 37.1235 9.86338 46.9868 21.987 46.9868C34.1106 46.9868 43.9738 37.1236 43.9738 25C43.9738 24.4713 43.9548 23.9404 43.9176 23.4221Z" fill="black"/>
<path d="M48.4759 6.03225C46.4439 4.00032 43.1374 4.00032 41.1054 6.03225L21.8564 25.2811L15.0327 18.4574C13.0007 16.4254 9.69424 16.4254 7.66221 18.4574C5.63018 20.4894 5.63018 23.7958 7.66221 25.8279L19.4143 37.5799C20.0876 38.2533 20.972 38.5899 21.8564 38.5899C22.7408 38.5899 23.6252 38.2533 24.2985 37.5799L48.4759 13.4026C50.5077 11.3706 50.5077 8.06438 48.4759 6.03225ZM46.5866 11.5134L22.4092 35.6909C22.1045 35.9956 21.6084 35.9956 21.3037 35.6909L9.55166 23.9388C8.56133 22.9485 8.56133 21.3372 9.55166 20.3469C10.0468 19.8516 10.6971 19.6041 11.3476 19.6041C11.998 19.6041 12.6484 19.8517 13.1435 20.3469L20.1632 27.3666C20.6155 27.8189 21.217 28.0679 21.8564 28.0679C22.4962 28.0679 23.0977 27.8188 23.5499 27.3665L42.9947 7.92151C43.9848 6.93118 45.5963 6.93118 46.5866 7.92151C47.5769 8.91184 47.5769 10.5231 46.5866 11.5134Z" fill="black"/>
</svg>
