<svg width="50" height="50" viewBox="0 0 50 50" fill="none" xmlns="http://www.w3.org/2000/svg">
<path d="M43.7435 10.12C43.7401 9.81963 43.6239 9.52529 43.4031 9.30439L34.4417 0.342871C34.4413 0.34248 34.441 0.342383 34.4406 0.34209C34.229 0.130664 33.9366 0 33.6139 0H8.71855C7.35947 0 6.25391 1.10547 6.25391 2.46455V47.5354C6.25391 48.8943 7.35937 49.9999 8.71846 49.9999H41.2813C42.6403 49.9999 43.7459 48.8944 43.7459 47.5354V10.1321C43.7461 10.1278 43.7438 10.1242 43.7435 10.12ZM34.7846 3.99717L39.7488 8.96143H34.9078C34.8399 8.96143 34.7846 8.90605 34.7846 8.83818V3.99717ZM41.4046 47.5354C41.4046 47.6033 41.3493 47.6586 41.2814 47.6586H8.71855C8.65068 47.6586 8.59541 47.6033 8.59541 47.5354V2.46455C8.59541 2.39668 8.65068 2.34141 8.71855 2.34141H32.4432V8.83818C32.4432 10.1972 33.5488 11.3029 34.9079 11.3029H41.4047V47.5354H41.4046Z" fill="black"/>
<path d="M35.3603 16.017H14.6399C13.9935 16.017 13.4692 16.5411 13.4692 17.1877C13.4692 17.8342 13.9935 18.3584 14.6399 18.3584H35.3602C36.0066 18.3584 36.5309 17.8342 36.5309 17.1877C36.531 16.5411 36.0066 16.017 35.3603 16.017Z" fill="black"/>
<path d="M35.3603 23.0814H14.6399C13.9935 23.0814 13.4692 23.6056 13.4692 24.2521C13.4692 24.8985 13.9935 25.4228 14.6399 25.4228H35.3602C36.0066 25.4228 36.5309 24.8985 36.5309 24.2521C36.531 23.6056 36.0066 23.0814 35.3603 23.0814Z" fill="black"/>
<path d="M35.3603 30.1456H14.6399C13.9935 30.1456 13.4692 30.6698 13.4692 31.3163C13.4692 31.9629 13.9935 32.487 14.6399 32.487H35.3602C36.0066 32.487 36.5309 31.9629 36.5309 31.3163C36.531 30.6699 36.0066 30.1456 35.3603 30.1456Z" fill="black"/>
<path d="M25.0001 37.2101H14.6399C13.9935 37.2101 13.4692 37.7343 13.4692 38.3808C13.4692 39.0273 13.9935 39.5515 14.6399 39.5515H25.0001C25.6466 39.5515 26.1708 39.0273 26.1708 38.3808C26.1708 37.7342 25.6466 37.2101 25.0001 37.2101Z" fill="black"/>
</svg>
