<svg width="1366" height="543" viewBox="0 0 1366 543" fill="none" xmlns="http://www.w3.org/2000/svg">
<path fill-rule="evenodd" clip-rule="evenodd" d="M1365.58 0H374.579C458.81 61.9411 598.471 119.795 793.575 173.576C988.678 227.343 1179.35 169.489 1365.58 0Z" fill="#32C5D2"/>
<path fill-rule="evenodd" clip-rule="evenodd" d="M0 496.167C60.7134 461.292 100.26 425.334 118.652 388.308C155.627 313.862 140.97 192.293 204.201 119.89C267.431 47.4879 439.502 134.1 586.698 108.36C660.932 95.3818 736.018 59.2618 811.985 0H0V496.167Z" fill="#F7CA18"/>
<path d="M145.408 46.5627C143.179 45.0786 139.866 44.0162 135.485 43.3601C131.104 42.7117 126.212 42.2977 120.811 42.1103C115.409 41.9228 109.772 41.9775 103.9 42.2509C98.0347 42.5321 92.2956 42.9461 86.7056 43.5007C81.1156 44.0553 75.9888 44.6567 71.333 45.3051C68.279 45.7347 65.6331 46.18 63.372 46.6486L62.5633 44.1568C61.739 43.0398 60.3807 42.6492 58.4964 43.0086C57.1696 43.3991 56.251 44.5864 55.7328 46.5705C55.2147 48.5546 54.9713 50.7183 55.0027 53.0774C55.0262 55.4364 55.1597 57.6861 55.3874 59.8342C55.6151 61.9823 55.8192 63.4118 55.9919 64.1382C56.408 67.3955 56.6671 71.4106 56.7535 76.1755C56.8477 80.9404 56.9341 86.0724 57.0204 91.5716C57.1068 97.0708 57.3031 102.648 57.6093 108.319C57.9155 113.99 58.5593 119.325 59.5406 124.332C60.0824 125.567 61.1109 126.113 62.6261 125.981C64.1336 125.84 65.005 125.067 65.2249 123.668C64.9344 121.809 64.6439 119.95 64.3612 118.083C64.0708 116.224 63.9216 114.31 63.9137 112.342L64.7616 114.967C65.3034 116.201 66.3319 116.748 67.8471 116.607C69.3546 116.466 70.226 115.701 70.4537 114.295L70.4066 113.131L70.5008 112.897C70.0612 109.124 69.5351 105.351 68.9227 101.578C68.3104 97.8051 67.8157 94.0869 67.4546 90.4077L67.0228 87.6191L67.2191 87.1504C67.1484 87.0489 67.1248 86.9551 67.1562 86.877C67.1876 86.7989 67.1641 86.7052 67.0934 86.6036L67.4624 64.7397C67.5252 62.8728 67.4624 60.9512 67.274 58.9905C67.0856 57.0221 67.0228 55.1083 67.0856 53.2414C67.6116 53.1867 68.0356 53.0617 68.381 52.8821C71.8748 52.1634 75.5884 51.4917 79.5924 50.8746C86.2109 49.8591 92.8294 49.0311 99.4401 48.3749C106.059 47.7344 112.3 47.3595 118.173 47.2657C124.046 47.1798 128.748 47.5001 132.289 48.2422C129.494 48.6093 126.377 48.9295 122.923 49.1951C119.476 49.4685 116.077 49.7888 112.716 50.1481C105.635 49.781 98.5529 49.8669 91.4712 50.4215C84.3895 50.9761 77.8652 52.3509 71.8983 54.5615C69.8492 55.4833 68.8678 56.7643 68.962 58.4203C69.0562 60.0685 70.2182 61.084 72.4558 61.4511C78.98 61.4511 85.2217 60.8965 91.1886 59.7951C97.1554 58.6859 102.282 57.6782 106.561 56.7565C112.528 56.7565 118.306 56.9987 123.896 57.4751C129.486 57.9595 134.802 58.2953 139.826 58.4906C141.687 58.3032 142.857 57.6079 143.32 56.4128C143.783 55.2099 143.556 54.0616 142.621 52.9524L144.859 51.8432C146.162 50.1794 146.351 48.4218 145.416 46.5705L145.408 46.5627Z" fill="#12110B"/>
<path d="M180.827 94.5092H118.155V142.798H180.827V94.5092Z" fill="#009B3D"/>
<path d="M133.569 139.59C133.569 139.132 133.524 138.719 133.443 138.343C133.591 138.27 133.687 138.188 133.724 138.115C133.76 138.041 133.856 137.923 134.004 137.768C134.299 137.009 134.55 135.6 134.756 133.557C134.963 131.507 135.11 129.081 135.191 126.279C135.272 123.476 135.302 120.519 135.272 117.414C135.243 114.31 135.169 111.389 135.066 108.661C134.963 105.932 134.8 103.513 134.594 101.39C134.38 99.2657 134.122 97.8719 133.812 97.1935C133.421 96.3675 132.831 96.0504 132.042 96.2495C131.246 96.4486 130.892 96.928 130.98 97.6802C130.449 97.6802 130.036 98.0342 129.741 98.72C129.601 99.7819 129.542 101.426 129.564 103.668C129.586 105.903 129.63 108.403 129.704 111.168C129.771 113.934 129.859 116.847 129.97 119.914C130.08 122.982 130.184 125.895 130.294 128.661C130.397 131.426 130.501 133.926 130.597 136.16C130.7 138.395 130.751 140.047 130.766 141.109C131.157 141.935 131.688 142.311 132.367 142.23C133.045 142.149 133.458 141.691 133.606 140.851C133.606 140.475 133.598 140.054 133.591 139.597L133.569 139.59ZM128.207 142.119H128.096L124.8 141.78C123.738 141.625 122.713 141.418 121.732 141.153C120.744 140.888 119.763 140.718 118.774 140.644V138.144C118.774 137.237 118.811 136.382 118.885 135.585C118.959 134.789 118.988 134.088 118.988 133.483V127.857C118.988 126.456 118.966 124.995 118.915 123.484C119.062 121.817 119.202 120.15 119.313 118.484C119.423 116.817 119.556 115.15 119.711 113.484C119.859 110.755 119.881 107.99 119.77 105.187C119.659 102.385 119.748 99.6197 120.058 96.8911L122.447 97.6876C125.095 98.5209 127.241 98.5799 128.863 97.8572C130.493 97.1418 131.386 96.2495 131.533 95.1876C132.367 94.7304 132.684 94.1109 132.499 93.3145C132.308 92.518 131.718 92.1935 130.737 92.3484C130.132 92.577 129.52 92.6876 128.915 92.6876C128.008 92.6139 126.946 92.6139 125.736 92.6876L124.033 92.9162C123.428 92.8425 122.823 92.7835 122.219 92.7466C121.614 92.7098 121.002 92.6876 120.397 92.6876C120.168 92.0829 119.77 91.7437 119.202 91.6626C118.634 91.5888 118.192 91.9281 117.889 92.6876C117.735 92.6876 117.639 92.7098 117.602 92.7466C117.565 92.7835 117.506 92.8056 117.432 92.8056C116.739 93.2628 116.437 93.8307 116.51 94.5091C116.193 94.8852 116.112 95.3277 116.274 95.8144C116.429 96.3085 116.82 96.633 117.425 96.7805C117.351 97.0091 117.314 97.2525 117.314 97.5179V98.2554C116.938 98.2554 116.614 98.3734 116.333 98.5946C116.06 98.8232 115.883 99.1993 115.802 99.7303C115.802 103.218 115.817 106.662 115.854 110.069C115.891 113.476 115.942 116.928 116.016 120.416C116.016 121.478 115.979 122.577 115.898 123.712L115.662 127.119C115.588 127.953 115.529 128.771 115.493 129.56C115.456 130.357 115.36 131.175 115.205 132.009C114.674 133.528 114.431 135.268 114.468 137.237C114.504 139.206 114.527 140.954 114.527 142.466V143.151H114.755C114.984 143.528 115.441 143.756 116.127 143.83C116.201 144.206 116.319 144.553 116.473 144.855C116.628 145.157 116.783 145.46 116.938 145.762C118.015 146.367 118.826 146.219 119.357 145.305L119.586 144.626H124.586C125.264 144.781 125.913 144.892 126.518 144.966C127.123 145.039 127.728 145.039 128.332 144.966C129.166 144.59 129.564 144.059 129.527 143.373C129.49 142.687 129.055 142.274 128.222 142.119H128.207ZM211.964 114.45C211.935 113.912 211.802 113.521 211.551 113.27C211.301 113.019 210.991 112.872 210.607 112.835C210.63 112.606 210.652 112.363 210.681 112.097C210.703 111.832 210.696 111.581 210.637 111.353C211.256 111.264 211.669 110.976 211.869 110.504C212.075 110.033 212.038 109.59 211.758 109.177C211.898 108.506 211.647 107.909 211.006 107.392C210.932 107.392 210.873 107.363 210.836 107.319C210.799 107.274 210.711 107.245 210.556 107.23C210.327 106.448 209.922 106.065 209.346 106.087C208.771 106.109 208.343 106.404 208.056 106.987C207.451 106.928 206.846 106.891 206.242 106.869C205.637 106.847 205.025 106.847 204.413 106.869L202.738 106.478C201.536 106.286 200.482 106.183 199.575 106.168C199.191 106.131 198.815 106.043 198.439 105.91L199.044 96.7289H199.154C200.091 96.2569 200.526 95.5563 200.467 94.6419C200.401 93.7274 199.892 93.0564 198.933 92.6213C198.063 92.1935 197.104 92.0092 196.042 92.0682C194.987 92.1272 193.962 92.2009 192.967 92.2968C191.971 92.3926 190.997 92.5696 190.031 92.8204C189.065 93.0711 184.5 92.3558 183.431 92.4443C183.047 92.5033 182.738 92.636 182.494 92.8499C181.897 92.6655 181.395 92.8056 180.99 93.2776C180.584 93.7496 180.555 94.3321 180.894 95.0401C181.521 96.0578 182.457 96.5888 183.711 96.6183C184.965 96.6477 189.677 97.5474 190.739 97.5253C191.728 97.4294 192.701 97.4073 193.645 97.4589C194.589 97.5106 195.481 97.4884 196.322 97.3778L196.278 98.1669L196.16 98.0489C195.4 97.4737 194.663 97.5106 193.94 98.1521C192.568 99.6713 191.698 102.009 191.337 105.18C190.975 108.351 190.872 111.854 191.042 115.696C191.211 119.538 191.543 123.447 192.045 127.422C192.546 131.397 192.937 134.981 193.217 138.188L193.158 139.206C191.86 139.361 190.503 139.575 189.08 139.833C187.664 140.098 182.037 140.202 180.791 140.74C180.488 140.725 180.296 140.747 180.215 140.821V140.932C179.441 141.116 179.109 141.61 179.22 142.414C179.323 143.218 179.832 143.638 180.746 143.69C181.358 143.646 186.322 143.867 187.044 143.756C187.775 143.646 188.519 143.535 189.279 143.424L189.736 143.446C190.112 143.469 190.511 143.469 190.931 143.454C191.351 143.439 191.742 143.476 192.118 143.579C192.347 143.594 192.605 143.682 192.9 143.852C193.048 144.014 193.276 144.177 193.586 144.346L193.66 145.032C193.837 145.873 194.279 146.337 194.987 146.411C195.695 146.485 196.182 146.116 196.455 145.297C196.448 144.081 196.433 142.908 196.418 141.765C196.403 140.629 196.352 139.486 196.263 138.343C196.521 137.016 196.743 135.607 196.942 134.14C197.001 134.177 197.06 134.221 197.126 134.258C197.723 134.391 198.328 134.45 198.933 134.435C199.545 134.42 200.194 134.368 200.887 134.28L205.865 134.767C205.865 134.767 209.273 134.678 209.383 134.309C210.076 134.302 210.548 134.118 210.814 133.764L211.043 133.786L211.109 133.107C211.256 131.603 211.441 129.87 211.669 127.908C211.898 125.954 211.824 124.192 211.441 122.636C211.374 121.795 211.013 123.026 211.374 119.642C211.736 116.249 211.596 117.916 211.935 114.442L211.964 114.45ZM194.353 122.082C194.206 120.63 194.095 119.206 194.021 117.798C193.947 116.389 193.911 114.966 193.918 113.521C193.933 111.928 193.962 109.996 194.006 107.717C194.058 105.446 194.434 103.454 195.135 101.744C195.268 102.134 195.378 102.555 195.467 103.012C195.555 103.477 195.666 103.971 195.799 104.509L194.36 122.075L194.353 122.082ZM207.967 114.406C207.901 114.885 207.857 115.173 207.827 115.35C207.849 115.372 207.857 115.622 207.827 116.478C207.82 118.152 207.82 120.998 207.672 122.503C207.65 122.731 207.613 123.144 207.554 123.749C207.495 124.354 207.466 125.054 207.458 125.851C207.458 126.647 207.407 127.503 207.318 128.41C207.23 129.317 207.149 130.143 207.075 130.902C206.087 130.88 205.091 130.954 204.081 131.124C203.078 131.293 202.038 131.396 200.968 131.448L197.657 131.47H197.546C197.458 131.47 197.369 131.478 197.288 131.492C197.303 131.33 197.325 131.175 197.34 131.013C197.598 128.373 197.805 125.689 197.952 122.967C198.1 120.246 198.195 117.555 198.225 114.9C198.247 112.879 198.277 110.991 198.306 109.229C198.601 109.302 198.94 109.42 199.309 109.627C200.865 110.497 202.997 110.652 205.718 110.077L208.004 111.212C208.041 113.956 208.365 111.625 207.982 114.406H207.967ZM207.827 115.35C207.739 115.866 207.798 115.313 207.827 115.35ZM180.473 139.073C180.473 138.697 180.466 138.277 180.459 137.82C180.459 137.362 180.414 136.95 180.333 136.573C180.481 136.5 180.577 136.419 180.614 136.345C180.65 136.271 180.746 136.153 180.894 135.998C181.189 135.239 181.44 133.83 181.646 131.787C181.853 129.737 182 127.311 182.081 124.509C182.162 121.706 182.192 118.749 182.155 115.637C182.125 112.532 182.052 109.612 181.948 106.884C181.845 104.155 181.683 101.736 181.476 99.6123C181.263 97.4958 181.004 96.0947 180.695 95.4162C180.304 94.5903 179.714 94.2731 178.925 94.4723C178.128 94.6714 177.774 95.1507 177.863 95.9029C177.332 95.9029 176.919 96.2569 176.624 96.9427C176.484 98.0047 176.425 99.6566 176.447 101.891C176.469 104.126 176.513 106.625 176.579 109.391C176.646 112.156 176.734 115.069 176.845 118.137C176.956 121.205 177.059 124.118 177.162 126.883C177.265 129.649 177.369 132.149 177.464 134.383C177.56 136.618 177.619 138.262 177.634 139.324C178.018 140.15 178.556 140.526 179.234 140.445C179.913 140.364 180.326 139.899 180.473 139.066V139.073ZM175.097 140.349H174.986L171.69 140.01C170.628 139.855 169.603 139.649 168.622 139.383C167.634 139.118 166.653 138.948 165.664 138.874V136.374C165.664 135.467 165.701 134.612 165.768 133.815C165.834 133.019 165.871 132.318 165.871 131.714V126.087C165.871 124.686 165.849 123.226 165.797 121.714C165.952 120.047 166.085 118.38 166.195 116.714C166.306 115.047 166.446 113.381 166.594 111.714C166.741 108.985 166.763 106.22 166.653 103.418C166.549 100.866 166.623 98.3439 166.867 95.8513C167.021 95.6522 167.117 95.431 167.139 95.1876L169.322 95.9177C171.977 96.751 174.116 96.81 175.746 96.0873C177.376 95.372 178.268 94.4796 178.416 93.4177C179.249 92.9605 179.574 92.341 179.382 91.5446C179.19 90.7481 178.608 90.431 177.619 90.5785C177.015 90.8071 176.402 90.9177 175.798 90.9177C174.891 90.844 173.829 90.844 172.612 90.9177L170.908 91.1464C170.303 91.0726 169.699 91.0136 169.086 90.9767C168.482 90.9399 167.87 90.9177 167.265 90.9177C167.036 90.313 166.638 89.9738 166.07 89.8927C165.502 89.8189 165.06 90.1582 164.757 90.9177C164.602 90.9177 164.507 90.9399 164.47 90.9767C164.433 91.0136 164.374 91.0357 164.3 91.0357C163.614 91.493 163.304 92.0608 163.378 92.7393C163.186 92.9752 163.091 93.226 163.076 93.5062C163.068 93.4988 163.054 93.4841 163.046 93.4767C162.973 93.4398 162.855 93.344 162.707 93.1965C161.645 92.7393 160.318 92.3853 158.732 92.1198C157.139 91.8543 155.494 91.7216 153.791 91.7216C152.087 91.7216 150.435 91.8174 148.842 92.0092C148.4 92.0608 147.972 92.1272 147.574 92.2009C147.08 92.105 146.563 92.0682 146.018 92.0903C144.956 92.1493 143.93 92.223 142.942 92.3189C141.947 92.4148 140.973 92.5918 140.007 92.8425C139.041 93.0932 138.03 93.2628 136.961 93.3587C136.578 93.4177 136.268 93.5504 136.025 93.7643C135.427 93.5799 134.926 93.7201 134.52 94.192C134.114 94.664 134.078 95.2466 134.424 95.9545C135.051 96.9796 135.988 97.5032 137.241 97.5327C138.495 97.5622 139.653 97.5696 140.715 97.5548C141.703 97.4589 142.677 97.4368 143.621 97.4884C144.565 97.5401 145.457 97.5179 146.298 97.4073L146.254 98.1964L146.136 98.0784C145.376 97.5032 144.638 97.5401 143.923 98.1816C142.551 99.7008 141.681 102.039 141.32 105.21C140.958 108.381 140.855 111.884 141.025 115.726C141.194 119.568 141.526 123.476 142.028 127.451C142.529 131.426 142.92 135.01 143.2 138.218L143.141 139.236C141.843 139.39 140.486 139.604 139.063 139.862C137.647 140.128 136.312 140.526 135.066 141.065C134.763 141.05 134.572 141.072 134.491 141.146V141.256C133.716 141.441 133.384 141.935 133.495 142.739C133.606 143.542 134.114 143.97 135.022 144.014C135.634 143.97 136.297 143.896 137.028 143.786C137.758 143.675 138.503 143.564 139.269 143.454L139.719 143.476C140.103 143.498 140.494 143.498 140.914 143.483C141.334 143.469 141.725 143.505 142.101 143.609C142.33 143.623 142.588 143.712 142.883 143.882C143.031 144.044 143.259 144.206 143.569 144.376L143.643 145.061C143.82 145.902 144.262 146.367 144.97 146.441C145.678 146.514 146.165 146.146 146.438 145.327C146.431 144.11 146.416 142.938 146.401 141.795C146.401 141.662 146.394 141.536 146.394 141.411C146.563 141.854 146.888 142.067 147.404 142.016C147.404 142.385 147.662 142.672 148.171 142.879C150.671 143.144 153.127 143.151 155.546 142.916C157.965 142.68 160.421 142.532 162.921 142.48C162.98 142.458 163.024 142.421 163.076 142.399C163.142 142.643 163.223 142.879 163.334 143.085C163.489 143.387 163.644 143.69 163.799 143.992C164.875 144.597 165.687 144.449 166.218 143.535L166.446 142.857H171.446C172.125 143.004 172.774 143.122 173.379 143.196C173.983 143.269 174.588 143.269 175.2 143.196C176.034 142.812 176.432 142.289 176.395 141.603C176.358 140.917 175.923 140.504 175.09 140.349H175.097ZM144.343 122.082C144.196 120.63 144.078 119.214 144.004 117.805C143.93 116.397 143.894 114.973 143.901 113.528C143.916 111.935 143.945 110.003 143.989 107.724C144.041 105.453 144.41 103.462 145.118 101.751C145.251 102.142 145.361 102.562 145.45 103.019C145.538 103.484 145.649 103.978 145.782 104.516L144.343 122.082ZM163.209 96.8174C162.936 97.046 162.759 97.4221 162.678 97.953C162.678 101.441 162.692 104.885 162.729 108.292C162.766 111.699 162.818 115.15 162.891 118.639C162.891 119.701 162.855 120.799 162.773 121.935L162.537 125.342C162.464 126.175 162.405 126.994 162.368 127.783C162.331 128.579 162.235 129.391 162.088 130.224C161.557 131.743 161.313 133.483 161.35 135.452C161.387 137.355 161.402 139.037 161.409 140.519C161.232 140.534 161.055 140.548 160.893 140.578C160.834 140.475 160.782 140.408 160.723 140.379C160.664 140.357 160.583 140.29 160.465 140.18C159.669 139.862 158.673 139.619 157.478 139.435C156.284 139.25 155.045 139.162 153.769 139.162C152.493 139.162 151.254 139.228 150.059 139.361C148.864 139.494 147.869 139.715 147.072 140.032C146.718 140.18 146.49 140.379 146.379 140.622C146.357 139.87 146.32 139.11 146.261 138.358C146.696 136.109 147.043 133.66 147.308 131.013C147.566 128.373 147.773 125.689 147.92 122.967C148.068 120.246 148.164 117.555 148.193 114.9C148.223 112.245 148.267 109.819 148.311 107.621L148.99 97.2672C151.416 97.4073 153.813 97.3483 156.18 97.0976C158.651 96.8321 161.158 96.6551 163.695 96.5519C163.518 96.6109 163.356 96.692 163.209 96.8174Z" fill="#12110B"/>
<path d="M1325.97 119.009C1325.46 115.795 1325.11 110.475 1324.94 103.042C1324.77 95.602 1324.34 88.0925 1323.65 80.5063C1322.96 72.9271 1321.85 66.073 1320.31 59.9441C1318.76 53.8152 1316.44 50.3219 1313.36 49.4503C1311.83 49.4503 1310.65 50.4265 1309.79 52.3439C1309.49 52.3788 1309.19 52.4137 1308.91 52.4694C1308.75 52.1417 1308.58 51.9325 1308.42 51.8489C1308.25 51.7652 1308.01 51.563 1307.68 51.2283C1306.03 50.5659 1302.96 49.9872 1298.5 49.4921C1294.04 48.9971 1288.76 48.6206 1282.65 48.3765C1276.54 48.1325 1270.1 48 1263.32 48C1256.54 48 1250.19 48.0837 1244.24 48.251C1238.29 48.4184 1233.01 48.7042 1228.39 49.1156C1223.76 49.527 1220.7 50.0709 1219.22 50.7263C1217.41 51.556 1216.7 52.839 1217.11 54.5752C1217.52 56.3113 1218.55 57.0992 1220.21 56.9319C1220.21 58.0894 1220.95 59.0028 1222.44 59.6652C1224.75 59.9999 1228.35 60.1602 1233.22 60.1602C1238.1 60.1602 1243.54 60.1184 1249.58 60.0347C1255.61 59.951 1261.96 59.8255 1268.66 59.6582C1275.34 59.4909 1281.71 59.3235 1287.74 59.1631C1293.77 58.9958 1299.22 58.8354 1304.09 58.6681C1305.91 58.6053 1307.56 58.5565 1309.02 58.5147C1309.05 59.5745 1309.12 60.6274 1309.26 61.6872C1309.6 64.3089 1310.03 66.9376 1310.54 69.5593C1311.06 72.181 1311.53 74.8097 1311.96 77.4314C1312.39 80.0531 1312.6 82.6817 1312.6 85.3104C1312.6 91.4324 1312.43 97.5543 1312.09 103.683C1311.74 109.812 1311.4 115.788 1311.06 121.624C1311.06 123.667 1311.36 125.194 1311.96 126.219C1312.55 127.237 1313.24 127.822 1314.01 127.969C1314.79 128.115 1315.52 127.746 1316.2 126.874C1316.88 125.996 1317.31 124.685 1317.49 122.935C1317.49 120.599 1317.57 118.486 1317.74 116.59C1317.91 114.693 1318.09 112.873 1318.26 111.123L1319.55 121.624C1320.4 125.124 1321.73 126.505 1323.53 125.779C1325.34 125.047 1326.15 122.788 1325.98 119.002L1325.97 119.009Z" fill="#12110B"/>
<path d="M1278.03 459C1298.73 459 1315.52 475.781 1315.52 496.473C1315.52 517.166 1298.73 533.96 1278.03 533.96C1257.32 533.96 1240.54 517.179 1240.54 496.473C1240.54 475.768 1257.32 459 1278.03 459ZM1278.03 463.804C1259.99 463.804 1245.36 478.434 1245.36 496.473C1245.36 514.513 1259.99 529.142 1278.03 529.142C1296.07 529.142 1310.7 514.513 1310.7 496.473C1310.7 478.434 1296.07 463.804 1278.03 463.804Z" fill="#F7CA18"/>
<path d="M292.064 497.884L327.482 519.943L292.064 542.002V497.897V497.884ZM296.517 505.841V534.044L319.105 519.943L296.517 505.841V505.841Z" fill="#32C5D2"/>
<path d="M221.376 497.884L256.794 519.943L221.376 542.002V497.897V497.884ZM225.829 505.841V534.044L248.417 519.943L225.829 505.841V505.841Z" fill="#32C5D2"/>
<path d="M150.688 497.884L186.106 519.943L150.688 542.002V497.897V497.884ZM155.141 505.841V534.044L177.729 519.943L155.141 505.841V505.841Z" fill="#32C5D2"/>
<path d="M80 497.884L115.418 519.943L80 542.002V497.897V497.884ZM84.4527 505.841V534.044L107.041 519.943L84.4527 505.841V505.841Z" fill="#32C5D2"/>
</svg>
